<svg width="18" height="18" viewBox="0 0 18 18" fill="none" xmlns="http://www.w3.org/2000/svg">
<path d="M16 9C16 12.85 12.85 16 9 16C5.15 16 2 12.85 2 9C2 5.15 5.15 2 9 2C11.625 2 13.8125 3.3125 15.125 5.5" stroke="#252C32" stroke-width="1.2" stroke-linecap="round" stroke-linejoin="round"/>
<path d="M10.75 6.55371C10.75 6.55371 9.875 5.67871 9 5.67871C8.125 5.67871 7.25 6.55371 7.25 7.42871C7.25 8.30371 8.125 9.17871 9 9.17871C9.875 9.17871 10.75 10.0537 10.75 10.9287C10.75 11.8037 9.875 12.6787 9 12.6787C8.125 12.6787 7.25 11.8037 7.25 11.8037" stroke="#252C32" stroke-width="1.2" stroke-linecap="round" stroke-linejoin="round"/>
<path d="M9 4.80371V5.67871M9 12.6787V13.5537" stroke="#252C32" stroke-width="1.2" stroke-linecap="round" stroke-linejoin="round"/>
<path d="M16 2V5.5H12.5" stroke="#252C32" stroke-width="1.2" stroke-linecap="round" stroke-linejoin="round"/>
</svg>
