<svg width="18" height="18" viewBox="0 0 18 18" fill="none" xmlns="http://www.w3.org/2000/svg">
<path d="M14 2H4C2.89543 2 2 2.89543 2 4V14C2 15.1046 2.89543 16 4 16H14C15.1046 16 16 15.1046 16 14V4C16 2.89543 15.1046 2 14 2Z" stroke="#252C32" stroke-width="1.2" stroke-linecap="round" stroke-linejoin="round"/>
<path d="M11.5 6H6.5C6.22386 6 6 6.22386 6 6.5V11.5C6 11.7761 6.22386 12 6.5 12H11.5C11.7761 12 12 11.7761 12 11.5V6.5C12 6.22386 11.7761 6 11.5 6Z" stroke="#252C32" stroke-width="1.2"/>
<path d="M8 8L10 10" stroke="#252C32" stroke-width="1.2" stroke-linecap="round" stroke-linejoin="round"/>
</svg>
