<svg width="18" height="18" viewBox="0 0 18 18" fill="none" xmlns="http://www.w3.org/2000/svg">
<path d="M14.6673 5.11133H6.88872C6.02952 5.11133 5.33301 5.80777 5.33301 6.66686V14.4445C5.33301 15.3036 6.02952 16.0001 6.88872 16.0001H14.6673C15.5265 16.0001 16.223 15.3036 16.223 14.4445V6.66686C16.223 5.80777 15.5265 5.11133 14.6673 5.11133Z" stroke="#252C32" stroke-width="1.2" stroke-linecap="round" stroke-linejoin="round"/>
<path d="M3.77837 11.3332H3.00051C2.5338 11.3332 2.22266 11.0221 2.22266 10.5554V2.77777C2.22266 2.31111 2.5338 2 3.00051 2H10.7791C11.2458 2 11.5569 2.31111 11.5569 2.77777V3.55554" stroke="#252C32" stroke-width="1.2" stroke-linecap="round" stroke-linejoin="round"/>
<path d="M8.44629 8.22168H13.1134M8.44629 10.555H13.1134M8.44629 12.8883H11.5577" stroke="#252C32" stroke-width="1.2" stroke-linecap="round" stroke-linejoin="round"/>
</svg>
