<svg width="18" height="18" viewBox="0 0 18 18" fill="none" xmlns="http://www.w3.org/2000/svg">
<path d="M14.25 1.90039H3.75C2.7835 1.90039 2 2.68389 2 3.65039V14.1504C2 15.1169 2.7835 15.9004 3.75 15.9004H14.25C15.2165 15.9004 16 15.1169 16 14.1504V3.65039C16 2.68389 15.2165 1.90039 14.25 1.90039Z" stroke="#252C32" stroke-width="1.2" stroke-linecap="round" stroke-linejoin="round"/>
<path d="M2 7.15039H16M7.25 1.90039V15.9004" stroke="#252C32" stroke-width="1.2" stroke-linecap="round" stroke-linejoin="round"/>
<path d="M11.6252 5.57559C12.2051 5.57559 12.6752 5.10548 12.6752 4.52559C12.6752 3.94569 12.2051 3.47559 11.6252 3.47559C11.0453 3.47559 10.5752 3.94569 10.5752 4.52559C10.5752 5.10548 11.0453 5.57559 11.6252 5.57559Z" fill="#252C32"/>
</svg>
