<svg width="18" height="18" viewBox="0 0 18 18" fill="none" xmlns="http://www.w3.org/2000/svg">
<path d="M13.6662 3.55566H4.3329C3.47379 3.55566 2.77734 4.2521 2.77734 5.1112V14.4444C2.77734 15.3035 3.47379 16 4.3329 16H13.6662C14.5253 16 15.2218 15.3035 15.2218 14.4444V5.1112C15.2218 4.2521 14.5253 3.55566 13.6662 3.55566Z" stroke="#252C32" stroke-width="1.2" stroke-linecap="round" stroke-linejoin="round"/>
<path d="M2.77734 6.66661H15.2218M5.88845 2V5.11108M12.1107 2V5.11108" stroke="#252C32" stroke-width="1.2" stroke-linecap="round" stroke-linejoin="round"/>
<path d="M6.66352 10.5555C7.09307 10.5555 7.4413 10.2073 7.4413 9.77777C7.4413 9.34822 7.09307 9 6.66352 9C6.23397 9 5.88574 9.34822 5.88574 9.77777C5.88574 10.2073 6.23397 10.5555 6.66352 10.5555Z" fill="#252C32"/>
<path d="M11.3354 10.5555C11.7649 10.5555 12.1132 10.2073 12.1132 9.77777C12.1132 9.34822 11.7649 9 11.3354 9C10.9058 9 10.5576 9.34822 10.5576 9.77777C10.5576 10.2073 10.9058 10.5555 11.3354 10.5555Z" fill="#252C32"/>
<path d="M9.00043 13.6669C9.42999 13.6669 9.77821 13.3186 9.77821 12.8891C9.77821 12.4595 9.42999 12.1113 9.00043 12.1113C8.57088 12.1113 8.22266 12.4595 8.22266 12.8891C8.22266 13.3186 8.57088 13.6669 9.00043 13.6669Z" fill="#252C32"/>
</svg>
