<svg width="18" height="18" viewBox="0 0 18 18" fill="none" xmlns="http://www.w3.org/2000/svg">
<path d="M7.05556 3.55566H3.16667C2.52233 3.55566 2 4.078 2 4.72233V13.2779C2 13.9222 2.52233 14.4446 3.16667 14.4446H7.05556C7.69989 14.4446 8.22222 13.9222 8.22222 13.2779V4.72233C8.22222 4.078 7.69989 3.55566 7.05556 3.55566Z" stroke="#252C32" stroke-width="1.2" stroke-linecap="round" stroke-linejoin="round"/>
<path d="M14.8329 3.55566H10.944C10.2997 3.55566 9.77734 4.078 9.77734 4.72233V13.2779C9.77734 13.9222 10.2997 14.4446 10.944 14.4446H14.8329C15.4772 14.4446 15.9996 13.9222 15.9996 13.2779V4.72233C15.9996 4.078 15.4772 3.55566 14.8329 3.55566Z" stroke="#252C32" stroke-width="1.2" stroke-linecap="round" stroke-linejoin="round"/>
<path d="M3.55566 6.66699H6.66678M3.55566 8.22255H6.66678M11.3334 6.66699H14.4446M11.3334 8.22255H14.4446" stroke="#252C32" stroke-width="1.2" stroke-linecap="round" stroke-linejoin="round"/>
</svg>
