<svg width="18" height="18" viewBox="0 0 18 18" fill="none" xmlns="http://www.w3.org/2000/svg">
<path d="M4.33203 5.88888V2H13.6654V5.88888" stroke="#252C32" stroke-width="1.2" stroke-linecap="round" stroke-linejoin="round"/>
<path d="M14.0551 5.88867H3.94401C3.29968 5.88867 2.77734 6.41101 2.77734 7.05534V10.9442C2.77734 11.5886 3.29968 12.1109 3.94401 12.1109H14.0551C14.6995 12.1109 15.2218 11.5886 15.2218 10.9442V7.05534C15.2218 6.41101 14.6995 5.88867 14.0551 5.88867Z" stroke="#252C32" stroke-width="1.2" stroke-linecap="round" stroke-linejoin="round"/>
<path d="M12.8876 12.1113H5.10981C4.68025 12.1113 4.33203 12.4596 4.33203 12.8891V15.2224C4.33203 15.652 4.68025 16.0002 5.10981 16.0002H12.8876C13.3171 16.0002 13.6654 15.652 13.6654 15.2224V12.8891C13.6654 12.4596 13.3171 12.1113 12.8876 12.1113Z" stroke="#252C32" stroke-width="1.2" stroke-linecap="round" stroke-linejoin="round"/>
<path d="M5.8877 13.667V15.2225M7.44325 13.667V15.2225M9.77658 13.667V15.2225M11.3321 13.667V15.2225" stroke="#252C32" stroke-width="1.2" stroke-linecap="round" stroke-linejoin="round"/>
</svg>
