<svg width="18" height="18" viewBox="0 0 18 18" fill="none" xmlns="http://www.w3.org/2000/svg">
<path d="M4.77832 5.88889V2H14.1117V5.88889" stroke="#252C32" stroke-width="1.2" stroke-linecap="round" stroke-linejoin="round"/>
<path d="M14.5004 5.88867H4.38932C3.74499 5.88867 3.22266 6.41101 3.22266 7.05534V10.9442C3.22266 11.5886 3.74499 12.1109 4.38932 12.1109H14.5004C15.1448 12.1109 15.6671 11.5886 15.6671 10.9442V7.05534C15.6671 6.41101 15.1448 5.88867 14.5004 5.88867Z" stroke="#252C32" stroke-width="1.2" stroke-linecap="round" stroke-linejoin="round"/>
<path d="M4.77832 12.1113H14.1117V16.0002H4.77832V12.1113Z" stroke="#252C32" stroke-width="1.2" stroke-linecap="round" stroke-linejoin="round"/>
<path d="M10.6119 2.77734H8.27854C8.06376 2.77734 7.88965 2.95146 7.88965 3.16623V4.72179C7.88965 4.93657 8.06376 5.11068 8.27854 5.11068H10.6119C10.8266 5.11068 11.0008 4.93657 11.0008 4.72179V3.16623C11.0008 2.95146 10.8266 2.77734 10.6119 2.77734Z" stroke="#252C32" stroke-width="1.2"/>
</svg>
