<svg width="18" height="18" viewBox="0 0 18 18" fill="none" xmlns="http://www.w3.org/2000/svg">
<path d="M2 6.11133H10.5556V13.1113H2V6.11133Z" stroke="#252C32" stroke-width="1.2" stroke-linecap="round" stroke-linejoin="round"/>
<path d="M10.5557 8.44434H13.6668L16.0001 10.7777V13.111H10.5557V8.44434Z" stroke="#252C32" stroke-width="1.2" stroke-linecap="round" stroke-linejoin="round"/>
<path d="M4.72255 14.6668C5.58166 14.6668 6.2781 13.9703 6.2781 13.1112C6.2781 12.2521 5.58166 11.5557 4.72255 11.5557C3.86344 11.5557 3.16699 12.2521 3.16699 13.1112C3.16699 13.9703 3.86344 14.6668 4.72255 14.6668Z" stroke="#252C32" stroke-width="1.2"/>
<path d="M12.8886 14.6668C13.7477 14.6668 14.4441 13.9703 14.4441 13.1112C14.4441 12.2521 13.7477 11.5557 12.8886 11.5557C12.0295 11.5557 11.333 12.2521 11.333 13.1112C11.333 13.9703 12.0295 14.6668 12.8886 14.6668Z" stroke="#252C32" stroke-width="1.2"/>
<path d="M5.11133 3H9.00022" stroke="#252C32" stroke-width="1.2" stroke-linecap="round" stroke-linejoin="round"/>
</svg>
