<svg width="18" height="18" viewBox="0 0 18 18" fill="none" xmlns="http://www.w3.org/2000/svg">
<path d="M13.6662 3.55566H4.3329C3.47379 3.55566 2.77734 4.25211 2.77734 5.11121V14.4445C2.77734 15.3036 3.47379 16 4.3329 16H13.6662C14.5253 16 15.2218 15.3036 15.2218 14.4445V5.11121C15.2218 4.25211 14.5253 3.55566 13.6662 3.55566Z" stroke="#252C32" stroke-width="1.2" stroke-linecap="round" stroke-linejoin="round"/>
<path d="M2.77734 6.66664H15.2218M5.88845 2V5.11109M12.1107 2V5.11109" stroke="#252C32" stroke-width="1.2" stroke-linecap="round" stroke-linejoin="round"/>
<path d="M8.9987 12.5003C9.64303 12.5003 10.1654 11.978 10.1654 11.3337C10.1654 10.6893 9.64303 10.167 8.9987 10.167C8.35437 10.167 7.83203 10.6893 7.83203 11.3337C7.83203 11.978 8.35437 12.5003 8.9987 12.5003Z" fill="#252C32"/>
</svg>
