<svg width="18" height="18" viewBox="0 0 18 18" fill="none" xmlns="http://www.w3.org/2000/svg">
<path d="M13.8889 5.88867H4.55556C3.69645 5.88867 3 6.58512 3 7.44423V14.4442C3 15.3033 3.69645 15.9998 4.55556 15.9998H13.8889C14.748 15.9998 15.4444 15.3033 15.4444 14.4442V7.44423C15.4444 6.58512 14.748 5.88867 13.8889 5.88867Z" stroke="#252C32" stroke-width="1.2" stroke-linecap="round" stroke-linejoin="round"/>
<path d="M3 9.77756H15.4444M9.22222 5.88867V15.9998" stroke="#252C32" stroke-width="1.2" stroke-linecap="round" stroke-linejoin="round"/>
<path d="M9.22255 5.11111C10.0817 5.11111 10.7781 4.41467 10.7781 3.55556C10.7781 2.69645 10.0817 2 9.22255 2C8.36344 2 7.66699 2.69645 7.66699 3.55556C7.66699 4.41467 8.36344 5.11111 9.22255 5.11111Z" stroke="#252C32" stroke-width="1.2"/>
</svg>
