<svg width="18" height="18" viewBox="0 0 18 18" fill="none" xmlns="http://www.w3.org/2000/svg">
<path d="M14.6875 3.75H3.3125C2.58763 3.75 2 4.33763 2 5.0625V12.9375C2 13.6624 2.58763 14.25 3.3125 14.25H14.6875C15.4124 14.25 16 13.6624 16 12.9375V5.0625C16 4.33763 15.4124 3.75 14.6875 3.75Z" stroke="#252C32" stroke-width="1.2" stroke-linecap="round" stroke-linejoin="round"/>
<path d="M2 8.125H16M2 10.75H16" stroke="#252C32" stroke-width="1.2" stroke-linecap="round" stroke-linejoin="round"/>
<path d="M7.6875 5.5H5.0625C4.82088 5.5 4.625 5.69588 4.625 5.9375V6.8125C4.625 7.05412 4.82088 7.25 5.0625 7.25H7.6875C7.92912 7.25 8.125 7.05412 8.125 6.8125V5.9375C8.125 5.69588 7.92912 5.5 7.6875 5.5Z" stroke="#252C32" stroke-width="1.2"/>
<path d="M12.9375 5.5H10.3125C10.0709 5.5 9.875 5.69588 9.875 5.9375V6.8125C9.875 7.05412 10.0709 7.25 10.3125 7.25H12.9375C13.1791 7.25 13.375 7.05412 13.375 6.8125V5.9375C13.375 5.69588 13.1791 5.5 12.9375 5.5Z" stroke="#252C32" stroke-width="1.2"/>
</svg>
