<svg width="18" height="18" viewBox="0 0 18 18" fill="none" xmlns="http://www.w3.org/2000/svg">
<path d="M4.33203 5.79806V1.90918H13.6654V5.79806" stroke="#252C32" stroke-width="1.2" stroke-linecap="round" stroke-linejoin="round"/>
<path d="M14.0551 5.79785H3.94401C3.29968 5.79785 2.77734 6.32019 2.77734 6.96452V10.8534C2.77734 11.4977 3.29968 12.0201 3.94401 12.0201H14.0551C14.6995 12.0201 15.2218 11.4977 15.2218 10.8534V6.96452C15.2218 6.32019 14.6995 5.79785 14.0551 5.79785Z" stroke="#252C32" stroke-width="1.2" stroke-linecap="round" stroke-linejoin="round"/>
<path d="M4.77734 12.2012H14.1107V16.0901H4.77734V12.2012Z" stroke="#252C32" stroke-width="1.2" stroke-linecap="round" stroke-linejoin="round"/>
<path d="M5.10953 8.75323C5.45317 8.75323 5.73175 8.47465 5.73175 8.13101C5.73175 7.78737 5.45317 7.50879 5.10953 7.50879C4.76588 7.50879 4.4873 7.78737 4.4873 8.13101C4.4873 8.47465 4.76588 8.75323 5.10953 8.75323Z" fill="#252C32"/>
</svg>
