<svg width="18" height="18" viewBox="0 0 18 18" fill="none" xmlns="http://www.w3.org/2000/svg">
<path d="M9.00011 7.83322C10.074 7.83322 10.9446 6.96267 10.9446 5.88878C10.9446 4.81489 10.074 3.94434 9.00011 3.94434C7.92622 3.94434 7.05566 4.81489 7.05566 5.88878C7.05566 6.96267 7.92622 7.83322 9.00011 7.83322Z" stroke="#252C32" stroke-width="1.2" stroke-linecap="round" stroke-linejoin="round"/>
<path d="M9.00022 8.22266C9.00022 8.22266 12.8891 10.556 12.8891 12.8893C12.8891 14.4449 11.3336 16.0004 9.00022 16.0004C6.66688 16.0004 5.11133 14.4449 5.11133 12.8893C5.11133 10.556 9.00022 8.22266 9.00022 8.22266Z" stroke="#252C32" stroke-width="1.2" stroke-linecap="round" stroke-linejoin="round"/>
<path d="M10.1666 2H7.83322C7.61845 2 7.44434 2.17411 7.44434 2.38889V3.16667C7.44434 3.38144 7.61845 3.55556 7.83322 3.55556H10.1666C10.3813 3.55556 10.5554 3.38144 10.5554 3.16667V2.38889C10.5554 2.17411 10.3813 2 10.1666 2Z" stroke="#252C32" stroke-width="1.2"/>
</svg>
