<svg width="18" height="18" viewBox="0 0 18 18" fill="none" xmlns="http://www.w3.org/2000/svg">
<path d="M11.2804 6.77539H3.11364C2.4986 6.77539 2 7.27397 2 7.889V13.0859C2 13.7009 2.4986 14.1995 3.11364 14.1995H11.2804C11.8954 14.1995 12.394 13.7009 12.394 13.0859V7.889C12.394 7.27397 11.8954 6.77539 11.2804 6.77539Z" stroke="#252C32" stroke-width="1.2" stroke-linecap="round" stroke-linejoin="round"/>
<path d="M2 9.74512H12.394M2 11.9723H12.394" stroke="#252C32" stroke-width="1.2" stroke-linecap="round" stroke-linejoin="round"/>
<path d="M13.7732 7.75426C15.0033 7.75426 16.0005 6.7571 16.0005 5.52703C16.0005 4.29697 15.0033 3.2998 13.7732 3.2998C12.5431 3.2998 11.5459 4.29697 11.5459 5.52703C11.5459 6.7571 12.5431 7.75426 13.7732 7.75426Z" stroke="#252C32"/>
<path d="M13.167 4.56934V6.05415H14.6519" stroke="#252C32" stroke-width="0.8" stroke-linecap="round" stroke-linejoin="round"/>
</svg>
