<svg width="18" height="18" viewBox="0 0 18 18" fill="none" xmlns="http://www.w3.org/2000/svg">
<path d="M2 6.33301H10.5561V13.3331H2V6.33301Z" stroke="#252C32" stroke-width="1.2" stroke-linecap="round" stroke-linejoin="round"/>
<path d="M10.5557 8.66699H13.667L16.0005 11.0003V13.3337H10.5557V8.66699Z" stroke="#252C32" stroke-width="1.2" stroke-linecap="round" stroke-linejoin="round"/>
<path d="M4.7207 14.8885C5.57986 14.8885 6.27635 14.192 6.27635 13.3329C6.27635 12.4738 5.57986 11.7773 4.7207 11.7773C3.86153 11.7773 3.16504 12.4738 3.16504 13.3329C3.16504 14.192 3.86153 14.8885 4.7207 14.8885Z" stroke="#252C32" stroke-width="1.2"/>
<path d="M12.8906 14.8885C13.7498 14.8885 14.4463 14.192 14.4463 13.3329C14.4463 12.4738 13.7498 11.7773 12.8906 11.7773C12.0315 11.7773 11.335 12.4738 11.335 13.3329C11.335 14.192 12.0315 14.8885 12.8906 14.8885Z" stroke="#252C32" stroke-width="1.2"/>
<path d="M7.44531 4L9.00097 6.33336" stroke="#252C32" stroke-width="1.2" stroke-linecap="round" stroke-linejoin="round"/>
</svg>
