<svg width="18" height="18" viewBox="0 0 18 18" fill="none" xmlns="http://www.w3.org/2000/svg">
<path d="M9 16C12.866 16 16 12.866 16 9C16 5.13401 12.866 2 9 2C5.13401 2 2 5.13401 2 9C2 12.866 5.13401 16 9 16Z" stroke="#252C32" stroke-width="1.2" stroke-linecap="round" stroke-linejoin="round"/>
<path d="M10.1111 6.55512C10.1111 6.55512 9.33333 5.77734 8.55556 5.77734C7.77778 5.77734 7 6.55512 7 7.3329C7 8.11068 7.77778 8.88845 8.55556 8.88845C9.33333 8.88845 10.1111 9.66623 10.1111 10.444C10.1111 11.2218 9.33333 11.9996 8.55556 11.9996C7.77778 11.9996 7 11.2218 7 11.2218" stroke="#252C32" stroke-width="1.2" stroke-linecap="round" stroke-linejoin="round"/>
<path d="M8.55469 5V5.77778M8.55469 12V12.7778" stroke="#252C32" stroke-width="1.2" stroke-linecap="round" stroke-linejoin="round"/>
</svg>
