<svg width="18" height="18" viewBox="0 0 18 18" fill="none" xmlns="http://www.w3.org/2000/svg">
<path d="M8.99989 6.69118C10.3644 6.69118 11.4705 5.58506 11.4705 4.22059C11.4705 2.85612 10.3644 1.75 8.99989 1.75C7.63542 1.75 6.5293 2.85612 6.5293 4.22059C6.5293 5.58506 7.63542 6.69118 8.99989 6.69118Z" stroke="#252C32" stroke-width="1.2" stroke-linecap="round" stroke-linejoin="round"/>
<path d="M4.05859 14.1033C4.05859 10.8092 6.28212 9.16211 8.99977 9.16211C11.7174 9.16211 13.9409 10.8092 13.9409 14.1033" stroke="#252C32" stroke-width="1.2" stroke-linecap="round" stroke-linejoin="round"/>
<path d="M11.0587 14.9268H6.94106C6.71365 14.9268 6.5293 15.1111 6.5293 15.3385C6.5293 15.5659 6.71365 15.7503 6.94106 15.7503H11.0587C11.2861 15.7503 11.4705 15.5659 11.4705 15.3385C11.4705 15.1111 11.2861 14.9268 11.0587 14.9268Z" stroke="#252C32" stroke-width="1.2"/>
</svg>
