<svg width="18" height="18" viewBox="0 0 18 18" fill="none" xmlns="http://www.w3.org/2000/svg">
<path d="M7.76451 13.5295C10.9482 13.5295 13.529 10.9486 13.529 7.76476C13.529 4.58097 10.9482 2 7.76451 2C4.58086 2 2 4.58097 2 7.76476C2 10.9486 4.58086 13.5295 7.76451 13.5295Z" stroke="#252C32" stroke-width="1.2" stroke-linecap="round" stroke-linejoin="round"/>
<path d="M12.2939 12.2939L15.9997 15.9999" stroke="#252C32" stroke-width="1.2" stroke-linecap="round" stroke-linejoin="round"/>
<path d="M9.8232 5.29395H5.7057C5.47829 5.29395 5.29395 5.4783 5.29395 5.70571V9.8234C5.29395 10.0508 5.47829 10.2352 5.7057 10.2352H9.8232C10.0506 10.2352 10.235 10.0508 10.235 9.8234V5.70571C10.235 5.4783 10.0506 5.29395 9.8232 5.29395Z" stroke="#252C32" stroke-width="1.2" stroke-linecap="round" stroke-linejoin="round"/>
</svg>
