<svg width="18" height="18" viewBox="0 0 18 18" fill="none" xmlns="http://www.w3.org/2000/svg">
<path d="M14.0561 2H3.94499C3.30065 2 2.77832 2.52233 2.77832 3.16667V7.83333C2.77832 8.47767 3.30065 9 3.94499 9H14.0561C14.7004 9 15.2228 8.47767 15.2228 7.83333V3.16667C15.2228 2.52233 14.7004 2 14.0561 2Z" stroke="#252C32" stroke-width="1.2" stroke-linecap="round" stroke-linejoin="round"/>
<path d="M7.0561 10.5557H3.94499C3.30065 10.5557 2.77832 11.078 2.77832 11.7223V14.8334C2.77832 15.4778 3.30065 16.0001 3.94499 16.0001H7.0561C7.70043 16.0001 8.22276 15.4778 8.22276 14.8334V11.7223C8.22276 11.078 7.70043 10.5557 7.0561 10.5557Z" stroke="#252C32" stroke-width="1.2" stroke-linecap="round" stroke-linejoin="round"/>
<path d="M14.0561 10.5557H10.945C10.3007 10.5557 9.77832 11.078 9.77832 11.7223V14.8334C9.77832 15.4778 10.3007 16.0001 10.945 16.0001H14.0561C14.7004 16.0001 15.2228 15.4778 15.2228 14.8334V11.7223C15.2228 11.078 14.7004 10.5557 14.0561 10.5557Z" stroke="#252C32" stroke-width="1.2" stroke-linecap="round" stroke-linejoin="round"/>
</svg>
