<svg width="18" height="18" viewBox="0 0 18 18" fill="none" xmlns="http://www.w3.org/2000/svg">
<path d="M13.6662 2H4.3329C3.47379 2 2.77734 2.69645 2.77734 3.55556V14.4444C2.77734 15.3036 3.47379 16 4.3329 16H13.6662C14.5253 16 15.2218 15.3036 15.2218 14.4444V3.55556C15.2218 2.69645 14.5253 2 13.6662 2Z" stroke="#252C32" stroke-width="1.2" stroke-linecap="round" stroke-linejoin="round"/>
<path d="M5.88867 5.88867H12.1109M5.88867 8.99978H12.1109M5.88867 12.1109H8.99978" stroke="#252C32" stroke-width="1.2" stroke-linecap="round" stroke-linejoin="round"/>
<path d="M12.8894 14.6001C13.4049 14.6001 13.8227 14.1822 13.8227 13.6667C13.8227 13.1513 13.4049 12.7334 12.8894 12.7334C12.3739 12.7334 11.9561 13.1513 11.9561 13.6667C11.9561 14.1822 12.3739 14.6001 12.8894 14.6001Z" fill="#252C32"/>
</svg>
