<svg width="18" height="18" viewBox="0 0 18 18" fill="none" xmlns="http://www.w3.org/2000/svg">
<path d="M12.888 2H5.11024C4.25113 2 3.55469 2.69645 3.55469 3.55556V14.4444C3.55469 15.3036 4.25113 16 5.11024 16H12.888C13.7471 16 14.4436 15.3036 14.4436 14.4444V3.55556C14.4436 2.69645 13.7471 2 12.888 2Z" stroke="#252C32" stroke-width="1.2" stroke-linecap="round" stroke-linejoin="round"/>
<path d="M11.721 4.33398H6.27658C6.06181 4.33398 5.8877 4.5081 5.8877 4.72287V7.05621C5.8877 7.27098 6.06181 7.4451 6.27658 7.4451H11.721C11.9358 7.4451 12.1099 7.27098 12.1099 7.05621V4.72287C12.1099 4.5081 11.9358 4.33398 11.721 4.33398Z" stroke="#252C32" stroke-width="1.2"/>
<path d="M5.8877 9.77734H8.22103M9.77658 9.77734H12.1099M7.44325 12.1107L8.99881 13.6662L11.3321 11.3329" stroke="#252C32" stroke-width="1.2" stroke-linecap="round" stroke-linejoin="round"/>
</svg>
