<svg width="18" height="18" viewBox="0 0 18 18" fill="none" xmlns="http://www.w3.org/2000/svg">
<path d="M4.33301 5.88889V2H13.6663V5.88889" stroke="#252C32" stroke-width="1.2" stroke-linecap="round" stroke-linejoin="round"/>
<path d="M14.0551 5.88867H3.94401C3.29968 5.88867 2.77734 6.41101 2.77734 7.05534V10.9442C2.77734 11.5886 3.29968 12.1109 3.94401 12.1109H14.0551C14.6995 12.1109 15.2218 11.5886 15.2218 10.9442V7.05534C15.2218 6.41101 14.6995 5.88867 14.0551 5.88867Z" stroke="#252C32" stroke-width="1.2" stroke-linecap="round" stroke-linejoin="round"/>
<path d="M12.8886 12.1113H5.11079C4.68123 12.1113 4.33301 12.4596 4.33301 12.8891V15.2224C4.33301 15.652 4.68123 16.0002 5.11079 16.0002H12.8886C13.3181 16.0002 13.6663 15.652 13.6663 15.2224V12.8891C13.6663 12.4596 13.3181 12.1113 12.8886 12.1113Z" stroke="#252C32" stroke-width="1.2" stroke-linecap="round" stroke-linejoin="round"/>
<path d="M10.9438 13.667H7.0549C6.84013 13.667 6.66602 13.8411 6.66602 14.0559C6.66602 14.2707 6.84013 14.4448 7.0549 14.4448H10.9438C11.1586 14.4448 11.3327 14.2707 11.3327 14.0559C11.3327 13.8411 11.1586 13.667 10.9438 13.667Z" fill="#252C32"/>
</svg>
