<svg width="18" height="18" viewBox="0 0 18 18" fill="none" xmlns="http://www.w3.org/2000/svg">
<path d="M2.22266 7.05469H10.7782V14.0547H2.22266V7.05469Z" stroke="#252C32" stroke-width="1.2" stroke-linecap="round" stroke-linejoin="round"/>
<path d="M10.7783 9.38867H13.8894L16.2228 11.722V14.0553H10.7783V9.38867Z" stroke="#252C32" stroke-width="1.2" stroke-linecap="round" stroke-linejoin="round"/>
<path d="M4.9452 15.6111C5.80431 15.6111 6.50076 14.9147 6.50076 14.0556C6.50076 13.1964 5.80431 12.5 4.9452 12.5C4.08609 12.5 3.38965 13.1964 3.38965 14.0556C3.38965 14.9147 4.08609 15.6111 4.9452 15.6111Z" stroke="#252C32" stroke-width="1.2"/>
<path d="M13.1112 15.6111C13.9703 15.6111 14.6668 14.9147 14.6668 14.0556C14.6668 13.1964 13.9703 12.5 13.1112 12.5C12.2521 12.5 11.5557 13.1964 11.5557 14.0556C11.5557 14.9147 12.2521 15.6111 13.1112 15.6111Z" stroke="#252C32" stroke-width="1.2"/>
<path d="M5.33398 3.94423L6.88954 5.49978L10.0007 2.38867" stroke="#252C32" stroke-width="1.2" stroke-linecap="round" stroke-linejoin="round"/>
</svg>
