<svg width="18" height="18" viewBox="0 0 18 18" fill="none" xmlns="http://www.w3.org/2000/svg">
<path d="M14.8333 6.27734H3.16667C2.52233 6.27734 2 6.79969 2 7.44404V12.8886C2 13.533 2.52233 14.0553 3.16667 14.0553H14.8333C15.4777 14.0553 16 13.533 16 12.8886V7.44404C16 6.79969 15.4777 6.27734 14.8333 6.27734Z" stroke="#252C32" stroke-width="1.2" stroke-linecap="round" stroke-linejoin="round"/>
<path d="M4.33496 9.38867V10.9443M5.89052 9.38867V10.9443M8.22385 9.38867V10.9443M9.7794 9.38867V10.9443M12.1127 9.38867V10.9443M13.6683 9.38867V10.9443" stroke="#252C32" stroke-width="1.2" stroke-linecap="round" stroke-linejoin="round"/>
<path d="M12.4992 3.94434H5.49924C5.28446 3.94434 5.11035 4.11845 5.11035 4.33323V5.11103C5.11035 5.32582 5.28446 5.49993 5.49924 5.49993H12.4992C12.714 5.49993 12.8881 5.32582 12.8881 5.11103V4.33323C12.8881 4.11845 12.714 3.94434 12.4992 3.94434Z" stroke="#252C32" stroke-width="1.2"/>
</svg>
