<svg width="60" height="60" viewBox="0 0 60 60" fill="none" xmlns="http://www.w3.org/2000/svg">
<rect width="60" height="60" rx="10" fill="#F0FBFF"/>
<path d="M34.7028 41.2034C34.4175 41.3375 34.1 41.4112 33.7656 41.4112H18.2261C16.9979 41.4112 16.0002 40.4155 16.0002 39.1854C16.0002 36.6383 17.0338 34.3331 18.7023 32.6627C20.3707 30.9924 22.6778 29.9607 25.2249 29.9607H26.7668C27.6964 29.9607 28.5958 30.0986 29.4423 30.3537L29.4348 30.3669C29.1703 30.8261 29.1003 31.3608 29.2364 31.8729C29.3743 32.385 29.7031 32.8139 30.1623 33.0784L30.3739 33.2012C30.3493 33.4469 30.3361 33.6944 30.3361 33.9419C30.3361 34.1895 30.3493 34.437 30.3739 34.6826L30.1623 34.8054C29.7031 35.07 29.3743 35.4989 29.2364 36.011C29.1003 36.523 29.1703 37.0578 29.4348 37.5169L30.4721 39.312C30.8255 39.9242 31.4849 40.3059 32.1916 40.3059C32.5393 40.3059 32.8813 40.2133 33.1836 40.0394L33.3952 39.9166C33.7977 40.2057 34.2285 40.4551 34.6801 40.6573V40.9029C34.6801 41.005 34.6877 41.1051 34.7028 41.2034Z" fill="#00A9DF"/>
<path d="M25.9961 27.9956C28.7563 27.9956 30.9939 25.758 30.9939 22.9978C30.9939 20.2376 28.7563 18 25.9961 18C23.2359 18 20.9983 20.2376 20.9983 22.9978C20.9983 25.758 23.2359 27.9956 25.9961 27.9956Z" fill="#00A9DF"/>
<path d="M44.4851 36.1149L43.3533 35.4611C43.4837 34.9755 43.5536 34.4672 43.5536 33.9419C43.5536 33.4167 43.4837 32.9065 43.3533 32.4228L44.4851 31.769C44.7119 31.6386 44.7894 31.3495 44.659 31.1228L43.6216 29.3277C43.4912 29.101 43.2021 29.0235 42.9754 29.1539L41.8436 29.8077C41.1256 29.0896 40.2224 28.5568 39.2115 28.2866V26.9809C39.2115 26.7202 38.9998 26.5085 38.7391 26.5085H36.6663C36.4055 26.5085 36.1939 26.7202 36.1939 26.9809V28.2866C35.183 28.5549 34.2798 29.0878 33.5618 29.8077L32.4299 29.1539C32.2032 29.0235 31.9141 29.101 31.7837 29.3277L30.7464 31.1228C30.616 31.3495 30.6935 31.6386 30.9202 31.769L32.052 32.4228C31.9217 32.9084 31.8518 33.4167 31.8518 33.9419C31.8518 34.4672 31.9217 34.9774 32.052 35.4611L30.9202 36.1149C30.6935 36.2453 30.616 36.5344 30.7464 36.7611L31.7837 38.5562C31.9141 38.7829 32.2032 38.8604 32.4299 38.73L33.5618 38.0762C34.2798 38.7943 35.183 39.3271 36.1939 39.5973V40.903C36.1939 41.1637 36.4055 41.3753 36.6663 41.3753H38.7391C38.9998 41.3753 39.2115 41.1637 39.2115 40.903V39.5973C40.2224 39.329 41.1256 38.7961 41.8436 38.0762L42.9754 38.73C43.2021 38.8604 43.4912 38.7829 43.6216 38.5562L44.659 36.7611C44.7894 36.5344 44.7119 36.2453 44.4851 36.1149ZM37.7017 36.3284C36.3828 36.3284 35.3153 35.2589 35.3153 33.9419C35.3153 32.6231 36.3847 31.5555 37.7017 31.5555C39.0187 31.5555 40.0882 32.6249 40.0882 33.9419C40.0882 35.2589 39.0206 36.3284 37.7017 36.3284Z" fill="#00A9DF"/>
</svg>
