<svg width="60" height="60" viewBox="0 0 60 60" fill="none" xmlns="http://www.w3.org/2000/svg">
<rect width="60" height="60" rx="10" fill="#F0FBFF"/>
<g clip-path="url(#clip0_64_1063)">
<path fill-rule="evenodd" clip-rule="evenodd" d="M39.7279 28.8426C41.4261 30.7245 42.6922 32.3572 43.526 33.8211C46.5794 39.1825 42.2356 44.6279 36.4182 44.5298C30.6009 44.6279 26.2571 39.1825 29.3105 33.8211C30.1443 32.3572 31.4104 30.7245 33.1086 28.8426C33.3112 28.9068 33.5269 28.9416 33.7503 28.9416H39.0861C39.3096 28.9416 39.5252 28.9068 39.7279 28.8426ZM18.1328 15.4688C16.6675 15.4688 15.4688 16.6676 15.4688 18.1328V37.608C15.4688 39.0733 16.6675 40.2721 18.1328 40.2721H27.943C26.9842 37.981 27.2743 35.5022 28.496 33.3571C28.7455 32.919 29.0193 32.4847 29.3111 32.0557C29.1423 31.9465 29.0302 31.7565 29.0302 31.5412V30.745C29.0302 30.4077 29.3053 30.1326 29.6426 30.1326H30.7533C31.2498 29.5223 31.7664 28.9283 32.2833 28.3549C32.1307 28.2101 31.9995 28.043 31.8947 27.859H29.6426C29.3053 27.859 29.0302 27.5839 29.0302 27.2466V26.4503C29.0302 26.113 29.3053 25.8379 29.6426 25.8379H31.851C32.0413 25.4673 32.337 25.1591 32.6981 24.9532L32.0616 24.3168C31.6743 23.9295 31.4648 23.4299 31.4331 22.9212H19.0208C18.6834 22.9212 18.4083 22.6461 18.4083 22.3088V19.905C18.4083 19.5677 18.6834 19.2926 19.0208 19.2926H32.4942C32.8315 19.2926 33.1066 19.5677 33.1066 19.905V20.6757C33.5388 20.5765 33.9985 20.6095 34.4186 20.7819C34.7027 20.1019 35.3188 19.6079 36.0463 19.4805V18.1328C36.0463 16.6676 34.8475 15.4688 33.3823 15.4688H18.1328ZM33.7504 28.0041C33.0925 28.0041 32.5544 27.4659 32.5544 26.808C32.5544 26.1503 33.0926 25.6121 33.7504 25.6121H39.0861C39.744 25.6121 40.2821 26.1503 40.2821 26.8081C40.2821 27.4658 39.744 28.0041 39.0861 28.0041H33.7504ZM19.5834 25.8379H21.8724C22.2097 25.8379 22.4848 26.113 22.4848 26.4503V27.2465C22.4848 27.5838 22.2097 27.8589 21.8724 27.8589H19.5834C19.2461 27.8589 18.971 27.5838 18.971 27.2465V26.4503C18.971 26.113 19.2461 25.8379 19.5834 25.8379ZM24.613 34.4272C24.2757 34.4272 24.0006 34.7023 24.0006 35.0396V35.8358C24.0006 36.1731 24.2757 36.4482 24.613 36.4482H26.902C27.2393 36.4482 27.5144 36.1731 27.5144 35.8358V35.0396C27.5144 34.7023 27.2393 34.4272 26.902 34.4272H24.613ZM19.5834 34.4272H21.8724C22.2097 34.4272 22.4848 34.7023 22.4848 35.0396V35.8358C22.4848 36.1731 22.2097 36.4482 21.8724 36.4482H19.5834C19.2461 36.4482 18.971 36.1731 18.971 35.8358V35.0396C18.971 34.7023 19.2461 34.4272 19.5834 34.4272ZM24.613 30.1325C24.2757 30.1325 24.0006 30.4076 24.0006 30.745V31.5411C24.0006 31.8785 24.2757 32.1536 24.613 32.1536H26.902C27.2393 32.1536 27.5144 31.8785 27.5144 31.5411V30.745C27.5144 30.4076 27.2393 30.1325 26.902 30.1325H24.613ZM19.5834 30.1325H21.8724C22.2097 30.1325 22.4848 30.4076 22.4848 30.745V31.5411C22.4848 31.8785 22.2097 32.1536 21.8724 32.1536H19.5834C19.2461 32.1536 18.971 31.8785 18.971 31.5411V30.745C18.971 30.4077 19.2461 30.1325 19.5834 30.1325ZM24.613 25.8379H26.902C27.2393 25.8379 27.5144 26.113 27.5144 26.4503V27.2465C27.5144 27.5838 27.2393 27.8589 26.902 27.8589H24.613C24.2757 27.8589 24.0006 27.5838 24.0006 27.2465V26.4503C24.0006 26.113 24.2757 25.8379 24.613 25.8379ZM36.3569 38.9054C35.9975 38.8961 35.6486 38.7987 35.3704 38.6135C35.1187 38.4458 34.9264 38.2006 34.8461 37.8785C34.7745 37.5877 34.4808 37.4099 34.19 37.4814C33.8992 37.553 33.7214 37.8467 33.7929 38.1375C33.9446 38.746 34.3034 39.2061 34.7717 39.518C35.0916 39.731 35.463 39.8718 35.852 39.9404V40.3624C35.852 40.6625 36.0954 40.9059 36.3956 40.9059C36.6958 40.9059 36.9391 40.6626 36.9391 40.3624V39.9508C37.4119 39.8787 37.8935 39.7062 38.2717 39.4193C38.7261 39.0745 39.0284 38.5807 39.0127 37.9181C39.0108 37.8422 39.0065 37.7754 38.9996 37.7184C38.9115 36.9923 38.5187 36.5197 37.9978 36.2053C37.5403 35.929 36.9916 35.7914 36.4886 35.7088C36.1257 35.6493 35.7436 35.5485 35.4637 35.3658C35.2469 35.2242 35.0914 35.0193 35.0768 34.7196C35.061 34.3954 35.2026 34.1337 35.4257 33.9524C35.6004 33.8104 35.8233 33.7116 36.0649 33.663C36.1621 33.6434 36.2622 33.6321 36.3632 33.6295C36.3739 33.6301 36.3847 33.6305 36.3956 33.6305C36.4086 33.6305 36.4216 33.63 36.4345 33.6291C36.5681 33.631 36.7027 33.6482 36.8341 33.6814C37.2381 33.7839 37.606 34.0502 37.7998 34.5116C37.9158 34.7883 38.2344 34.9185 38.511 34.8025C38.7878 34.6864 38.918 34.3679 38.8019 34.0912C38.4608 33.2787 37.8113 32.8093 37.0973 32.6283C37.045 32.615 36.9922 32.6034 36.9391 32.5934V32.1722C36.9391 31.872 36.6958 31.6286 36.3956 31.6286C36.0954 31.6286 35.852 31.872 35.852 32.1722V32.6015C35.4402 32.6845 35.0535 32.8584 34.742 33.1116C34.2633 33.5009 33.9597 34.066 33.9939 34.7706C34.0283 35.4786 34.3816 35.9535 34.8735 36.2746C35.3023 36.5545 35.8288 36.6994 36.3145 36.7791C36.7045 36.8431 37.1209 36.9443 37.4372 37.1353C37.6903 37.2881 37.8804 37.5114 37.921 37.8459C37.9264 37.8905 37.9293 37.9229 37.9298 37.9436C37.9361 38.2096 37.8088 38.4123 37.6177 38.5573C37.3785 38.7388 37.0425 38.8459 36.7065 38.8867C36.6151 38.8978 36.5351 38.9041 36.4674 38.9057L36.4415 38.9061C36.4263 38.9048 36.411 38.9042 36.3956 38.9042C36.3826 38.904 36.3697 38.9046 36.3569 38.9054ZM33.7453 24.6746L32.7245 23.6539C32.2465 23.1759 32.2465 22.3937 32.7245 21.9158C33.1311 21.5092 33.7747 21.4405 34.2584 21.751C34.4381 21.8663 34.6445 21.8847 34.8417 21.8031C35.0388 21.7214 35.1717 21.5626 35.2172 21.3539C35.3377 20.8022 35.8317 20.3858 36.4182 20.3856C36.9942 20.3856 37.4965 20.7916 37.6193 21.3539C37.6648 21.5626 37.7977 21.7214 37.9949 21.8031C38.1922 21.8848 38.3985 21.8663 38.5781 21.751C39.0533 21.446 39.6972 21.501 40.1119 21.9156V21.9158C40.5899 22.3938 40.5899 23.1759 40.1119 23.6539L39.0912 24.6746L39.0861 24.6746H33.7503L33.7453 24.6746Z" fill="#00A9DF"/>
</g>
<defs>
<clipPath id="clip0_64_1063">
<rect width="30" height="30" fill="white" transform="translate(15 15)"/>
</clipPath>
</defs>
</svg>
