<svg width="14" height="16" viewBox="0 0 14 16" fill="none" xmlns="http://www.w3.org/2000/svg">
<path d="M13.2523 2.53333C13.239 2.504 13.2203 2.47733 13.199 2.45333L10.7483 0.0746667C10.7243 0.0533333 10.6976 0.0373333 10.671 0.024C10.663 0.0213333 10.6523 0.0186667 10.6443 0.016C10.623 0.00799999 10.6016 0.00533333 10.5776 0.00266666C10.5723 0.00266666 10.567 0 10.5616 0H0.921635C0.774968 0 0.654968 0.12 0.654968 0.266667V15.7333C0.654968 15.88 0.774968 16 0.921635 16H13.0123C13.159 16 13.279 15.88 13.279 15.7333V2.64533C13.279 2.64 13.2763 2.63467 13.2763 2.62933C13.2736 2.60533 13.2683 2.58133 13.2603 2.55733C13.2576 2.54933 13.255 2.54133 13.2523 2.53333ZM12.7456 15.4667H1.1883V0.533333H10.295V2.64533C10.295 2.792 10.415 2.912 10.5616 2.912H12.7456V15.4667Z" fill="#84919A"/>
<path d="M3.55571 6.48211V6.06931C4.05677 5.94878 4.43117 5.49998 4.43117 4.96238C4.43117 4.33305 3.91917 3.82105 3.28984 3.82105C2.95464 3.82105 2.68211 3.54825 2.68211 3.21305C2.68211 2.87785 2.95464 2.60505 3.28984 2.60505C3.62504 2.60505 3.89784 2.87785 3.89784 3.21305C3.89784 3.36025 4.01704 3.47971 4.16451 3.47971C4.31197 3.47971 4.43117 3.36025 4.43117 3.21305C4.43117 2.67571 4.05651 2.22691 3.55571 2.10611V1.69465C3.55571 1.54745 3.43651 1.42798 3.28904 1.42798C3.14157 1.42798 3.02237 1.54745 3.02237 1.69465V2.10665C2.52237 2.22771 2.14877 2.67625 2.14877 3.21305C2.14877 3.84238 2.66077 4.35438 3.28984 4.35438C3.62531 4.35438 3.89784 4.62718 3.89784 4.96238C3.89784 5.29758 3.62531 5.57038 3.28984 5.57038C3.28984 5.57038 3.28984 5.57038 3.28957 5.57038C3.28957 5.57038 3.28931 5.57038 3.28904 5.57038C2.95437 5.56985 2.68211 5.29731 2.68211 4.96265C2.68211 4.81545 2.56291 4.69598 2.41544 4.69598C2.26797 4.69598 2.14877 4.81545 2.14877 4.96265C2.14877 5.49945 2.52237 5.94771 3.02237 6.06905V6.48238C3.02237 6.62958 3.14157 6.74905 3.28904 6.74905C3.43651 6.74905 3.55571 6.62931 3.55571 6.48211Z" fill="#84919A"/>
<path d="M7.05225 12.2587C8.91625 12.2587 10.4629 10.744 10.5002 8.88C10.5002 8.81067 10.4736 8.74134 10.4229 8.688C10.3722 8.63734 10.3056 8.608 10.2336 8.608H7.31891V5.62934C7.31891 5.48267 7.20158 5.36267 7.05225 5.36267C5.15091 5.36267 3.60425 6.90934 3.60425 8.81067C3.60425 10.712 5.15091 12.2587 7.05225 12.2587Z" fill="#84919A"/>
<path d="M8.06824 4.42133V7.66933C8.06824 7.816 8.18824 7.936 8.3349 7.936H11.5162C11.6576 7.936 11.7749 7.82666 11.7829 7.68533V7.60266C11.7829 5.70133 10.2362 4.15466 8.3349 4.15466C8.18824 4.15466 8.06824 4.27466 8.06824 4.42133Z" fill="#84919A"/>
<path d="M7.49176 13.0872C7.3443 13.0872 7.2251 13.2064 7.2251 13.3538C7.2251 13.5013 7.3443 13.6205 7.49176 13.6205H11.6552C11.8027 13.6205 11.9219 13.5013 11.9219 13.3538C11.9219 13.2064 11.8027 13.0872 11.6552 13.0872H7.49176Z" fill="#84919A"/>
<path d="M11.6552 13.9869H3.46592C3.31845 13.9869 3.19925 14.1061 3.19925 14.2536C3.19925 14.4011 3.31845 14.5203 3.46592 14.5203H11.6552C11.8027 14.5203 11.9219 14.4011 11.9219 14.2536C11.9219 14.1061 11.8027 13.9869 11.6552 13.9869Z" fill="#84919A"/>
</svg>
