<?xml version="1.0" encoding="UTF-8"?>
<svg width="60" height="60" viewBox="0 0 60 60" xmlns="http://www.w3.org/2000/svg">

  <!-- Background -->
  <rect width="60" height="60" rx="10" fill="#F0FBFF"/>

  <g fill="#00A9DF">

    <!-- Warehouse Roof -->
    <path d="M8 22 L30 12 L52 22 V24 H8 Z"/>

    <!-- Warehouse Body -->
    <rect x="12" y="24" width="32" height="14" rx="2"/>

    <!-- Boxes Inside -->
    <rect x="18" y="28" width="6" height="6" rx="1"/>
    <rect x="26" y="28" width="6" height="6" rx="1"/>
    <rect x="34" y="28" width="6" height="6" rx="1"/>

    <!-- Inventory Chart (Right Side) -->
    <rect x="46" y="30" width="3" height="8"/>
    <rect x="50" y="26" width="3" height="12"/>
    <rect x="54" y="32" width="3" height="6"/>

    <!-- Truck -->
    <rect x="20" y="40" width="14" height="6" rx="1"/>
    <rect x="34" y="42" width="8" height="4" rx="1"/>

    <!-- Wheels -->
    <circle cx="24" cy="48" r="2"/>
    <circle cx="38" cy="48" r="2"/>

  </g>

</svg>