<svg width="60" height="60" viewBox="0 0 60 60" fill="none" xmlns="http://www.w3.org/2000/svg">
<rect width="60" height="60" rx="10" fill="#F0FBFF"/>
<path fill-rule="evenodd" clip-rule="evenodd" d="M30.3414 19.0436C28.2094 18.9726 26.0554 19.5543 24.1958 20.7956C22.1071 22.1913 20.6474 24.2523 19.9751 26.5563C19.7894 26.5336 19.5671 26.5436 19.3031 26.6183C18.3174 26.898 17.5761 27.7056 17.2428 28.417C16.8104 29.344 16.6281 30.57 16.8204 31.8356C17.0114 33.0973 17.5444 34.1373 18.2111 34.783C18.8798 35.429 19.6348 35.639 20.3848 35.4813C21.5014 35.243 22.0551 35.0646 21.8988 34.0243L21.1418 28.9813C21.2944 26.252 22.7074 23.6826 25.0708 22.1026C28.2341 19.9896 32.3814 20.125 35.3988 22.4413C37.4978 24.0506 38.7164 26.462 38.8571 28.9933L38.3278 32.521C37.1471 35.752 34.2201 37.99 30.8331 38.3076H28.5778C27.9958 38.3076 27.5271 38.7763 27.5271 39.3576V39.9116C27.5271 40.4933 27.9958 40.962 28.5778 40.962H31.4214C32.0031 40.962 32.4698 40.4933 32.4698 39.9116V39.622C35.0238 38.9986 37.2531 37.429 38.7048 35.24L39.6158 35.4816C40.3571 35.674 41.1211 35.429 41.7894 34.7833C42.4561 34.1373 42.9888 33.0976 43.1801 31.836C43.3731 30.5703 43.1854 29.3463 42.7581 28.4173C42.3291 27.4883 41.6901 26.8983 40.9524 26.6866C40.6434 26.5976 40.3081 26.565 40.0204 26.5563C39.4124 24.473 38.1608 22.5783 36.3568 21.195C34.5831 19.834 32.4734 19.1136 30.3414 19.0436Z" fill="#00A9DF"/>
<path fill-rule="evenodd" clip-rule="evenodd" d="M33.6698 28.1162C34.4215 28.1162 35.0308 28.7255 35.0325 29.4792C35.0308 30.2309 34.4215 30.8419 33.6698 30.8419C32.9161 30.8419 32.3051 30.2309 32.3051 29.4792C32.3051 28.7259 32.9165 28.1162 33.6698 28.1162ZM29.9998 28.1162C30.7531 28.1162 31.3625 28.7255 31.3625 29.4792C31.3625 30.2309 30.7531 30.8419 29.9998 30.8419C29.2458 30.8419 28.6365 30.2309 28.6365 29.4792C28.6365 28.7259 29.2458 28.1162 29.9998 28.1162ZM26.3311 28.1162C27.0828 28.1162 27.6938 28.7255 27.6938 29.4792C27.6938 30.2309 27.0828 30.8419 26.3311 30.8419C25.5778 30.8419 24.9681 30.2309 24.9681 29.4792C24.9681 28.7259 25.5778 28.1162 26.3311 28.1162ZM29.9998 22.2622C26.0031 22.2622 22.7825 25.3769 22.7825 29.4792C22.7825 31.4495 23.5275 33.1909 24.7411 34.4685L24.3105 36.3992C24.1685 37.0345 24.6091 37.4619 25.1801 37.1439L27.0655 36.0922C27.9615 36.4812 28.9525 36.6962 29.9998 36.6962C33.9978 36.6962 37.2165 33.5835 37.2165 29.4792C37.2165 25.3769 33.9978 22.2622 29.9998 22.2622Z" fill="#00A9DF"/>
</svg>
