<svg width="60" height="60" viewBox="0 0 60 60" fill="none" xmlns="http://www.w3.org/2000/svg">
<rect width="60" height="60" rx="10" fill="#F0FBFF"/>
<path d="M40.3125 37.5C39.0919 37.5 38.061 38.2861 37.6727 39.375H24.2023C23.9191 38.5808 23.2942 37.9559 22.5 37.6727V25.3125C22.5 22.728 20.397 20.625 17.8125 20.625C17.2948 20.625 16.875 21.0443 16.875 21.5625C16.875 22.0807 17.2948 22.5 17.8125 22.5C19.3634 22.5 20.625 23.7616 20.625 25.3125V37.6727C19.5361 38.061 18.75 39.0919 18.75 40.3125C18.75 41.8634 20.0116 43.125 21.5625 43.125C22.7831 43.125 23.814 42.3389 24.2023 41.25H37.6728C38.061 42.3389 39.0919 43.125 40.3125 43.125C41.8634 43.125 43.125 41.8634 43.125 40.3125C43.125 38.7616 41.8634 37.5 40.3125 37.5Z" fill="#00A9DF"/>
<path d="M30.6775 30.0784C30.835 29.9732 31.04 29.9732 31.1975 30.0784L31.875 30.5303V27.1875H30V30.5303L30.6775 30.0784Z" fill="#00A9DF"/>
<path d="M36.5625 27.1875H32.8125V31.406C32.8125 31.579 32.7173 31.7378 32.5648 31.8193C32.4957 31.8564 32.4197 31.8747 32.3438 31.8747C32.2527 31.8747 32.162 31.8482 32.0837 31.796L30.9375 31.032L29.7913 31.796C29.6475 31.8921 29.4621 31.9013 29.3102 31.8193C29.1577 31.7378 29.0625 31.579 29.0625 31.406V27.1875H25.3125C24.7947 27.1875 24.375 27.6072 24.375 28.125V37.5C24.375 38.0178 24.7947 38.4375 25.3125 38.4375H36.5625C37.0803 38.4375 37.5 38.0178 37.5 37.5V28.125C37.5 27.6072 37.0803 27.1875 36.5625 27.1875Z" fill="#00A9DF"/>
<path d="M30.6775 18.8284C30.835 18.7232 31.04 18.7232 31.1975 18.8284L31.875 19.2803V16.875H30V19.2803L30.6775 18.8284Z" fill="#00A9DF"/>
<path d="M35.625 16.875H32.8125V20.156C32.8125 20.329 32.7173 20.4878 32.5648 20.5693C32.4957 20.6064 32.4197 20.6247 32.3438 20.6247C32.2527 20.6247 32.162 20.5982 32.0837 20.546L30.9375 19.782L29.7913 20.546C29.6475 20.6421 29.4621 20.6513 29.3102 20.5693C29.1577 20.4878 29.0625 20.329 29.0625 20.156V16.875H26.25C25.7322 16.875 25.3125 17.2947 25.3125 17.8125V25.3125C25.3125 25.8303 25.7322 26.25 26.25 26.25H35.625C36.1428 26.25 36.5625 25.8303 36.5625 25.3125V17.8125C36.5625 17.2947 36.1428 16.875 35.625 16.875Z" fill="#00A9DF"/>
</svg>
