<svg width="60" height="60" viewBox="0 0 60 60" fill="none" xmlns="http://www.w3.org/2000/svg">
  
  <!-- Background -->
  <rect width="60" height="60" rx="10" fill="#F0FBFF"/>

  <!-- Signal Waves -->
  <path d="M30 14C36 14 41 19 41 25" stroke="#00A9DF" stroke-width="1.5" stroke-linecap="round" opacity="0.4"/>
  <path d="M30 11C38 11 45 18 45 25" stroke="#00A9DF" stroke-width="1.5" stroke-linecap="round" opacity="0.25"/>

  <!-- Location Pin -->
  <path fill-rule="evenodd" clip-rule="evenodd"
    d="M30 17C25.582 17 22 20.582 22 25C22 30.5 30 42 30 42C30 42 38 30.5 38 25C38 20.582 34.418 17 30 17Z"
    fill="#00A9DF"/>

  <!-- Inner Circle -->
  <circle cx="30" cy="25" r="5" fill="#F0FBFF"/>

  <!-- Box (Warehouse element) -->
  <rect x="27.5" y="22.5" width="5" height="5" rx="1" fill="#00A9DF"/>

  <!-- Box lines -->
  <path d="M27.5 25H32.5" stroke="#F0FBFF" stroke-width="1"/>
  <path d="M30 22.5V27.5" stroke="#F0FBFF" stroke-width="1"/>

</svg>