<svg width="60" height="60" viewBox="0 0 60 60" fill="none" xmlns="http://www.w3.org/2000/svg">
<rect width="60" height="60" rx="10" fill="#F0FBFF"/>
<path d="M42.2251 26.1688L39.4251 21.3313C39.1438 20.8375 38.8001 21.0312 36.9751 21.3687C36.0763 20.6415 35.068 20.0614 33.9876 19.65C33.4438 18.0813 33.4001 17.5 32.7938 17.5H27.2063C26.6251 17.5 26.5813 17.925 26.0126 19.65C24.9322 20.0614 23.9238 20.6415 23.0251 21.3687C21.2626 21.0375 20.8626 20.825 20.5751 21.3313L17.7751 26.1688C17.5001 26.6563 17.8188 26.8562 19.0251 28.275C18.8406 29.4176 18.8406 30.5824 19.0251 31.725C17.8688 33.0688 17.4751 33.325 17.7751 33.8312L20.5751 38.6687C20.8563 39.1625 21.2376 38.9688 23.0251 38.6313C23.9238 39.3585 24.9322 39.9386 26.0126 40.35L26.6376 42.0813C26.6822 42.2094 26.7673 42.3196 26.88 42.3952C26.9928 42.4707 27.1271 42.5075 27.2626 42.5H32.8501C33.4313 42.5 33.4751 42.075 34.0438 40.35C35.1242 39.9386 36.1326 39.3585 37.0313 38.6313C38.7938 38.9625 39.1938 39.175 39.4813 38.6687L42.2813 33.8312C42.5563 33.3437 42.2376 33.1438 41.0313 31.725C41.2158 30.5824 41.2158 29.4176 41.0313 28.275C42.1188 26.9312 42.5001 26.675 42.2251 26.1688ZM38.1063 30.5438C37.9973 32.1375 37.4209 33.6638 36.4492 34.9317C35.4774 36.1997 34.1534 37.153 32.6428 37.6726C31.1321 38.1922 29.5018 38.2549 27.9557 37.8529C26.4096 37.4509 25.0164 36.6021 23.9501 35.4125C21.4126 32.875 21.0001 28.0188 23.8313 24.7188C29.1751 18.7063 38.6251 22.9875 38.1251 30.5438H38.1063Z" fill="#00A9DF"/>
<path d="M32.1438 25.4875C32.0487 25.4422 31.9436 25.4217 31.8384 25.4278C31.7332 25.434 31.6313 25.4667 31.5421 25.5228C31.4529 25.5789 31.3794 25.6567 31.3283 25.7489C31.2773 25.841 31.2503 25.9446 31.25 26.05V29.6625L30 30.5L28.75 29.6625V26.05C28.7497 25.9446 28.7228 25.841 28.6717 25.7489C28.6207 25.6567 28.5471 25.5789 28.458 25.5228C28.3688 25.4667 28.2669 25.434 28.1617 25.4278C28.0565 25.4217 27.9514 25.4422 27.8563 25.4875C27.0349 25.8794 26.3361 26.488 25.8351 27.2477C25.3341 28.0074 25.05 28.8895 25.0133 29.7988C24.9767 30.7081 25.1889 31.6102 25.6271 32.4078C26.0653 33.2054 26.7129 33.8683 27.5 34.325V36.4C29.1069 37.0312 30.8931 37.0312 32.5 36.4V34.325C33.2872 33.8683 33.9348 33.2054 34.373 32.4078C34.8112 31.6102 35.0234 30.7081 34.9867 29.7988C34.9501 28.8895 34.666 28.0074 34.165 27.2477C33.664 26.488 32.9652 25.8794 32.1438 25.4875Z" fill="#00A9DF"/>
</svg>
