<svg width="60" height="60" viewBox="0 0 60 60" fill="none" xmlns="http://www.w3.org/2000/svg">
<rect width="60" height="60" rx="10" fill="#F0FBFF"/>
<path fill-rule="evenodd" clip-rule="evenodd" d="M17.8125 43.5938H42.1875C42.9642 43.5938 43.5938 42.9642 43.5938 42.1875V23.1183C43.5938 22.5558 43.2586 22.0472 42.7416 21.8255C40.222 20.7459 30.1847 16.4442 30.1847 16.4442C30.0666 16.3936 29.9334 16.3936 29.8153 16.4442C29.8153 16.4442 19.778 20.7459 17.2584 21.8255C16.7414 22.0472 16.4062 22.5558 16.4062 23.1183V42.1875C16.4062 42.9642 17.0358 43.5938 17.8125 43.5938ZM40.3125 42.6562V25.3125C40.3125 25.0538 40.1025 24.8438 39.8438 24.8438C36.2948 24.8438 23.7052 24.8438 20.1562 24.8438C19.8975 24.8438 19.6875 25.0538 19.6875 25.3125V42.6562H21.5625V28.125C21.5625 27.7519 21.7106 27.3942 21.9745 27.1308C22.238 26.8669 22.5956 26.7188 22.9688 26.7188H37.0312C37.4044 26.7188 37.762 26.8669 38.0255 27.1308C38.2894 27.3942 38.4375 27.7519 38.4375 28.125V42.6562H40.3125ZM25.8127 27.6562H22.9688C22.8445 27.6562 22.725 27.7055 22.6373 27.7936C22.5492 27.8812 22.5 28.0008 22.5 28.125V42.6562H24.2189V38.2814C24.2189 37.7634 24.6384 37.3439 25.1564 37.3439H28.4686C28.9866 37.3439 29.4061 37.7634 29.4061 38.2814V42.6562H37.5V28.125C37.5 28.0008 37.4508 27.8812 37.3627 27.7936C37.275 27.7055 37.1555 27.6562 37.0312 27.6562H34.1873V33.8981C34.1873 34.0669 34.0964 34.223 33.9497 34.3059C33.8025 34.3894 33.622 34.387 33.4772 34.2998L30 32.2083L26.5228 34.2998C26.378 34.387 26.1975 34.3894 26.0503 34.3059C25.9036 34.223 25.8127 34.0669 25.8127 33.8981V27.6562ZM34.8436 38.3438V41.5312C34.8436 41.79 35.0536 42 35.3123 42C35.5711 42 35.7811 41.79 35.7811 41.5312V38.3438C35.7811 38.085 35.5711 37.875 35.3123 37.875C35.0536 37.875 34.8436 38.085 34.8436 38.3438ZM32.7188 38.3438V41.5312C32.7188 41.79 32.9287 42 33.1875 42C33.4462 42 33.6562 41.79 33.6562 41.5312V38.3438C33.6562 38.085 33.4462 37.875 33.1875 37.875C32.9287 37.875 32.7188 38.085 32.7188 38.3438ZM30.5939 38.3438V41.5312C30.5939 41.79 30.8039 42 31.0627 42C31.3214 42 31.5314 41.79 31.5314 41.5312V38.3438C31.5314 38.085 31.3214 37.875 31.0627 37.875C30.8039 37.875 30.5939 38.085 30.5939 38.3438ZM30 18.75C28.7063 18.75 27.6562 19.8 27.6562 21.0938C27.6562 22.3875 28.7063 23.4375 30 23.4375C31.2937 23.4375 32.3438 22.3875 32.3438 21.0938C32.3438 19.8 31.2937 18.75 30 18.75ZM30 19.6875C30.7762 19.6875 31.4062 20.3175 31.4062 21.0938C31.4062 21.87 30.7762 22.5 30 22.5C29.2238 22.5 28.5938 21.87 28.5938 21.0938C28.5938 20.3175 29.2238 19.6875 30 19.6875Z" fill="#00A9DF"/>
</svg>
