<svg width="60" height="60" viewBox="0 0 60 60" fill="none" xmlns="http://www.w3.org/2000/svg">
<rect width="60" height="60" rx="10" fill="#F0FBFF"/>
<path fill-rule="evenodd" clip-rule="evenodd" d="M32.7994 20.2707C29.2716 25.4719 22.7325 27.1585 22.7325 27.1585C22.2309 27.2869 21.72 26.9841 21.5916 26.4825C21.4631 25.981 21.7659 25.47 22.2675 25.3416C22.2675 25.3416 28.4944 23.7638 31.5384 18.766L29.6944 18.75C29.1769 18.7454 28.7606 18.3216 28.7653 17.8041C28.77 17.2866 29.1938 16.8704 29.7113 16.875L33.7238 16.9107C34.2356 16.9144 34.6491 17.3279 34.6528 17.8397L34.6875 21.7594C34.6922 22.2769 34.2759 22.7007 33.7584 22.7054C33.2409 22.71 32.8172 22.2938 32.8125 21.7763L32.7994 20.2707ZM24.8297 43.125H20.625C19.5891 43.125 18.75 42.286 18.75 41.25V32.8125C18.75 31.7766 19.5891 30.9375 20.625 30.9375H24.8297V43.125ZM26.7047 30.0329C26.7047 28.9791 27.5588 28.125 28.6125 28.125H31.3097C32.3634 28.125 33.2175 28.9791 33.2175 30.0329V43.125H26.7047V30.0329ZM35.0925 26.2829C35.0925 25.2291 35.9466 24.375 36.9994 24.375H39.375C40.4109 24.375 41.25 25.2141 41.25 26.25V41.25C41.25 42.286 40.4109 43.125 39.375 43.125H35.0925V26.2829Z" fill="#00A9DF"/>
</svg>
