<svg width="60" height="60" viewBox="0 0 60 60" fill="none" xmlns="http://www.w3.org/2000/svg">
<rect width="60" height="60" rx="10" fill="#F0FBFF"/>
<path d="M22.645 40.1088C21.05 38.9499 19.7523 37.4296 18.858 35.6725C17.9637 33.9155 17.4983 31.9715 17.5 30C17.5 23.0963 23.0963 17.5 30 17.5C36.9038 17.5 42.5 23.0963 42.5 30C42.5016 31.9715 42.0363 33.9155 41.142 35.6725C40.2478 37.4296 38.95 38.9499 37.355 40.1088L36.0863 37.935C37.7443 36.6633 38.9623 34.904 39.569 32.9045C40.1759 30.905 40.1411 28.7656 39.4696 26.7868C38.7981 24.8081 37.5236 23.0894 35.8251 21.8722C34.1266 20.655 32.0896 20.0004 30 20.0004C27.9104 20.0004 25.8733 20.655 24.1749 21.8722C22.4764 23.0894 21.2019 24.8081 20.5304 26.7868C19.8589 28.7656 19.8242 30.905 20.431 32.9045C21.0378 34.904 22.2558 36.6633 23.9138 37.935L22.645 40.1088ZM25.1875 35.7525C24.0063 34.7642 23.1579 33.4364 22.7577 31.9493C22.3575 30.462 22.4248 28.8878 22.9504 27.4401C23.4761 25.9925 24.4347 24.7419 25.6959 23.8581C26.9572 22.9742 28.4599 22.5001 30 22.5001C31.5401 22.5001 33.0429 22.9742 34.3041 23.8581C35.5654 24.7419 36.5239 25.9925 37.0496 27.4401C37.5753 28.8878 37.6425 30.462 37.2424 31.9493C36.8421 33.4364 35.9938 34.7642 34.8125 35.7525L33.525 33.545C34.2273 32.8469 34.7064 31.9561 34.9018 30.9854C35.0971 30.0146 34.9998 29.0078 34.6223 28.0924C34.2446 27.1771 33.6039 26.3944 32.781 25.8437C31.958 25.293 30.9901 24.999 30 24.999C29.0099 24.999 28.042 25.293 27.2191 25.8437C26.3962 26.3944 25.7553 27.1771 25.3778 28.0924C25.0002 29.0078 24.9029 30.0146 25.0983 30.9854C25.2936 31.9561 25.7728 32.8469 26.475 33.545L25.1875 35.7525ZM28.75 31.25H31.25L32.5 42.5H27.5L28.75 31.25Z" fill="#00A9DF"/>
</svg>
