<svg width="60" height="60" viewBox="0 0 60 60" fill="none" xmlns="http://www.w3.org/2000/svg">
<rect width="60" height="60" rx="10" fill="#F0FBFF"/>
<path d="M39.8345 21.2438L30.7595 17.0626L30.6189 17.0063C30.2129 16.9032 29.7875 16.9032 29.3814 17.0063L29.2408 17.0626L20.1658 21.2438C19.7371 21.4412 19.3781 21.7633 19.1355 22.1681C18.893 22.5729 18.7783 23.0415 18.8064 23.5126L19.1252 28.8376C19.3061 31.9003 20.3539 34.8485 22.1466 37.3384C23.9393 39.8282 26.4029 41.7571 29.2502 42.9001C29.4888 43.0075 29.7479 43.0619 30.0095 43.0595C30.2583 43.0633 30.5048 43.0121 30.7314 42.9095C33.5822 41.7693 36.0497 39.8416 37.8459 37.3516C39.642 34.8615 40.6927 31.9118 40.8752 28.847L41.1939 23.522C41.224 23.0494 41.1102 22.5787 40.8676 22.1721C40.6249 21.7654 40.2648 21.4418 39.8345 21.2438ZM34.922 27.8063L29.9158 33.4313C29.8344 33.5245 29.7353 33.6007 29.6242 33.6554C29.5132 33.7101 29.3924 33.7423 29.2689 33.7501H29.222C28.9865 33.7518 28.7589 33.6648 28.5845 33.5063L25.1439 30.3376C24.9612 30.1685 24.8531 29.9338 24.8434 29.685C24.8337 29.4362 24.9233 29.1938 25.0924 29.011C25.2614 28.8283 25.4962 28.7202 25.745 28.7105C25.9937 28.7008 26.2362 28.7904 26.4189 28.9595L29.1564 31.4813L33.5158 26.5688C33.6831 26.3946 33.9113 26.2917 34.1526 26.2816C34.394 26.2715 34.6299 26.3549 34.8113 26.5145C34.9926 26.6741 35.1054 26.8975 35.126 27.1382C35.1466 27.3788 35.0736 27.6182 34.922 27.8063Z" fill="#00A9DF"/>
</svg>
