<svg width="20" height="14" viewBox="0 0 20 14" fill="none" xmlns="http://www.w3.org/2000/svg">
<path fill-rule="evenodd" clip-rule="evenodd" d="M17.9869 7.34385C16.3731 10.242 13.3124 12.0424 10.0011 12.0424C6.68756 12.0424 3.62697 10.242 2.01307 7.34385C1.88877 7.11881 1.88877 6.88092 2.01307 6.65607C3.62697 3.75795 6.68756 1.95779 10.0011 1.95779C13.3124 1.95779 16.373 3.75795 17.9869 6.65607C18.1134 6.88092 18.1134 7.11881 17.9869 7.34385ZM19.0179 6.08146C17.1961 2.80932 13.7411 0.776855 10.0011 0.776855C6.25889 0.776855 2.80393 2.80932 0.982129 6.08146C0.656348 6.66529 0.656348 7.33463 0.982129 7.91803C2.80393 11.1902 6.25889 13.2231 10.0011 13.2231C13.7411 13.2231 17.1961 11.1902 19.0179 7.91803C19.3437 7.33467 19.3437 6.66529 19.0179 6.08146ZM10.0011 9.4224C11.3363 9.4224 12.423 8.33576 12.423 6.99986C12.423 5.66396 11.3363 4.57732 10.0011 4.57732C8.66365 4.57732 7.57701 5.66396 7.57701 6.99986C7.57701 8.33576 8.66369 9.4224 10.0011 9.4224ZM10.0011 3.39639C8.01209 3.39639 6.39607 5.01307 6.39607 6.9999C6.39607 8.98717 8.01213 10.6032 10.0011 10.6032C11.9879 10.6032 13.6039 8.98713 13.6039 6.9999C13.6039 5.01307 11.9879 3.39639 10.0011 3.39639Z" fill="#5E6873"/>
</svg>
