<svg width="60" height="60" viewBox="0 0 60 60" fill="none" xmlns="http://www.w3.org/2000/svg">
<rect width="60" height="60" rx="10" fill="#F0FBFF"/>
<path fill-rule="evenodd" clip-rule="evenodd" d="M30.1991 33.7803V36.0608C30.1991 36.1254 30.231 36.1807 30.2869 36.213L32.0718 37.2435C32.1893 37.3114 32.3354 37.227 32.3354 37.0913V34.046L39.7023 29.7928L42.0246 31.1335C42.2109 31.2411 42.3175 31.4258 42.3175 31.6409V39.4709C42.3175 39.686 42.2109 39.8707 42.0246 39.9783L35.2436 43.8932C35.0573 44.0008 34.844 44.0008 34.6577 43.8932L27.8767 39.9783C27.6904 39.8707 27.5838 39.686 27.5838 39.4709V32.3853L29.6761 33.5932C29.8416 33.6888 30.0186 33.7511 30.1991 33.7803ZM30.7308 16.1066C30.5445 15.999 30.3312 15.999 30.1449 16.1066L23.3639 20.0216C23.1776 20.1291 23.0709 20.3139 23.0709 20.529V28.3589C23.0709 28.5741 23.1776 28.7588 23.3639 28.8663L30.1449 32.7813C30.3312 32.8889 30.5445 32.8889 30.7308 32.7813L37.5117 28.8663C37.6981 28.7588 37.8047 28.5741 37.8047 28.3589V20.529C37.8047 20.3138 37.6981 20.1291 37.5117 20.0216L35.1894 18.6808L27.8226 22.9341V25.9793C27.8226 26.1151 27.6765 26.1994 27.5589 26.1315L25.7741 25.1011C25.7182 25.0688 25.6862 25.0134 25.6862 24.9488V21.7006L33.053 17.4474L30.7308 16.1066ZM22.1334 26.036L20.2976 27.096V30.3442C20.2976 30.4088 20.3296 30.4641 20.3855 30.4964L22.1703 31.5269C22.2878 31.5948 22.434 31.5104 22.434 31.3747V29.2706C22.5556 29.4329 22.7111 29.572 22.8951 29.6782L26.6462 31.844V37.4238L25.3421 38.1767C25.1558 38.2843 24.9425 38.2843 24.7562 38.1767L17.9753 34.2618C17.789 34.1542 17.6824 33.9695 17.6824 33.7544V25.9244C17.6824 25.7092 17.789 25.5245 17.9753 25.4169L22.1334 23.0163V26.036Z" fill="#00A9DF"/>
</svg>
