<svg width="18" height="18" viewBox="0 0 18 18" fill="none" xmlns="http://www.w3.org/2000/svg">
<path d="M15.125 17H6.625C5.59102 17 4.75 16.159 4.75 15.125V6.625C4.75 5.59102 5.59102 4.75 6.625 4.75H15.125C16.159 4.75 17 5.59102 17 6.625V15.125C17 16.159 16.159 17 15.125 17ZM6.625 6C6.28037 6 6 6.28037 6 6.625V15.125C6 15.4696 6.28037 15.75 6.625 15.75H15.125C15.4696 15.75 15.75 15.4696 15.75 15.125V6.625C15.75 6.28037 15.4696 6 15.125 6H6.625ZM3.5 12H2.875C2.53037 12 2.25 11.7196 2.25 11.375V2.875C2.25 2.53037 2.53037 2.25 2.875 2.25H11.375C11.7196 2.25 12 2.53037 12 2.875V3.46875H13.25V2.875C13.25 1.84102 12.409 1 11.375 1H2.875C1.84102 1 1 1.84102 1 2.875V11.375C1 12.409 1.84102 13.25 2.875 13.25H3.5V12Z" fill="#252C32"/>
</svg>
