<svg width="18" height="18" viewBox="0 0 18 18" fill="none" xmlns="http://www.w3.org/2000/svg">
<g clip-path="url(#clip0_311_321)">
<path fill-rule="evenodd" clip-rule="evenodd" d="M16.5744 4.82162C14.9799 6.41612 11.2374 10.1579 10.3247 11.0676C10.1274 11.2641 9.89269 11.4194 9.64069 11.5206C8.90869 11.8244 7.12294 12.5249 6.59794 12.5601C6.28519 12.5811 5.97844 12.4656 5.75644 12.2436C5.53444 12.0216 5.41894 11.7149 5.43994 11.4021C5.47519 10.8771 6.17569 9.09288 6.47419 8.36388C6.57844 8.10513 6.73369 7.87038 6.93094 7.67388L13.1784 1.42562C13.4807 1.12337 13.8917 0.953125 14.3192 0.953125C14.7467 0.953125 15.1577 1.12337 15.4599 1.42562L16.5744 2.54013C16.8767 2.84238 17.0469 3.25338 17.0469 3.68088C17.0469 4.10838 16.8767 4.51938 16.5744 4.82162ZM6.56719 11.4329C7.08019 11.3684 8.57944 10.7429 9.20944 10.4811C9.21169 10.4804 9.21394 10.4796 9.21544 10.4789C9.33319 10.4316 9.43969 10.3611 9.52894 10.2719L9.52969 10.2711C10.4439 9.36137 14.1849 5.62038 15.7787 4.02588C15.8702 3.93438 15.9219 3.81063 15.9219 3.68088C15.9219 3.55113 15.8702 3.42738 15.7787 3.33588L14.6642 2.22137C14.5727 2.12987 14.4489 2.07812 14.3192 2.07812C14.1894 2.07812 14.0657 2.12987 13.9742 2.22137L7.72594 8.46963C7.63594 8.55888 7.56544 8.66612 7.51819 8.78387L7.51669 8.78687C7.25794 9.41838 6.63169 10.9191 6.56719 11.4329Z" fill="#252C32"/>
<path fill-rule="evenodd" clip-rule="evenodd" d="M15.0886 5.51157C15.3076 5.73132 15.3076 6.08757 15.0886 6.30732C14.8689 6.52707 14.5126 6.52707 14.2929 6.30732L11.6926 3.70707C11.4729 3.48732 11.4729 3.13107 11.6926 2.91132C11.9124 2.69232 12.2686 2.69232 12.4884 2.91132L15.0886 5.51157Z" fill="#252C32"/>
<path fill-rule="evenodd" clip-rule="evenodd" d="M10.4976 10.1025C10.7173 10.3215 10.7173 10.6785 10.4976 10.8975C10.2786 11.1172 9.92156 11.1172 9.70256 10.8975L7.10231 8.29721C6.88256 8.07821 6.88256 7.72121 7.10231 7.50221C7.32131 7.28246 7.67831 7.28246 7.89731 7.50221L10.4976 10.1025Z" fill="#252C32"/>
<path fill-rule="evenodd" clip-rule="evenodd" d="M6.375 2.4375C6.6855 2.4375 6.9375 2.6895 6.9375 3C6.9375 3.3105 6.6855 3.5625 6.375 3.5625H3.75C2.81775 3.5625 2.0625 4.31775 2.0625 5.25V14.25C2.0625 14.6978 2.24025 15.1267 2.55675 15.4432C2.87325 15.7597 3.30225 15.9375 3.75 15.9375H13.5C13.9478 15.9375 14.3767 15.7597 14.6932 15.4432C15.0097 15.1267 15.1875 14.6978 15.1875 14.25V11.625C15.1875 11.3145 15.4395 11.0625 15.75 11.0625C16.0605 11.0625 16.3125 11.3145 16.3125 11.625V14.25C16.3125 14.9963 16.0163 15.711 15.489 16.239C14.961 16.7663 14.2463 17.0625 13.5 17.0625H3.75C3.00375 17.0625 2.289 16.7663 1.761 16.239C1.23375 15.711 0.9375 14.9963 0.9375 14.25V5.25C0.9375 3.69675 2.19675 2.4375 3.75 2.4375H6.375Z" fill="#252C32"/>
</g>
<defs>
<clipPath id="clip0_311_321">
<rect width="18" height="18" fill="white"/>
</clipPath>
</defs>
</svg>
