<svg width="20" height="20" viewBox="0 0 20 20" fill="none" xmlns="http://www.w3.org/2000/svg">
<path d="M16.2523 4.53333C16.239 4.504 16.2203 4.47733 16.199 4.45333L13.7483 2.07467C13.7243 2.05333 13.6976 2.03733 13.671 2.024C13.663 2.02133 13.6523 2.01867 13.6443 2.016C13.623 2.008 13.6016 2.00533 13.5776 2.00267C13.5723 2.00267 13.567 2 13.5616 2H3.92163C3.77497 2 3.65497 2.12 3.65497 2.26667V17.7333C3.65497 17.88 3.77497 18 3.92163 18H16.0123C16.159 18 16.279 17.88 16.279 17.7333V4.64533C16.279 4.64 16.2763 4.63467 16.2763 4.62933C16.2736 4.60533 16.2683 4.58133 16.2603 4.55733C16.2576 4.54933 16.255 4.54133 16.2523 4.53333ZM15.7456 17.4667H4.1883V2.53333H13.295V4.64533C13.295 4.792 13.415 4.912 13.5616 4.912H15.7456V17.4667Z" fill="#84919A"/>
<path d="M6.55571 8.48211V8.06931C7.05677 7.94878 7.43117 7.49998 7.43117 6.96238C7.43117 6.33305 6.91917 5.82105 6.28984 5.82105C5.95464 5.82105 5.68211 5.54825 5.68211 5.21305C5.68211 4.87785 5.95464 4.60505 6.28984 4.60505C6.62504 4.60505 6.89784 4.87785 6.89784 5.21305C6.89784 5.36025 7.01704 5.47971 7.16451 5.47971C7.31197 5.47971 7.43117 5.36025 7.43117 5.21305C7.43117 4.67571 7.05651 4.22691 6.55571 4.10611V3.69465C6.55571 3.54745 6.43651 3.42798 6.28904 3.42798C6.14157 3.42798 6.02237 3.54745 6.02237 3.69465V4.10665C5.52237 4.22771 5.14877 4.67625 5.14877 5.21305C5.14877 5.84238 5.66077 6.35438 6.28984 6.35438C6.62531 6.35438 6.89784 6.62718 6.89784 6.96238C6.89784 7.29758 6.62531 7.57038 6.28984 7.57038C6.28984 7.57038 6.28984 7.57038 6.28957 7.57038C6.28957 7.57038 6.28931 7.57038 6.28904 7.57038C5.95437 7.56985 5.68211 7.29731 5.68211 6.96265C5.68211 6.81545 5.56291 6.69598 5.41544 6.69598C5.26797 6.69598 5.14877 6.81545 5.14877 6.96265C5.14877 7.49945 5.52237 7.94771 6.02237 8.06905V8.48238C6.02237 8.62958 6.14157 8.74905 6.28904 8.74905C6.43651 8.74905 6.55571 8.62931 6.55571 8.48211Z" fill="#84919A"/>
<path d="M10.0522 14.2587C11.9162 14.2587 13.4629 12.744 13.5002 10.88C13.5002 10.8107 13.4736 10.7413 13.4229 10.688C13.3722 10.6373 13.3056 10.608 13.2336 10.608H10.3189V7.62934C10.3189 7.48267 10.2016 7.36267 10.0522 7.36267C8.15091 7.36267 6.60425 8.90934 6.60425 10.8107C6.60425 12.712 8.15091 14.2587 10.0522 14.2587Z" fill="#84919A"/>
<path d="M11.0682 6.42133V9.66933C11.0682 9.816 11.1882 9.936 11.3349 9.936H14.5162C14.6576 9.936 14.7749 9.82666 14.7829 9.68533V9.60266C14.7829 7.70133 13.2362 6.15466 11.3349 6.15466C11.1882 6.15466 11.0682 6.27466 11.0682 6.42133Z" fill="#84919A"/>
<path d="M10.4918 15.0872C10.3443 15.0872 10.2251 15.2064 10.2251 15.3538C10.2251 15.5013 10.3443 15.6205 10.4918 15.6205H14.6552C14.8027 15.6205 14.9219 15.5013 14.9219 15.3538C14.9219 15.2064 14.8027 15.0872 14.6552 15.0872H10.4918Z" fill="#84919A"/>
<path d="M14.6552 15.9869H6.46592C6.31845 15.9869 6.19925 16.1061 6.19925 16.2536C6.19925 16.4011 6.31845 16.5203 6.46592 16.5203H14.6552C14.8027 16.5203 14.9219 16.4011 14.9219 16.2536C14.9219 16.1061 14.8027 15.9869 14.6552 15.9869Z" fill="#84919A"/>
</svg>
