<svg width="20" height="20" viewBox="0 0 20 20" fill="none" xmlns="http://www.w3.org/2000/svg">
<path d="M9.625 10.1853C11.9032 10.1853 13.75 8.33848 13.75 6.0603C13.75 3.78213 11.9032 1.9353 9.625 1.9353C7.34683 1.9353 5.5 3.78213 5.5 6.0603C5.5 8.33848 7.34683 10.1853 9.625 10.1853Z" fill="#84919A"/>
<path fill-rule="evenodd" clip-rule="evenodd" d="M14.125 11.4558C12.6505 11.4558 11.4535 12.6528 11.4535 14.1273C11.4535 15.6018 12.6505 16.7996 14.125 16.7996C15.5995 16.7996 16.7972 15.6018 16.7972 14.1273C16.7972 12.6528 15.5995 11.4558 14.125 11.4558ZM14.125 12.5808C14.9785 12.5808 15.6722 13.2738 15.6722 14.1273C15.6722 14.9808 14.9785 15.6746 14.125 15.6746C13.2715 15.6746 12.5777 14.9808 12.5777 14.1273C12.5777 13.2738 13.2715 12.5808 14.125 12.5808Z" fill="#84919A"/>
<path fill-rule="evenodd" clip-rule="evenodd" d="M14.6875 12.0176V10.7523C14.6875 10.4418 14.4355 10.1898 14.125 10.1898C13.8145 10.1898 13.5625 10.4418 13.5625 10.7523V12.0183C13.5625 12.3281 13.8145 12.5808 14.125 12.5808C14.4355 12.5801 14.6875 12.3281 14.6875 12.0176Z" fill="#84919A"/>
<path fill-rule="evenodd" clip-rule="evenodd" d="M16.0143 13.0338L16.909 12.1383C17.1288 11.9193 17.1288 11.5623 16.909 11.3433C16.69 11.1235 16.333 11.1235 16.114 11.3433L15.2185 12.238C14.9995 12.4578 14.9995 12.814 15.2185 13.0338C15.4383 13.2528 15.7945 13.2528 16.0143 13.0338Z" fill="#84919A"/>
<path fill-rule="evenodd" clip-rule="evenodd" d="M16.234 14.6898H17.5C17.8105 14.6898 18.0625 14.4378 18.0625 14.1273C18.0625 13.8168 17.8105 13.5648 17.5 13.5648H16.234C15.9242 13.5648 15.6722 13.8168 15.6722 14.1273C15.6715 14.4378 15.9242 14.6898 16.234 14.6898Z" fill="#84919A"/>
<path fill-rule="evenodd" clip-rule="evenodd" d="M15.2185 16.0165L16.114 16.9113C16.333 17.131 16.69 17.131 16.909 16.9113C17.1288 16.6923 17.1288 16.3353 16.909 16.1163L16.0143 15.2208C15.7945 15.0018 15.4383 15.0018 15.2185 15.2208C14.9995 15.4405 14.9995 15.7968 15.2185 16.0165Z" fill="#84919A"/>
<path fill-rule="evenodd" clip-rule="evenodd" d="M13.5625 16.2363V17.5023C13.5625 17.8128 13.8145 18.0648 14.125 18.0648C14.4355 18.0648 14.6875 17.8128 14.6875 17.5023V16.2363C14.6875 15.9266 14.4355 15.6746 14.125 15.6738C13.8145 15.6738 13.5625 15.9266 13.5625 16.2363Z" fill="#84919A"/>
<path fill-rule="evenodd" clip-rule="evenodd" d="M12.2358 15.2208L11.341 16.1163C11.1213 16.3353 11.1213 16.6923 11.341 16.9113C11.56 17.131 11.917 17.131 12.136 16.9113L13.0315 16.0165C13.2505 15.7968 13.2505 15.4405 13.0315 15.2208C12.8118 15.0018 12.4555 15.0018 12.2358 15.2208Z" fill="#84919A"/>
<path fill-rule="evenodd" clip-rule="evenodd" d="M12.0153 13.5648H10.75C10.4395 13.5648 10.1875 13.8168 10.1875 14.1273C10.1875 14.4378 10.4395 14.6898 10.75 14.6898H12.0153C12.3258 14.6898 12.5785 14.4378 12.5778 14.1273C12.5778 13.8168 12.3258 13.5648 12.0153 13.5648Z" fill="#84919A"/>
<path fill-rule="evenodd" clip-rule="evenodd" d="M13.0315 12.238L12.136 11.3433C11.917 11.1235 11.56 11.1235 11.341 11.3433C11.1213 11.5623 11.1213 11.9193 11.341 12.1383L12.2358 13.0338C12.4555 13.2528 12.8118 13.2528 13.0315 13.0338C13.2505 12.814 13.2505 12.4578 13.0315 12.238Z" fill="#84919A"/>
<path fill-rule="evenodd" clip-rule="evenodd" d="M10.702 17.3193C10.3015 16.8048 10.3375 16.0585 10.8108 15.586L10.9562 15.4398H10.75C10.0255 15.4398 9.4375 14.8518 9.4375 14.1273C9.4375 13.4028 10.0255 12.8148 10.75 12.8148H10.9562L10.8108 12.6685C10.3187 12.1773 10.2992 11.3905 10.7522 10.8753C10.3847 10.8468 10.0082 10.8318 9.625 10.8318C7.1335 10.8318 4.92775 11.455 3.55825 12.3888C2.5135 13.1013 1.9375 14.0065 1.9375 14.9568V16.0443C1.9375 16.3825 2.07175 16.7073 2.311 16.9458C2.55025 17.185 2.87425 17.3193 3.2125 17.3193H10.702Z" fill="#84919A"/>
</svg>
