<svg width="20" height="20" viewBox="0 0 20 20" fill="none" xmlns="http://www.w3.org/2000/svg">
<path d="M11.9525 18.0285C11.9472 17.97 11.9445 17.9108 11.9445 17.8508V11.7602C9.03712 11.253 6.00114 11.7103 3.32569 13.1321C2.94071 13.3367 2.70007 13.737 2.70007 14.173V16.7841C2.70007 17.4714 3.25723 18.0285 3.94452 18.0285H11.9525Z" fill="#84919A"/>
<path fill-rule="evenodd" clip-rule="evenodd" d="M12.6556 11.4507C12.6556 10.7635 13.2128 10.2063 13.9001 10.2063H17.4556C18.1429 10.2063 18.7001 10.7635 18.7001 11.4507V17.8507C18.7001 18.538 18.1429 19.0952 17.4556 19.0952H13.9001C13.2128 19.0952 12.6556 18.538 12.6556 17.8507V11.4507ZM13.9001 11.273C13.8019 11.273 13.7223 11.3525 13.7223 11.4507V17.8507C13.7223 17.9489 13.8019 18.0285 13.9001 18.0285H17.4556C17.5538 18.0285 17.6334 17.9489 17.6334 17.8507V11.4507C17.6334 11.3525 17.5538 11.273 17.4556 11.273H13.9001Z" fill="#84919A"/>
<path fill-rule="evenodd" clip-rule="evenodd" d="M14.789 16.7841C14.789 16.4895 15.0278 16.2507 15.3223 16.2507H16.0334C16.328 16.2507 16.5667 16.4895 16.5667 16.7841C16.5667 17.0786 16.328 17.3174 16.0334 17.3174H15.3223C15.0278 17.3174 14.789 17.0786 14.789 16.7841Z" fill="#84919A"/>
<path fill-rule="evenodd" clip-rule="evenodd" d="M9.63339 3.09521C7.57153 3.09521 5.90005 4.76669 5.90005 6.82855C5.90005 8.89041 7.57153 10.5619 9.63339 10.5619C11.6953 10.5619 13.3667 8.89041 13.3667 6.82855C13.3667 4.76669 11.6953 3.09521 9.63339 3.09521Z" fill="#84919A"/>
</svg>
