<svg width="20" height="20" viewBox="0 0 20 20" fill="none" xmlns="http://www.w3.org/2000/svg">
<path d="M15.1189 16.4V2H3.91892V16.4H1.51892V18H17.5189V16.4H15.1189ZM8.71892 3.6H10.3189V5.2H8.71892V3.6ZM8.71892 6.8H10.3189V8.4H8.71892V6.8ZM8.71892 10H10.3189V11.6H8.71892V10ZM7.11892 11.6H5.51892V10H7.11892V11.6ZM7.11892 8.4H5.51892V6.8H7.11892V8.4ZM7.11892 5.2H5.51892V3.6H7.11892V5.2ZM11.1189 16.4H7.91892V13.2H11.1189V16.4ZM13.5189 11.6H11.9189V10H13.5189V11.6ZM13.5189 8.4H11.9189V6.8H13.5189V8.4ZM13.5189 5.2H11.9189V3.6H13.5189V5.2Z" fill="#84919A"/>
</svg>
