<svg width="20" height="20" viewBox="0 0 20 20" fill="none" xmlns="http://www.w3.org/2000/svg">
<path d="M10.3 1C6.79 1 4 3.79 4 7.3C4 12.7 10.3 19 10.3 19C10.3 19 16.6 12.7 16.6 7.3C16.6 3.79 13.81 1 10.3 1ZM10.3 11.8C7.78 11.8 5.8 9.82 5.8 7.3C5.8 4.78 7.78 2.8 10.3 2.8C12.82 2.8 14.8 4.78 14.8 7.3C14.8 9.82 12.82 11.8 10.3 11.8Z" fill="#84919A"/>
<path d="M10.3 7.29983C11.2941 7.29983 12.1 6.49394 12.1 5.49983C12.1 4.50572 11.2941 3.69983 10.3 3.69983C9.30589 3.69983 8.5 4.50572 8.5 5.49983C8.5 6.49394 9.30589 7.29983 10.3 7.29983Z" fill="#84919A"/>
<path d="M10.3001 7.30017C8.95009 7.30017 7.78009 8.02017 7.15009 9.10017C7.78009 10.1802 8.95009 10.9002 10.3001 10.9002C11.6501 10.9002 12.8201 10.1802 13.4501 9.10017C12.8201 8.02017 11.6501 7.30017 10.3001 7.30017Z" fill="#84919A"/>
</svg>
