<svg width="20" height="20" viewBox="0 0 20 20" fill="none" xmlns="http://www.w3.org/2000/svg">
<path d="M4.0002 7.5C5.24284 7.5 6.25021 6.49264 6.25021 5.25C6.25021 4.00736 5.24284 3 4.0002 3C2.75755 3 1.75018 4.00736 1.75018 5.25C1.75018 6.49264 2.75755 7.5 4.0002 7.5Z" fill="#84919A"/>
<path d="M6.46753 9.05262C5.71265 9.52367 5.09007 10.1791 4.65839 10.9571C4.22671 11.7352 4.00014 12.6103 4.00002 13.5001H2.50001C2.10255 13.4989 1.7217 13.3405 1.44065 13.0595C1.1596 12.7784 1.00119 12.3976 1 12.0001V10.5001C1.00178 9.90393 1.23941 9.33267 1.66098 8.9111C2.08255 8.48953 2.65382 8.2519 3.25001 8.25012H4.75002C5.07745 8.25086 5.40078 8.32305 5.69742 8.46166C5.99407 8.60027 6.25689 8.80195 6.46753 9.05262Z" fill="#84919A"/>
<path d="M15.9999 7.5C17.2425 7.5 18.2499 6.49264 18.2499 5.25C18.2499 4.00736 17.2425 3 15.9999 3C14.7572 3 13.7499 4.00736 13.7499 5.25C13.7499 6.49264 14.7572 7.5 15.9999 7.5Z" fill="#84919A"/>
<path d="M19 10.5001V12.0001C18.9988 12.3976 18.8404 12.7784 18.5594 13.0595C18.2783 13.3405 17.8975 13.4989 17.5 13.5001H16C15.9999 12.6103 15.7733 11.7352 15.3416 10.9571C14.9099 10.1791 14.2874 9.52367 13.5325 9.05262C13.7431 8.80195 14.0059 8.60027 14.3026 8.46166C14.5992 8.32305 14.9226 8.25086 15.25 8.25012H16.75C17.3462 8.2519 17.9174 8.48953 18.339 8.9111C18.7606 9.33267 18.9982 9.90393 19 10.5001Z" fill="#84919A"/>
<path d="M9.99984 9C11.6567 9 12.9999 7.65685 12.9999 6C12.9999 4.34315 11.6567 3 9.99984 3C8.34297 3 6.99982 4.34315 6.99982 6C6.99982 7.65685 8.34297 9 9.99984 9Z" fill="#84919A"/>
<path d="M14.5001 13.5V14.25C14.4983 14.8462 14.2606 15.4175 13.8391 15.839C13.4175 16.2606 12.8462 16.4982 12.25 16.5H7.75001C7.15382 16.4982 6.58255 16.2606 6.16098 15.839C5.73941 15.4175 5.50178 14.8462 5.5 14.25V13.5C5.5 12.5054 5.89509 11.5516 6.59836 10.8483C7.30162 10.1451 8.25545 9.75 9.25002 9.75H10.75C11.7446 9.75 12.6984 10.1451 13.4017 10.8483C14.105 11.5516 14.5001 12.5054 14.5001 13.5Z" fill="#84919A"/>
</svg>
