<svg width="20" height="20" viewBox="0 0 20 20" fill="none" xmlns="http://www.w3.org/2000/svg">
<path d="M18.6869 5.76777L10.3898 2.06771C10.1889 1.97743 9.95931 1.97743 9.75738 2.06771L1.46068 5.76777C1.18986 5.88835 1.01101 6.15377 1.00097 6.45043C0.991279 6.74651 1.1498 7.02315 1.4117 7.16247L9.70828 11.5871C9.82269 11.6484 9.94809 11.6785 10.0738 11.6785C10.2002 11.6785 10.3255 11.6484 10.44 11.5871L18.737 7.16247C18.9987 7.02315 19.1574 6.74651 19.1479 6.45043C19.1366 6.15377 18.9581 5.88835 18.6869 5.76777Z" fill="#84919A"/>
<path d="M18.0051 9.07848L10.0733 13.3097L2.14291 9.07848C1.76325 8.87591 1.29314 9.01963 1.09192 9.39858C0.889288 9.77736 1.03301 10.2473 1.41161 10.4494L9.70819 14.8752C9.82261 14.9362 9.948 14.9666 10.0738 14.9666C10.2001 14.9666 10.3254 14.9366 10.44 14.8752L18.737 10.4494C19.1147 10.2473 19.2582 9.77736 19.0568 9.39858C18.854 9.01957 18.3836 8.87585 18.0051 9.07848Z" fill="#84919A"/>
<path d="M18.0051 12.1134L10.0733 16.3431L2.14291 12.1134C1.76325 11.9106 1.29314 12.0545 1.09192 12.4329C0.889288 12.8117 1.03301 13.2822 1.41161 13.4839L9.70819 17.9083C9.82261 17.9697 9.948 18.0001 10.0738 18.0001C10.2001 18.0001 10.3254 17.9701 10.44 17.9083L18.737 13.4839C19.1147 13.2822 19.2582 12.8118 19.0568 12.4329C18.854 12.0545 18.3842 11.9105 18.0051 12.1134Z" fill="#84919A"/>
</svg>
