<svg width="20" height="20" viewBox="0 0 20 20" fill="none" xmlns="http://www.w3.org/2000/svg">
<path fill-rule="evenodd" clip-rule="evenodd" d="M13.721 9.44165C16.0831 9.44165 18.0001 11.3587 18.0001 13.7208C18.0001 16.083 16.0831 18 13.721 18C11.359 18 9.44196 16.083 9.44196 13.7208C9.44196 11.3587 11.359 9.44165 13.721 9.44165ZM13.1629 11.8603V13.7208C13.1629 14.0289 13.4129 14.279 13.721 14.279H15.5815C15.8896 14.279 16.1396 14.0289 16.1396 13.7208C16.1396 13.4127 15.8896 13.1627 15.5815 13.1627H14.2792V11.8603C14.2792 11.5522 14.0291 11.3022 13.721 11.3022C13.4129 11.3022 13.1629 11.5522 13.1629 11.8603Z" fill="#84919A"/>
<path fill-rule="evenodd" clip-rule="evenodd" d="M5.72095 2.93026V2.55816C5.72095 2.25005 5.97099 2 6.27909 2C6.58718 2 6.83722 2.25005 6.83722 2.55816V2.93026H5.72095Z" fill="#84919A"/>
<path fill-rule="evenodd" clip-rule="evenodd" d="M13.1628 2.93026V2.55816C13.1628 2.25005 13.4128 2 13.7209 2C14.029 2 14.2791 2.25005 14.2791 2.55816V2.93026H13.1628Z" fill="#84919A"/>
<path fill-rule="evenodd" clip-rule="evenodd" d="M10.3475 17.4422H4.04651C3.504 17.4422 2.98307 17.2264 2.59907 16.8431C2.21581 16.4591 2 15.9382 2 15.3956V7.39542H18V11.0904C17.1151 9.65483 15.5293 8.69778 13.7209 8.69778C10.9488 8.69778 8.69766 10.949 8.69766 13.7212C8.69766 15.1955 9.33468 16.5231 10.3475 17.4422ZM2 6.27911V4.97675C2 4.43422 2.21581 3.91327 2.59907 3.52926C2.98307 3.146 3.504 2.93018 4.04651 2.93018H5.72092V4.41859C5.72092 4.72669 5.97097 4.97675 6.27906 4.97675C6.58715 4.97675 6.8372 4.72669 6.8372 4.41859V2.93018H13.1628V4.41859C13.1628 4.72669 13.4128 4.97675 13.7209 4.97675C14.029 4.97675 14.279 4.72669 14.279 4.41859V2.93018H15.9535C16.496 2.93018 17.0169 3.146 17.4009 3.52926C17.7842 3.91327 18 4.43422 18 4.97675V6.27911H2Z" fill="#84919A"/>
</svg>
