<svg width="20" height="20" viewBox="0 0 20 20" fill="none" xmlns="http://www.w3.org/2000/svg">
<path d="M16.24 8.64C16.08 7.92 15.76 7.2 15.36 6.56L16.16 4.88L15.04 3.76L13.36 4.56C12.72 4.16 12.08 3.92 11.36 3.76L10.8 2H9.2L8.56 3.76C7.84 3.92 7.2 4.24 6.56 4.64L4.88 3.84L3.76 4.88L4.56 6.56C4.16 7.2 3.92 7.84 3.76 8.56L2 9.2V10.8L3.76 11.44C3.92 12.16 4.24 12.88 4.56 13.44L3.76 15.12L4.88 16.24L6.56 15.44C7.2 15.84 7.84 16.16 8.56 16.32L9.2 18H10.8L11.44 16.24C11.68 16.16 12 16.08 12.24 16L10.96 14.72C7.92 15.28 5.2 13.04 5.2 10C5.2 7.36 7.36 5.2 10 5.2C12.96 5.2 15.2 7.84 14.72 10.64L16.08 12C16.16 11.76 16.24 11.6 16.24 11.36L18 10.8V9.2L16.24 8.64Z" fill="#84919A"/>
<path d="M17.68 15.92L12.96 11.2C14.08 8.72002 11.76 6.08002 9.19999 6.80002L10.64 8.24002C11.28 8.88002 11.28 9.92002 10.64 10.48C10.08 11.12 8.95999 11.12 8.39999 10.48L6.95999 9.12002C6.23999 11.36 8.55999 13.92 11.2 12.88L15.92 17.6C16.4 18.08 17.12 18.08 17.6 17.6C18.08 17.2 18.08 16.4 17.68 15.92Z" fill="#84919A"/>
</svg>
