<svg width="20" height="20" viewBox="0 0 20 20" fill="none" xmlns="http://www.w3.org/2000/svg">
<rect x="2" y="2" width="16" height="16" rx="8" fill="#84919A"/>
<path fill-rule="evenodd" clip-rule="evenodd" d="M6.75195 6.85737C8.08881 5.40272 10.1207 5.16769 11.6827 6.15003C11.8997 6.28652 11.9739 6.58858 11.8485 6.82471C11.7231 7.06085 11.4455 7.14162 11.2285 7.00514C10.0134 6.24094 8.43276 6.42523 7.39379 7.55576C6.15313 8.90574 6.15313 11.0945 7.39379 12.4445C8.43276 13.575 10.0134 13.7593 11.2285 12.9951C11.4455 12.8586 11.7231 12.9394 11.8485 13.1755C11.9739 13.4117 11.8997 13.7137 11.6827 13.8502C10.1207 14.8325 8.08881 14.5975 6.75195 13.1429C5.15682 11.4072 5.15682 8.59306 6.75195 6.85737ZM12.4962 8.16941C12.6734 7.97656 12.9608 7.97656 13.138 8.16941L13.9963 9.10335C14.0773 9.1915 14.1562 9.27728 14.2176 9.3559C14.2849 9.44227 14.3574 9.55185 14.4001 9.69491C14.4593 9.89329 14.4593 10.107 14.4001 10.3053C14.3574 10.4484 14.2849 10.558 14.2176 10.6443C14.1562 10.7229 14.0773 10.8088 13.9963 10.8969L13.138 11.8308C12.9608 12.0236 12.6734 12.0236 12.4962 11.8308C12.319 11.638 12.319 11.3253 12.4962 11.1324L13.083 10.4939H9.6402C9.38954 10.4939 9.18636 10.2728 9.18636 10.0001C9.18636 9.72736 9.38954 9.50627 9.6402 9.50627H13.083L12.4962 8.8678C12.319 8.67495 12.319 8.36227 12.4962 8.16941Z" fill="white"/>
</svg>
