<svg width="20" height="20" viewBox="0 0 20 20" fill="none" xmlns="http://www.w3.org/2000/svg">
<path d="M12.0001 2V6H16.0001L12.0001 2Z" fill="#84919A"/>
<path d="M15.1429 2H9.04006V5.89143C9.04166 6.14557 8.94239 6.38997 8.76402 6.57101C8.58566 6.75205 8.34277 6.85495 8.08863 6.85714H4.00006V17.1429C4.00073 17.37 4.09125 17.5876 4.25185 17.7482C4.41245 17.9088 4.63008 17.9993 4.8572 18H15.1429C15.37 17.9993 15.5877 17.9088 15.7483 17.7482C15.9089 17.5876 15.9994 17.37 16.0001 17.1429V2.85714C15.9994 2.63002 15.9089 2.41239 15.7483 2.25178C15.5877 2.09118 15.37 2.00066 15.1429 2ZM10.0001 15.6886C9.15243 15.6886 8.32383 15.4372 7.61905 14.9663C6.91426 14.4954 6.36495 13.826 6.04058 13.0429C5.7162 12.2598 5.63133 11.3981 5.7967 10.5668C5.96206 9.73541 6.37024 8.97177 6.9696 8.3724C7.56897 7.77303 8.33261 7.36486 9.16396 7.19949C9.99531 7.03413 10.857 7.119 11.6401 7.44337C12.4232 7.76775 13.0926 8.31706 13.5635 9.02184C14.0344 9.72662 14.2858 10.5552 14.2858 11.4029C14.2844 12.5391 13.8324 13.6284 13.029 14.4318C12.2256 15.2352 11.1363 15.6872 10.0001 15.6886Z" fill="#84919A"/>
<path d="M8.46865 5.89149V2.16577L4.17151 6.28577H8.08865C8.19121 6.28352 8.28872 6.2408 8.35991 6.16694C8.43109 6.09308 8.47018 5.99406 8.46865 5.89149Z" fill="#84919A"/>
<path d="M10.0001 7.6886C9.26544 7.6886 8.54732 7.90644 7.93651 8.31457C7.3257 8.7227 6.84963 9.30279 6.5685 9.98149C6.28738 10.6602 6.21382 11.407 6.35714 12.1275C6.50045 12.848 6.8542 13.5098 7.37366 14.0293C7.89311 14.5487 8.55493 14.9025 9.27543 15.0458C9.99593 15.1891 10.7428 15.1156 11.4214 14.8344C12.1001 14.5533 12.6802 14.0772 13.0884 13.4664C13.4965 12.8556 13.7143 12.1375 13.7143 11.4029C13.7134 10.4181 13.3218 9.47389 12.6254 8.77753C11.9291 8.08117 10.9849 7.68954 10.0001 7.6886ZM10.0001 11.1172C10.3115 11.1169 10.6122 11.2314 10.8446 11.4387C11.0771 11.646 11.2251 11.9316 11.2604 12.241C11.2958 12.5505 11.2159 12.8621 11.0361 13.1164C10.8564 13.3708 10.5893 13.5501 10.2858 13.62V14.0657C10.2858 14.1415 10.2557 14.2142 10.2021 14.2678C10.1485 14.3214 10.0758 14.3515 10.0001 14.3515C9.92428 14.3515 9.8516 14.3214 9.79802 14.2678C9.74444 14.2142 9.71434 14.1415 9.71434 14.0657V13.62C9.43517 13.5556 9.18606 13.3985 9.00758 13.1744C8.82911 12.9502 8.73179 12.6723 8.73148 12.3857C8.73148 12.31 8.76158 12.2373 8.81517 12.1837C8.86875 12.1301 8.94142 12.1 9.0172 12.1C9.09297 12.1 9.16565 12.1301 9.21923 12.1837C9.27281 12.2373 9.30291 12.31 9.30291 12.3857C9.30291 12.5236 9.3438 12.6584 9.4204 12.7731C9.497 12.8877 9.60588 12.9771 9.73327 13.0298C9.86065 13.0826 10.0008 13.0964 10.1361 13.0695C10.2713 13.0426 10.3955 12.9762 10.493 12.8787C10.5905 12.7812 10.6569 12.657 10.6838 12.5217C10.7107 12.3865 10.6969 12.2463 10.6441 12.119C10.5914 11.9916 10.502 11.8827 10.3874 11.8061C10.2727 11.7295 10.1379 11.6886 10.0001 11.6886C9.68859 11.6888 9.38795 11.5744 9.15549 11.3671C8.92302 11.1598 8.775 10.8742 8.73968 10.5647C8.70435 10.2553 8.78419 9.94366 8.96396 9.68932C9.14373 9.43498 9.41084 9.25572 9.71434 9.18574V8.74003C9.71434 8.66425 9.74444 8.59158 9.79802 8.538C9.8516 8.48441 9.92428 8.45431 10.0001 8.45431C10.0758 8.45431 10.1485 8.48441 10.2021 8.538C10.2557 8.59158 10.2858 8.66425 10.2858 8.74003V9.18574C10.5649 9.2502 10.814 9.40729 10.9925 9.63142C11.171 9.85555 11.2683 10.1335 11.2686 10.42C11.2686 10.4958 11.2385 10.5685 11.1849 10.6221C11.1314 10.6756 11.0587 10.7057 10.9829 10.7057C10.9071 10.7057 10.8345 10.6756 10.7809 10.6221C10.7273 10.5685 10.6972 10.4958 10.6972 10.42C10.6972 10.2821 10.6563 10.1474 10.5797 10.0327C10.5031 9.91807 10.3942 9.82872 10.2668 9.77595C10.1395 9.72319 9.99928 9.70938 9.86405 9.73628C9.72882 9.76318 9.6046 9.82958 9.5071 9.92707C9.4096 10.0246 9.34321 10.1488 9.31631 10.284C9.28941 10.4193 9.30321 10.5594 9.35598 10.6868C9.40874 10.8142 9.4981 10.9231 9.61274 10.9997C9.72739 11.0763 9.86217 11.1172 10.0001 11.1172Z" fill="#84919A"/>
</svg>
