<svg width="20" height="20" viewBox="0 0 20 20" fill="none" xmlns="http://www.w3.org/2000/svg">
<path d="M12.0001 2V6H16.0001L12.0001 2Z" fill="#84919A"/>
<path d="M15.1429 2H9.04006V5.89143C9.04166 6.14557 8.94239 6.38997 8.76402 6.57101C8.58566 6.75205 8.34277 6.85495 8.08863 6.85714H4.00006V17.1429C4.00073 17.37 4.09125 17.5876 4.25185 17.7482C4.41245 17.9088 4.63008 17.9993 4.8572 18H15.1429C15.37 17.9993 15.5877 17.9088 15.7483 17.7482C15.9089 17.5876 15.9994 17.37 16.0001 17.1429V2.85714C15.9994 2.63002 15.9089 2.41239 15.7483 2.25178C15.5877 2.09118 15.37 2.00066 15.1429 2ZM10.0001 15.6886C9.15243 15.6886 8.32383 15.4372 7.61905 14.9663C6.91426 14.4954 6.36495 13.826 6.04058 13.0429C5.7162 12.2598 5.63133 11.3981 5.7967 10.5668C5.96206 9.73541 6.37024 8.97177 6.9696 8.3724C7.56897 7.77303 8.33261 7.36486 9.16396 7.19949C9.99531 7.03413 10.857 7.119 11.6401 7.44337C12.4232 7.76775 13.0926 8.31706 13.5635 9.02184C14.0344 9.72662 14.2858 10.5552 14.2858 11.4029C14.2844 12.5391 13.8324 13.6284 13.029 14.4318C12.2256 15.2352 11.1363 15.6872 10.0001 15.6886Z" fill="#84919A"/>
<path d="M8.46865 5.89149V2.16577L4.17151 6.28577H8.08865C8.19121 6.28352 8.28872 6.2408 8.35991 6.16694C8.43109 6.09308 8.47018 5.99406 8.46865 5.89149Z" fill="#84919A"/>
<path fill-rule="evenodd" clip-rule="evenodd" d="M13.5013 11.5C13.5013 13.4317 11.9343 15 10.0013 15C8.06834 15 6.50006 13.4317 6.50006 11.5C6.50006 9.56828 8.0671 8 10.0001 8C11.933 8 13.5013 9.56703 13.5013 11.5ZM9.65031 9.399C9.65031 9.20608 9.80714 9.04925 10.0001 9.04925C10.193 9.04925 10.3498 9.20733 10.3498 9.399V11.149H12.0998C12.2927 11.149 12.4496 11.3071 12.4496 11.4988C12.4496 11.6904 12.2927 11.8485 12.0998 11.8485H10.3511V13.5985C10.3511 13.7914 10.1942 13.9483 10.0013 13.9483C9.80838 13.9483 9.65155 13.7902 9.65155 13.5985V11.8498H7.90031C7.70739 11.8498 7.55056 11.6917 7.55056 11.5C7.55056 11.3083 7.70739 11.1502 7.90031 11.1502H9.65031V9.399Z" fill="#84919A"/>
</svg>
