<svg width="20" height="20" viewBox="0 0 20 20" fill="none" xmlns="http://www.w3.org/2000/svg">
<g clip-path="url(#clip0_749_2071)">
<path fill-rule="evenodd" clip-rule="evenodd" d="M8.57695 12.039H12.7711C13.0273 11.3856 13.168 10.6732 13.168 9.92642C13.168 9.13205 13.0086 8.37617 12.7203 7.6881L12.7098 7.66447C12.4027 6.94212 11.9512 6.28986 11.391 5.74314V5.74123C10.8272 5.19106 10.158 4.75441 9.42148 4.45615C8.71016 4.16888 7.92617 4.01001 7.10156 4.01001C6.28633 4.01001 5.51133 4.16507 4.80586 4.44624L4.78164 4.45653C4.0451 4.75443 3.37597 5.19098 2.8125 5.74123L2.81055 5.74314C2.24638 6.29271 1.79879 6.94533 1.49336 7.66371C1.19844 8.35788 1.03555 9.12215 1.03555 9.92642C1.03555 10.7215 1.19453 11.4778 1.48281 12.1659L1.49336 12.1891C1.68608 12.6425 1.93592 13.0707 2.23711 13.4639C3.06719 13.0334 4.46484 13.0726 5.26484 12.5286C5.31641 12.4528 5.37227 12.3423 5.42617 12.2227C5.50742 12.0417 5.58086 11.8447 5.62813 11.7095C5.43047 11.4824 5.26133 11.2267 5.09883 10.9738C4.84258 10.576 4.27266 9.8285 4.25899 9.38351C4.25586 9.28293 4.27344 9.19187 4.31172 9.11148C4.35117 9.0269 4.41289 8.95718 4.49609 8.9027C4.53477 8.87717 4.57852 8.85583 4.62578 8.83869C4.59063 8.3876 4.57852 7.8203 4.60039 7.34444C4.61172 7.23205 4.63477 7.1189 4.66641 7.00612C4.80391 6.5295 5.14609 6.14508 5.57109 5.88182C5.80508 5.73628 6.06172 5.62693 6.32969 5.55302C6.5 5.50616 6.18477 4.97582 6.36055 4.95753C7.21133 4.87181 8.58711 5.63036 9.18125 6.25671C9.47852 6.57027 9.66563 6.98707 9.70625 7.53722L9.67305 8.89317C9.82149 8.93698 9.9168 9.02918 9.95508 9.17815C10.0836 9.67192 9.40664 10.5391 9.18906 10.8892C8.96484 11.2488 8.73633 11.6112 8.44024 11.8958C8.46641 11.9335 8.49414 11.9708 8.52031 12.0093L8.54102 12.0394L8.57695 12.039ZM10.3891 14.1619C10.3891 14.0118 10.5137 13.8906 10.6672 13.8906C10.8207 13.8906 10.9457 14.0118 10.9457 14.1619V14.5128L11.2438 14.3181C11.274 14.2983 11.308 14.2846 11.3437 14.2776C11.3794 14.2707 11.4162 14.2706 11.4519 14.2775C11.4876 14.2844 11.5216 14.2981 11.5519 14.3178C11.5822 14.3375 11.6083 14.3629 11.6285 14.3924C11.7141 14.5162 11.6797 14.6842 11.5523 14.7677L11.1676 15.0187L11.5527 15.2683C11.6805 15.351 11.7156 15.519 11.6313 15.6436C11.5465 15.7682 11.3738 15.8024 11.2461 15.7202L10.9457 15.5247V15.8767C10.9457 16.0268 10.8207 16.1484 10.6672 16.1484C10.5137 16.1484 10.3891 16.0268 10.3891 15.8767V15.5262L10.0906 15.7209C10.0294 15.7606 9.95463 15.7751 9.88253 15.7612C9.81043 15.7473 9.74692 15.7061 9.70586 15.6466C9.6856 15.6171 9.67149 15.584 9.66435 15.5491C9.65722 15.5143 9.65718 15.4784 9.66426 15.4436C9.67133 15.4087 9.68537 15.3756 9.70558 15.346C9.72579 15.3165 9.75177 15.2911 9.78203 15.2713L10.1672 15.0203L9.78164 14.7703C9.65391 14.688 9.61914 14.52 9.70352 14.3951C9.74425 14.3353 9.80762 14.2937 9.87975 14.2794C9.95188 14.2651 10.0269 14.2793 10.0883 14.3189L10.3891 14.5139V14.1619ZM16.3293 14.1619C16.3292 14.1263 16.3364 14.091 16.3504 14.058C16.3643 14.0251 16.3848 13.9952 16.4106 13.97C16.4365 13.9448 16.4672 13.9248 16.5009 13.9112C16.5347 13.8976 16.5709 13.8906 16.6074 13.8906C16.7609 13.8906 16.8855 14.0118 16.8855 14.1619V14.5128L17.184 14.3181C17.2451 14.2795 17.3194 14.2659 17.3907 14.2802C17.462 14.2945 17.5247 14.3356 17.5653 14.3947C17.6058 14.4537 17.6209 14.5259 17.6073 14.5957C17.5937 14.6655 17.5525 14.7273 17.4926 14.7677L17.1074 15.0187L17.493 15.2683C17.5543 15.308 17.5969 15.3698 17.6116 15.4402C17.6262 15.5105 17.6117 15.5837 17.5711 15.6436C17.4867 15.7682 17.3141 15.8024 17.1863 15.7202L16.8855 15.5247V15.8767C16.8855 16.0268 16.7609 16.1484 16.6074 16.1484C16.4535 16.1484 16.3293 16.0268 16.3293 15.8767V15.5262L16.0309 15.7209C15.9035 15.8036 15.7313 15.7704 15.6461 15.6466C15.5609 15.5224 15.5949 15.3544 15.7219 15.2713L16.107 15.0203L15.7219 14.7703C15.5941 14.688 15.559 14.52 15.6438 14.3951C15.7281 14.2705 15.9004 14.2366 16.0285 14.3189L16.3293 14.5139V14.1619ZM13.3594 14.1619C13.3594 14.0118 13.484 13.8906 13.6375 13.8906C13.791 13.8906 13.916 14.0118 13.916 14.1619V14.5128L14.2141 14.3181C14.2443 14.2983 14.2783 14.2846 14.314 14.2776C14.3497 14.2707 14.3865 14.2706 14.4222 14.2775C14.458 14.2844 14.4919 14.2981 14.5222 14.3178C14.5525 14.3375 14.5786 14.3629 14.5988 14.3924C14.684 14.5162 14.65 14.6842 14.523 14.7677L14.1379 15.0187L14.523 15.2683C14.6508 15.351 14.6859 15.519 14.6012 15.6436C14.5168 15.7682 14.3441 15.8024 14.2164 15.7202L13.916 15.5247V15.8767C13.916 16.0268 13.791 16.1484 13.6375 16.1484C13.484 16.1484 13.3594 16.0268 13.3594 15.8767V15.5262L13.0609 15.7209C12.9336 15.8036 12.7613 15.7704 12.6762 15.6466C12.6559 15.6171 12.6418 15.584 12.6347 15.5491C12.6275 15.5143 12.6275 15.4784 12.6346 15.4436C12.6416 15.4087 12.6557 15.3756 12.6759 15.346C12.6961 15.3165 12.7221 15.2911 12.7523 15.2713L13.1371 15.0203L12.752 14.7703C12.6242 14.688 12.5891 14.52 12.6738 14.3951C12.7146 14.3353 12.7779 14.2937 12.8501 14.2794C12.9222 14.2651 12.9972 14.2793 13.0586 14.3189L13.3594 14.5139V14.1619ZM13.8652 12.039H18.6977C19.4137 12.039 20 12.6109 20 13.3089V16.7298C20 17.422 19.4074 18 18.6977 18H8.57695C8.21992 18 7.89336 17.8567 7.65742 17.6262C7.44414 17.4178 7.31114 17.1439 7.28086 16.8509C6.28943 16.8759 5.3037 16.6974 4.3875 16.3271L4.38594 16.3263C3.51875 15.9766 2.7375 15.4622 2.08281 14.8237L2.08086 14.8218C1.42578 14.1829 0.898438 13.4209 0.539063 12.5754L0.528516 12.5488C0.179113 11.7165 -0.00041436 10.8258 7.18121e-07 9.92642C7.18121e-07 8.99147 0.191798 8.09728 0.539063 7.27929L0.539844 7.27777C0.898438 6.43197 1.42578 5.66999 2.08086 5.03145L2.08281 5.02954C2.73789 4.39062 3.51875 3.87628 4.38555 3.52577L4.41328 3.51548C5.26644 3.17466 6.17961 2.99956 7.10156 3C8.06016 3 8.97734 3.18707 9.81563 3.52577L9.81719 3.52653C10.6852 3.87666 11.4668 4.39138 12.1215 5.0303C12.7823 5.67327 13.3066 6.43715 13.6641 7.27815L13.6746 7.3052C14.0243 8.137 14.204 9.02742 14.2035 9.92642C14.2035 10.6614 14.0848 11.3715 13.8652 12.039ZM8.57695 12.796H18.6977C18.9871 12.796 19.2234 13.0307 19.2234 13.3089V16.7298C19.2234 17.0079 18.9832 17.2426 18.6977 17.2426H8.57695C8.2918 17.2426 8.05117 17.0117 8.05117 16.7298V13.3089C8.05117 13.0269 8.28789 12.796 8.57695 12.796Z" fill="#84919A"/>
</g>
<defs>
<clipPath id="clip0_749_2071">
<rect width="20" height="15" fill="white" transform="translate(0 3)"/>
</clipPath>
</defs>
</svg>
