<svg width="20" height="20" viewBox="0 0 20 20" fill="none" xmlns="http://www.w3.org/2000/svg">
<path d="M8.91489 3C8.59575 3 8.34043 3.0625 8.14894 3.1875C7.95745 3.25 7.76596 3.375 7.57447 3.5625L4.6383 6.3125C4.44681 6.4375 4.31915 6.625 4.19149 6.875C4.06383 7.125 4 7.4375 4 7.6875V16.0625C4 17.125 4.89362 18 5.97872 18H14.0213C15.1064 18 16 17.125 16 16.0625V4.9375C16 3.875 15.1064 3 14.0213 3H8.91489ZM8.78723 15C7.51064 14.75 6.48936 13.6875 6.23404 12.4375C5.85106 10.4375 7.25532 8.6875 9.17021 8.4375C9.3617 8.4375 9.55319 8.5625 9.55319 8.8125V11.4375C9.55319 11.625 9.74468 11.8125 9.93617 11.8125H12.617C12.8085 11.8125 13 12 13 12.1875C12.6809 14.0625 10.8298 15.4375 8.78723 15ZM13.8298 10.5H11.1489C10.9574 10.5 10.766 10.3125 10.766 10.125V7.5625C10.766 7.375 10.9574 7.1875 11.1489 7.1875C12.6809 7.375 13.8936 8.5625 14.0851 10.0625C14.2128 10.3125 14.0851 10.5 13.8298 10.5Z" fill="#84919A"/>
</svg>
