<svg width="20" height="20" viewBox="0 0 20 20" fill="none" xmlns="http://www.w3.org/2000/svg">
<path fill-rule="evenodd" clip-rule="evenodd" d="M17 7.92592H14.8364C14.4146 7.92592 14.0727 7.61151 14.0727 7.22367V4.99988H10.6364C10.2849 4.99988 10 5.26189 10 5.58509V14.4802C10 14.8034 10.2849 15.0654 10.6364 15.0654H16.3636C16.7151 15.0654 17 14.8034 17 14.4802V7.92592ZM11.9091 9.44746C11.7685 9.44746 11.6545 9.55226 11.6545 9.68154C11.6545 9.81082 11.7685 9.91562 11.9091 9.91562H15.2182C15.3588 9.91562 15.4727 9.81082 15.4727 9.68154C15.4727 9.55226 15.3588 9.44746 15.2182 9.44746H11.9091ZM11.9091 12.9587C11.7685 12.9587 11.6545 13.0635 11.6545 13.1928C11.6545 13.3221 11.7685 13.4269 11.9091 13.4269H15.2182C15.3588 13.4269 15.4727 13.3221 15.4727 13.1928C15.4727 13.0635 15.3588 12.9587 15.2182 12.9587H11.9091ZM11.6545 11.4372C11.6545 11.3079 11.7685 11.2031 11.9091 11.2031H15.2182C15.3588 11.2031 15.4727 11.3079 15.4727 11.4372C15.4727 11.5664 15.3588 11.6712 15.2182 11.6712H11.9091C11.7685 11.6712 11.6545 11.5664 11.6545 11.4372Z" fill="#84919A"/>
<path d="M14.5819 7.22369C14.5819 7.35298 14.6959 7.45777 14.8364 7.45777H16.8728L14.5819 5.11694V7.22369Z" fill="#84919A"/>
<path d="M9.56 5.19995V14.8H8.76C8.58326 14.8 8.44 14.6567 8.44 14.48V6.15995C8.44 5.62976 8.86981 5.19995 9.4 5.19995H9.56Z" fill="#84919A"/>
<path d="M3.83167 6.77277C3.92095 6.32355 4.31519 6 4.77327 6H7.47999C7.65672 6 7.79999 6.14326 7.79999 6.32V10.32H3.12639L3.83167 6.77277Z" fill="#84919A"/>
<path d="M5.80001 12.88C6.63948 12.88 7.32001 13.5605 7.32001 14.4C7.32001 14.4918 7.31186 14.5817 7.29626 14.6691C7.29522 14.6749 7.29414 14.6808 7.29303 14.6866C7.159 15.3891 6.54151 15.92 5.80001 15.92C5.09897 15.92 4.50881 15.4454 4.33313 14.8C4.29857 14.6725 4.28001 14.5384 4.28001 14.4C4.28001 13.5605 4.96054 12.88 5.80001 12.88Z" fill="#84919A"/>
<path d="M2.99999 10.96V13.84C2.99999 14.2687 3.28111 14.6318 3.66911 14.7551C3.64991 14.6395 3.63999 14.5209 3.63999 14.4C3.63999 13.207 4.60706 12.24 5.79999 12.24C6.70367 12.24 7.47775 12.7949 7.79999 13.5826V10.96H2.99999Z" fill="#84919A"/>
</svg>
