<svg width="20" height="20" viewBox="0 0 20 20" fill="none" xmlns="http://www.w3.org/2000/svg">
<path d="M12.3443 5.74978L12.3441 2H3.90613V18H16.0941V5.75L12.3443 5.74978ZM8.23972 8.33153L10.2817 10.3735L12.4636 8.18791H11.5506V7.25041L10.5 10.3735L14.0627 9.77381H13.1252V8.85209L10.2817 11.4926L8.23972 9.65737L6.58607 11.311L14.5 11.6999L8.23972 8.33153ZM14.097 15.4706H5.93235V14.5331H14.097V15.4706ZM14.097 13.5954H5.93235V12.6579H14.097V13.5954Z" fill="#84919A"/>
<path d="M13.2816 2.20557L13.2817 4.81207L15.8367 4.81216L13.2816 2.20557Z" fill="#84919A"/>
<path d="M11.823 10.3687L9.78102 8.32674L7.59918 10.5123H8.51218V11.4498H6.00002V8.92642H6.93752V9.84814L9.78046 7.0003L11.823 9.04286L13.4767 7.3892L14.1396 8.05211L11.823 10.3687Z" fill="white"/>
</svg>
