<svg width="20" height="20" viewBox="0 0 20 20" fill="none" xmlns="http://www.w3.org/2000/svg">
<path d="M10.2668 2L6.45038 4.0577C8.18804 5.01094 7.27025 4.50754 10.2665 6.15083L14.0832 4.0577L10.2668 2Z" fill="#84919A"/>
<path d="M6.0337 9.13062L2.21729 11.188C3.91356 12.1188 3.02904 11.6336 6.03343 13.2812L9.83659 11.1953C8.6126 10.5167 9.37594 10.9324 6.0337 9.13062Z" fill="#84919A"/>
<path d="M6.23163 18L10.0675 15.8736V11.5226L6.23163 13.6263V18Z" fill="#84919A"/>
<path d="M14.4994 9.13062C11.1439 10.9394 11.8967 10.5299 10.6962 11.1953C12.208 12.025 11.4228 11.5943 14.4991 13.2814L18.3158 11.1883L14.4994 9.13062Z" fill="#84919A"/>
<path d="M14.3005 8.74296V4.39197L10.4646 6.49565V10.8542C11.7175 10.179 10.9491 10.6008 14.3005 8.74296Z" fill="#84919A"/>
<path d="M10.4658 11.5226V15.8736L14.2998 18V13.626C11.0498 11.8429 11.8431 12.2781 10.4658 11.5226Z" fill="#84919A"/>
<path d="M10.0673 10.8537V6.49538C6.9726 4.79745 7.76515 5.23214 6.23334 4.39197V8.74296C9.55854 10.5872 8.78735 10.1636 10.0673 10.8537Z" fill="#84919A"/>
<path d="M14.697 18L18.5329 15.8736V11.5226L14.697 13.6263V18Z" fill="#84919A"/>
<path d="M2 11.5226V15.8736L5.834 18V13.626C2.76685 11.9429 3.56022 12.3784 2 11.5226Z" fill="#84919A"/>
<path d="M18.8757 11.0612C18.8862 11.069 18.8968 11.0771 18.9022 11.0877C18.9041 11.0907 18.9044 11.0939 18.906 11.0969C18.9046 11.0936 18.9049 11.0899 18.9033 11.0869C18.8968 11.0758 18.8852 11.0693 18.8765 11.0598C18.8627 11.0441 18.8513 11.0266 18.8329 11.0157L18.8332 11.016C18.8519 11.0268 18.8624 11.0452 18.8757 11.0612Z" fill="#84919A"/>
</svg>
