<svg width="20" height="20" viewBox="0 0 20 20" fill="none" xmlns="http://www.w3.org/2000/svg">
<path d="M13.2628 13.035H6.64266C6.48817 13.035 6.36682 13.1564 6.36682 13.3109V17.7243C6.36682 17.8787 6.48817 18.0001 6.64266 18.0001H13.2628C13.4173 18.0001 13.5386 17.8787 13.5386 17.7243V13.3109C13.5386 13.1564 13.4173 13.035 13.2628 13.035ZM12.1594 16.8968H7.74602C7.59153 16.8968 7.47018 16.7754 7.47018 16.6209C7.47018 16.4665 7.59153 16.3451 7.74602 16.3451H8.02185V15.5176C8.02185 15.3631 8.14321 15.2417 8.29769 15.2417H9.12521V14.9659C9.12521 14.8114 9.24656 14.6901 9.40105 14.6901H10.2286V14.4142C10.2286 14.2597 10.3499 14.1384 10.5044 14.1384H11.6078C11.7622 14.1384 11.8836 14.2597 11.8836 14.4142V16.3451H12.1594C12.3139 16.3451 12.4353 16.4665 12.4353 16.6209C12.4353 16.7754 12.3139 16.8968 12.1594 16.8968Z" fill="#84919A"/>
<path d="M8.57352 15.7935H9.12519V16.3451H8.57352V15.7935Z" fill="#84919A"/>
<path d="M9.67688 15.2417H10.2286V16.3451H9.67688V15.2417Z" fill="#84919A"/>
<path d="M10.7802 14.6901H11.3319V16.3451H10.7802V14.6901Z" fill="#84919A"/>
<path d="M15.3536 5.55965L10.2285 8.11941V12.4832H13.2628C13.7207 12.4832 14.0903 12.8528 14.0903 13.3107V13.7576L15.7508 12.9245C15.8446 12.8804 15.9053 12.7866 15.9053 12.6818V5.28381L15.3536 5.55965ZM14.6254 11.7439L13.6821 12.2184C13.6379 12.2349 13.5993 12.246 13.5552 12.246C13.4558 12.246 13.3565 12.1908 13.3069 12.0915C13.2407 11.9591 13.2959 11.7936 13.4338 11.7219L14.3772 11.2529C14.5151 11.1812 14.6806 11.2364 14.7468 11.3743C14.8185 11.5122 14.7633 11.6777 14.6254 11.7439Z" fill="#84919A"/>
<path d="M8.06047 6.69621L13.0311 4.12538L13.6324 3.81092L12.3249 3.15442L11.7181 3.46888L6.77505 6.05625L8.06047 6.69621Z" fill="#84919A"/>
<path d="M6.1627 5.74739L11.1112 3.16554L11.7126 2.85108L10.0741 2.02909C9.99687 1.99047 9.90858 1.99047 9.83137 2.02909L4.28146 4.80953L4.89385 5.11298L6.1627 5.74739Z" fill="#84919A"/>
<path d="M6.44412 9.30015L6.90751 8.95812C6.96822 8.91397 7.04543 8.89744 7.12268 8.91397C7.19992 8.92502 7.26612 8.97468 7.30474 9.03536L7.7847 9.81873V7.17621L6.44412 6.50867V9.30015Z" fill="#84919A"/>
<path d="M9.67684 8.11941V12.4832H6.64262C6.18471 12.4832 5.8151 12.8528 5.8151 13.3107V13.7576L4.15454 12.9245C4.06077 12.8804 4.00009 12.7866 4.00009 12.6818V5.28381L4.55177 5.55965L5.89234 6.23268V9.84064C5.89234 9.94546 5.95302 10.0448 6.04679 10.0889C6.1406 10.1386 6.25091 10.1275 6.33368 10.0668L6.99018 9.58137L7.82874 10.933C7.87837 11.0157 7.96666 11.0654 8.06043 11.0654C8.08801 11.0654 8.11006 11.0599 8.13767 11.0543C8.2535 11.0212 8.33627 10.9109 8.33627 10.7895V7.4519L9.67684 8.11941Z" fill="#84919A"/>
<path d="M15.624 4.8095L14.2448 4.11438L13.6434 4.42884L8.67279 7.0052L9.95269 7.64513L15.0116 5.11295L15.624 4.8095Z" fill="#84919A"/>
</svg>
