<svg width="20" height="20" viewBox="0 0 20 20" fill="none" xmlns="http://www.w3.org/2000/svg">
<path d="M14.8629 2.27441V5.12493H17.7244L14.8629 2.27441Z" fill="#84919A"/>
<path d="M14.3922 6.06248C14.1323 6.06248 13.9216 5.85261 13.9216 5.59373V2H7.17647C6.39803 2 5.76471 2.63084 5.76471 3.40624V8.6465C5.91975 8.6325 6.07665 8.62497 6.2353 8.62497C7.83931 8.62497 9.2752 9.35547 10.2254 10.5H15.3333C15.5932 10.5 15.8039 10.7098 15.8039 10.9687C15.8039 11.2276 15.5932 11.4375 15.3333 11.4375H10.8454C11.1396 12.0092 11.3293 12.6426 11.3901 13.3124H15.3333C15.5932 13.3124 15.8039 13.5223 15.8039 13.7812C15.8039 14.0401 15.5932 14.2499 15.3333 14.2499H11.3901C11.2494 15.798 10.419 17.1507 9.20809 17.9999H16.5882C17.3667 17.9999 18 17.3691 18 16.5937V6.06248H14.3922ZM15.3333 8.62497H8.43137C8.17148 8.62497 7.96079 8.4151 7.96079 8.15622C7.96079 7.89735 8.17148 7.68747 8.43137 7.68747H15.3333C15.5932 7.68747 15.8039 7.89735 15.8039 8.15622C15.8039 8.4151 15.5932 8.62497 15.3333 8.62497Z" fill="#84919A"/>
<path d="M6.23529 9.5625C3.89995 9.5625 2 11.455 2 13.7812C2 16.1074 3.89995 18 6.23529 18C8.57063 18 10.4706 16.1074 10.4706 13.7812C10.4706 11.455 8.57063 9.5625 6.23529 9.5625ZM5.97386 13.3125H6.49675C7.04451 13.3125 7.49019 13.7564 7.49019 14.3021V14.8229C7.49019 15.2971 7.15356 15.6943 6.70588 15.7902V15.9687C6.70588 16.2276 6.49518 16.4375 6.23529 16.4375C5.9754 16.4375 5.7647 16.2276 5.7647 15.9687V15.7902C5.31702 15.6943 4.98039 15.2971 4.98039 14.8229C4.98039 14.564 5.19109 14.3541 5.45098 14.3541C5.71087 14.3541 5.92157 14.564 5.92157 14.8229C5.92157 14.8516 5.94503 14.875 5.97386 14.875H6.49675C6.52558 14.875 6.54905 14.8516 6.54905 14.8229V14.3021C6.54905 14.2734 6.52558 14.25 6.49675 14.25H5.97386C5.42607 14.25 4.98039 13.806 4.98039 13.2604V12.7396C4.98039 12.2654 5.31702 11.8682 5.7647 11.7722V11.5937C5.7647 11.3349 5.9754 11.125 6.23529 11.125C6.49518 11.125 6.70588 11.3349 6.70588 11.5937V11.7722C7.15356 11.8682 7.49019 12.2654 7.49019 12.7396C7.49019 12.9985 7.27949 13.2083 7.0196 13.2083C6.75971 13.2083 6.54902 12.9985 6.54902 12.7396C6.54902 12.7109 6.52555 12.6875 6.49672 12.6875H5.97383C5.945 12.6875 5.92153 12.7109 5.92153 12.7396V13.2604C5.92157 13.2891 5.94503 13.3125 5.97386 13.3125Z" fill="#84919A"/>
</svg>
