<svg width="20" height="20" viewBox="0 0 20 20" fill="none" xmlns="http://www.w3.org/2000/svg">
<path d="M11.3249 1H9.03737V2.68747C9.03737 2.99839 8.78578 3.24998 8.47487 3.24998C8.16395 3.24998 7.91236 2.99839 7.91236 2.68747V1H5.62488C5.31397 1 5.06238 1.25159 5.06238 1.5625V6.62496H11.8874V1.56247C11.8874 1.25159 11.6358 1 11.3249 1Z" fill="#84919A"/>
<path d="M19.1406 4.68589C19.0016 4.40794 18.6633 4.29698 18.3858 4.4343L16.7577 5.24839C16.1825 5.53625 15.8249 6.11465 15.8249 6.75793V14.5H1.12501C0.503667 14.5 0 15.0036 0 15.625C0 16.2462 0.503667 16.75 1.12501 16.75H1.22862C1.16558 16.9268 1.12501 17.1143 1.12501 17.3125C1.12501 18.243 1.88199 19 2.81252 19C3.74306 19 4.5 18.243 4.5 17.3125C4.5 17.1143 4.45942 16.9268 4.39639 16.75H12.5536C12.4905 16.9268 12.45 17.1143 12.45 17.3125C12.45 18.243 13.2069 19 14.1375 19C15.068 19 15.8249 18.243 15.8249 17.3125C15.8249 17.1143 15.7844 16.9268 15.7213 16.75H15.8249C16.4463 16.75 16.95 16.2462 16.95 15.625C16.95 15.2896 16.95 15.1602 16.95 15.1157C16.95 15.0993 16.95 15.0944 16.95 15.0948C16.95 14.9424 16.95 13.7929 16.95 6.75797C16.95 6.54317 17.0692 6.35038 17.2609 6.25479L18.889 5.4407C19.167 5.30165 19.2796 4.96381 19.1406 4.68589ZM2.81249 17.8749C2.50213 17.8749 2.24998 17.6227 2.24998 17.3124C2.24998 17.002 2.50213 16.7499 2.81249 16.7499C3.12284 16.7499 3.37499 17.002 3.37499 17.3124C3.37499 17.6227 3.12284 17.8749 2.81249 17.8749ZM14.1375 17.8749C13.8271 17.8749 13.575 17.6227 13.575 17.3124C13.575 17.002 13.8271 16.7499 14.1375 16.7499C14.4478 16.7499 14.7 17.002 14.7 17.3124C14.6999 17.6227 14.4478 17.8749 14.1375 17.8749Z" fill="#84919A"/>
<path d="M5.62499 7.75V9.43751C5.62499 9.74843 5.3734 10 5.06249 10C4.75157 10 4.49998 9.74843 4.49998 9.43751V7.75H2.8125C2.50159 7.75 2.25 8.00159 2.25 8.3125V13.375H7.91247V7.75H5.62499Z" fill="#84919A"/>
<path d="M14.1375 7.75004H12.45V9.43751C12.45 9.74843 12.1984 10 11.8875 10C11.5765 10 11.325 9.74843 11.325 9.43751V7.75H9.03748V13.375H14.6999V8.3125C14.6999 8.00163 14.4484 7.75004 14.1375 7.75004Z" fill="#84919A"/>
</svg>
