<svg width="20" height="20" viewBox="0 0 20 20" fill="none" xmlns="http://www.w3.org/2000/svg">
<path d="M13 5.5555V2.57217L16.0333 6.11106H13.5556C13.4082 6.11106 13.2669 6.05253 13.1627 5.94834C13.0585 5.84415 13 5.70284 13 5.5555ZM13.5556 7.22217C13.1135 7.22217 12.6896 7.04657 12.377 6.73401C12.0645 6.42145 11.8889 5.99753 11.8889 5.5555V2.22217H4.66667C4.22464 2.22217 3.80072 2.39776 3.48816 2.71032C3.17559 3.02288 3 3.44681 3 3.88883V16.1111C3 16.5531 3.17559 16.977 3.48816 17.2896C3.80072 17.6021 4.22464 17.7777 4.66667 17.7777H14.6667C15.1087 17.7777 15.5326 17.6021 15.8452 17.2896C16.1577 16.977 16.3333 16.5531 16.3333 16.1111V7.22217H13.5556Z" fill="#84919A"/>
<path fill-rule="evenodd" clip-rule="evenodd" d="M6.01108 9.60136C6.14058 8.13134 7.45339 7 9.02975 7H9.1925C10.7688 7 12.0817 8.13134 12.2111 9.60136C12.2809 10.3928 12.0196 11.1787 11.4823 11.7935L9.67617 13.8605C9.38412 14.1947 8.83812 14.1947 8.54608 13.8605L6.73987 11.7935C6.20264 11.1787 5.94136 10.3928 6.01108 9.60136ZM10.4414 9.47898C10.5518 9.3757 10.5518 9.20825 10.4414 9.10498C10.3311 9.0017 10.1522 9.0017 10.0418 9.10498L8.92269 10.1521L8.36885 9.6339C8.25849 9.53062 8.07954 9.53062 7.96917 9.6339C7.8588 9.73717 7.8588 9.90462 7.96917 10.0079L8.72285 10.7131C8.83323 10.8164 9.01215 10.8164 9.12252 10.7131L10.4414 9.47898Z" fill="white"/>
</svg>
