<svg width="20" height="20" viewBox="0 0 20 20" fill="none" xmlns="http://www.w3.org/2000/svg">
<path d="M10.3409 1.11716C10.5012 1.26662 10.5094 1.46432 10.5167 1.67012C10.5171 1.691 10.5175 1.71189 10.5179 1.7334C10.5183 1.75331 10.5187 1.77321 10.5192 1.79372C10.5193 1.81158 10.5194 1.82945 10.5196 1.84786C10.5268 1.90759 10.5385 1.94391 10.5734 1.99329C10.6216 2.01381 10.6216 2.01381 10.679 2.02053C10.7003 2.02401 10.7217 2.02749 10.7438 2.03107C10.7774 2.03585 10.7774 2.03585 10.8118 2.04073C10.8442 2.04579 10.8442 2.04579 10.8774 2.05094C10.9438 2.06104 11.0104 2.07026 11.077 2.07927C11.0993 2.08245 11.1217 2.08563 11.1447 2.08891C11.2735 2.10647 11.397 2.11523 11.527 2.11189C11.527 2.11971 11.527 2.12754 11.527 2.13561C11.6937 2.15941 11.8604 2.18304 12.0271 2.20654C12.0838 2.21456 12.1405 2.22261 12.1972 2.2307C12.2788 2.24235 12.3604 2.25385 12.442 2.26532C12.4672 2.26895 12.4924 2.27258 12.5184 2.27633C12.6423 2.29359 12.7609 2.30593 12.886 2.30164C12.886 2.3173 12.886 2.33295 12.886 2.34908C12.9961 2.34908 13.1063 2.34908 13.2197 2.34908C13.2197 2.36473 13.2197 2.38039 13.2197 2.39652C13.2395 2.3974 13.2592 2.39829 13.2795 2.3992C13.4939 2.41095 13.7044 2.43547 13.9167 2.46729C14.0437 2.48577 14.1643 2.49483 14.2926 2.49139C14.2926 2.49922 14.2926 2.50705 14.2926 2.51511C14.5256 2.54794 14.7586 2.58073 14.9916 2.61348C15.121 2.63168 15.2504 2.6499 15.3799 2.66813C15.4633 2.67989 15.5468 2.69161 15.6303 2.70333C15.6917 2.71197 15.7531 2.72066 15.8145 2.72935C15.9856 2.75345 16.1565 2.77708 16.3282 2.797C16.3535 2.79999 16.3788 2.80297 16.4049 2.80605C16.4492 2.81116 16.4936 2.81598 16.5379 2.82041C16.6906 2.83801 16.8255 2.88078 16.9396 2.987C17.0466 3.13814 17.0999 3.27075 17.0726 3.4574C17.0338 3.60261 16.9445 3.71323 16.8198 3.79595C16.6587 3.88738 16.4725 3.87277 16.2953 3.84339C16.3335 3.96724 16.385 4.08253 16.4392 4.20002C16.4487 4.22074 16.4581 4.24147 16.4679 4.26283C16.4982 4.32911 16.5286 4.39535 16.559 4.46158C16.714 4.79923 16.8651 5.13816 17.0105 5.48002C17.0263 5.48002 17.042 5.48002 17.0582 5.48002C17.0606 5.49986 17.063 5.5197 17.0655 5.54014C17.0842 5.63277 17.1176 5.71346 17.1566 5.79893C17.1639 5.81536 17.1712 5.83178 17.1787 5.84869C17.202 5.9008 17.2254 5.95281 17.2489 6.00481C17.2724 6.05699 17.2958 6.10919 17.3192 6.16143C17.3336 6.19384 17.3482 6.2262 17.3629 6.25853C17.3895 6.3179 17.4142 6.3746 17.4294 6.43795C17.4328 6.45058 17.4362 6.46322 17.4397 6.47623C17.4554 6.48406 17.4711 6.49189 17.4874 6.49995C17.5037 6.54859 17.5198 6.5973 17.5351 6.64625C17.5808 6.77553 17.6426 6.89822 17.7019 7.02177C17.7192 7.02212 17.7365 7.02247 17.7544 7.02282C17.8333 7.0246 17.9121 7.02689 17.991 7.02919C18.0319 7.02999 18.0319 7.02999 18.0735 7.03081C18.3309 7.03899 18.3309 7.03899 18.441 7.11665C18.5326 7.25327 18.498 7.40825 18.4678 7.56333C18.2977 8.35727 17.8475 8.98595 17.1774 9.44114C16.8205 9.66709 16.4321 9.79275 16.0159 9.85521C15.9407 9.86365 15.9407 9.86365 15.89 9.8918C15.8446 9.89219 15.7992 9.89096 15.7539 9.88893C15.7266 9.88779 15.6994 9.88664 15.6713 9.88546C15.6426 9.88413 15.614 9.8828 15.5845 9.88143C15.5282 9.87897 15.472 9.87653 15.4157 9.87411C15.3906 9.87296 15.3656 9.87182 15.3398 9.87064C15.2767 9.86833 15.214 9.86761 15.1509 9.86808C15.143 9.85243 15.1352 9.83678 15.1271 9.82065C15.0676 9.80211 15.0085 9.78581 14.9482 9.77024C14.2721 9.58275 13.7015 9.13809 13.3293 8.54777C13.2963 8.49007 13.2963 8.49007 13.2436 8.46865C13.2353 8.42918 13.2275 8.38963 13.2197 8.35005C13.1983 8.29875 13.1759 8.24788 13.1527 8.19736C13.0191 7.89646 12.9043 7.54434 12.9337 7.21153C12.9631 7.14405 12.9843 7.10637 13.0464 7.06635C13.1155 7.03973 13.1714 7.04014 13.2455 7.04086C13.2869 7.04109 13.2869 7.04109 13.3293 7.04132C13.3724 7.04192 13.3724 7.04192 13.4164 7.04253C13.4601 7.04285 13.4601 7.04285 13.5047 7.04318C13.5766 7.04374 13.6485 7.04452 13.7204 7.04549C13.7287 7.0181 13.7371 6.9907 13.7457 6.96248C13.7982 6.80601 13.8677 6.65687 13.9358 6.50665C13.9787 6.41186 14.0213 6.31691 14.064 6.22199C14.0729 6.2021 14.0819 6.18221 14.0911 6.16171C14.2003 5.91872 14.3075 5.67485 14.4148 5.431C14.5138 5.20587 14.6134 4.98099 14.7145 4.75677C14.7235 4.73685 14.7324 4.71694 14.7417 4.69642C14.7844 4.60159 14.8272 4.50682 14.8702 4.41215C14.8854 4.37853 14.9005 4.34491 14.9157 4.31129C14.9226 4.29607 14.9296 4.28085 14.9368 4.26517C14.9665 4.19889 14.984 4.15412 14.984 4.08059C14.9997 4.08059 15.0155 4.08059 15.0317 4.08059C15.0363 4.06683 15.0409 4.05307 15.0457 4.03889C15.0807 3.93419 15.1158 3.82949 15.1509 3.7248C15.0551 3.70877 14.9592 3.69304 14.8633 3.67736C14.8363 3.67283 14.8093 3.66831 14.7814 3.66365C14.6487 3.64209 14.5225 3.6237 14.388 3.62992C14.388 3.61426 14.388 3.59861 14.388 3.58248C14.3583 3.58077 14.3583 3.58077 14.328 3.57902C14.1278 3.56626 13.9306 3.54474 13.7319 3.51672C13.6809 3.50954 13.63 3.5025 13.579 3.49549C13.4712 3.48063 13.3633 3.4656 13.2555 3.45054C13.1297 3.43299 13.0039 3.41552 12.8781 3.3982C12.8281 3.39129 12.7782 3.38426 12.7282 3.37723C12.6978 3.37303 12.6674 3.36883 12.6361 3.36451C12.5961 3.35893 12.5961 3.35893 12.5554 3.35323C12.4821 3.34544 12.4112 3.34386 12.3376 3.34529C12.3376 3.32963 12.3376 3.31398 12.3376 3.29785C12.3093 3.2967 12.3093 3.2967 12.2805 3.29553C12.0046 3.28097 11.7328 3.24304 11.4594 3.20401C11.3794 3.19259 11.2994 3.18134 11.2194 3.17013C11.1676 3.16283 11.1158 3.15553 11.0641 3.14821C11.0288 3.14325 11.0288 3.14325 10.9929 3.13818C10.8738 3.12115 10.755 3.10292 10.6364 3.08311C10.611 3.07889 10.5857 3.07467 10.5596 3.07032C10.5406 3.06713 10.5215 3.06394 10.5018 3.06066C10.5038 4.02035 10.506 4.98003 10.5085 5.93972C10.5088 6.05293 10.5091 6.16614 10.5094 6.27935C10.5095 6.31316 10.5095 6.31316 10.5096 6.34765C10.5105 6.71295 10.5113 7.07826 10.512 7.44356C10.5128 7.81819 10.5137 8.19282 10.5148 8.56745C10.5154 8.79875 10.516 9.03005 10.5163 9.26136C10.5166 9.41981 10.517 9.57826 10.5175 9.73672C10.5179 9.82824 10.5181 9.91976 10.5181 10.0113C10.5182 10.1103 10.5186 10.2094 10.519 10.3085C10.519 10.3522 10.519 10.3522 10.5189 10.3968C10.5191 10.4232 10.5192 10.4496 10.5194 10.4768C10.5195 10.4997 10.5195 10.5226 10.5196 10.5462C10.5218 10.6096 10.5218 10.6096 10.5734 10.6745C10.6224 10.6846 10.6224 10.6846 10.6797 10.6819C10.7017 10.6817 10.7238 10.6815 10.7465 10.6814C10.7705 10.6809 10.7944 10.6804 10.8191 10.6798C10.8438 10.6796 10.8685 10.6794 10.894 10.6792C10.9734 10.6785 11.0528 10.6773 11.1321 10.676C11.2107 10.6749 11.2894 10.6739 11.368 10.6731C11.4169 10.6727 11.4658 10.672 11.5148 10.671C11.9068 10.667 11.9068 10.667 12.0471 10.7724C12.0643 10.7949 12.0815 10.8174 12.0992 10.8406C12.1176 10.862 12.1176 10.862 12.1363 10.8838C12.2757 11.0527 12.2977 11.2209 12.2929 11.4336C12.2927 11.4519 12.2925 11.4703 12.2923 11.4892C12.2917 11.5339 12.2909 11.5786 12.2899 11.6233C12.3158 11.6231 12.3416 11.6228 12.3682 11.6226C12.4654 11.6217 12.5627 11.6212 12.66 11.6207C12.7018 11.6205 12.7436 11.6201 12.7855 11.6197C13.2674 11.6151 13.6641 11.6464 14.0277 11.9987C14.0443 12.0157 14.0609 12.0327 14.078 12.0503C14.0917 12.0633 14.1053 12.0764 14.1194 12.0899C14.3343 12.3125 14.4193 12.6295 14.4184 12.9302C14.4185 12.9512 14.4186 12.9721 14.4187 12.9936C14.4191 13.0634 14.4191 13.1331 14.4191 13.2028C14.4193 13.2529 14.4195 13.3031 14.4197 13.3533C14.4202 13.4893 14.4205 13.6253 14.4206 13.7613C14.4207 13.8464 14.4208 13.9315 14.421 14.0165C14.4216 14.3138 14.4219 14.611 14.422 14.9082C14.4221 15.1847 14.4228 15.4611 14.4238 15.7376C14.4246 15.9754 14.425 16.2132 14.425 16.451C14.425 16.5928 14.4252 16.7346 14.4259 16.8764C14.4265 17.01 14.4266 17.1435 14.4262 17.277C14.4261 17.3258 14.4263 17.3746 14.4267 17.4234C14.4296 17.8189 14.3851 18.1369 14.1257 18.4545C14.1036 18.4837 14.1036 18.4837 14.0811 18.5136C13.8617 18.7707 13.5248 18.9262 13.1895 18.9576C13.1345 18.9602 13.0796 18.9616 13.0245 18.9624C12.9947 18.9631 12.9947 18.9631 12.9644 18.9638C12.902 18.9652 12.8396 18.9663 12.7772 18.9674C12.7345 18.9683 12.6919 18.9692 12.6492 18.9702C12.5453 18.9724 12.4415 18.9744 12.3376 18.9763C12.3376 18.9841 12.3376 18.9919 12.3376 19C12.2275 19 12.1173 19 12.0038 19C12.0038 18.9922 12.0038 18.9843 12.0038 18.9763C11.8386 18.9763 11.6734 18.9763 11.5032 18.9763C11.5032 18.9841 11.5032 18.9919 11.5032 19C11.4481 19 11.393 19 11.3363 19C11.3363 18.9922 11.3363 18.9843 11.3363 18.9763C11.2025 18.9763 11.0688 18.9763 10.931 18.9763C10.931 18.9841 10.931 18.9919 10.931 19C10.75 19 10.5691 19 10.3826 19C10.3826 18.9922 10.3826 18.9843 10.3826 18.9763C10.3552 18.9763 10.3277 18.9764 10.2994 18.9764C7.97086 18.9808 7.97086 18.9808 7.31131 18.9713C7.26353 18.9707 7.21575 18.9702 7.16797 18.9699C6.87422 18.9676 6.58939 18.9543 6.32271 18.8174C6.30137 18.8072 6.28004 18.797 6.25806 18.7865C6.24233 18.7944 6.22659 18.8022 6.21038 18.8102C6.20251 18.7868 6.19464 18.7633 6.18654 18.7391C6.1438 18.7032 6.1438 18.7032 6.09117 18.6679C5.77914 18.4326 5.63324 18.1252 5.5733 17.7481C5.55122 17.573 5.55679 17.3952 5.55741 17.2191C5.55731 17.1722 5.55718 17.1253 5.55703 17.0784C5.5567 16.9522 5.55683 16.8259 5.55705 16.6996C5.55724 16.5668 5.55707 16.434 5.55696 16.3011C5.55683 16.0782 5.557 15.8552 5.55734 15.6323C5.55773 15.3753 5.5576 15.1184 5.55721 14.8615C5.55688 14.64 5.55684 14.4185 5.55702 14.1971C5.55713 14.0652 5.55715 13.9333 5.55691 13.8014C5.55671 13.6773 5.55685 13.5532 5.55726 13.4292C5.55736 13.3839 5.55733 13.3387 5.55717 13.2934C5.55559 12.797 5.61108 12.3556 5.97197 11.9791C6.02084 11.9378 6.07018 11.9002 6.12302 11.8642C6.16623 11.8361 6.16623 11.8361 6.21038 11.7893C6.26101 11.7678 6.31227 11.7477 6.36386 11.7286C6.39136 11.7183 6.41887 11.708 6.44721 11.6973C6.55833 11.6569 6.61272 11.6211 6.73139 11.6233C6.73926 11.6077 6.77447 11.6157 6.78257 11.5996C6.88051 11.599 6.97844 11.5986 7.07637 11.5983C7.1096 11.5982 7.14282 11.598 7.17604 11.5978C7.35642 11.5967 7.53345 11.5983 7.71239 11.6233C7.71176 11.6095 7.71114 11.5956 7.7105 11.5813C7.68972 11.0512 7.68972 11.0512 7.83159 10.888C7.97632 10.7507 8.11317 10.6946 8.31289 10.6834C8.32862 10.6825 8.34436 10.6816 8.36056 10.6807C8.47024 10.6747 8.57936 10.6738 8.68914 10.6753C8.74709 10.6744 8.80081 10.688 8.85677 10.6731C8.85677 10.6888 8.85677 10.6821 8.85677 10.6983C8.88237 10.6965 8.90798 10.6948 8.93435 10.6931C8.96859 10.6908 9.00283 10.6886 9.03707 10.6864C9.05387 10.6853 9.07067 10.6841 9.08797 10.683C9.19389 10.6762 9.29892 10.6735 9.40513 10.6745C9.42873 10.6745 9.45233 10.6745 9.47665 10.6745C9.47775 10.3692 9.4786 10.0638 9.47912 9.75849C9.47937 9.61672 9.47971 9.47495 9.48025 9.33317C9.48076 9.19645 9.48105 9.05973 9.48117 8.92301C9.48126 8.87075 9.48144 8.81849 9.48169 8.76623C9.48204 8.69324 9.48209 8.62026 9.48206 8.54728C9.48224 8.52549 9.48241 8.5037 9.48258 8.48126C9.48248 8.45152 9.48248 8.45152 9.48238 8.42118C9.48243 8.40391 9.48247 8.38664 9.48252 8.36884C9.4802 8.32031 9.4802 8.32031 9.42897 8.27889C9.43791 8.22849 9.43791 8.22849 9.45281 8.18402C9.46068 8.19967 9.46854 8.21533 9.47665 8.23146C9.48452 7.68354 9.49239 7.13563 9.50049 6.57111C9.47689 6.57111 9.45329 6.57111 9.42897 6.57111C9.43684 6.5398 9.4447 6.50849 9.45281 6.47623C9.45281 6.49189 9.45281 6.50754 9.45281 6.52367C9.46854 6.52367 9.48428 6.52367 9.50049 6.52367C9.49933 6.50017 9.49933 6.50017 9.49814 6.4762C9.46686 5.80398 9.47864 5.13173 9.48607 4.45907C9.48778 4.30097 9.48931 4.14288 9.49085 3.98478C9.49389 3.67674 9.49712 3.3687 9.50049 3.06066C9.48476 3.06066 9.46902 3.06066 9.45281 3.06066C9.46068 3.08414 9.46854 3.10762 9.47665 3.13181C9.44125 3.1553 9.44125 3.1553 9.40513 3.17925C9.40513 3.15577 9.40513 3.13229 9.40513 3.1081C9.18482 3.12226 8.96746 3.14685 8.74893 3.17768C8.71552 3.18232 8.68211 3.18695 8.6487 3.19158C8.55892 3.20404 8.46916 3.21661 8.37939 3.22921C8.28448 3.24251 8.18955 3.25571 8.09462 3.26891C7.91583 3.29381 7.73706 3.3188 7.55829 3.34385C7.42086 3.3631 7.28342 3.38231 7.14598 3.40151C6.38099 3.50833 5.61611 3.61587 4.85142 3.7248C4.89132 3.8484 4.93361 3.96866 4.9873 4.08716C4.9989 4.11302 5.0105 4.13887 5.02245 4.1655C5.03436 4.19178 5.04627 4.21806 5.05854 4.24514C5.08256 4.29819 5.1065 4.35128 5.13035 4.40441C5.14088 4.42764 5.15141 4.45088 5.16226 4.47482C5.1852 4.53125 5.1852 4.53125 5.1852 4.57869C5.20094 4.58652 5.21667 4.59434 5.23288 4.60241C5.25658 4.65448 5.27781 4.70627 5.29845 4.75955C5.38062 4.965 5.47163 5.16616 5.56368 5.36736C5.66468 5.58852 5.76513 5.80984 5.8617 6.03298C5.87064 6.05349 5.87958 6.07399 5.88879 6.09512C5.94812 6.23324 5.94812 6.23324 5.94812 6.28648C5.96386 6.2943 5.9796 6.30213 5.99581 6.3102C6.01462 6.34939 6.01462 6.34939 6.03455 6.40359C6.08982 6.54799 6.15393 6.68799 6.21891 6.82826C6.22704 6.8461 6.23516 6.86395 6.24353 6.88233C6.25092 6.89833 6.2583 6.91434 6.26591 6.93083C6.2819 6.97434 6.2819 6.97433 6.2819 7.04549C6.30805 7.04493 6.30805 7.04493 6.33473 7.04436C6.41397 7.04288 6.49322 7.04196 6.57247 7.04105C6.5999 7.04045 6.62733 7.03985 6.65559 7.03924C6.69535 7.0389 6.69535 7.03889 6.73591 7.03854C6.76026 7.03817 6.78461 7.0378 6.80969 7.03741C6.91259 7.04959 6.97492 7.0904 7.04101 7.16844C7.07803 7.25785 7.07069 7.333 7.05824 7.42648C7.05587 7.44511 7.05351 7.46373 7.05107 7.48291C6.97381 8.02347 6.74274 8.51299 6.37727 8.91931C6.36615 8.93168 6.35503 8.94405 6.34358 8.95679C5.83198 9.51502 5.14243 9.83583 4.38493 9.87476C3.92032 9.88912 3.45547 9.78753 3.04041 9.57919C3.01634 9.56956 3.01634 9.56956 2.99179 9.55973C2.97606 9.56756 2.96032 9.57539 2.94411 9.58345C2.93231 9.54823 2.93231 9.54823 2.92027 9.5123C2.866 9.47192 2.866 9.47192 2.79957 9.43373C2.55202 9.28197 2.55202 9.28197 2.46728 9.20395C2.46728 9.18829 2.46728 9.17264 2.46728 9.15651C2.44677 9.15417 2.44677 9.15417 2.42584 9.15178C2.34995 9.12505 2.32156 9.08132 2.27208 9.01864C2.25339 8.99503 2.23471 8.97143 2.21546 8.94711C2.19607 8.92204 2.1767 8.89697 2.15734 8.87188C2.13866 8.84803 2.11997 8.82418 2.10072 8.79961C1.75354 8.34918 1.50098 7.79633 1.50012 7.21811C1.51828 7.14547 1.55133 7.11596 1.60899 7.06921C1.68469 7.04411 1.74352 7.04069 1.8231 7.03799C1.8647 7.0365 1.8647 7.0365 1.90715 7.03498C1.93611 7.03404 1.96508 7.03311 1.99492 7.03215C2.02417 7.03113 2.05341 7.0301 2.08354 7.02905C2.15582 7.02653 2.2281 7.02411 2.30039 7.02177C2.56855 6.42242 2.56855 6.42242 2.83533 5.82247C2.84615 5.79813 2.85696 5.7738 2.8681 5.74872C2.87791 5.72655 2.88772 5.70438 2.89782 5.68154C2.90626 5.66251 2.91469 5.64347 2.92338 5.62386C2.94003 5.58453 2.95438 5.54423 2.96795 5.50374C2.98885 5.46157 3.01021 5.41963 3.03184 5.37782C3.10629 5.23085 3.17302 5.08135 3.23795 4.93001C3.2711 4.85276 3.30454 4.77563 3.33796 4.69849C3.34476 4.68277 3.35156 4.66705 3.35857 4.65086C3.47229 4.38855 3.58984 4.1279 3.70703 3.86711C3.66599 3.86711 3.62491 3.86763 3.58392 3.86961C3.39927 3.87574 3.25861 3.84594 3.10355 3.74407C2.94505 3.57905 2.93495 3.43944 2.93923 3.21814C2.94053 3.17354 2.94228 3.12896 2.94411 3.08438C2.96771 3.09612 2.96771 3.09612 2.99179 3.1081C3.00876 3.07654 3.00876 3.07654 3.02606 3.04435C3.11658 2.91418 3.24526 2.85557 3.39921 2.82659C3.51431 2.80785 3.62998 2.79413 3.74578 2.78047C3.78589 2.77534 3.826 2.77017 3.8661 2.76495C3.90478 2.76006 3.94346 2.75519 3.98214 2.75036C3.9999 2.74814 4.01766 2.74592 4.03596 2.74363C4.14171 2.73121 4.24427 2.72654 4.35075 2.72859C4.35862 2.71293 4.36649 2.69728 4.37459 2.68115C4.43422 2.67336 4.43422 2.67336 4.51503 2.66994C4.71077 2.65865 4.90351 2.6345 5.09763 2.60758C5.15629 2.59949 5.21498 2.59174 5.27367 2.584C5.31112 2.57888 5.34855 2.57374 5.38599 2.56858C5.40347 2.5663 5.42095 2.56403 5.43896 2.56168C5.53703 2.5493 5.53703 2.5493 5.61435 2.49139C5.66239 2.48926 5.66239 2.48926 5.72624 2.49287C5.96862 2.49662 6.20717 2.45428 6.44656 2.42042C6.49937 2.41308 6.55219 2.40575 6.60501 2.39843C6.71516 2.38312 6.82528 2.36767 6.9354 2.35213C7.07657 2.3322 7.21778 2.31261 7.35901 2.29311C7.46784 2.27805 7.57664 2.26284 7.68544 2.24757C7.73752 2.24028 7.78961 2.23303 7.84171 2.22584C7.91431 2.21579 7.98688 2.20552 8.05944 2.19519C8.08094 2.19226 8.10244 2.18932 8.12459 2.1863C8.14437 2.18344 8.16415 2.18058 8.18453 2.17764C8.20165 2.17523 8.21877 2.17283 8.23641 2.17035C8.28957 2.15818 8.33154 2.13648 8.37995 2.11189C8.43411 2.10882 8.43411 2.10882 8.49478 2.1117C8.66518 2.1148 8.82993 2.09134 8.99833 2.06741C9.02933 2.06329 9.06032 2.05916 9.09225 2.05491C9.26826 2.03639 9.26826 2.03639 9.42897 1.96957C9.43684 1.95392 9.4447 1.93826 9.45281 1.92213C9.46854 1.92213 9.48428 1.92213 9.50049 1.92213C9.49999 1.9066 9.49949 1.89107 9.49898 1.87506C9.49698 1.80379 9.49575 1.73252 9.49453 1.66122C9.49373 1.63679 9.49293 1.61236 9.49211 1.58719C9.48978 1.40521 9.51746 1.27908 9.63665 1.13884C9.86768 0.952157 10.0961 0.962602 10.3409 1.11716ZM15.6993 4.48381C15.4337 5.06784 15.1715 5.65323 14.9134 6.24056C14.8612 6.3593 14.8086 6.47787 14.7557 6.59631C14.7433 6.6243 14.7308 6.6523 14.7179 6.68114C14.6954 6.73165 14.6728 6.78213 14.6501 6.83257C14.6405 6.85413 14.6309 6.87568 14.621 6.8979C14.6127 6.9163 14.6045 6.93471 14.596 6.95367C14.5758 6.9975 14.5758 6.9975 14.5787 7.04549C15.3183 7.04549 16.0578 7.04549 16.8198 7.04549C16.8527 6.94724 16.8115 6.89292 16.7676 6.80534C16.7521 6.77338 16.7366 6.74141 16.7211 6.70944C16.7097 6.68617 16.7097 6.68617 16.698 6.66243C16.6569 6.57763 16.6194 6.49128 16.5814 6.40507C16.5578 6.40507 16.5342 6.40507 16.5099 6.40507C16.5179 6.38072 16.5179 6.38072 16.5262 6.35587C16.5364 6.26147 16.5057 6.20932 16.4637 6.12489C16.4502 6.09734 16.4367 6.06979 16.4228 6.04141C16.4122 6.02053 16.4016 5.99964 16.3907 5.97813C16.3592 5.97813 16.3277 5.97813 16.2953 5.97813C16.2953 5.96247 16.2953 5.94682 16.2953 5.93069C16.3307 5.94243 16.3307 5.94243 16.3668 5.95441C16.3375 5.85788 16.3003 5.77928 16.2476 5.69349C16.2476 5.67784 16.2476 5.66219 16.2476 5.64606C16.2122 5.63432 16.2122 5.63432 16.1761 5.62234C16.1839 5.59886 16.1918 5.57537 16.1999 5.55118C16.1751 5.48988 16.149 5.43224 16.1195 5.37328C16.0347 5.20033 16.0347 5.20033 16.0092 5.12423C15.9989 5.10809 15.9885 5.09194 15.9779 5.07531C15.9311 4.99434 15.8994 4.91125 15.8656 4.82431C15.8428 4.7656 15.8428 4.7656 15.8036 4.7047C15.7615 4.6343 15.7433 4.56282 15.7231 4.48381C15.7152 4.48381 15.7074 4.48381 15.6993 4.48381ZM4.27923 4.50753C4.09181 4.90381 3.91331 5.3035 3.73816 5.70527C3.72093 5.7448 3.70369 5.78433 3.68645 5.82386C3.67804 5.84315 3.66963 5.86244 3.66096 5.88232C3.57398 6.08148 3.4852 6.27983 3.39542 6.47775C3.31086 6.66537 3.23566 6.85403 3.15868 7.04549C3.90611 7.04549 4.65354 7.04549 5.42361 7.04549C5.43148 7.02984 5.43935 7.01418 5.44746 6.99805C5.42459 6.94006 5.42459 6.94006 5.39083 6.87798C5.37983 6.85666 5.36883 6.83535 5.35749 6.8134C5.33264 6.76305 5.33264 6.76305 5.30441 6.73714C5.2885 6.68971 5.27261 6.64227 5.25672 6.59483C5.23671 6.5484 5.21601 6.50226 5.1947 6.4564C5.18302 6.43118 5.17134 6.40595 5.15931 6.37996C5.1472 6.35401 5.13509 6.32805 5.12262 6.3013C5.10418 6.26154 5.10418 6.26154 5.08536 6.22097C5.05513 6.1558 5.02483 6.09067 4.99447 6.02556C4.9866 6.04122 4.97873 6.05687 4.97063 6.073C4.9453 6.03001 4.9453 6.03001 4.92294 5.97813C4.93081 5.95464 4.93868 5.93116 4.94679 5.90697C4.91638 5.83785 4.91638 5.83785 4.87526 5.76465C4.854 5.71791 4.83305 5.67102 4.8124 5.624C4.79483 5.58424 4.79483 5.58424 4.77691 5.54366C4.76462 5.51581 4.75233 5.48796 4.73966 5.45927C4.65039 5.25773 4.55878 5.05858 4.45708 4.86296C4.41549 4.78204 4.38123 4.70241 4.35373 4.61575C4.34488 4.58787 4.33603 4.55998 4.32691 4.53125C4.31117 4.52342 4.29544 4.5156 4.27923 4.50753ZM9.73891 12.4772C9.73104 12.4929 9.72317 12.5085 9.71506 12.5246C9.7072 12.5325 9.69933 12.5403 9.69122 12.5484C9.68916 12.5837 9.68867 12.6191 9.68889 12.6544C9.68897 12.6758 9.68905 12.6971 9.68913 12.7191C9.68933 12.7415 9.68953 12.7639 9.68973 12.787C9.68984 12.8096 9.68995 12.8321 9.69006 12.8553C9.69034 12.9111 9.69073 12.9669 9.69122 13.0227C9.67635 13.0247 9.66147 13.0266 9.64615 13.0286C9.35298 13.0698 9.06374 13.2269 8.88313 13.4607C8.68138 13.7553 8.62967 14.0486 8.66604 14.3985C8.72605 14.705 8.9065 14.9396 9.15703 15.121C9.38694 15.2673 9.64643 15.3426 9.9058 15.4184C9.9294 15.4262 9.953 15.434 9.97732 15.4421C10.0027 15.4498 10.028 15.4575 10.0542 15.4654C10.3061 15.5432 10.5581 15.6236 10.6937 15.8663C10.7528 15.9969 10.7505 16.1404 10.7099 16.2759C10.645 16.4401 10.5323 16.5352 10.3767 16.6103C10.1702 16.6878 9.90762 16.6884 9.70016 16.6132C9.54445 16.5387 9.43858 16.4303 9.3336 16.296C9.2982 16.2725 9.2982 16.2725 9.26208 16.2486C9.27781 16.2407 9.29355 16.2329 9.30976 16.2248C9.30706 16.1677 9.30706 16.1677 9.28592 16.1063C9.17928 16.0167 9.06969 16.0244 8.93724 16.0262C8.90654 16.0258 8.90654 16.0258 8.87521 16.0254C8.85555 16.0255 8.83588 16.0255 8.81561 16.0256C8.78884 16.0258 8.78884 16.0258 8.76154 16.0259C8.70106 16.0375 8.67986 16.0586 8.6422 16.1063C8.59956 16.2926 8.67545 16.4658 8.76141 16.6281C8.83502 16.7441 8.92243 16.8433 9.02366 16.9364C9.05391 16.965 9.05391 16.965 9.08476 16.9942C9.26141 17.137 9.46844 17.2132 9.69122 17.2448C9.68984 17.2759 9.68846 17.3071 9.68703 17.3392C9.68591 17.3804 9.68483 17.4215 9.68377 17.4627C9.68227 17.4934 9.68227 17.4934 9.68075 17.5248C9.67878 17.6271 9.68167 17.6807 9.73853 17.7685C9.83405 17.829 9.90363 17.8309 10.0146 17.8274C10.0416 17.8278 10.0416 17.8278 10.0691 17.8282C10.148 17.8271 10.2061 17.8196 10.2749 17.7802C10.3306 17.6863 10.3272 17.5951 10.329 17.4879C10.3297 17.4668 10.3304 17.4458 10.3311 17.4241C10.3328 17.3722 10.3341 17.3204 10.3349 17.2685C10.3577 17.2619 10.3805 17.2552 10.4039 17.2484C10.6088 17.1862 10.7803 17.1107 10.9548 16.9839C10.9932 16.9567 10.9932 16.9567 11.0323 16.929C11.2529 16.7145 11.3969 16.432 11.4114 16.1241C11.4135 15.9201 11.3924 15.7496 11.3124 15.5607C11.3046 15.5529 11.2967 15.5451 11.2886 15.537C11.2783 15.5155 11.2679 15.4939 11.2573 15.4718C11.1061 15.182 10.7865 15.0384 10.4866 14.939C10.367 14.9037 10.2469 14.8705 10.1266 14.8378C9.84601 14.7582 9.55561 14.6679 9.38128 14.4222C9.36555 14.4065 9.34981 14.3909 9.3336 14.3747C9.3336 14.3513 9.3336 14.3278 9.3336 14.3036C9.32426 14.2791 9.31492 14.2547 9.30529 14.2295C9.27366 14.0794 9.32914 13.9608 9.4096 13.8336C9.52457 13.6883 9.66632 13.6599 9.8447 13.635C9.87368 13.6317 9.90266 13.6285 9.93252 13.6251C9.99856 13.6231 9.99856 13.6231 10.025 13.592C10.025 13.5998 10.025 13.6077 10.025 13.6157C10.0449 13.6192 10.0648 13.6227 10.0853 13.6263C10.2836 13.6656 10.4553 13.7133 10.5866 13.8748C10.6362 13.9501 10.6734 14.0276 10.7075 14.1109C10.7347 14.1905 10.7347 14.1905 10.8118 14.2324C10.8636 14.2397 10.8636 14.2397 10.9205 14.2387C10.9415 14.2388 10.9625 14.2389 10.9841 14.2389C11.0168 14.2386 11.0168 14.2386 11.0502 14.2384C11.072 14.2385 11.0938 14.2387 11.1163 14.2389C11.1477 14.2388 11.1477 14.2388 11.1798 14.2387C11.2085 14.2386 11.2085 14.2386 11.2378 14.2386C11.2957 14.2354 11.2957 14.2354 11.3601 14.185C11.4086 13.9608 11.3127 13.7579 11.1989 13.5701C11.0116 13.2965 10.7556 13.1098 10.4273 13.042C10.3968 13.0357 10.3664 13.0293 10.3349 13.0227C10.3022 12.9575 10.3158 12.914 10.3245 12.8419C10.3364 12.7141 10.3321 12.6214 10.2873 12.5009C10.1356 12.4003 9.90428 12.4062 9.73891 12.4772ZM9.30976 16.2248C9.3336 16.2723 9.3336 16.2723 9.3336 16.2723L9.30976 16.2248Z" fill="#84919A"/>
</svg>
