<svg width="20" height="20" viewBox="0 0 20 20" fill="none" xmlns="http://www.w3.org/2000/svg">
<path d="M1 15.1429C1 15.395 1.14722 15.6238 1.37699 15.728L8.35809 19.0001L8.39203 10.2054L1 6.7937V15.1429Z" fill="#84919A"/>
<path d="M12.5955 8.56274L9.03495 10.2061L9.00085 19L16.0516 15.7279C16.2814 15.6237 16.4286 15.3949 16.4286 15.1428V9.16762C16.0208 9.28949 15.5898 9.35713 15.1429 9.35713C14.1975 9.35713 13.3204 9.0627 12.5955 8.56274Z" fill="#84919A"/>
<path d="M10.6428 4.8572C10.6428 4.49304 10.6911 4.14069 10.7731 3.80137L8.98014 2.98638C8.81126 2.90916 8.61727 2.90916 8.4484 2.98638C8.4484 2.98638 1.34205 6.22421 1.32361 6.23488L8.71427 9.64598L12.042 8.11009C11.182 7.29 10.6428 6.13651 10.6428 4.8572Z" fill="#84919A"/>
<path d="M15.1428 1C13.0126 1 11.2857 2.72689 11.2857 4.85714C11.2857 6.98739 13.0126 8.71429 15.1428 8.71429C17.2731 8.71429 19 6.98739 19 4.85714C19 2.72689 17.2731 1 15.1428 1ZM16.7271 3.36928L15.4414 6.58357C15.4012 6.68401 15.3133 6.75746 15.2075 6.77912C15.1859 6.78352 15.1642 6.78571 15.1428 6.78571C15.0584 6.78571 14.9765 6.75244 14.9156 6.69155L13.6299 5.40583C13.5043 5.28027 13.5043 5.07687 13.6299 4.95131C13.7554 4.82575 13.9588 4.82575 14.0844 4.95131L15.0255 5.89237L16.13 3.13072C16.196 2.9653 16.3843 2.88557 16.5478 2.95149C16.7126 3.0174 16.793 3.20449 16.7271 3.36928Z" fill="#84919A"/>
</svg>
