<svg width="20" height="20" viewBox="0 0 20 20" fill="none" xmlns="http://www.w3.org/2000/svg">
<path d="M9.51893 1C5.92437 1 3 3.92437 3 7.51889C3 11.9798 8.8338 18.5287 9.08218 18.8053C9.31548 19.0651 9.7228 19.0647 9.95567 18.8053C10.2041 18.5287 16.0379 11.9798 16.0379 7.51889C16.0378 3.92437 13.1134 1 9.51893 1ZM9.51893 10.7987C7.71042 10.7987 6.23913 9.3274 6.23913 7.51889C6.23913 5.71038 7.71045 4.23909 9.51893 4.23909C11.3274 4.23909 12.7987 5.71042 12.7987 7.51893C12.7987 9.32744 11.3274 10.7987 9.51893 10.7987Z" fill="#84919A"/>
</svg>
