<svg width="20" height="20" viewBox="0 0 20 20" fill="none" xmlns="http://www.w3.org/2000/svg">
<path d="M16.3334 14.3334C15.6504 14.3334 15.065 14.7448 14.8072 15.3334H11.8776C11.6022 14.5572 10.8698 14 9.99998 14C9.13018 14 8.39839 14.5572 8.12239 15.3334H5.19279C4.93499 14.7448 4.34959 14.3334 3.6666 14.3334C2.746 14.3334 2 15.0794 2 16C2 16.9206 2.746 17.6666 3.6666 17.6666C4.35019 17.6666 4.93559 17.254 5.19279 16.6666H8.12239C8.39779 17.4414 9.13018 18 9.99998 18C10.8698 18 11.6022 17.4414 11.8776 16.6666H14.8072C15.0644 17.254 15.6498 17.6666 16.3334 17.6666C17.254 17.6666 18 16.9206 18 16C18 15.0794 17.254 14.3334 16.3334 14.3334ZM9.99998 16.6666C9.63138 16.6666 9.33338 16.3686 9.33338 16C9.33338 15.6314 9.63138 15.3334 9.99998 15.3334C10.3686 15.3334 10.6666 15.6314 10.6666 16C10.6666 16.3686 10.3686 16.6666 9.99998 16.6666Z" fill="#84919A"/>
<path d="M9.99996 2C7.42377 2 5.33337 4.0884 5.33337 6.66659C5.33337 7.95439 5.85537 9.12099 6.70057 9.96618L9.99996 13L13.3002 9.96478C14.1452 9.12099 14.6674 7.95439 14.6666 6.66539C14.6666 4.0898 12.5776 2 9.99996 2ZM9.99996 8.66659C8.89577 8.66659 7.99997 7.77079 7.99997 6.66659C7.99997 5.56239 8.89577 4.66659 9.99996 4.66659C11.1048 4.66659 12 5.56239 12 6.66659C12 7.77079 11.1048 8.66659 9.99996 8.66659Z" fill="#84919A"/>
</svg>
