<svg width="20" height="20" viewBox="0 0 20 20" fill="none" xmlns="http://www.w3.org/2000/svg">
<path d="M9.60088 12.2607C9.715 12.361 9.85748 12.4113 10.0001 12.4113C10.1427 12.4113 10.2852 12.361 10.3993 12.2607C10.5438 12.1333 13.9382 9.10788 13.9382 5.97017C13.9382 3.79792 12.1716 2.03064 10.0001 2.03064C7.82862 2.03064 6.06201 3.79792 6.06201 5.97017C6.06189 9.10788 9.45633 12.1333 9.60088 12.2607ZM10.0001 4.94083C10.5638 4.94083 11.021 5.40156 11.021 5.97017C11.021 6.53872 10.5638 6.99951 10.0001 6.99951C9.43615 6.99951 8.97905 6.53866 8.97905 5.97017C8.97905 5.40156 9.43615 4.94083 10.0001 4.94083Z" fill="#84919A"/>
<path d="M17.5672 12.259L17.111 10.6604C17.0369 10.4009 16.7999 10.222 16.5302 10.222H13.2745C13.1568 10.397 13.0326 10.5727 12.9013 10.7493C11.9887 11.9753 11.061 12.8047 10.9582 12.8953C10.6933 13.1285 10.3531 13.257 10.0001 13.257C9.64731 13.257 9.30712 13.1287 9.04191 12.8952C8.93918 12.8047 8.01136 11.9752 7.09887 10.7493C6.96754 10.5727 6.84336 10.397 6.72566 10.222H3.46989C3.20019 10.222 2.96316 10.4009 2.8891 10.6604L2.3454 12.5656L14.4987 14.7916L17.5672 12.259Z" fill="#84919A"/>
<path d="M18.9768 17.1995L17.8114 13.1149L12.0288 17.9693H18.3961C18.5856 17.9693 18.7641 17.8804 18.8782 17.7291C18.9924 17.5778 19.0288 17.3817 18.9768 17.1995Z" fill="#84919A"/>
<path d="M3.95713 13.7205L2.11227 13.3826L1.02317 17.1995C0.971234 17.3817 1.00766 17.5778 1.12184 17.7291C1.23596 17.8803 1.41445 17.9693 1.60396 17.9693H3.95713V13.7205Z" fill="#84919A"/>
<path d="M4.8028 13.8754V17.9691H10.7135L13.658 15.4973L4.8028 13.8754Z" fill="#84919A"/>
</svg>
