<svg width="20" height="20" viewBox="0 0 20 20" fill="none" xmlns="http://www.w3.org/2000/svg">
<path fill-rule="evenodd" clip-rule="evenodd" d="M4.82359 18C4.56368 18 4.353 17.7893 4.353 17.5294V6.47059H8.353C8.6129 6.47059 8.82359 6.25991 8.82359 6V2H15.1765C15.4364 2 15.6471 2.21069 15.6471 2.47059V17.5294C15.6471 17.7893 15.4364 18 15.1765 18H4.82359ZM7.8824 2.27566V5.52941H4.62865L7.8824 2.27566ZM11.5284 8.82353H11.1362L11.5781 8.38156C11.6701 8.28963 11.6708 8.14134 11.5767 8.04716L11.247 7.71753C11.1542 7.62478 11.004 7.62466 10.9121 7.71659L9.66731 8.96138C9.48353 9.14516 9.48353 9.44312 9.66731 9.62687L10.9121 10.8717C11.0043 10.9639 11.1528 10.9649 11.247 10.8707L11.5767 10.5411C11.6694 10.4483 11.6702 10.2987 11.5781 10.2067L11.1362 9.76472H11.5284C12.2437 9.76472 12.8236 10.3442 12.8236 11.0588C12.8236 11.7723 12.2431 12.353 11.5287 12.353H8.47147C7.75484 12.353 7.17653 11.7744 7.17653 11.0588C7.17653 10.6094 7.40868 10.2063 7.76568 9.97353C7.81378 9.94219 7.98672 9.86047 7.98672 9.86047C8.11072 9.82194 8.1904 9.68847 8.16384 9.55797L8.07081 9.10116C8.04465 8.97262 7.9215 8.89434 7.79568 8.92912C7.79568 8.92912 7.514 9.03553 7.4234 9.08369C6.71056 9.46237 6.23534 10.2124 6.23534 11.0588C6.23534 12.2941 7.23493 13.2941 8.47147 13.2941H11.5287C12.763 13.2941 13.7648 12.292 13.7648 11.0588C13.7648 9.82425 12.7634 8.82353 11.5284 8.82353Z" fill="#84919A"/>
</svg>
