<svg width="20" height="20" viewBox="0 0 20 20" fill="none" xmlns="http://www.w3.org/2000/svg">
<path d="M18.4375 12.5001C18.127 12.5001 17.875 12.2481 17.875 11.9376C17.875 9.76639 16.1088 8.00014 13.9375 8.00014H8.5V10.4376C8.5 10.9326 7.9045 11.1831 7.549 10.8441L3.424 6.90664C3.313 6.80089 3.25 6.65389 3.25 6.50014C3.25 6.34639 3.313 6.19939 3.424 6.09364L7.549 2.15614C7.906 1.81564 8.5 2.06914 8.5 2.56264V5.00014H13.1875C16.3923 5.00014 19 7.60789 19 10.8126V11.9376C19 12.2481 18.748 12.5001 18.4375 12.5001Z" fill="#84919A"/>
<path d="M11.5 17.9376V15.5001H6.8125C3.60775 15.5001 1 12.8924 1 9.68762V8.56262C1 8.25212 1.252 8.00012 1.5625 8.00012C1.873 8.00012 2.125 8.25212 2.125 8.56262C2.125 10.7339 3.89125 12.5001 6.0625 12.5001H11.5V10.0626C11.5 9.56987 12.0932 9.31412 12.451 9.65612L16.576 13.5936C16.687 13.6994 16.75 13.8464 16.75 14.0001C16.75 14.1539 16.687 14.3009 16.576 14.4066L12.451 18.3441C12.0932 18.6846 11.5 18.4311 11.5 17.9376Z" fill="#84919A"/>
</svg>
