<svg width="20" height="20" viewBox="0 0 20 20" fill="none" xmlns="http://www.w3.org/2000/svg">
<path d="M2 8.30227L7.77559 11.609L9.27603 9.72637L3.1945 6.51526L2 8.30227Z" fill="#84919A"/>
<path d="M10.7078 9.71938L12.2138 11.609L18 8.29624L16.7892 6.38489L10.7078 9.71938Z" fill="#84919A"/>
<path d="M4.07098 5.91859L9.99054 9.04417L15.9186 5.79381L10.0034 2.99976L4.07098 5.91859Z" fill="#84919A"/>
<path d="M3.50812 13.3605L9.52644 16.5383V10.9152L8.25759 12.5072C8.11359 12.688 7.8594 12.7366 7.65885 12.6218L3.50812 10.2454V13.3605Z" fill="#84919A"/>
<path d="M10.463 10.9151V16.5236L16.4813 13.2192V10.2452L12.3305 12.6216C12.13 12.7364 11.8758 12.6878 11.7318 12.5071L10.463 10.9151Z" fill="#84919A"/>
</svg>
