<svg width="20" height="20" viewBox="0 0 20 20" fill="none" xmlns="http://www.w3.org/2000/svg">
<path d="M2.58203 4.05469H3.70703C3.99749 4.05469 4.23438 4.29108 4.23438 4.58203L6.23266 12.6294C5.67814 12.8755 5.28906 13.4294 5.28906 14.0742C5.28906 14.9466 5.99873 15.6562 6.87109 15.6562H7.49557C7.43648 15.822 7.39844 15.9978 7.39844 16.1836C7.39844 17.056 8.1081 17.7656 8.98047 17.7656C9.85284 17.7656 10.5625 17.056 10.5625 16.1836C10.5625 15.9978 10.5245 15.822 10.4654 15.6562H13.8237C13.7646 15.822 13.7266 15.9978 13.7266 16.1836C13.7266 17.056 14.4362 17.7656 15.3086 17.7656C16.181 17.7656 16.8906 17.056 16.8906 16.1836C16.8906 15.3112 16.181 14.6016 15.3086 14.6016H6.87109C6.58063 14.6016 6.34375 14.3652 6.34375 14.0742C6.34375 13.7833 6.58063 13.5469 6.87109 13.5469H16.5888L19 5.10938H5.46931L5.24167 4.20045L5.23756 4.20146C5.06607 3.51339 4.44753 3 3.70703 3H2.58203C1.70966 3 1 3.70966 1 4.58203H2.05469C2.05469 4.29108 2.29157 4.05469 2.58203 4.05469ZM9.50781 16.1836C9.50781 16.4745 9.27093 16.7109 8.98047 16.7109C8.69001 16.7109 8.45312 16.4745 8.45312 16.1836C8.45312 15.8926 8.69001 15.6562 8.98047 15.6562C9.27093 15.6562 9.50781 15.8926 9.50781 16.1836ZM15.8359 16.1836C15.8359 16.4745 15.5991 16.7109 15.3086 16.7109C15.0181 16.7109 14.7812 16.4745 14.7812 16.1836C14.7812 15.8926 15.0181 15.6562 15.3086 15.6562C15.5991 15.6562 15.8359 15.8926 15.8359 16.1836ZM10.0352 9.10977L11.0898 10.1645L13.7266 7.52774L14.4723 8.27344L11.0898 11.6559L9.28946 9.85547L10.0352 9.10977Z" fill="#84919A"/>
</svg>
