<svg width="20" height="20" viewBox="0 0 20 20" fill="none" xmlns="http://www.w3.org/2000/svg">
<path fill-rule="evenodd" clip-rule="evenodd" d="M4.00003 7.92592H6.16367C6.58541 7.92592 6.9273 7.61151 6.9273 7.22367V4.99988H10.3637C10.7151 4.99988 11 5.26189 11 5.58509V14.4802C11 14.8034 10.7151 15.0654 10.3637 15.0654H4.63639C4.28494 15.0654 4.00003 14.8034 4.00003 14.4802V7.92592ZM9.09094 9.44746C9.23152 9.44746 9.34548 9.55226 9.34548 9.68154C9.34548 9.81082 9.23152 9.91562 9.09094 9.91562H5.78185C5.64126 9.91562 5.5273 9.81082 5.5273 9.68154C5.5273 9.55226 5.64126 9.44746 5.78185 9.44746H9.09094ZM9.09094 12.9587C9.23152 12.9587 9.34548 13.0635 9.34548 13.1928C9.34548 13.3221 9.23152 13.4269 9.09094 13.4269H5.78185C5.64126 13.4269 5.5273 13.3221 5.5273 13.1928C5.5273 13.0635 5.64126 12.9587 5.78185 12.9587H9.09094ZM9.34548 11.4372C9.34548 11.3079 9.23152 11.2031 9.09094 11.2031H5.78185C5.64126 11.2031 5.5273 11.3079 5.5273 11.4372C5.5273 11.5664 5.64126 11.6712 5.78185 11.6712H9.09094C9.23152 11.6712 9.34548 11.5664 9.34548 11.4372Z" fill="#84919A"/>
<path d="M6.41814 7.22369C6.41814 7.35298 6.30418 7.45777 6.16359 7.45777H4.12723L6.41814 5.11694V7.22369Z" fill="#84919A"/>
<path d="M11.44 5.19995V14.8H12.24C12.4168 14.8 12.56 14.6567 12.56 14.48V6.15995C12.56 5.62976 12.1302 5.19995 11.6 5.19995H11.44Z" fill="#84919A"/>
<path d="M17.1684 6.77277C17.0791 6.32355 16.6848 6 16.2268 6H13.52C13.3433 6 13.2 6.14326 13.2 6.32V10.32H17.8736L17.1684 6.77277Z" fill="#84919A"/>
<path d="M15.2 12.88C14.3606 12.88 13.68 13.5605 13.68 14.4C13.68 14.4918 13.6882 14.5817 13.7038 14.6691C13.7048 14.6749 13.7059 14.6808 13.707 14.6866C13.841 15.3891 14.4585 15.92 15.2 15.92C15.9011 15.92 16.4912 15.4454 16.6669 14.8C16.7015 14.6725 16.72 14.5384 16.72 14.4C16.72 13.5605 16.0395 12.88 15.2 12.88Z" fill="#84919A"/>
<path d="M18 10.96V13.84C18 14.2687 17.7189 14.6318 17.3309 14.7551C17.3501 14.6395 17.36 14.5209 17.36 14.4C17.36 13.207 16.393 12.24 15.2 12.24C14.2964 12.24 13.5223 12.7949 13.2 13.5826V10.96H18Z" fill="#84919A"/>
</svg>
