<svg width="20" height="20" viewBox="0 0 20 20" fill="none" xmlns="http://www.w3.org/2000/svg">
<path d="M16.9091 15.0911H14.3636C12.7596 15.0911 11.4546 13.7861 11.4546 12.1821C11.4546 10.578 12.7596 9.27298 14.3636 9.27298H16.9091C17.1101 9.27298 17.2727 9.11033 17.2727 8.90933V7.81842C17.2727 7.05588 16.6813 6.43573 15.934 6.37559L13.8456 2.72787C13.652 2.39051 13.3395 2.14938 12.9656 2.04926C12.5934 1.94982 12.2042 2.00204 11.8711 2.19592L4.71193 6.36387H3.45455C2.65236 6.36387 2 7.0162 2 7.81842V16.5457C2 17.3479 2.65233 18.0002 3.45455 18.0002H15.8182C16.6204 18.0002 17.2727 17.3479 17.2727 16.5457V15.4548C17.2727 15.2538 17.1101 15.0911 16.9091 15.0911ZM14.2965 4.97991L15.0889 6.36387H11.9194L14.2965 4.97991ZM6.15738 6.36387L12.2372 2.82445C12.4016 2.72821 12.5937 2.70264 12.7773 2.75167C12.9631 2.80137 13.1179 2.92141 13.2142 3.08937L13.2149 3.0907L7.59298 6.36387H6.15738Z" fill="#84919A"/>
<path d="M16.909 10.0002H14.3636C13.1604 10.0002 12.1818 10.9789 12.1818 12.1821C12.1818 13.3852 13.1604 14.3639 14.3636 14.3639H16.909C17.5106 14.3639 17.9999 13.8745 17.9999 13.273V11.0912C17.9999 10.4896 17.5106 10.0002 16.909 10.0002ZM14.3636 12.9093C13.9627 12.9093 13.6363 12.583 13.6363 12.1821C13.6363 11.7812 13.9627 11.4548 14.3636 11.4548C14.7645 11.4548 15.0908 11.7812 15.0908 12.1821C15.0909 12.583 14.7645 12.9093 14.3636 12.9093Z" fill="#84919A"/>
</svg>
