<svg width="20" height="20" viewBox="0 0 20 20" fill="none" xmlns="http://www.w3.org/2000/svg">
<path d="M17.1919 8.37099C17.1831 8.34116 17.1684 8.31339 17.1487 8.28936C17.1289 8.26533 17.1045 8.24553 17.0769 8.23113C17.0493 8.21674 17.0191 8.20805 16.9881 8.20559C16.9571 8.20313 16.9259 8.20694 16.8963 8.21681C16.4513 8.34877 15.9846 8.39199 15.5228 8.34401C14.9764 8.28577 14.4516 8.0988 13.9916 7.79845C13.5316 7.49811 13.1495 7.09297 12.8768 6.61636C12.604 6.13974 12.4484 5.60525 12.4227 5.05683C12.3969 4.5084 12.5018 3.96171 12.7288 3.46169C12.7427 3.43325 12.7507 3.40229 12.7524 3.37068C12.754 3.33906 12.7492 3.30744 12.7384 3.27771C12.7275 3.24798 12.7107 3.22075 12.689 3.19765C12.6674 3.17455 12.6413 3.15606 12.6123 3.14329C11.6946 2.76643 10.7115 2.57439 9.71942 2.5782C8.68733 2.57778 7.66565 2.78423 6.71483 3.18533C5.76402 3.58643 4.90341 4.17402 4.18394 4.91333C3.46446 5.65264 2.90075 6.52865 2.52616 7.4895C2.15157 8.45034 1.97372 9.47651 2.00313 10.5072C2.07848 12.4696 2.89247 14.3312 4.28231 15.7197C5.67215 17.1083 7.53542 17.9216 9.49951 17.9969C10.5312 18.0263 11.5583 17.8486 12.52 17.4743C13.4817 17.1001 14.3585 16.5369 15.0985 15.818C15.8385 15.0992 16.4266 14.2394 16.828 13.2894C17.2295 12.3395 17.4361 11.3187 17.4357 10.2875C17.4363 9.64093 17.3543 8.99689 17.1919 8.37099ZM11.417 13.2703C11.1089 13.5769 10.7095 13.7752 10.2789 13.8354V14.1422C10.2789 14.2955 10.2179 14.4426 10.1094 14.5511C10.0008 14.6595 9.85362 14.7204 9.70013 14.7204C9.54665 14.7204 9.39945 14.6595 9.29092 14.5511C9.18238 14.4426 9.12141 14.2955 9.12141 14.1422V13.8338C8.68588 13.7634 8.28539 13.5524 7.9811 13.2332C7.6768 12.9141 7.48542 12.5041 7.43617 12.0661C7.42525 11.9895 7.42983 11.9114 7.44964 11.8366C7.46945 11.7618 7.50409 11.6917 7.55151 11.6306C7.59893 11.5694 7.65816 11.5183 7.72569 11.4804C7.79322 11.4425 7.86768 11.4185 7.94465 11.4099C8.02162 11.4013 8.09955 11.4082 8.1738 11.4302C8.24805 11.4523 8.31712 11.4889 8.37692 11.5381C8.43672 11.5873 8.48603 11.648 8.52193 11.7166C8.55783 11.7851 8.57958 11.8602 8.5859 11.9373C8.6096 12.1491 8.71048 12.3447 8.8693 12.4869C9.02813 12.6291 9.23378 12.7079 9.44704 12.7083H9.98718C10.1984 12.7078 10.4022 12.6304 10.5602 12.4904C10.7183 12.3504 10.8197 12.1576 10.8455 11.9482C10.8713 11.7387 10.8196 11.5271 10.7002 11.353C10.5808 11.179 10.4019 11.0545 10.1971 11.003L8.95628 10.6946C8.51759 10.5837 8.12831 10.3301 7.84977 9.97376C7.6335 9.69728 7.4932 9.36919 7.44276 9.02193C7.39231 8.67467 7.43346 8.32026 7.56214 7.99376C7.69081 7.66726 7.90256 7.37997 8.17644 7.1603C8.45032 6.94063 8.77684 6.79618 9.12373 6.74124V6.43287C9.12373 6.27952 9.1847 6.13245 9.29323 6.02402C9.40176 5.91558 9.54896 5.85467 9.70245 5.85467C9.85594 5.85467 10.0031 5.91558 10.1117 6.02402C10.2202 6.13245 10.2812 6.27952 10.2812 6.43287V6.74124C10.7238 6.80489 11.1327 7.01354 11.4439 7.33444C11.755 7.65535 11.9508 8.07036 12.0004 8.51439C12.0113 8.591 12.0067 8.66902 11.9869 8.74383C11.9671 8.81864 11.9324 8.88872 11.885 8.94991C11.8376 9.0111 11.7784 9.06216 11.7108 9.10005C11.6433 9.13795 11.5689 9.16192 11.4919 9.17054C11.4149 9.17916 11.337 9.17225 11.2627 9.15023C11.1885 9.12821 11.1194 9.09152 11.0596 9.04234C10.9998 8.99316 10.9505 8.93248 10.9146 8.86391C10.8787 8.79533 10.857 8.72026 10.8506 8.64313C10.8269 8.43139 10.7261 8.23576 10.5672 8.09357C10.4084 7.95139 10.2028 7.87258 9.9895 7.8722H9.44935C9.2198 7.8724 8.99971 7.9636 8.83739 8.12577C8.67507 8.28795 8.58379 8.50784 8.58359 8.73719C8.5822 8.92844 8.64556 9.11454 8.76338 9.26528C8.88221 9.4201 9.05002 9.53016 9.23947 9.5775L10.4803 9.88588C10.828 9.97236 11.1465 10.1496 11.4032 10.3995C11.6599 10.6494 11.8455 10.9629 11.941 11.308C12.0366 11.6531 12.0386 12.0174 11.9469 12.3635C11.8553 12.7097 11.6732 13.0252 11.4193 13.278L11.417 13.2703ZM17.8447 5.2996L16.3014 6.84146C16.1928 6.94955 16.0458 7.01024 15.8925 7.01024C15.7392 7.01024 15.5921 6.94955 15.4835 6.84146L13.9402 5.2996C13.838 5.18999 13.7824 5.04502 13.785 4.89522C13.7876 4.74543 13.8484 4.60251 13.9544 4.49657C14.0604 4.39064 14.2035 4.32996 14.3534 4.32731C14.5034 4.32467 14.6485 4.38027 14.7582 4.48241L15.3137 5.03671V2.5782C15.3137 2.42485 15.3747 2.27778 15.4832 2.16935C15.5918 2.06092 15.739 2 15.8925 2C16.0459 2 16.1931 2.06092 16.3017 2.16935C16.4102 2.27778 16.4712 2.42485 16.4712 2.5782V5.03671L17.0268 4.48241C17.1365 4.38027 17.2816 4.32467 17.4315 4.32731C17.5814 4.32996 17.7245 4.39064 17.8305 4.49657C17.9365 4.60251 17.9973 4.74543 17.9999 4.89522C18.0026 5.04502 17.9469 5.18999 17.8447 5.2996Z" fill="#84919A"/>
</svg>
