<svg width="20" height="20" viewBox="0 0 20 20" fill="none" xmlns="http://www.w3.org/2000/svg">
<path d="M11.1421 4.2854C10.691 4.28598 10.241 4.33095 9.79874 4.41968C10.0356 5.16791 10.0625 5.96682 9.87642 6.72928C9.69033 7.49173 9.29843 8.18844 8.74347 8.7434C8.18851 9.29837 7.49181 9.69027 6.72936 9.87636C5.96691 10.0624 5.168 10.0356 4.41978 9.79868C4.14279 11.1851 4.30114 12.6232 4.87315 13.9161C5.44515 15.209 6.40284 16.2935 7.61507 17.0211C8.82729 17.7486 10.2348 18.0836 11.6448 17.9803C13.0548 17.8769 14.3984 17.3402 15.4915 16.4436C16.5847 15.5471 17.374 14.3345 17.7513 12.972C18.1286 11.6095 18.0756 10.1636 17.5993 8.83246C17.1231 7.50128 16.2471 6.34985 15.0911 5.53586C13.9352 4.72187 12.5558 4.28511 11.1421 4.2854ZM14.5703 11.7134H11.1421C10.9905 11.7134 10.8452 11.6532 10.738 11.546C10.6309 11.4389 10.5707 11.2935 10.5707 11.142V7.7137C10.5707 7.56216 10.6309 7.41683 10.738 7.30967C10.8452 7.20252 10.9905 7.14232 11.1421 7.14232C11.2936 7.14232 11.4389 7.20252 11.5461 7.30967C11.6532 7.41683 11.7134 7.56216 11.7134 7.7137V10.5706H14.5703C14.7219 10.5706 14.8672 10.6308 14.9744 10.738C15.0815 10.8451 15.1417 10.9905 15.1417 11.142C15.1417 11.2935 15.0815 11.4389 14.9744 11.546C14.8672 11.6532 14.7219 11.7134 14.5703 11.7134Z" fill="#84919A"/>
<path d="M9.42794 5.714C9.42794 4.97944 9.21012 4.26138 8.80202 3.65061C8.39392 3.03985 7.81388 2.56382 7.13524 2.28271C6.4566 2.00161 5.70985 1.92806 4.98941 2.07137C4.26897 2.21467 3.60721 2.56839 3.0878 3.08781C2.56839 3.60722 2.21467 4.26899 2.07136 4.98943C1.92806 5.70988 2.00161 6.45664 2.28271 7.13528C2.56381 7.81393 3.03984 8.39397 3.6506 8.80207C4.26136 9.21017 4.97942 9.42799 5.71397 9.42799C6.6986 9.42678 7.64256 9.0351 8.33881 8.33885C9.03505 7.6426 9.42673 6.69864 9.42794 5.714ZM5.14259 4.28554C5.14259 4.134 5.20279 3.98866 5.30994 3.88151C5.4171 3.77435 5.56243 3.71415 5.71397 3.71415C5.86551 3.71415 6.01084 3.77435 6.118 3.88151C6.22515 3.98866 6.28535 4.134 6.28535 4.28554V5.4283C6.28535 5.57985 6.22515 5.72518 6.118 5.83233C6.01084 5.93949 5.86551 5.99969 5.71397 5.99969C5.56243 5.99969 5.4171 5.93949 5.30994 5.83233C5.20279 5.72518 5.14259 5.57985 5.14259 5.4283V4.28554ZM5.14259 7.14246C5.14259 7.02945 5.1761 6.91898 5.23888 6.82501C5.30167 6.73105 5.39091 6.65781 5.49531 6.61457C5.59972 6.57132 5.7146 6.56 5.82544 6.58205C5.93628 6.6041 6.03809 6.65852 6.118 6.73843C6.1979 6.81834 6.25232 6.92015 6.27437 7.03099C6.29642 7.14182 6.2851 7.25671 6.24186 7.36112C6.19861 7.46552 6.12537 7.55476 6.03141 7.61755C5.93745 7.68033 5.82698 7.71384 5.71397 7.71384C5.56243 7.71384 5.4171 7.65364 5.30994 7.54649C5.20279 7.43933 5.14259 7.294 5.14259 7.14246Z" fill="#84919A"/>
</svg>
