<svg width="20" height="20" viewBox="0 0 20 20" fill="none" xmlns="http://www.w3.org/2000/svg">
<path fill-rule="evenodd" clip-rule="evenodd" d="M3.02671 7.58468C3.33889 3.8637 6.50371 1 10.3039 1H10.6962C14.4963 1 17.6612 3.8637 17.9733 7.58468C18.1414 9.58811 17.5115 11.5774 16.2164 13.1336L11.8622 18.3655C11.1582 19.2115 9.84191 19.2115 9.13786 18.3655L4.78362 13.1336C3.4885 11.5774 2.85863 9.58811 3.02671 7.58468ZM13.7071 7.27492C13.9731 7.0135 13.9731 6.58964 13.7071 6.32823C13.441 6.06681 13.0096 6.06681 12.7436 6.32823L10.0458 8.97877L8.71062 7.66705C8.44458 7.40563 8.01317 7.40563 7.7471 7.66705C7.48103 7.92847 7.48103 8.35232 7.7471 8.61371L9.56401 10.3988C9.8301 10.6602 10.2614 10.6602 10.5275 10.3988L13.7071 7.27492Z" fill="#84919A"/>
</svg>
