<svg width="24" height="24" viewBox="0 0 24 24" fill="none" xmlns="http://www.w3.org/2000/svg">

  <!-- Larger Document -->
  <rect x="2" y="2" width="14" height="20" rx="2.5" stroke="#84919A" stroke-width="1.8"/>

  <!-- Document Lines (Bigger) -->
  <line x1="5" y1="9" x2="13" y2="9" stroke="#84919A" stroke-width="1.4"/>
  <line x1="5" y1="12" x2="11" y2="12" stroke="#84919A" stroke-width="1.4"/>

  <!-- Bigger Wrench -->
  <path d="M15 4C13.5 5.5 13.5 7.8 15 9.3L10.5 13.8L9 12.3L13.5 7.8C12 6.3 12 4 13.5 2.5C14.3 3.3 15 3.3 15 4Z"
        stroke="#84919A" stroke-width="1.8" stroke-linejoin="round"/>

  <!-- Bigger Clock -->
  <circle cx="17.5" cy="17.5" r="3.8" stroke="#84919A" stroke-width="1.8"/>
  <line x1="17.5" y1="17.5" x2="17.5" y2="15.5"
        stroke="#84919A" stroke-width="1.8" stroke-linecap="round"/>
  <line x1="17.5" y1="17.5" x2="19.5" y2="18.8"
        stroke="#84919A" stroke-width="1.8" stroke-linecap="round"/>

  <!-- Bigger Gear -->
  <circle cx="19.5" cy="6.5" r="2" stroke="#84919A" stroke-width="1.4"/>
  <path d="M19.5 3.8V4.8M19.5 8.2V9.2M16.8 6.5H17.8M21.2 6.5H22.2
           M17.7 4.7L18.5 5.5M21.3 8.3L20.5 7.5
           M17.7 8.3L18.5 7.5M21.3 4.7L20.5 5.5"
        stroke="#84919A" stroke-width="1.2" stroke-linecap="round"/>

</svg>