<svg width="20" height="20" viewBox="0 0 20 20" fill="none" xmlns="http://www.w3.org/2000/svg">
<path d="M11.0994 11.5949C10.8233 11.3523 10.5962 11.053 10.4723 10.7072C10.1755 9.87363 10.431 8.98847 11.0555 8.4388L13.6258 6.19106C13.742 6.09298 13.8065 5.94848 13.8065 5.79879V3.77814C13.8065 3.6517 13.7033 3.54846 13.5768 3.54846H7.32655C7.2001 3.54846 7.09686 3.6517 7.09686 3.77814V6.05168C7.09686 6.20395 7.16395 6.34845 7.27751 6.44653L9.53299 8.40266C9.81171 8.64524 10.0414 8.94717 10.1627 9.29556C10.4569 10.1317 10.1988 11.0194 9.56913 11.5639L7.27755 13.551C7.164 13.6517 7.0969 13.7936 7.0969 13.9459V16.2194C7.0969 16.3484 7.20014 16.4517 7.32659 16.4517H13.5769C13.7033 16.4517 13.8066 16.3484 13.8066 16.222V14.2013C13.8066 14.0491 13.7421 13.9071 13.6285 13.8065L11.0994 11.5949Z" fill="#84919A"/>
<path d="M16.3871 16.9677H15.3548V14.2013C15.3548 13.6774 15.1277 13.1793 14.7355 12.8361L12.1652 10.5883C11.9923 10.4387 11.8994 10.2296 11.8994 9.99996C11.8994 9.77028 11.9949 9.56127 12.1652 9.41157L14.7355 7.16382C15.1303 6.82059 15.3548 6.32254 15.3548 5.79866V3.03224H16.3871C16.6709 3.03224 16.9032 2.79998 16.9032 2.5161C16.9032 2.23222 16.6709 2 16.3871 2H15.3548H5.54838H4.51614C4.23226 2 4 2.23226 4 2.51614C4 2.80002 4.23226 3.03228 4.51614 3.03228H5.54838V6.05164C5.54838 6.57809 5.77549 7.07872 6.1755 7.42196L8.46708 9.40903C8.63999 9.55873 8.73807 9.77032 8.73807 10C8.73807 10.2297 8.64257 10.4413 8.46708 10.591L6.1755 12.5755C5.77549 12.9213 5.54838 13.4219 5.54838 13.9484V16.9677H4.51614C4.23226 16.9677 4 17.2 4 17.4839C4 17.7677 4.23226 18 4.51614 18H5.54838H15.3548H16.387C16.6709 18 16.9032 17.7677 16.9032 17.4839C16.9032 17.1999 16.6709 16.9677 16.3871 16.9677ZM14.3225 16.9677H6.58062V13.9483C6.58062 13.7212 6.6787 13.507 6.84903 13.3574L9.14061 11.3729C9.53805 11.027 9.76773 10.529 9.76773 10.0025C9.76773 9.47608 9.54062 8.97545 9.14061 8.63222L6.84903 6.64514C6.6787 6.49545 6.58062 6.2787 6.58062 6.0516V3.03224H14.3225V5.79866C14.3225 6.02319 14.2245 6.23736 14.0541 6.38705L11.4838 8.6348C11.0915 8.97803 10.8645 9.47608 10.8645 9.99996C10.8645 10.5238 11.0916 11.0219 11.4838 11.3651L14.0567 13.6129C14.227 13.7626 14.3225 13.9767 14.3225 14.2013L14.3225 16.9677Z" fill="#84919A"/>
</svg>
