<svg width="20" height="20" viewBox="0 0 20 20" fill="none" xmlns="http://www.w3.org/2000/svg">
<path d="M12.5 3H1.5C0.671573 3 0 3.67157 0 4.5V13H1.17071C1.58254 11.8348 2.69378 11 4 11C5.30622 11 6.41746 11.8348 6.82929 13H12.5V3Z" fill="#84919A"/>
<path d="M14 6V13H13.1707C13.5825 11.8348 14.6938 11 16 11C16.3506 11 16.6872 11.0602 17 11.1707V8L14 6Z" fill="#84919A"/>
<path d="M18.5 9.08296C18.1872 9.02844 17.8506 9 17.5 9H18V8.5L18.5 9.08296Z" fill="#84919A"/>
<path d="M17 11.1707C18.1652 11.5825 19 12.6938 19 14C19 14.3506 18.9398 14.6872 18.8293 15H20V10L17 8V11.1707Z" fill="#84919A"/>
<path d="M4 17C5.65685 17 7 15.6569 7 14C7 12.3431 5.65685 11 4 11C2.34315 11 1 12.3431 1 14C1 15.6569 2.34315 17 4 17ZM4 15.5C3.17157 15.5 2.5 14.8284 2.5 14C2.5 13.1716 3.17157 12.5 4 12.5C4.82843 12.5 5.5 13.1716 5.5 14C5.5 14.8284 4.82843 15.5 4 15.5Z" fill="#84919A"/>
<path d="M16 17C17.6569 17 19 15.6569 19 14C19 12.3431 17.6569 11 16 11C14.3431 11 13 12.3431 13 14C13 15.6569 14.3431 17 16 17ZM16 15.5C15.1716 15.5 14.5 14.8284 14.5 14C14.5 13.1716 15.1716 12.5 16 12.5C16.8284 12.5 17.5 13.1716 17.5 14C17.5 14.8284 16.8284 15.5 16 15.5Z" fill="#84919A"/>
</svg>
