<svg width="20" height="20" viewBox="0 0 20 20" fill="none" xmlns="http://www.w3.org/2000/svg">
<path d="M16.2857 14.5714C15.5417 14.5714 14.9134 15.0506 14.6767 15.7143H12.2857V13.6775L14.2249 12.8108C14.4353 12.721 14.5714 12.5142 14.5714 12.2857V7.71427C14.5714 7.71273 14.5708 7.71137 14.5708 7.70984L10.2857 9.61431V14.5714L11.1428 14.1883V16.2857C11.1428 16.6013 11.3984 16.8571 11.7143 16.8571H14.6767C14.9134 17.5208 15.5417 18 16.2857 18C17.231 18 18 17.231 18 16.2857C18 15.3404 17.231 14.5714 16.2857 14.5714Z" fill="#84919A"/>
<path d="M12.2857 6.36178V4.28571H14.6768C14.9134 4.94943 15.5417 5.42857 16.2857 5.42857C17.231 5.42857 18 4.6596 18 3.71429C18 2.76897 17.231 2 16.2857 2C15.5417 2 14.9134 2.47914 14.6767 3.14286H11.7143C11.3984 3.14286 11.1429 3.39872 11.1429 3.71429V5.86987C10.6107 5.64087 10.2249 5.47489 10.2249 5.47489C10.082 5.41295 9.91797 5.41295 9.77511 5.47489C9.77511 5.47489 9.38933 5.64087 8.85714 5.86987V3.71429C8.85714 3.39872 8.60156 3.14286 8.28571 3.14286H5.32328C5.08664 2.47914 4.45825 2 3.71429 2C2.76897 2 2 2.76897 2 3.71429C2 4.6596 2.76897 5.42857 3.71429 5.42857C4.45825 5.42857 5.08664 4.94943 5.32328 4.28571H7.71429V6.36178C6.71955 6.79 5.73682 7.21324 5.72893 7.21756L10 9.11579L14.2711 7.21756C14.2632 7.21324 13.2804 6.79 12.2857 6.36178Z" fill="#84919A"/>
<path d="M5.42857 7.71427V12.2857C5.42857 12.5142 5.56473 12.721 5.77511 12.8108L7.71429 13.6775V15.7143H5.32328C5.08664 15.0506 4.45825 14.5714 3.71429 14.5714C2.76897 14.5714 2 15.3404 2 16.2857C2 17.231 2.76897 18 3.71429 18C4.45825 18 5.08664 17.5208 5.32328 16.8571H8.28571C8.60156 16.8571 8.85714 16.6013 8.85714 16.2857V14.1883L9.71429 14.5714V9.61431L5.42923 7.70984C5.42923 7.71137 5.42857 7.71273 5.42857 7.71427Z" fill="#84919A"/>
</svg>
