<svg width="20" height="20" viewBox="0 0 20 20" fill="none" xmlns="http://www.w3.org/2000/svg">
<path d="M9.99974 3C3.21688 3.17891 3.21688 13.2096 9.99974 13.3885C16.7826 13.2096 16.7826 3.17891 9.99974 3ZM11.1426 9.92567C10.7769 9.99493 9.85117 8.77139 9.59403 8.60402C9.33688 8.43665 9.48546 5.58558 9.42831 5.30856C9.42831 5.15549 9.48852 5.00869 9.59568 4.90046C9.70284 4.79222 9.84819 4.73142 9.99974 4.73142C10.1513 4.73142 10.2966 4.79222 10.4038 4.90046C10.511 5.00869 10.5712 5.15549 10.5712 5.30856V7.95763L11.5483 8.93876C11.6289 9.01949 11.6839 9.12262 11.7062 9.23502C11.7285 9.34741 11.7172 9.46398 11.6737 9.56985C11.6301 9.67573 11.5564 9.76611 11.4618 9.82948C11.3672 9.89285 11.2561 9.92634 11.1426 9.92567Z" fill="#84919A"/>
<path d="M17.4286 16.8513C17.206 16.866 16.9826 16.866 16.76 16.8513C16.641 17.1875 16.4221 17.4784 16.1331 17.684C15.8441 17.8897 15.4992 18 15.1457 18C14.7922 18 14.4473 17.8897 14.1584 17.684C13.8694 17.4784 13.6504 17.1875 13.5314 16.8513H11.6114C11.4913 17.1856 11.2722 17.4744 10.9839 17.6785C10.6956 17.8826 10.3521 17.992 10 17.992C9.64793 17.992 9.3044 17.8826 9.01609 17.6785C8.72779 17.4744 8.50869 17.1856 8.38857 16.8513H6.46857C6.34845 17.1856 6.12936 17.4744 5.84105 17.6785C5.55274 17.8826 5.20921 17.992 4.85714 17.992C4.50507 17.992 4.16154 17.8826 3.87324 17.6785C3.58493 17.4744 3.36583 17.1856 3.24571 16.8513C2.78857 16.8513 2 16.9552 2 16.2742C2 15.5932 2.78857 15.6971 3.24571 15.6971C3.36583 15.3628 3.58493 15.074 3.87324 14.8699C4.16154 14.6658 4.50507 14.5564 4.85714 14.5564C5.20921 14.5564 5.55274 14.6658 5.84105 14.8699C6.12936 15.074 6.34845 15.3628 6.46857 15.6971H8.38857C8.50869 15.3628 8.72779 15.074 9.01609 14.8699C9.3044 14.6658 9.64793 14.5564 10 14.5564C10.3521 14.5564 10.6956 14.6658 10.9839 14.8699C11.2722 15.074 11.4913 15.3628 11.6114 15.6971H13.5314C13.6504 15.3608 13.8694 15.07 14.1584 14.8644C14.4473 14.6587 14.7922 14.5483 15.1457 14.5483C15.4992 14.5483 15.8441 14.6587 16.1331 14.8644C16.4221 15.07 16.641 15.3608 16.76 15.6971C16.9827 15.6853 17.2059 15.6853 17.4286 15.6971C17.5801 15.6971 17.7255 15.7579 17.8326 15.8661C17.9398 15.9743 18 16.1211 18 16.2742C18 16.4273 17.9398 16.5741 17.8326 16.6823C17.7255 16.7905 17.5801 16.8513 17.4286 16.8513Z" fill="#84919A"/>
</svg>
