<svg width="20" height="20" viewBox="0 0 20 20" fill="none" xmlns="http://www.w3.org/2000/svg">
<path d="M18 7.61549C18.0004 7.68568 17.9869 7.75526 17.9604 7.82024C17.9339 7.88522 17.8948 7.94432 17.8453 7.99416L14.6453 11.1942C14.5955 11.2436 14.5364 11.2827 14.4714 11.3092C14.4064 11.3358 14.3369 11.3492 14.2667 11.3488C14.1973 11.3497 14.1285 11.337 14.064 11.3115C13.9658 11.2711 13.8818 11.2024 13.8229 11.114C13.764 11.0256 13.7328 10.9217 13.7333 10.8155V9.21549H8.93333C8.79189 9.21549 8.65623 9.1593 8.55621 9.05928C8.45619 8.95926 8.4 8.82361 8.4 8.68216V6.54883C8.4 6.40738 8.45619 6.27172 8.55621 6.1717C8.65623 6.07168 8.79189 6.01549 8.93333 6.01549H13.7333V4.4155C13.7338 4.31002 13.7655 4.20704 13.8244 4.11958C13.8834 4.03212 13.967 3.96411 14.0646 3.92415C14.1622 3.88419 14.2695 3.87408 14.3729 3.89508C14.4762 3.91609 14.571 3.96727 14.6453 4.04216L17.8453 7.24216C17.9439 7.3415 17.9994 7.47558 18 7.61549ZM11.0667 10.2822H6.26667V8.68216C6.26615 8.57686 6.23446 8.47408 6.17562 8.38677C6.11678 8.29945 6.0334 8.2315 5.936 8.19149C5.83888 8.15065 5.73183 8.13949 5.62837 8.15942C5.52491 8.17936 5.42967 8.22949 5.35467 8.30349L2.15468 11.5035C2.10525 11.5533 2.06614 11.6124 2.0396 11.6774C2.01306 11.7424 1.9996 11.812 2.00001 11.8822C1.9996 11.9523 2.01306 12.0219 2.0396 12.0869C2.06614 12.1519 2.10525 12.211 2.15468 12.2608L5.35467 15.4608C5.40451 15.5102 5.46361 15.5494 5.52859 15.5759C5.59357 15.6024 5.66315 15.6159 5.73334 15.6155C5.8033 15.6173 5.87271 15.6027 5.936 15.5728C6.0334 15.5328 6.11678 15.4649 6.17562 15.3775C6.23446 15.2902 6.26615 15.1874 6.26667 15.0822V13.4822H11.0667C11.2081 13.4822 11.3438 13.426 11.4438 13.3259C11.5438 13.2259 11.6 13.0903 11.6 12.9488V10.8155C11.6 10.674 11.5438 10.5384 11.4438 10.4384C11.3438 10.3383 11.2081 10.2822 11.0667 10.2822Z" fill="#84919A"/>
</svg>
