<svg width="20" height="20" viewBox="0 0 20 20" fill="none" xmlns="http://www.w3.org/2000/svg">
<path d="M15.2612 10.6429C15.5275 11.3895 16.2344 11.9286 17.0713 11.9286C18.1348 11.9286 18.9999 11.0635 18.9999 10C18.9999 8.93652 18.1348 8.07143 17.0713 8.07143C16.2344 8.07143 15.5274 8.61047 15.2612 9.35714H14.4999V3.57143H15.2612C15.5275 4.31811 16.2344 4.85714 17.0713 4.85714C18.1348 4.85714 18.9999 3.99205 18.9999 2.92857C18.9999 1.86509 18.1348 1 17.0713 1C16.2344 1 15.5274 1.53904 15.2612 2.28571H13.857C13.5017 2.28571 13.2142 2.57356 13.2142 2.92857V9.35714H12.5713V10.6429H13.2142V17.0714C13.2142 17.4264 13.5017 17.7143 13.857 17.7143H15.2612C15.5275 18.461 16.2344 19 17.0713 19C18.1348 19 18.9999 18.1349 18.9999 17.0714C18.9999 16.008 18.1348 15.1429 17.0713 15.1429C16.2344 15.1429 15.5274 15.6819 15.2612 16.4286H14.4999V10.6429H15.2612Z" fill="#84919A"/>
<path d="M7.89325 10.0539C8.00123 9.9817 8.14185 9.9817 8.24983 10.0539L8.71439 10.3637V8.07153H7.42868V10.3637L7.89325 10.0539Z" fill="#84919A"/>
<path d="M11.9285 8.07153H9.35706V10.9642C9.35706 11.0828 9.29177 11.1918 9.18724 11.2476C9.13984 11.2731 9.08774 11.2856 9.03563 11.2856C8.97317 11.2856 8.91102 11.2674 8.85734 11.2316L8.07135 10.7077L7.28535 11.2316C7.18679 11.2976 7.05966 11.3038 6.95545 11.2476C6.85092 11.1918 6.78563 11.0828 6.78563 10.9642V8.07153H4.2142V15.143H11.2856C11.6407 15.143 11.9285 14.8551 11.9285 14.5001V8.07153Z" fill="#84919A"/>
<path d="M1 5.30713L3.57143 7.87856V14.95L1.18829 12.5668C1.06773 12.4463 1 12.2828 1 12.1123V5.30713Z" fill="#84919A"/>
<path d="M4.85712 4.85742L7.42855 7.42885H8.71426L6.14283 4.85742H4.85712Z" fill="#84919A"/>
<path d="M1.4498 4.85742L4.02123 7.42885H6.78551L4.21408 4.85742H1.4498Z" fill="#84919A"/>
<path d="M9.35267 5.04572C9.2321 4.92514 9.0686 4.85742 8.89808 4.85742H6.7858L9.35723 7.42885H11.7358L9.35267 5.04572Z" fill="#84919A"/>
</svg>
