<svg width="20" height="20" viewBox="0 0 20 20" fill="none" xmlns="http://www.w3.org/2000/svg">
<path d="M10.4688 10.2706V13.5519L13.3104 11.9113V8.63L10.4688 10.2706Z" fill="#84919A"/>
<path d="M10 9.45874L12.8416 7.81808L10 6.17749L7.15836 7.81812L10 9.45874Z" fill="#84919A"/>
<path d="M9.53126 10.2706L6.68961 8.63V11.9113L9.53126 13.5519V10.2706Z" fill="#84919A"/>
<path d="M16.5545 11.917C16.9188 10.6716 16.9184 9.33541 16.5533 8.08397C17.1588 7.58334 17.3338 6.70256 16.9282 6C16.5229 5.29791 15.6735 5.00909 14.9375 5.28219C14.0411 4.344 12.8837 3.67622 11.6173 3.36666C11.4865 2.59203 10.8113 2 10 2C9.18925 2 8.51441 2.59125 8.38297 3.36512C7.12235 3.67231 5.96541 4.34072 5.06416 5.2825C4.74697 5.16384 4.40169 5.14616 4.068 5.23556C3.64469 5.349 3.29091 5.62047 3.07182 6C2.66644 6.70213 2.84107 7.58219 3.44553 8.08297C3.08125 9.32834 3.08166 10.6646 3.44672 11.916C2.84128 12.4167 2.66616 13.2974 3.07178 14C3.29091 14.3795 3.64469 14.651 4.06797 14.7644C4.20932 14.8023 4.35275 14.821 4.49525 14.821C4.6886 14.821 4.88003 14.7857 5.06238 14.7177C5.95878 15.656 7.11628 16.3238 8.38266 16.6334C8.51353 17.408 9.18872 18 10 18C10.8107 18 11.4856 17.4088 11.617 16.6348C12.8776 16.3277 14.0345 15.6593 14.9357 14.7176C15.121 14.7867 15.3136 14.82 15.5046 14.82C16.072 14.8199 16.6247 14.5257 16.9282 14C17.3336 13.2979 17.159 12.4178 16.5545 11.917ZM11.5006 15.6973C11.2456 15.1216 10.6691 14.7188 10 14.7188C9.33141 14.7188 8.75532 15.121 8.5 15.696C7.48366 15.4277 6.5535 14.8913 5.81688 14.1488C5.93513 13.9872 6.02394 13.8036 6.07735 13.6043C6.19075 13.181 6.13257 12.7389 5.91344 12.3594C5.57913 11.7804 4.94278 11.4826 4.31716 11.549C4.04128 10.5344 4.04075 9.46047 4.3156 8.45116C4.37366 8.45738 4.43185 8.46063 4.48985 8.46063C5.05725 8.46063 5.60991 8.16634 5.91344 7.64062C6.13257 7.26109 6.19078 6.819 6.07735 6.39569C6.02407 6.19691 5.93557 6.01375 5.81775 5.85238C6.55841 5.10647 7.48807 4.56922 8.49938 4.30269C8.75441 4.87841 9.33088 5.28125 10 5.28125C10.6686 5.28125 11.2447 4.87903 11.5 4.30403C12.5167 4.57244 13.4471 5.10903 14.1838 5.85178C13.8127 6.36047 13.752 7.06112 14.0866 7.64062C14.3901 8.16638 14.9427 8.46059 15.5102 8.46059C15.5677 8.46059 15.6253 8.45738 15.6829 8.45128C15.9588 9.46584 15.9593 10.5398 15.6843 11.5491C15.0583 11.4821 14.4211 11.7799 14.0866 12.3594C13.7523 12.9384 13.8126 13.6384 14.1829 14.147C13.4421 14.8933 12.5122 15.4307 11.5006 15.6973Z" fill="#84919A"/>
</svg>
