<svg width="20" height="20" viewBox="0 0 20 20" fill="none" xmlns="http://www.w3.org/2000/svg">
<path fill-rule="evenodd" clip-rule="evenodd" d="M6.14345 1H12.0043V2.37432C12.0043 2.77508 12.3286 3.10067 12.7278 3.10067H14.0967V10.9475C14.0967 11.0802 13.9888 11.1886 13.8566 11.1886H6.14349C6.0113 11.1886 5.90336 11.0803 5.90336 10.9475V1.24112C5.90332 1.10833 6.01122 1 6.14345 1ZM15.75 13.9582L17.699 15.0879L15.75 16.2176L13.801 15.0879L15.75 13.9582ZM18 15.6113L16.0517 16.7406V19L18 17.8707V15.6113ZM15.4483 19V16.7406L13.5 15.6113V17.8707L15.4483 19ZM10 13.9582L11.949 15.0879L10 16.2176L8.05104 15.0879L10 13.9582ZM12.25 15.6113L10.3017 16.7406V19L12.25 17.8707V15.6113ZM9.69828 19V16.7406L7.75 15.6113V17.8707L9.69828 19ZM4.25 13.9582L6.199 15.0879L4.25 16.2176L2.301 15.0879L4.25 13.9582ZM6.50001 15.6113L4.55172 16.7406V19L6.50001 17.8707V15.6113ZM3.94828 19V16.7406L2 15.6113V17.8707L3.94828 19ZM12.6077 1.02094V2.37432C12.6077 2.44074 12.6616 2.49488 12.7278 2.49488H14.0759C14.0642 2.46929 14.0477 2.4457 14.0263 2.42426L12.6781 1.07065C12.6567 1.04919 12.6332 1.0326 12.6077 1.02094ZM4.55172 13.2586C4.55172 13.4259 4.41663 13.5615 4.25 13.5615C4.08338 13.5615 3.94828 13.4259 3.94828 13.2586V12.7643C3.94828 12.597 4.08338 12.4614 4.25 12.4614H8.38304L8.38395 11.7944C8.38395 11.6277 8.51852 11.4926 8.6845 11.4926C8.85048 11.4926 8.98505 11.6277 8.98505 11.7944L8.98381 12.738C8.99886 12.9148 8.86059 13.0672 8.68322 13.0672H4.55172V13.2586ZM16.0517 13.2586C16.0517 13.4259 15.9166 13.5616 15.75 13.5616C15.5834 13.5616 15.4483 13.4259 15.4483 13.2586V13.0673H11.3168C11.1394 13.0673 11.0012 12.9149 11.0162 12.7381L11.015 11.7944C11.015 11.6278 11.1496 11.4927 11.3155 11.4927C11.4815 11.4927 11.6161 11.6278 11.6161 11.7944L11.617 12.4614H15.75C15.9166 12.4614 16.0517 12.5971 16.0517 12.7644V13.2586ZM9.71257 11.7932C9.71322 11.6266 9.84831 11.492 10.0143 11.4926C10.1803 11.4933 10.3143 11.6289 10.3137 11.7956L10.3075 13.2638C10.3069 13.4305 10.1718 13.565 10.0058 13.5644C9.83979 13.5637 9.70575 13.4281 9.70639 13.2615L9.71257 11.7932ZM7.16873 8.8771H12.8313C12.9979 8.8771 13.133 8.74147 13.133 8.57418C13.133 8.4069 12.9979 8.27127 12.8313 8.27127H12.4062V4.69097C12.4062 4.58669 12.3215 4.50165 12.2176 4.50165H11.5738C11.47 4.50165 11.3853 4.58669 11.3853 4.69097V8.27127H10.5105V5.76681C10.5105 5.66253 10.4258 5.57749 10.3219 5.57749C10.1073 5.57749 9.89266 5.57749 9.67807 5.57749C9.5742 5.57749 9.48949 5.66253 9.48949 5.76681V8.27127H8.61473V6.79706C8.61473 6.69278 8.53002 6.60774 8.42615 6.60774H7.78236C7.67849 6.60774 7.59378 6.69278 7.59378 6.79706V8.27127H7.16873C7.00211 8.27127 6.86701 8.4069 6.86701 8.57418C6.86701 8.74147 7.00211 8.8771 7.16873 8.8771Z" fill="#84919A"/>
</svg>
