<svg width="20" height="20" viewBox="0 0 20 20" fill="none" xmlns="http://www.w3.org/2000/svg">
<path fill-rule="evenodd" clip-rule="evenodd" d="M5.09866 2H14.8529C15.4573 2 15.9517 2.49445 15.9517 3.09878V16.9012C15.9517 17.5056 15.4573 18 14.8529 18H5.09866C4.49432 18 3.99988 17.5056 3.99988 16.9012V3.09878C3.99988 2.49445 4.49432 2 5.09866 2ZM9.9758 3.44711C11.2141 3.44711 12.2179 4.45095 12.2179 5.68925C12.2179 6.92754 11.2141 7.93139 9.9758 7.93139C8.7375 7.93139 7.73366 6.92754 7.73366 5.68925C7.73366 4.45095 8.7375 3.44711 9.9758 3.44711ZM8.58489 9.43543C8.48671 9.43543 8.40711 9.51503 8.40711 9.61322C8.40711 9.7114 8.48671 9.791 8.58489 9.791H13.6901C13.7883 9.791 13.8679 9.7114 13.8679 9.61322C13.8679 9.51503 13.7883 9.43543 13.6901 9.43543H8.58489ZM8.58489 11.6064C8.48671 11.6064 8.40711 11.686 8.40711 11.7841C8.40711 11.8823 8.48671 11.9619 8.58489 11.9619H13.6901C13.7883 11.9619 13.8679 11.8823 13.8679 11.7841C13.8679 11.686 13.7883 11.6064 13.6901 11.6064H8.58489ZM8.58489 13.7773C8.48671 13.7773 8.40711 13.8569 8.40711 13.9551C8.40711 14.0533 8.48671 14.1329 8.58489 14.1329H13.6901C13.7883 14.1329 13.8679 14.0533 13.8679 13.9551C13.8679 13.8569 13.7883 13.7773 13.6901 13.7773H8.58489ZM8.58489 15.9483C8.48671 15.9483 8.40711 16.0279 8.40711 16.1261C8.40711 16.2242 8.48671 16.3038 8.58489 16.3038H13.6901C13.7883 16.3038 13.8679 16.2242 13.8679 16.1261C13.8679 16.0279 13.7883 15.9483 13.6901 15.9483H8.58489ZM6.38719 9.54849C6.31777 9.47908 6.2052 9.47908 6.13579 9.54849C6.06637 9.61791 6.06637 9.73048 6.13579 9.79989L6.50166 10.1658C6.57108 10.2352 6.68365 10.2352 6.75308 10.1658L7.60677 9.31207C7.67619 9.24265 7.67619 9.13009 7.60677 9.06067C7.53735 8.99125 7.42479 8.99125 7.35537 9.06067L6.62737 9.78866L6.38719 9.54849ZM6.38719 11.7194C6.31777 11.65 6.2052 11.65 6.13579 11.7194C6.06637 11.7889 6.06637 11.9014 6.13579 11.9708L6.50166 12.3367C6.57108 12.4061 6.68365 12.4061 6.75308 12.3367L7.60677 11.483C7.67619 11.4136 7.67619 11.301 7.60677 11.2316C7.53735 11.1622 7.42479 11.1622 7.35537 11.2316L6.62737 11.9596L6.38719 11.7194ZM6.38719 13.8904C6.31777 13.821 6.2052 13.821 6.13579 13.8904C6.06637 13.9598 6.06637 14.0724 6.13579 14.1418L6.50166 14.5077C6.57108 14.5771 6.68365 14.5771 6.75308 14.5077L7.60677 13.654C7.67619 13.5845 7.67619 13.472 7.60677 13.4026C7.53735 13.3331 7.42479 13.3331 7.35537 13.4026L6.62737 14.1305L6.38719 13.8904ZM6.38719 16.0613C6.31777 15.9919 6.2052 15.9919 6.13579 16.0613C6.06637 16.1307 6.06637 16.2433 6.13579 16.3127L6.50166 16.6786C6.57108 16.748 6.68365 16.748 6.75308 16.6786L7.60677 15.8249C7.67619 15.7555 7.67619 15.6429 7.60677 15.5735C7.53735 15.5041 7.42479 15.5041 7.35537 15.5735L6.62737 16.3015L6.38719 16.0613Z" fill="#84919A"/>
<path d="M10.5217 5.0877C10.5217 5.2227 10.6311 5.33215 10.7661 5.33215C10.9011 5.33215 11.0106 5.2227 11.0106 5.0877C11.0106 4.55068 10.4607 4.24182 9.97574 4.24182C9.49076 4.24182 8.94092 4.55068 8.94092 5.0877C8.94092 5.74906 9.43686 5.83895 9.93277 5.92881C10.2272 5.98216 10.5217 6.03552 10.5217 6.29056C10.5217 6.53858 10.175 6.64754 9.97574 6.64754C9.7765 6.64754 9.42982 6.53858 9.42982 6.29056C9.42982 6.15556 9.32037 6.04611 9.18537 6.04611C9.05037 6.04611 8.94092 6.15556 8.94092 6.29056C8.94092 6.82758 9.49076 7.13644 9.97574 7.13644C10.4607 7.13644 11.0106 6.82758 11.0106 6.29056C11.0106 5.62918 10.5146 5.53931 10.0187 5.44946C9.72427 5.3961 9.42982 5.34274 9.42982 5.0877C9.42982 4.83968 9.7765 4.73072 9.97574 4.73072C10.175 4.73072 10.5217 4.83968 10.5217 5.0877Z" fill="#84919A"/>
<path d="M10.2202 3.98444C10.2202 3.84944 10.1107 3.73999 9.97571 3.73999C9.84071 3.73999 9.73126 3.84944 9.73126 3.98444V7.39383C9.73126 7.52884 9.84071 7.63828 9.97571 7.63828C10.1107 7.63828 10.2202 7.52884 10.2202 7.39383V3.98444Z" fill="#84919A"/>
</svg>
