<svg width="20" height="20" viewBox="0 0 20 20" fill="none" xmlns="http://www.w3.org/2000/svg">
<path d="M17.9999 10C17.9999 11.5822 17.5307 13.129 16.6517 14.4446C15.7726 15.7602 14.5232 16.7855 13.0614 17.391C11.5996 17.9965 9.99107 18.155 8.43922 17.8463C6.88737 17.5376 5.46191 16.7757 4.34309 15.6569C3.22427 14.538 2.46234 13.1126 2.15366 11.5607C1.84498 10.0089 2.00341 8.40034 2.60891 6.93853C3.21441 5.47672 4.23979 4.22729 5.55538 3.34824C6.87097 2.46919 8.41769 2 9.99994 2C12.121 2.00229 14.1545 2.84589 15.6543 4.34568C17.1541 5.84547 17.9976 7.87897 17.9999 10ZM11.3333 10C11.3333 9.64638 11.1928 9.30724 10.9427 9.05719C10.6927 8.80714 10.3536 8.66667 9.99994 8.66667H8.66661V10H9.99994V14.6667H11.3333V10ZM9.99994 5.33333C9.80216 5.33333 9.60882 5.39198 9.44437 5.50186C9.27992 5.61174 9.15175 5.76792 9.07606 5.95065C9.00037 6.13338 8.98057 6.33444 9.01916 6.52842C9.05774 6.7224 9.15298 6.90059 9.29283 7.04044C9.43269 7.18029 9.61087 7.27553 9.80485 7.31412C9.99883 7.3527 10.1999 7.3329 10.3826 7.25721C10.5654 7.18152 10.7215 7.05335 10.8314 6.8889C10.9413 6.72445 10.9999 6.53111 10.9999 6.33333C10.9999 6.06812 10.8946 5.81376 10.707 5.62623C10.5195 5.43869 10.2652 5.33333 9.99994 5.33333Z" fill="#84919A"/>
</svg>
