<svg width="20" height="20" viewBox="0 0 20 20" fill="none" xmlns="http://www.w3.org/2000/svg">
<path d="M13.352 2.00012H6.648C3.736 2.00012 2 3.73612 2 6.64812V13.3521C2 16.2641 3.736 18.0001 6.648 18.0001H13.352C16.264 18.0001 18 16.2641 18 13.3521V6.64812C18 3.73612 16.264 2.00012 13.352 2.00012ZM8.376 12.3201L6.576 14.1201C6.456 14.2401 6.304 14.2961 6.152 14.2961C6 14.2961 5.84 14.2401 5.728 14.1201L5.128 13.5201C4.888 13.2881 4.888 12.9041 5.128 12.6721C5.36 12.4401 5.736 12.4401 5.976 12.6721L6.152 12.8481L7.528 11.4721C7.76 11.2401 8.136 11.2401 8.376 11.4721C8.608 11.7041 8.608 12.0881 8.376 12.3201ZM8.376 6.72012L6.576 8.52012C6.456 8.64012 6.304 8.69612 6.152 8.69612C6 8.69612 5.84 8.64012 5.728 8.52012L5.128 7.92012C4.888 7.68812 4.888 7.30412 5.128 7.07212C5.36 6.84012 5.736 6.84012 5.976 7.07212L6.152 7.24812L7.528 5.87212C7.76 5.64012 8.136 5.64012 8.376 5.87212C8.608 6.10412 8.608 6.48812 8.376 6.72012ZM14.448 13.6961H10.248C9.92 13.6961 9.648 13.4241 9.648 13.0961C9.648 12.7681 9.92 12.4961 10.248 12.4961H14.448C14.784 12.4961 15.048 12.7681 15.048 13.0961C15.048 13.4241 14.784 13.6961 14.448 13.6961ZM14.448 8.09612H10.248C9.92 8.09612 9.648 7.82412 9.648 7.49612C9.648 7.16812 9.92 6.89612 10.248 6.89612H14.448C14.784 6.89612 15.048 7.16812 15.048 7.49612C15.048 7.82412 14.784 8.09612 14.448 8.09612Z" fill="#84919A"/>
</svg>
