<svg width="20" height="20" viewBox="0 0 20 20" fill="none" xmlns="http://www.w3.org/2000/svg">
<path d="M18.9201 12.8359L17.2326 10.0234C17.1314 9.8535 16.948 9.75 16.75 9.75H13.375V8.0625C13.375 7.752 13.123 7.5 12.8125 7.5H9.94263C9.65912 10.0245 7.53625 12 4.9375 12C3.89688 12 2.9305 11.6827 2.125 11.1427V14.25V15.9375C2.125 16.248 2.377 16.5 2.6875 16.5H4.4785C4.71137 17.1536 5.33012 17.625 6.0625 17.625C6.79488 17.625 7.41362 17.1536 7.6465 16.5H12.8125H13.375H14.6035C14.8364 17.1536 15.4551 17.625 16.1875 17.625C16.9199 17.625 17.5386 17.1536 17.7715 16.5H18.4375C18.748 16.5 19 16.248 19 15.9375V13.125C19 13.0226 18.973 12.9225 18.9201 12.8359ZM6.0625 16.5C5.752 16.5 5.5 16.2469 5.5 15.9375C5.5 15.6281 5.752 15.375 6.0625 15.375C6.373 15.375 6.625 15.6281 6.625 15.9375C6.625 16.2469 6.373 16.5 6.0625 16.5ZM16.1875 16.5C15.8781 16.5 15.625 16.2469 15.625 15.9375C15.625 15.6281 15.8781 15.375 16.1875 15.375C16.4969 15.375 16.75 15.6281 16.75 15.9375C16.75 16.2469 16.4969 16.5 16.1875 16.5ZM14.5 13.125V10.875H16.4316L17.7816 13.125H14.5Z" fill="#84919A"/>
<path d="M4.9375 3C2.76625 3 1 4.76625 1 6.9375C1 9.10875 2.76625 10.875 4.9375 10.875C7.10875 10.875 8.875 9.10875 8.875 6.9375C8.875 4.76625 7.10875 3 4.9375 3ZM6.46075 8.46075C6.3505 8.56988 6.2065 8.625 6.0625 8.625C5.9185 8.625 5.7745 8.56988 5.66425 8.46075L4.53925 7.33575C4.43462 7.23 4.375 7.08712 4.375 6.9375V5.25C4.375 4.9395 4.627 4.6875 4.9375 4.6875C5.248 4.6875 5.5 4.9395 5.5 5.25V6.70463L6.46075 7.66537C6.68013 7.88475 6.68013 8.24137 6.46075 8.46075Z" fill="#84919A"/>
</svg>
