<svg width="20" height="20" viewBox="0 0 20 20" fill="none" xmlns="http://www.w3.org/2000/svg">
<path d="M18 6.57134V4.85708C18 4.40244 17.8194 3.96641 17.4979 3.64493C17.1764 3.32344 16.7404 3.14283 16.2857 3.14283H14V2.57142C14 2.41987 13.9398 2.27453 13.8326 2.16736C13.7255 2.0602 13.5801 2 13.4286 2C13.277 2 13.1317 2.0602 13.0245 2.16736C12.9173 2.27453 12.8571 2.41987 12.8571 2.57142V3.14283H7.14286V2.57142C7.14286 2.41987 7.08265 2.27453 6.97549 2.16736C6.86833 2.0602 6.72298 2 6.57143 2C6.41988 2 6.27453 2.0602 6.16737 2.16736C6.0602 2.27453 6 2.41987 6 2.57142V3.14283H3.71429C3.25963 3.14283 2.82359 3.32344 2.5021 3.64493C2.18061 3.96641 2 4.40244 2 4.85708V6.57134H18Z" fill="#84919A"/>
<path d="M2 7.71448V16.2857C2 16.7404 2.18061 17.1764 2.5021 17.4979C2.82359 17.8194 3.25963 18 3.71429 18H16.2857C16.7404 18 17.1764 17.8194 17.4979 17.4979C17.8194 17.1764 18 16.7404 18 16.2857V7.71448H2ZM13.2286 11.0053L9.22857 14.4338C9.11924 14.5272 8.97867 14.5761 8.83493 14.5704C8.69119 14.5648 8.55485 14.5052 8.45314 14.4035L6.73886 12.6892C6.63477 12.5815 6.57717 12.4371 6.57847 12.2873C6.57977 12.1375 6.63987 11.9942 6.74582 11.8882C6.85177 11.7823 6.99509 11.7222 7.14491 11.7209C7.29474 11.7196 7.43908 11.7772 7.54686 11.8812L8.88743 13.2218L12.4874 10.1361C12.5441 10.0851 12.6104 10.0459 12.6824 10.0208C12.7545 9.9958 12.8308 9.98544 12.9069 9.99037C12.9831 9.9953 13.0574 10.0154 13.1256 10.0495C13.1939 10.0837 13.2546 10.1311 13.3042 10.189C13.3537 10.247 13.3912 10.3143 13.4144 10.387C13.4376 10.4596 13.446 10.5362 13.4391 10.6122C13.4322 10.6881 13.4102 10.7619 13.3743 10.8293C13.3385 10.8966 13.2895 10.956 13.2303 11.0041L13.2286 11.0053Z" fill="#84919A"/>
</svg>
