<svg width="20" height="20" viewBox="0 0 20 20" fill="none" xmlns="http://www.w3.org/2000/svg">
<path d="M15.8334 3.33333H14.1667V2.5C14.1667 2.27899 14.0789 2.06702 13.9226 1.91074C13.7663 1.75446 13.5544 1.66667 13.3334 1.66667C13.1123 1.66667 12.9004 1.75446 12.7441 1.91074C12.5878 2.06702 12.5 2.27899 12.5 2.5V3.33333H7.50002V2.5C7.50002 2.27899 7.41222 2.06702 7.25594 1.91074C7.09966 1.75446 6.8877 1.66667 6.66669 1.66667C6.44567 1.66667 6.23371 1.75446 6.07743 1.91074C5.92115 2.06702 5.83335 2.27899 5.83335 2.5V3.33333H4.16669C3.50365 3.33333 2.86776 3.59672 2.39892 4.06557C1.93008 4.53441 1.66669 5.17029 1.66669 5.83333V15.8333C1.66669 16.4964 1.93008 17.1323 2.39892 17.6011C2.86776 18.0699 3.50365 18.3333 4.16669 18.3333H15.8334C16.4964 18.3333 17.1323 18.0699 17.6011 17.6011C18.07 17.1323 18.3334 16.4964 18.3334 15.8333V5.83333C18.3334 5.17029 18.07 4.53441 17.6011 4.06557C17.1323 3.59672 16.4964 3.33333 15.8334 3.33333ZM16.6667 15.8333C16.6667 16.0543 16.5789 16.2663 16.4226 16.4226C16.2663 16.5789 16.0544 16.6667 15.8334 16.6667H4.16669C3.94567 16.6667 3.73371 16.5789 3.57743 16.4226C3.42115 16.2663 3.33335 16.0543 3.33335 15.8333V10H16.6667V15.8333ZM16.6667 8.33333H3.33335V5.83333C3.33335 5.61232 3.42115 5.40036 3.57743 5.24408C3.73371 5.0878 3.94567 5 4.16669 5H5.83335V5.83333C5.83335 6.05435 5.92115 6.26631 6.07743 6.42259C6.23371 6.57887 6.44567 6.66667 6.66669 6.66667C6.8877 6.66667 7.09966 6.57887 7.25594 6.42259C7.41222 6.26631 7.50002 6.05435 7.50002 5.83333V5H12.5V5.83333C12.5 6.05435 12.5878 6.26631 12.7441 6.42259C12.9004 6.57887 13.1123 6.66667 13.3334 6.66667C13.5544 6.66667 13.7663 6.57887 13.9226 6.42259C14.0789 6.26631 14.1667 6.05435 14.1667 5.83333V5H15.8334C16.0544 5 16.2663 5.0878 16.4226 5.24408C16.5789 5.40036 16.6667 5.61232 16.6667 5.83333V8.33333Z" fill="#252C32"/>
</svg>
