<svg width="20" height="20" viewBox="0 0 20 20" fill="none" xmlns="http://www.w3.org/2000/svg">
<g clip-path="url(#clip0_410_345)">
<path fill-rule="evenodd" clip-rule="evenodd" d="M17.9869 10.3439C16.3731 13.242 13.3124 15.0424 10.0011 15.0424C6.68756 15.0424 3.62697 13.242 2.01307 10.3439C1.88877 10.1188 1.88877 9.88095 2.01307 9.6561C3.62697 6.75798 6.68756 4.95782 10.0011 4.95782C13.3124 4.95782 16.373 6.75798 17.9869 9.6561C18.1134 9.88095 18.1134 10.1188 17.9869 10.3439ZM19.0179 9.08149C17.1961 5.80935 13.7411 3.77689 10.0011 3.77689C6.25889 3.77689 2.80393 5.80935 0.982129 9.08149C0.656348 9.66532 0.656348 10.3347 0.982129 10.9181C2.80393 14.1902 6.25889 16.2231 10.0011 16.2231C13.7411 16.2231 17.1961 14.1902 19.0179 10.9181C19.3437 10.3347 19.3437 9.66532 19.0179 9.08149ZM10.0011 12.4224C11.3363 12.4224 12.423 11.3358 12.423 9.99989C12.423 8.66399 11.3363 7.57735 10.0011 7.57735C8.66365 7.57735 7.57701 8.66399 7.57701 9.99989C7.57701 11.3358 8.66369 12.4224 10.0011 12.4224ZM10.0011 6.39642C8.01209 6.39642 6.39607 8.0131 6.39607 9.99993C6.39607 11.9872 8.01213 13.6032 10.0011 13.6032C11.9879 13.6032 13.6039 11.9872 13.6039 9.99993C13.6039 8.0131 11.9879 6.39642 10.0011 6.39642Z" fill="#5E6873"/>
</g>
<defs>
<clipPath id="clip0_410_345">
<rect width="20" height="20" fill="white"/>
</clipPath>
</defs>
</svg>
