<?xml version="1.0" encoding="UTF-8"?>
<svg version="1.1" xmlns="http://www.w3.org/2000/svg" width="400" height="372">
<path d="M0 0 C7.25896223 2.95323978 14.57974809 5.60564808 22 8.125 C32.71540136 11.78062542 43.33353194 15.66008706 53.9375 19.625 C63.59597316 23.23427066 73.25185901 26.82665547 82.99853516 30.19238281 C92.12759113 33.35134409 101.21962022 36.61368442 110.3125 39.875 C111.16804474 40.18179688 112.02358948 40.48859375 112.90505981 40.8046875 C123.99057219 44.7831808 135.04989998 48.81799746 146.05834961 53.00585938 C150.63399972 54.74050022 155.22010016 56.41573743 159.8515625 57.99609375 C160.78202393 58.31392822 161.71248535 58.6317627 162.67114258 58.95922852 C164.41558425 59.55005477 166.16266869 60.13316135 167.9128418 60.70678711 C168.68023682 60.96596924 169.44763184 61.22515137 170.23828125 61.4921875 C170.90770752 61.71245605 171.57713379 61.93272461 172.2668457 62.15966797 C174.48328484 63.1969193 175.55638767 64.05101685 177.0625 66 C177.44345093 68.7322998 177.44345093 68.7322998 177.45068359 72.07617188 C177.46014008 73.32756958 177.46959656 74.57896729 177.4793396 75.86828613 C177.4739699 77.23511064 177.46781695 78.60193226 177.4609375 79.96875 C177.46295843 81.36975252 177.46587002 82.77075401 177.46963501 84.17175293 C177.47405753 87.10727967 177.46762996 90.04253246 177.45361328 92.97802734 C177.43652101 96.74107416 177.44636264 100.50347911 177.46433067 104.26650238 C177.47517069 107.15928993 177.47172126 110.05192527 177.4639473 112.94471741 C177.46194587 114.33219987 177.46440258 115.71969614 177.47138596 117.10716248 C177.47900305 119.04604834 177.46533494 120.98498265 177.45068359 122.92382812 C177.44829681 124.02730591 177.44591003 125.13078369 177.44345093 126.2677002 C177.0625 129 177.0625 129 175.67495728 130.80554199 C173.88962223 132.12806245 172.08778485 133.09211369 170.0625 134 C171.031875 134.474375 172.00125 134.94875 173 135.4375 C176.0625 137 176.0625 137 177.0625 138 C177.17380594 141.02792314 177.21990429 144.03324607 177.22363281 147.06201172 C177.22859772 148.01318878 177.23356262 148.96436584 177.23867798 149.94436646 C177.25334089 153.10614737 177.26010842 156.26787811 177.265625 159.4296875 C177.27137301 161.61825564 177.27713078 163.80682376 177.28289795 165.99539185 C177.29341968 170.59051754 177.29925468 175.18562567 177.30273438 179.78076172 C177.30822182 185.67813481 177.33225037 191.57527733 177.36070633 197.47257805 C177.37930045 201.9952157 177.38453659 206.51779747 177.38607025 211.04047012 C177.38910457 213.21505113 177.39715913 215.38963097 177.41025543 217.56417465 C177.42724868 220.6026962 177.42545212 223.64064986 177.41894531 226.67919922 C177.4281601 227.58321472 177.43737488 228.48723022 177.4468689 229.41864014 C177.43851517 230.65953903 177.43851517 230.65953903 177.42999268 231.92550659 C177.43145924 232.64412809 177.4329258 233.3627496 177.4344368 234.10314751 C176.94330259 236.60789872 176.05908779 237.44503935 174.0625 239 C171.39122495 239.97909022 168.78831529 240.83926677 166.0625 241.625 C165.33804687 241.8415625 164.61359375 242.058125 163.8671875 242.28125 C161.93376972 242.85913502 159.9982397 243.42994106 158.0625 244 C157.0725 244.33 156.0825 244.66 155.0625 245 C155.82433594 245.31453125 156.58617187 245.6290625 157.37109375 245.953125 C158.40363281 246.38109375 159.43617188 246.8090625 160.5 247.25 C161.50933594 247.66765625 162.51867187 248.0853125 163.55859375 248.515625 C166.31293213 249.68245731 169.04937527 250.87558994 171.78149414 252.09277344 C172.58518936 252.45062927 173.38888458 252.80848511 174.2169342 253.17718506 C174.82597092 253.44871399 175.43500763 253.72024292 176.0625 254 C176.28569965 264.24812901 176.48721547 274.49643146 176.66090012 284.74552631 C176.74223021 289.50438606 176.83108188 294.26285946 176.93701172 299.02124023 C177.03892687 303.61162925 177.12122962 308.20198614 177.18982697 312.79298973 C177.21949274 314.54623901 177.25627674 316.29938249 177.3002243 318.05233192 C177.36048791 320.50414748 177.39563783 322.95511596 177.42480469 325.4074707 C177.46040245 326.49935448 177.46040245 326.49935448 177.49671936 327.61329651 C177.51810254 332.51879825 177.51810254 332.51879825 175.28263855 334.87986755 C173.25578742 335.90248018 171.32824342 336.79061618 169.17797852 337.51464844 C168.42453156 337.77232498 167.67108459 338.03000153 166.89480591 338.29548645 C166.08518402 338.56406967 165.27556213 338.83265289 164.44140625 339.109375 C163.59295135 339.39741501 162.74449646 339.68545502 161.87033081 339.98222351 C159.12437129 340.91237529 156.37497321 341.83178886 153.625 342.75 C151.7466871 343.38117809 149.86851324 344.01277009 147.99047852 344.64477539 C145.21311324 345.5790069 142.43547709 346.51236501 139.65666199 347.442276 C134.74153055 349.08867108 129.84262244 350.76867957 124.9609375 352.51171875 C124.00630615 352.8478418 123.0516748 353.18396484 122.06811523 353.53027344 C120.42507529 354.1107028 118.78605815 354.70273144 117.15258789 355.30957031 C107.17718711 358.77436479 98.85877011 354.70291221 89.4375 351.125 C88.11369893 350.62955298 86.78955453 350.13502244 85.46508789 349.64135742 C82.71094095 348.61410491 79.95831099 347.58292323 77.20654297 346.54931641 C73.19866872 345.04705356 69.18138757 343.57155121 65.16015625 342.10546875 C64.52181854 341.87269226 63.88348083 341.63991577 63.22579956 341.40008545 C61.95003334 340.93498029 60.67424614 340.46993263 59.3984375 340.00494385 C50.21767603 336.65631541 41.05846776 333.25846219 31.9375 329.75 C23.57368064 326.53377115 15.15093826 323.52263817 6.67578125 320.61328125 C3.75202359 319.60523492 0.85881703 318.54902702 -2.01953125 317.41796875 C-3.22996094 316.95003906 -4.44039062 316.48210937 -5.6875 316 C-6.71359375 315.5875 -7.7396875 315.175 -8.796875 314.75 C-16.74748755 312.85134626 -23.86168882 316.22659335 -31.1875 319.0625 C-33.58138897 319.96919629 -35.97591021 320.87408535 -38.37109375 321.77734375 C-39.02494553 322.02488403 -39.6787973 322.27242432 -40.35246277 322.52746582 C-49.95051312 326.15340065 -59.60476419 329.62709771 -69.25 333.125 C-71.07523586 333.78773013 -72.90043189 334.45056997 -74.72558594 335.11352539 C-75.6168367 335.43722107 -76.50808746 335.76091675 -77.42634583 336.09442139 C-79.21467244 336.74393906 -81.00299236 337.39347513 -82.79130554 338.04302979 C-87.45117811 339.73525793 -92.11184493 341.42525028 -96.77368164 343.11206055 C-108.21332858 347.24421282 -108.21332858 347.24421282 -119.58203125 351.56640625 C-120.46310547 351.90607422 -121.34417969 352.24574219 -122.25195312 352.59570312 C-123.97337006 353.26192782 -125.6892787 353.94250295 -127.40039062 354.63476562 C-128.26470703 354.96283203 -129.12902344 355.29089844 -130.01953125 355.62890625 C-131.12131714 356.0631189 -131.12131714 356.0631189 -132.24536133 356.50610352 C-139.18437411 357.77912636 -145.86505701 355.63763771 -152.35546875 353.3046875 C-153.12770782 353.0361496 -153.8999469 352.76761169 -154.69558716 352.49093628 C-157.1750397 351.62722915 -159.64990929 350.75111815 -162.125 349.875 C-165.52715787 348.68581728 -168.93153915 347.50306334 -172.3359375 346.3203125 C-173.16730728 346.03051514 -173.99867706 345.74071777 -174.85523987 345.44213867 C-182.50902427 342.78148837 -190.21081666 340.300448 -197.95581055 337.91748047 C-203.84345045 336.09404955 -203.84345045 336.09404955 -204.9375 335 C-205.03416765 333.55085625 -205.06121805 332.09700895 -205.06054783 330.64464474 C-205.06253888 329.69865349 -205.06452993 328.75266224 -205.06658131 327.77800459 C-205.06366847 326.72647044 -205.06075563 325.67493629 -205.05775452 324.59153748 C-205.05860894 323.48404036 -205.05946337 322.37654325 -205.06034368 321.23548561 C-205.06200173 317.49348154 -205.05647182 313.75152148 -205.05102539 310.00952148 C-205.05074356 307.33945616 -205.05085705 304.6693936 -205.0514679 301.99932861 C-205.05199332 296.23493932 -205.04884457 290.47056131 -205.04323006 284.70617485 C-205.03511759 276.37174684 -205.0325001 268.03732432 -205.03124207 259.70289279 C-205.02905115 246.18221514 -205.02238998 232.66154352 -205.01293945 219.14086914 C-205.00376636 206.00349966 -204.99668503 192.8661318 -204.99243164 179.72875977 C-204.99216892 178.91954669 -204.99190619 178.11033361 -204.99163551 177.27659892 C-204.99033051 173.21718626 -204.98906679 169.15777358 -204.98782361 165.0983609 C-204.97744975 131.3989029 -204.95983036 97.69945219 -204.9375 64 C-202.06744489 62.87785601 -199.19684862 61.75713207 -196.32592773 60.63720703 C-195.5194857 60.32173416 -194.71304367 60.00626129 -193.882164 59.68122864 C-187.64014359 57.24814918 -181.35093297 55.00771195 -175 52.875 C-164.40753541 49.2653845 -153.91623478 45.42476865 -143.4375 41.5 C-132.10837995 37.2580805 -120.75086188 33.14918886 -109.30078125 29.2421875 C-101.63277796 26.61563179 -94.02914615 23.83919637 -86.4375 21 C-76.65911626 17.34371648 -66.84116095 13.84174248 -56.95532227 10.48681641 C-50.90796848 8.42137442 -44.91664142 6.25066405 -38.953125 3.95703125 C-37.59491354 3.43974545 -36.23659689 2.92273574 -34.87817383 2.40600586 C-32.89701915 1.65217451 -30.919426 0.89263987 -28.9493103 0.11038208 C-17.70565988 -4.35339267 -10.97409182 -4.67197171 0 0 Z M-21.96484375 93.6875 C-22.91085449 94.05270752 -23.85686523 94.41791504 -24.83154297 94.79418945 C-25.83588379 95.19210693 -26.84022461 95.59002441 -27.875 96 C-30.02118885 96.82927682 -32.16835193 97.65603606 -34.31640625 98.48046875 C-35.95826904 99.11154541 -35.95826904 99.11154541 -37.63330078 99.75537109 C-43.74154095 102.05622881 -49.91839269 104.15802149 -56.09741211 106.25976562 C-56.98050049 106.56205078 -57.86358887 106.86433594 -58.7734375 107.17578125 C-59.53188965 107.43270752 -60.2903418 107.68963379 -61.07177734 107.9543457 C-65.39927791 109.53337833 -69.66039524 111.28915809 -73.9375 113 C-73.9375 154.25 -73.9375 195.5 -73.9375 238 C-66.20448026 235.70062696 -66.20448026 235.70062696 -58.55126953 233.20654297 C-57.62396027 232.88966522 -56.696651 232.57278748 -55.74124146 232.24630737 C-54.29538162 231.74926804 -54.29538162 231.74926804 -52.8203125 231.2421875 C-51.80073456 230.8936673 -50.78115662 230.54514709 -49.73068237 230.18606567 C-46.50734724 229.08414338 -43.28483541 227.97984208 -40.0625 226.875 C-36.81871161 225.76310517 -33.57473332 224.65178474 -30.33004761 223.54251099 C-28.319526 222.85516188 -26.309515 222.16631695 -24.30007935 221.47579956 C-22.93748489 221.00993942 -22.93748489 221.00993942 -21.54736328 220.53466797 C-20.75145782 220.26169891 -19.95555237 219.98872986 -19.13552856 219.70748901 C-13.46023147 217.88075645 -10.54496219 218.59957257 -5 220.8125 C-3.30846436 221.46139859 -1.61566502 222.1070089 0.078125 222.75 C1.01720703 223.10707031 1.95628906 223.46414062 2.92382812 223.83203125 C8.35903425 225.85459084 13.83682632 227.75371104 19.31863403 229.64535522 C21.21674914 230.30101428 23.11315285 230.96162105 25.00952148 231.62231445 C26.78951538 232.23659302 26.78951538 232.23659302 28.60546875 232.86328125 C30.1836438 233.40915894 30.1836438 233.40915894 31.79370117 233.96606445 C35.50261193 235.13920935 39.28862223 236.05653056 43.0625 237 C43.0625 204 43.0625 171 43.0625 137 C45.7025 136.01 48.3425 135.02 51.0625 134 C50.485 133.71125 49.9075 133.4225 49.3125 133.125 C47.22916667 132.08333333 45.14583333 131.04166667 43.0625 130 C42.7325 124.39 42.4025 118.78 42.0625 113 C32.80411464 108.81535282 23.38161801 105.1169188 13.91430664 101.43505859 C11.88101134 100.64225472 9.84943837 99.84501993 7.81958008 99.04345703 C4.86914131 97.87850346 1.91380579 96.72688711 -1.04296875 95.578125 C-1.94621384 95.21881897 -2.84945892 94.85951294 -3.78007507 94.48931885 C-10.39621432 91.94483351 -15.1878579 91.01707863 -21.96484375 93.6875 Z M92.0625 146 C92.0625 151.61 92.0625 157.22 92.0625 163 C98.63640032 161.78077165 98.63640032 161.78077165 105.0625 160 C112.20412445 159.22373647 118.31957592 161.7755302 125.0625 164 C125.0625 158.06 125.0625 152.12 125.0625 146 C121.64453125 147.07421875 118.2265625 148.1484375 114.80859375 149.22265625 C107.08945932 150.82443701 99.53759289 147.93176558 92.0625 146 Z " fill="#2F5093" transform="translate(214.9375,11)"/>
<path d="M0 0 C7.25896223 2.95323978 14.57974809 5.60564808 22 8.125 C32.71540136 11.78062542 43.33353194 15.66008706 53.9375 19.625 C63.59597316 23.23427066 73.25185901 26.82665547 82.99853516 30.19238281 C92.12759113 33.35134409 101.21962022 36.61368442 110.3125 39.875 C111.16804474 40.18179688 112.02358948 40.48859375 112.90505981 40.8046875 C123.99057219 44.7831808 135.04989998 48.81799746 146.05834961 53.00585938 C150.63399972 54.74050022 155.22010016 56.41573743 159.8515625 57.99609375 C160.78202393 58.31392822 161.71248535 58.6317627 162.67114258 58.95922852 C164.41558425 59.55005477 166.16266869 60.13316135 167.9128418 60.70678711 C168.68023682 60.96596924 169.44763184 61.22515137 170.23828125 61.4921875 C170.90770752 61.71245605 171.57713379 61.93272461 172.2668457 62.15966797 C174.48328484 63.1969193 175.55638767 64.05101685 177.0625 66 C177.44345093 68.7322998 177.44345093 68.7322998 177.45068359 72.07617188 C177.46014008 73.32756958 177.46959656 74.57896729 177.4793396 75.86828613 C177.4739699 77.23511064 177.46781695 78.60193226 177.4609375 79.96875 C177.46295843 81.36975252 177.46587002 82.77075401 177.46963501 84.17175293 C177.47405753 87.10727967 177.46762996 90.04253246 177.45361328 92.97802734 C177.43652101 96.74107416 177.44636264 100.50347911 177.46433067 104.26650238 C177.47517069 107.15928993 177.47172126 110.05192527 177.4639473 112.94471741 C177.46194587 114.33219987 177.46440258 115.71969614 177.47138596 117.10716248 C177.47900305 119.04604834 177.46533494 120.98498265 177.45068359 122.92382812 C177.44829681 124.02730591 177.44591003 125.13078369 177.44345093 126.2677002 C177.0625 129 177.0625 129 175.67495728 130.80554199 C173.88962223 132.12806245 172.08778485 133.09211369 170.0625 134 C171.031875 134.474375 172.00125 134.94875 173 135.4375 C176.0625 137 176.0625 137 177.0625 138 C177.17380594 141.02792314 177.21990429 144.03324607 177.22363281 147.06201172 C177.22859772 148.01318878 177.23356262 148.96436584 177.23867798 149.94436646 C177.25334089 153.10614737 177.26010842 156.26787811 177.265625 159.4296875 C177.27137301 161.61825564 177.27713078 163.80682376 177.28289795 165.99539185 C177.29341968 170.59051754 177.29925468 175.18562567 177.30273438 179.78076172 C177.30822182 185.67813481 177.33225037 191.57527733 177.36070633 197.47257805 C177.37930045 201.9952157 177.38453659 206.51779747 177.38607025 211.04047012 C177.38910457 213.21505113 177.39715913 215.38963097 177.41025543 217.56417465 C177.42724868 220.6026962 177.42545212 223.64064986 177.41894531 226.67919922 C177.4281601 227.58321472 177.43737488 228.48723022 177.4468689 229.41864014 C177.43851517 230.65953903 177.43851517 230.65953903 177.42999268 231.92550659 C177.43145924 232.64412809 177.4329258 233.3627496 177.4344368 234.10314751 C176.94330259 236.60789872 176.05908779 237.44503935 174.0625 239 C171.39122495 239.97909022 168.78831529 240.83926677 166.0625 241.625 C165.33804687 241.8415625 164.61359375 242.058125 163.8671875 242.28125 C161.93376972 242.85913502 159.9982397 243.42994106 158.0625 244 C157.0725 244.33 156.0825 244.66 155.0625 245 C155.82433594 245.31453125 156.58617187 245.6290625 157.37109375 245.953125 C158.40363281 246.38109375 159.43617188 246.8090625 160.5 247.25 C161.50933594 247.66765625 162.51867187 248.0853125 163.55859375 248.515625 C166.31293213 249.68245731 169.04937527 250.87558994 171.78149414 252.09277344 C172.58518936 252.45062927 173.38888458 252.80848511 174.2169342 253.17718506 C174.82597092 253.44871399 175.43500763 253.72024292 176.0625 254 C176.28569965 264.24812901 176.48721547 274.49643146 176.66090012 284.74552631 C176.74223021 289.50438606 176.83108188 294.26285946 176.93701172 299.02124023 C177.03892687 303.61162925 177.12122962 308.20198614 177.18982697 312.79298973 C177.21949274 314.54623901 177.25627674 316.29938249 177.3002243 318.05233192 C177.36048791 320.50414748 177.39563783 322.95511596 177.42480469 325.4074707 C177.46040245 326.49935448 177.46040245 326.49935448 177.49671936 327.61329651 C177.51810254 332.51879825 177.51810254 332.51879825 175.28263855 334.87986755 C173.25578742 335.90248018 171.32824342 336.79061618 169.17797852 337.51464844 C168.42453156 337.77232498 167.67108459 338.03000153 166.89480591 338.29548645 C166.08518402 338.56406967 165.27556213 338.83265289 164.44140625 339.109375 C163.59295135 339.39741501 162.74449646 339.68545502 161.87033081 339.98222351 C159.12437129 340.91237529 156.37497321 341.83178886 153.625 342.75 C151.7466871 343.38117809 149.86851324 344.01277009 147.99047852 344.64477539 C145.21311324 345.5790069 142.43547709 346.51236501 139.65666199 347.442276 C134.74153055 349.08867108 129.84262244 350.76867957 124.9609375 352.51171875 C124.00630615 352.8478418 123.0516748 353.18396484 122.06811523 353.53027344 C120.42507529 354.1107028 118.78605815 354.70273144 117.15258789 355.30957031 C107.17718711 358.77436479 98.85877011 354.70291221 89.4375 351.125 C88.11369893 350.62955298 86.78955453 350.13502244 85.46508789 349.64135742 C82.71094095 348.61410491 79.95831099 347.58292323 77.20654297 346.54931641 C73.19866872 345.04705356 69.18138757 343.57155121 65.16015625 342.10546875 C64.52181854 341.87269226 63.88348083 341.63991577 63.22579956 341.40008545 C61.95003334 340.93498029 60.67424614 340.46993263 59.3984375 340.00494385 C50.21767603 336.65631541 41.05846776 333.25846219 31.9375 329.75 C23.57368064 326.53377115 15.15093826 323.52263817 6.67578125 320.61328125 C3.75202359 319.60523492 0.85881703 318.54902702 -2.01953125 317.41796875 C-3.22996094 316.95003906 -4.44039062 316.48210937 -5.6875 316 C-6.71359375 315.5875 -7.7396875 315.175 -8.796875 314.75 C-16.74748755 312.85134626 -23.86168882 316.22659335 -31.1875 319.0625 C-33.58138897 319.96919629 -35.97591021 320.87408535 -38.37109375 321.77734375 C-39.02494553 322.02488403 -39.6787973 322.27242432 -40.35246277 322.52746582 C-49.95051312 326.15340065 -59.60476419 329.62709771 -69.25 333.125 C-71.07523586 333.78773013 -72.90043189 334.45056997 -74.72558594 335.11352539 C-75.6168367 335.43722107 -76.50808746 335.76091675 -77.42634583 336.09442139 C-79.21467244 336.74393906 -81.00299236 337.39347513 -82.79130554 338.04302979 C-87.45117811 339.73525793 -92.11184493 341.42525028 -96.77368164 343.11206055 C-108.21332858 347.24421282 -108.21332858 347.24421282 -119.58203125 351.56640625 C-120.46310547 351.90607422 -121.34417969 352.24574219 -122.25195312 352.59570312 C-123.97337006 353.26192782 -125.6892787 353.94250295 -127.40039062 354.63476562 C-128.26470703 354.96283203 -129.12902344 355.29089844 -130.01953125 355.62890625 C-131.12131714 356.0631189 -131.12131714 356.0631189 -132.24536133 356.50610352 C-139.18437411 357.77912636 -145.86505701 355.63763771 -152.35546875 353.3046875 C-153.12770782 353.0361496 -153.8999469 352.76761169 -154.69558716 352.49093628 C-157.1750397 351.62722915 -159.64990929 350.75111815 -162.125 349.875 C-165.52715787 348.68581728 -168.93153915 347.50306334 -172.3359375 346.3203125 C-173.16730728 346.03051514 -173.99867706 345.74071777 -174.85523987 345.44213867 C-182.50902427 342.78148837 -190.21081666 340.300448 -197.95581055 337.91748047 C-203.84345045 336.09404955 -203.84345045 336.09404955 -204.9375 335 C-205.03416765 333.55085625 -205.06121805 332.09700895 -205.06054783 330.64464474 C-205.06253888 329.69865349 -205.06452993 328.75266224 -205.06658131 327.77800459 C-205.06366847 326.72647044 -205.06075563 325.67493629 -205.05775452 324.59153748 C-205.05860894 323.48404036 -205.05946337 322.37654325 -205.06034368 321.23548561 C-205.06200173 317.49348154 -205.05647182 313.75152148 -205.05102539 310.00952148 C-205.05074356 307.33945616 -205.05085705 304.6693936 -205.0514679 301.99932861 C-205.05199332 296.23493932 -205.04884457 290.47056131 -205.04323006 284.70617485 C-205.03511759 276.37174684 -205.0325001 268.03732432 -205.03124207 259.70289279 C-205.02905115 246.18221514 -205.02238998 232.66154352 -205.01293945 219.14086914 C-205.00376636 206.00349966 -204.99668503 192.8661318 -204.99243164 179.72875977 C-204.99216892 178.91954669 -204.99190619 178.11033361 -204.99163551 177.27659892 C-204.99033051 173.21718626 -204.98906679 169.15777358 -204.98782361 165.0983609 C-204.97744975 131.3989029 -204.95983036 97.69945219 -204.9375 64 C-202.06744489 62.87785601 -199.19684862 61.75713207 -196.32592773 60.63720703 C-195.5194857 60.32173416 -194.71304367 60.00626129 -193.882164 59.68122864 C-187.64014359 57.24814918 -181.35093297 55.00771195 -175 52.875 C-164.40753541 49.2653845 -153.91623478 45.42476865 -143.4375 41.5 C-132.10837995 37.2580805 -120.75086188 33.14918886 -109.30078125 29.2421875 C-101.63277796 26.61563179 -94.02914615 23.83919637 -86.4375 21 C-76.65911626 17.34371648 -66.84116095 13.84174248 -56.95532227 10.48681641 C-50.90796848 8.42137442 -44.91664142 6.25066405 -38.953125 3.95703125 C-37.59491354 3.43974545 -36.23659689 2.92273574 -34.87817383 2.40600586 C-32.89701915 1.65217451 -30.919426 0.89263987 -28.9493103 0.11038208 C-17.70565988 -4.35339267 -10.97409182 -4.67197171 0 0 Z M-25.25 3.0625 C-27.03252048 3.71493009 -28.81507314 4.36727228 -30.59765625 5.01953125 C-31.48984863 5.35162598 -32.38204102 5.6837207 -33.30126953 6.02587891 C-37.24608489 7.48353896 -41.21683026 8.86471621 -45.1875 10.25 C-49.10356474 11.623301 -53.00801276 13.0188792 -56.890625 14.484375 C-61.75951008 16.32057254 -66.67040104 18.0322714 -71.58203125 19.75 C-75.76160245 21.21705241 -79.91762755 22.73394346 -84.06152344 24.29882812 C-86.79816837 25.32168656 -89.55556494 26.28337092 -92.3125 27.25 C-97.94038281 29.24874379 -103.50533061 31.37560512 -109.0625 33.5625 C-114.79867346 35.81350901 -120.53768452 37.93879035 -126.40234375 39.8359375 C-131.51752797 41.5202744 -136.60113985 43.29331389 -141.6875 45.0625 C-142.67065186 45.40337646 -143.65380371 45.74425293 -144.66674805 46.09545898 C-149.34121645 47.72203292 -153.99933575 49.37710228 -158.62744141 51.13110352 C-163.65719979 53.02297733 -168.70833171 54.85775692 -173.75415039 56.70629883 C-175.73531197 57.43211888 -177.71630245 58.15840427 -179.69726562 58.88476562 C-187.10680437 61.60065796 -194.52098699 64.30308618 -201.9375 67 C-201.9375 154.78 -201.9375 242.56 -201.9375 333 C-184.36752273 326.90636135 -184.36752273 326.90636135 -166.9453125 320.4921875 C-162.36623796 318.76957232 -157.74654485 317.16691408 -153.125 315.5625 C-141.89381545 311.66049513 -130.73403496 307.57339071 -119.61328125 303.3671875 C-112.79620689 300.78959122 -105.96951311 298.31502314 -99.0390625 296.0546875 C-95.43099442 294.82776258 -91.8727087 293.48271405 -88.3125 292.125 C-82.44231147 289.88799373 -76.53176718 287.83183126 -70.5625 285.875 C-65.15813243 284.10201895 -59.85315207 282.23621407 -54.59765625 280.0546875 C-51.0372141 278.64305845 -47.42821201 277.38705394 -43.8125 276.125 C-37.91260716 274.0638216 -32.03761861 271.94872971 -26.1875 269.75 C-25.53249512 269.5039502 -24.87749023 269.25790039 -24.20263672 269.00439453 C-20.76435048 267.70664075 -17.350232 266.3650928 -13.9375 265 C-13.9375 250.81 -13.9375 236.62 -13.9375 222 C-21.7538015 223.73108887 -21.7538015 223.73108887 -29.0625 226.3125 C-33.54981292 228.08990868 -38.03986488 229.74248686 -42.625 231.25 C-54.10273382 235.04714502 -65.51306453 239.04538772 -76.9375 243 C-76.9375 199.11 -76.9375 155.22 -76.9375 110 C-72.4825 109.01 -72.4825 109.01 -67.9375 108 C-60.68029384 105.8936626 -53.75430823 103.1209806 -46.8125 100.15625 C-43.38597804 98.77819226 -39.92438131 97.75288941 -36.375 96.74609375 C-31.35818511 95.21049817 -26.52522562 93.1103201 -21.70703125 91.04296875 C-14.83830857 88.2207356 -10.72474092 89.9739557 -3.875 92.25 C-2.66714844 92.64703125 -1.45929688 93.0440625 -0.21484375 93.453125 C3.11541831 94.6137684 6.35596959 95.93867475 9.60546875 97.30859375 C16.77164936 100.32966934 24.03548309 103.0738475 31.3125 105.8125 C32.65501828 106.31947516 33.99746659 106.82663565 35.33984375 107.33398438 C38.57980755 108.55845898 41.82115888 109.77915186 45.0625 111 C45.3925 116.94 45.7225 122.88 46.0625 129 C54.15605157 132.05028597 54.15605157 132.05028597 62.625 133.375 C67.90458714 133.72754572 72.727565 135.24050134 77.75 136.8125 C78.55832275 137.06112793 79.36664551 137.30975586 80.19946289 137.56591797 C85.25926486 139.19824639 89.49518477 141.2928277 94.0625 144 C103.70884308 147.9529357 111.20785947 147.84432749 121.0625 144.6875 C121.73434326 144.47480469 122.40618652 144.26210937 123.09838867 144.04296875 C125.22422729 143.34223296 125.22422729 143.34223296 128.0625 142 C128.3925 141.01 128.7225 140.02 129.0625 139 C129.92746094 138.87496094 130.79242188 138.74992188 131.68359375 138.62109375 C134.97385331 138.01629459 137.95620242 137.12410728 141.125 136.0625 C146.57088729 134.3420947 151.83947634 133.27387938 157.50390625 132.58984375 C162.75472108 131.71951111 167.89895946 130.29088513 173.0625 129 C173.0625 108.54 173.0625 88.08 173.0625 67 C166.4625 64.69 159.8625 62.38 153.0625 60 C147.99510659 58.15753876 142.93208025 56.30755372 137.875 54.4375 C129.81139287 51.46346806 121.74428059 48.50681526 113.625 45.6875 C108.62616307 43.951377 103.70889441 42.0715469 98.8125 40.0625 C92.15716643 37.33538452 85.38675095 35.06156682 78.55297852 32.82543945 C71.24040302 30.42169264 63.98953388 27.86507519 56.75 25.25 C55.18499756 24.68478638 55.18499756 24.68478638 53.58837891 24.1081543 C49.28540784 22.54847541 44.98703608 20.97853434 40.703125 19.3671875 C37.52018171 18.17187618 34.3291713 17.01182819 31.125 15.875 C24.14120462 13.38782857 17.16343775 10.88412574 10.1875 8.375 C9.11765869 7.99069824 8.04781738 7.60639648 6.94555664 7.21044922 C5.91422607 6.83936035 4.88289551 6.46827148 3.8203125 6.0859375 C2.8293457 5.72983398 1.83837891 5.37373047 0.81738281 5.00683594 C-1.57575099 4.13220958 -3.94795111 3.21796528 -6.3203125 2.2890625 C-13.9116397 -0.41627009 -17.90740274 0.26626254 -25.25 3.0625 Z M-21.96484375 93.6875 C-22.91085449 94.05270752 -23.85686523 94.41791504 -24.83154297 94.79418945 C-25.83588379 95.19210693 -26.84022461 95.59002441 -27.875 96 C-30.02118885 96.82927682 -32.16835193 97.65603606 -34.31640625 98.48046875 C-35.95826904 99.11154541 -35.95826904 99.11154541 -37.63330078 99.75537109 C-43.74154095 102.05622881 -49.91839269 104.15802149 -56.09741211 106.25976562 C-56.98050049 106.56205078 -57.86358887 106.86433594 -58.7734375 107.17578125 C-59.53188965 107.43270752 -60.2903418 107.68963379 -61.07177734 107.9543457 C-65.39927791 109.53337833 -69.66039524 111.28915809 -73.9375 113 C-73.9375 154.25 -73.9375 195.5 -73.9375 238 C-66.20448026 235.70062696 -66.20448026 235.70062696 -58.55126953 233.20654297 C-57.62396027 232.88966522 -56.696651 232.57278748 -55.74124146 232.24630737 C-54.29538162 231.74926804 -54.29538162 231.74926804 -52.8203125 231.2421875 C-51.80073456 230.8936673 -50.78115662 230.54514709 -49.73068237 230.18606567 C-46.50734724 229.08414338 -43.28483541 227.97984208 -40.0625 226.875 C-36.81871161 225.76310517 -33.57473332 224.65178474 -30.33004761 223.54251099 C-28.319526 222.85516188 -26.309515 222.16631695 -24.30007935 221.47579956 C-22.93748489 221.00993942 -22.93748489 221.00993942 -21.54736328 220.53466797 C-20.75145782 220.26169891 -19.95555237 219.98872986 -19.13552856 219.70748901 C-13.46023147 217.88075645 -10.54496219 218.59957257 -5 220.8125 C-3.30846436 221.46139859 -1.61566502 222.1070089 0.078125 222.75 C1.01720703 223.10707031 1.95628906 223.46414062 2.92382812 223.83203125 C8.35903425 225.85459084 13.83682632 227.75371104 19.31863403 229.64535522 C21.21674914 230.30101428 23.11315285 230.96162105 25.00952148 231.62231445 C26.78951538 232.23659302 26.78951538 232.23659302 28.60546875 232.86328125 C30.1836438 233.40915894 30.1836438 233.40915894 31.79370117 233.96606445 C35.50261193 235.13920935 39.28862223 236.05653056 43.0625 237 C43.0625 204 43.0625 171 43.0625 137 C45.7025 136.01 48.3425 135.02 51.0625 134 C50.485 133.71125 49.9075 133.4225 49.3125 133.125 C47.22916667 132.08333333 45.14583333 131.04166667 43.0625 130 C42.7325 124.39 42.4025 118.78 42.0625 113 C32.80411464 108.81535282 23.38161801 105.1169188 13.91430664 101.43505859 C11.88101134 100.64225472 9.84943837 99.84501993 7.81958008 99.04345703 C4.86914131 97.87850346 1.91380579 96.72688711 -1.04296875 95.578125 C-1.94621384 95.21881897 -2.84945892 94.85951294 -3.78007507 94.48931885 C-10.39621432 91.94483351 -15.1878579 91.01707863 -21.96484375 93.6875 Z M92.0625 146 C92.0625 151.61 92.0625 157.22 92.0625 163 C98.63640032 161.78077165 98.63640032 161.78077165 105.0625 160 C112.20412445 159.22373647 118.31957592 161.7755302 125.0625 164 C125.0625 158.06 125.0625 152.12 125.0625 146 C121.64453125 147.07421875 118.2265625 148.1484375 114.80859375 149.22265625 C107.08945932 150.82443701 99.53759289 147.93176558 92.0625 146 Z " fill="#2E407B" transform="translate(214.9375,11)"/>
<path d="M0 0 C0 15.18 0 30.36 0 46 C-21.86186455 54.74474582 -21.86186455 54.74474582 -29.27197266 57.11816406 C-34.28928339 58.74001178 -39.23167297 60.57571349 -44.1875 62.375 C-46.38526732 63.16968398 -48.58318447 63.96395374 -50.78125 64.7578125 C-52.37259766 65.33257324 -52.37259766 65.33257324 -53.99609375 65.91894531 C-58.05405997 67.37933823 -62.11915497 68.81881859 -66.1875 70.25 C-66.86369385 70.48831543 -67.5398877 70.72663086 -68.23657227 70.97216797 C-71.36344079 72.07377893 -74.49149385 73.17178426 -77.62109375 74.265625 C-83.55883367 76.35740406 -89.42211102 78.55561332 -95.25 80.9375 C-101.01750827 83.28711206 -106.84673065 85.39125997 -112.75 87.375 C-113.52504883 87.63788818 -114.30009766 87.90077637 -115.09863281 88.17163086 C-118.17314228 89.18815848 -120.7400216 90 -124 90 C-123.67 147.42 -123.34 204.84 -123 264 C-107.60154809 258.66976664 -92.20632126 253.33636229 -76.83398438 247.93212891 C-72.58370278 246.53416413 -68.28558488 245.28567546 -64 244 C-64 200.11 -64 156.22 -64 111 C-63.67 111 -63.34 111 -63 111 C-63 154.56 -63 198.12 -63 243 C-54.42 240.03 -45.84 237.06 -37 234 C-24 229.6875 -24 229.6875 -18.3125 227.82421875 C-13.81782952 226.32626946 -9.45233908 224.60050349 -5.09375 222.74536133 C-3 222 -3 222 0 222 C0 236.19 0 250.38 0 265 C-2.64 265.99 -5.28 266.98 -8 268 C-10.1682357 268.89202901 -12.33487674 269.78794284 -14.5 270.6875 C-22.37924242 273.90201529 -30.43769204 276.55346466 -38.5234375 279.19604492 C-46.03415996 281.65171067 -53.39343217 284.3642745 -60.75 287.25 C-68.92437452 290.40054018 -77.20118675 293.25038696 -85.4765625 296.12255859 C-89.40456558 297.48839093 -93.32780882 298.86758116 -97.25 300.25 C-98.24918457 300.60082642 -98.24918457 300.60082642 -99.26855469 300.95874023 C-106.06302136 303.35360967 -112.78923073 305.90671528 -119.49121094 308.54858398 C-126.13729452 311.16406067 -132.7803269 313.65448411 -139.578125 315.8515625 C-144.2504288 317.41966446 -148.87220133 319.11822807 -153.5 320.8125 C-164.95279526 325.00257106 -176.4298264 329.14327547 -188 333 C-188 245.22 -188 157.44 -188 67 C-164.13427948 57.90829694 -164.13427948 57.90829694 -152.9375 54.3125 C-145.45636452 51.90706116 -138.19279711 49.2956184 -130.96508789 46.2097168 C-127.04527022 44.61048283 -123.05677402 43.30124412 -119.03125 41.99609375 C-113.81258083 40.28119602 -108.66149207 38.37865488 -103.5 36.5 C-96.2485373 33.86064774 -88.98543918 31.29567068 -81.64941406 28.89990234 C-78.31722389 27.76808766 -75.07401146 26.46095331 -71.81640625 25.1328125 C-63.40205811 21.74840063 -54.94810086 18.51664875 -46.25 15.9375 C-40.97633845 14.37035766 -36.007445 12.38983219 -30.95703125 10.21875 C-27.08853944 8.62433858 -23.15205541 7.33148349 -19.171875 6.046875 C-14.35407718 4.45676439 -9.5992905 2.69863625 -4.8359375 0.953125 C-2 0 -2 0 0 0 Z " fill="#05A7DC" transform="translate(201,11)"/>
<path d="M0 0 C7.25896223 2.95323978 14.57974809 5.60564808 22 8.125 C32.71540136 11.78062542 43.33353194 15.66008706 53.9375 19.625 C63.59597316 23.23427066 73.25185901 26.82665547 82.99853516 30.19238281 C92.12759113 33.35134409 101.21962022 36.61368442 110.3125 39.875 C111.16804474 40.18179688 112.02358948 40.48859375 112.90505981 40.8046875 C123.99057219 44.7831808 135.04989998 48.81799746 146.05834961 53.00585938 C150.63399972 54.74050022 155.22010016 56.41573743 159.8515625 57.99609375 C160.78202393 58.31392822 161.71248535 58.6317627 162.67114258 58.95922852 C164.41558425 59.55005477 166.16266869 60.13316135 167.9128418 60.70678711 C168.68023682 60.96596924 169.44763184 61.22515137 170.23828125 61.4921875 C170.90770752 61.71245605 171.57713379 61.93272461 172.2668457 62.15966797 C174.48328484 63.1969193 175.55638767 64.05101685 177.0625 66 C177.44345093 68.7322998 177.44345093 68.7322998 177.45068359 72.07617188 C177.46014008 73.32756958 177.46959656 74.57896729 177.4793396 75.86828613 C177.4739699 77.23511064 177.46781695 78.60193226 177.4609375 79.96875 C177.46295843 81.36975252 177.46587002 82.77075401 177.46963501 84.17175293 C177.47405753 87.10727967 177.46762996 90.04253246 177.45361328 92.97802734 C177.43652101 96.74107416 177.44636264 100.50347911 177.46433067 104.26650238 C177.47517069 107.15928993 177.47172126 110.05192527 177.4639473 112.94471741 C177.46194587 114.33219987 177.46440258 115.71969614 177.47138596 117.10716248 C177.47900305 119.04604834 177.46533494 120.98498265 177.45068359 122.92382812 C177.44829681 124.02730591 177.44591003 125.13078369 177.44345093 126.2677002 C177.0625 129 177.0625 129 175.67495728 130.80554199 C173.88962223 132.12806245 172.08778485 133.09211369 170.0625 134 C171.031875 134.474375 172.00125 134.94875 173 135.4375 C176.0625 137 176.0625 137 177.0625 138 C177.17380594 141.02792314 177.21990429 144.03324607 177.22363281 147.06201172 C177.22859772 148.01318878 177.23356262 148.96436584 177.23867798 149.94436646 C177.25334089 153.10614737 177.26010842 156.26787811 177.265625 159.4296875 C177.27137301 161.61825564 177.27713078 163.80682376 177.28289795 165.99539185 C177.29341968 170.59051754 177.29925468 175.18562567 177.30273438 179.78076172 C177.30822182 185.67813481 177.33225037 191.57527733 177.36070633 197.47257805 C177.37930045 201.9952157 177.38453659 206.51779747 177.38607025 211.04047012 C177.38910457 213.21505113 177.39715913 215.38963097 177.41025543 217.56417465 C177.42724868 220.6026962 177.42545212 223.64064986 177.41894531 226.67919922 C177.4281601 227.58321472 177.43737488 228.48723022 177.4468689 229.41864014 C177.43851517 230.65953903 177.43851517 230.65953903 177.42999268 231.92550659 C177.43145924 232.64412809 177.4329258 233.3627496 177.4344368 234.10314751 C176.94330259 236.60789872 176.05908779 237.44503935 174.0625 239 C171.39122495 239.97909022 168.78831529 240.83926677 166.0625 241.625 C165.33804687 241.8415625 164.61359375 242.058125 163.8671875 242.28125 C161.93376972 242.85913502 159.9982397 243.42994106 158.0625 244 C157.0725 244.33 156.0825 244.66 155.0625 245 C155.82433594 245.31453125 156.58617187 245.6290625 157.37109375 245.953125 C158.40363281 246.38109375 159.43617188 246.8090625 160.5 247.25 C161.50933594 247.66765625 162.51867187 248.0853125 163.55859375 248.515625 C166.31293213 249.68245731 169.04937527 250.87558994 171.78149414 252.09277344 C172.58518936 252.45062927 173.38888458 252.80848511 174.2169342 253.17718506 C174.82597092 253.44871399 175.43500763 253.72024292 176.0625 254 C176.28569965 264.24812901 176.48721547 274.49643146 176.66090012 284.74552631 C176.74223021 289.50438606 176.83108188 294.26285946 176.93701172 299.02124023 C177.03892687 303.61162925 177.12122962 308.20198614 177.18982697 312.79298973 C177.21949274 314.54623901 177.25627674 316.29938249 177.3002243 318.05233192 C177.36048791 320.50414748 177.39563783 322.95511596 177.42480469 325.4074707 C177.46040245 326.49935448 177.46040245 326.49935448 177.49671936 327.61329651 C177.51810254 332.51879825 177.51810254 332.51879825 175.28263855 334.87986755 C173.25578742 335.90248018 171.32824342 336.79061618 169.17797852 337.51464844 C168.42453156 337.77232498 167.67108459 338.03000153 166.89480591 338.29548645 C166.08518402 338.56406967 165.27556213 338.83265289 164.44140625 339.109375 C163.59295135 339.39741501 162.74449646 339.68545502 161.87033081 339.98222351 C159.12437129 340.91237529 156.37497321 341.83178886 153.625 342.75 C151.7466871 343.38117809 149.86851324 344.01277009 147.99047852 344.64477539 C145.21311324 345.5790069 142.43547709 346.51236501 139.65666199 347.442276 C134.74153055 349.08867108 129.84262244 350.76867957 124.9609375 352.51171875 C124.00630615 352.8478418 123.0516748 353.18396484 122.06811523 353.53027344 C120.42507529 354.1107028 118.78605815 354.70273144 117.15258789 355.30957031 C107.17718711 358.77436479 98.85877011 354.70291221 89.4375 351.125 C88.11369893 350.62955298 86.78955453 350.13502244 85.46508789 349.64135742 C82.71094095 348.61410491 79.95831099 347.58292323 77.20654297 346.54931641 C73.19866872 345.04705356 69.18138757 343.57155121 65.16015625 342.10546875 C64.52181854 341.87269226 63.88348083 341.63991577 63.22579956 341.40008545 C61.95003334 340.93498029 60.67424614 340.46993263 59.3984375 340.00494385 C50.21767603 336.65631541 41.05846776 333.25846219 31.9375 329.75 C23.57368064 326.53377115 15.15093826 323.52263817 6.67578125 320.61328125 C3.75202359 319.60523492 0.85881703 318.54902702 -2.01953125 317.41796875 C-3.22996094 316.95003906 -4.44039062 316.48210937 -5.6875 316 C-6.71359375 315.5875 -7.7396875 315.175 -8.796875 314.75 C-16.74748755 312.85134626 -23.86168882 316.22659335 -31.1875 319.0625 C-33.58138897 319.96919629 -35.97591021 320.87408535 -38.37109375 321.77734375 C-39.02494553 322.02488403 -39.6787973 322.27242432 -40.35246277 322.52746582 C-49.95051312 326.15340065 -59.60476419 329.62709771 -69.25 333.125 C-71.07523586 333.78773013 -72.90043189 334.45056997 -74.72558594 335.11352539 C-75.6168367 335.43722107 -76.50808746 335.76091675 -77.42634583 336.09442139 C-79.21467244 336.74393906 -81.00299236 337.39347513 -82.79130554 338.04302979 C-87.45117811 339.73525793 -92.11184493 341.42525028 -96.77368164 343.11206055 C-108.21332858 347.24421282 -108.21332858 347.24421282 -119.58203125 351.56640625 C-120.46310547 351.90607422 -121.34417969 352.24574219 -122.25195312 352.59570312 C-123.97337006 353.26192782 -125.6892787 353.94250295 -127.40039062 354.63476562 C-128.26470703 354.96283203 -129.12902344 355.29089844 -130.01953125 355.62890625 C-131.12131714 356.0631189 -131.12131714 356.0631189 -132.24536133 356.50610352 C-139.18437411 357.77912636 -145.86505701 355.63763771 -152.35546875 353.3046875 C-153.12770782 353.0361496 -153.8999469 352.76761169 -154.69558716 352.49093628 C-157.1750397 351.62722915 -159.64990929 350.75111815 -162.125 349.875 C-165.52715787 348.68581728 -168.93153915 347.50306334 -172.3359375 346.3203125 C-173.16730728 346.03051514 -173.99867706 345.74071777 -174.85523987 345.44213867 C-182.50902427 342.78148837 -190.21081666 340.300448 -197.95581055 337.91748047 C-203.84345045 336.09404955 -203.84345045 336.09404955 -204.9375 335 C-205.03416765 333.55085625 -205.06121805 332.09700895 -205.06054783 330.64464474 C-205.06253888 329.69865349 -205.06452993 328.75266224 -205.06658131 327.77800459 C-205.06366847 326.72647044 -205.06075563 325.67493629 -205.05775452 324.59153748 C-205.05860894 323.48404036 -205.05946337 322.37654325 -205.06034368 321.23548561 C-205.06200173 317.49348154 -205.05647182 313.75152148 -205.05102539 310.00952148 C-205.05074356 307.33945616 -205.05085705 304.6693936 -205.0514679 301.99932861 C-205.05199332 296.23493932 -205.04884457 290.47056131 -205.04323006 284.70617485 C-205.03511759 276.37174684 -205.0325001 268.03732432 -205.03124207 259.70289279 C-205.02905115 246.18221514 -205.02238998 232.66154352 -205.01293945 219.14086914 C-205.00376636 206.00349966 -204.99668503 192.8661318 -204.99243164 179.72875977 C-204.99216892 178.91954669 -204.99190619 178.11033361 -204.99163551 177.27659892 C-204.99033051 173.21718626 -204.98906679 169.15777358 -204.98782361 165.0983609 C-204.97744975 131.3989029 -204.95983036 97.69945219 -204.9375 64 C-202.06744489 62.87785601 -199.19684862 61.75713207 -196.32592773 60.63720703 C-195.5194857 60.32173416 -194.71304367 60.00626129 -193.882164 59.68122864 C-187.64014359 57.24814918 -181.35093297 55.00771195 -175 52.875 C-164.40753541 49.2653845 -153.91623478 45.42476865 -143.4375 41.5 C-132.10837995 37.2580805 -120.75086188 33.14918886 -109.30078125 29.2421875 C-101.63277796 26.61563179 -94.02914615 23.83919637 -86.4375 21 C-76.65911626 17.34371648 -66.84116095 13.84174248 -56.95532227 10.48681641 C-50.90796848 8.42137442 -44.91664142 6.25066405 -38.953125 3.95703125 C-37.59491354 3.43974545 -36.23659689 2.92273574 -34.87817383 2.40600586 C-32.89701915 1.65217451 -30.919426 0.89263987 -28.9493103 0.11038208 C-17.70565988 -4.35339267 -10.97409182 -4.67197171 0 0 Z M-25.25 3.0625 C-27.03252048 3.71493009 -28.81507314 4.36727228 -30.59765625 5.01953125 C-31.48984863 5.35162598 -32.38204102 5.6837207 -33.30126953 6.02587891 C-37.24608489 7.48353896 -41.21683026 8.86471621 -45.1875 10.25 C-49.10356474 11.623301 -53.00801276 13.0188792 -56.890625 14.484375 C-61.75951008 16.32057254 -66.67040104 18.0322714 -71.58203125 19.75 C-75.76160245 21.21705241 -79.91762755 22.73394346 -84.06152344 24.29882812 C-86.79816837 25.32168656 -89.55556494 26.28337092 -92.3125 27.25 C-97.94038281 29.24874379 -103.50533061 31.37560512 -109.0625 33.5625 C-114.79867346 35.81350901 -120.53768452 37.93879035 -126.40234375 39.8359375 C-131.51752797 41.5202744 -136.60113985 43.29331389 -141.6875 45.0625 C-142.67065186 45.40337646 -143.65380371 45.74425293 -144.66674805 46.09545898 C-149.34121645 47.72203292 -153.99933575 49.37710228 -158.62744141 51.13110352 C-163.65719979 53.02297733 -168.70833171 54.85775692 -173.75415039 56.70629883 C-175.73531197 57.43211888 -177.71630245 58.15840427 -179.69726562 58.88476562 C-187.10680437 61.60065796 -194.52098699 64.30308618 -201.9375 67 C-201.9375 154.78 -201.9375 242.56 -201.9375 333 C-181.6425 339.93 -181.6425 339.93 -160.9375 347 C-148.25 351.4375 -148.25 351.4375 -143.67578125 353.05859375 C-137.20542694 354.68801422 -132.15485286 352.53275545 -126.0625 350.3125 C-125.3207251 350.04630859 -124.5789502 349.78011719 -123.81469727 349.50585938 C-115.46948369 346.49793759 -107.17026888 343.36664986 -98.87744141 340.21777344 C-91.31195208 337.34669425 -83.73976752 334.57047127 -76.046875 332.0546875 C-69.61633699 329.87347486 -63.28482038 327.41066544 -56.9375 325 C-52.43437725 323.29290278 -47.92712168 321.59816947 -43.41210938 319.92285156 C-41.56532037 319.2341319 -39.72059471 318.53987467 -37.87695312 317.84277344 C-34.50575842 316.57041931 -31.12845229 315.31544077 -27.75 314.0625 C-26.66211182 313.64830811 -25.57422363 313.23411621 -24.45336914 312.80737305 C-23.42332764 312.4287915 -22.39328613 312.05020996 -21.33203125 311.66015625 C-20.41268799 311.31605713 -19.49334473 310.97195801 -18.54614258 310.61743164 C-12.65536067 309.22316047 -6.44272688 312.38361031 -0.875 314.25 C0.54389526 314.72360962 0.54389526 314.72360962 1.99145508 315.20678711 C7.77026572 317.15951027 13.38856688 319.31394907 18.98046875 321.75390625 C22.95024416 323.35892318 26.99172166 324.67655757 31.0625 326 C36.09374137 327.63569661 41.0208559 329.31945429 45.875 331.4375 C52.22281981 334.19087791 58.76657568 336.26240181 65.33837891 338.4050293 C71.19242012 340.32985491 76.859723 342.49086943 82.51171875 344.953125 C85.77253455 346.29140775 89.08815626 347.22926151 92.48046875 348.171875 C96.56301062 349.48125303 100.41614326 351.30449647 104.30078125 353.109375 C108.92382666 354.6002581 112.95642318 352.78551679 117.4375 351.28515625 C119.01893799 350.75728516 119.01893799 350.75728516 120.63232422 350.21875 C121.76428223 349.8371875 122.89624023 349.455625 124.0625 349.0625 C125.23699707 348.66933594 126.41149414 348.27617187 127.62158203 347.87109375 C134.13150287 345.68479162 140.6292964 343.46565137 147.1171875 341.21484375 C147.77430725 340.98708755 148.431427 340.75933136 149.10845947 340.52467346 C152.30072301 339.41753047 155.49122794 338.30582674 158.6796875 337.18774414 C160.4121875 336.58434204 160.4121875 336.58434204 162.1796875 335.96875 C163.19659668 335.61232422 164.21350586 335.25589844 165.26123047 334.88867188 C168.0625 334 168.0625 334 173.0625 333 C173.0625 307.59 173.0625 282.18 173.0625 256 C168.7725 254.68 164.4825 253.36 160.0625 252 C156.15771091 250.63332382 152.26282026 249.25441251 148.37597656 247.83935547 C145.55239935 246.81492971 142.72549346 245.79994212 139.8984375 244.78515625 C137.66144145 243.98181784 135.42446241 243.17843206 133.1875 242.375 C132.11725586 241.99061768 131.04701172 241.60623535 129.94433594 241.21020508 C128.9134082 240.83919678 127.88248047 240.46818848 126.8203125 240.0859375 C125.82805664 239.72983398 124.83580078 239.37373047 123.81347656 239.00683594 C121.43927254 238.13789581 119.09183385 237.22146184 116.7421875 236.2890625 C109.97737737 233.91922456 105.96145909 233.55599548 99.375 236.5 C98.06807289 237.05989602 96.75937336 237.61566727 95.44921875 238.16796875 C94.40000244 238.61342041 94.40000244 238.61342041 93.32958984 239.06787109 C89.16316872 240.78092255 84.93057813 242.30160227 80.6875 243.8125 C79.86805908 244.11414063 79.04861816 244.41578125 78.2043457 244.7265625 C68.76391959 248.07026543 62.13957946 248.69426077 52.75 245 C50.98458228 244.34319258 49.2189511 243.6869587 47.453125 243.03125 C46.55916016 242.69222656 45.66519531 242.35320312 44.74414062 242.00390625 C40.52330081 240.42378122 36.2606571 238.96847078 32 237.5 C25.38884776 235.19748633 18.81244916 232.81251905 12.25 230.375 C9.92753165 229.51968107 7.60426678 228.66659599 5.28027344 227.81542969 C3.8209468 227.27886529 2.36320659 226.737963 0.90722656 226.19238281 C-1.09780463 225.44460094 -3.10972934 224.71964806 -5.125 224 C-6.25292969 223.5875 -7.38085938 223.175 -8.54296875 222.75 C-15.40650913 221.23354459 -21.15264058 223.17983971 -27.5 225.75 C-28.91971518 226.30298843 -30.3403087 226.85372652 -31.76171875 227.40234375 C-32.46731934 227.67546387 -33.17291992 227.94858398 -33.89990234 228.22998047 C-36.84377006 229.34248452 -39.82243533 230.33175879 -42.8125 231.3125 C-54.22788591 235.08835842 -65.57531886 239.0669373 -76.9375 243 C-76.9375 199.11 -76.9375 155.22 -76.9375 110 C-72.4825 109.01 -72.4825 109.01 -67.9375 108 C-60.68029384 105.8936626 -53.75430823 103.1209806 -46.8125 100.15625 C-43.38597804 98.77819226 -39.92438131 97.75288941 -36.375 96.74609375 C-31.35818511 95.21049817 -26.52522562 93.1103201 -21.70703125 91.04296875 C-14.83830857 88.2207356 -10.72474092 89.9739557 -3.875 92.25 C-2.66714844 92.64703125 -1.45929688 93.0440625 -0.21484375 93.453125 C3.11541831 94.6137684 6.35596959 95.93867475 9.60546875 97.30859375 C16.77164936 100.32966934 24.03548309 103.0738475 31.3125 105.8125 C32.65501828 106.31947516 33.99746659 106.82663565 35.33984375 107.33398438 C38.57980755 108.55845898 41.82115888 109.77915186 45.0625 111 C45.3925 116.94 45.7225 122.88 46.0625 129 C54.15605157 132.05028597 54.15605157 132.05028597 62.625 133.375 C67.90458714 133.72754572 72.727565 135.24050134 77.75 136.8125 C78.55832275 137.06112793 79.36664551 137.30975586 80.19946289 137.56591797 C85.25926486 139.19824639 89.49518477 141.2928277 94.0625 144 C103.70884308 147.9529357 111.20785947 147.84432749 121.0625 144.6875 C121.73434326 144.47480469 122.40618652 144.26210937 123.09838867 144.04296875 C125.22422729 143.34223296 125.22422729 143.34223296 128.0625 142 C128.3925 141.01 128.7225 140.02 129.0625 139 C129.92746094 138.87496094 130.79242188 138.74992188 131.68359375 138.62109375 C134.97385331 138.01629459 137.95620242 137.12410728 141.125 136.0625 C146.57088729 134.3420947 151.83947634 133.27387938 157.50390625 132.58984375 C162.75472108 131.71951111 167.89895946 130.29088513 173.0625 129 C173.0625 108.54 173.0625 88.08 173.0625 67 C166.4625 64.69 159.8625 62.38 153.0625 60 C147.99510659 58.15753876 142.93208025 56.30755372 137.875 54.4375 C129.81139287 51.46346806 121.74428059 48.50681526 113.625 45.6875 C108.62616307 43.951377 103.70889441 42.0715469 98.8125 40.0625 C92.15716643 37.33538452 85.38675095 35.06156682 78.55297852 32.82543945 C71.24040302 30.42169264 63.98953388 27.86507519 56.75 25.25 C55.18499756 24.68478638 55.18499756 24.68478638 53.58837891 24.1081543 C49.28540784 22.54847541 44.98703608 20.97853434 40.703125 19.3671875 C37.52018171 18.17187618 34.3291713 17.01182819 31.125 15.875 C24.14120462 13.38782857 17.16343775 10.88412574 10.1875 8.375 C9.11765869 7.99069824 8.04781738 7.60639648 6.94555664 7.21044922 C5.91422607 6.83936035 4.88289551 6.46827148 3.8203125 6.0859375 C2.8293457 5.72983398 1.83837891 5.37373047 0.81738281 5.00683594 C-1.57575099 4.13220958 -3.94795111 3.21796528 -6.3203125 2.2890625 C-13.9116397 -0.41627009 -17.90740274 0.26626254 -25.25 3.0625 Z M-21.96484375 93.6875 C-22.91085449 94.05270752 -23.85686523 94.41791504 -24.83154297 94.79418945 C-25.83588379 95.19210693 -26.84022461 95.59002441 -27.875 96 C-30.02118885 96.82927682 -32.16835193 97.65603606 -34.31640625 98.48046875 C-35.95826904 99.11154541 -35.95826904 99.11154541 -37.63330078 99.75537109 C-43.74154095 102.05622881 -49.91839269 104.15802149 -56.09741211 106.25976562 C-56.98050049 106.56205078 -57.86358887 106.86433594 -58.7734375 107.17578125 C-59.53188965 107.43270752 -60.2903418 107.68963379 -61.07177734 107.9543457 C-65.39927791 109.53337833 -69.66039524 111.28915809 -73.9375 113 C-73.9375 154.25 -73.9375 195.5 -73.9375 238 C-66.20448026 235.70062696 -66.20448026 235.70062696 -58.55126953 233.20654297 C-57.62396027 232.88966522 -56.696651 232.57278748 -55.74124146 232.24630737 C-54.29538162 231.74926804 -54.29538162 231.74926804 -52.8203125 231.2421875 C-51.80073456 230.8936673 -50.78115662 230.54514709 -49.73068237 230.18606567 C-46.50734724 229.08414338 -43.28483541 227.97984208 -40.0625 226.875 C-36.81871161 225.76310517 -33.57473332 224.65178474 -30.33004761 223.54251099 C-28.319526 222.85516188 -26.309515 222.16631695 -24.30007935 221.47579956 C-22.93748489 221.00993942 -22.93748489 221.00993942 -21.54736328 220.53466797 C-20.75145782 220.26169891 -19.95555237 219.98872986 -19.13552856 219.70748901 C-13.46023147 217.88075645 -10.54496219 218.59957257 -5 220.8125 C-3.30846436 221.46139859 -1.61566502 222.1070089 0.078125 222.75 C1.01720703 223.10707031 1.95628906 223.46414062 2.92382812 223.83203125 C8.35903425 225.85459084 13.83682632 227.75371104 19.31863403 229.64535522 C21.21674914 230.30101428 23.11315285 230.96162105 25.00952148 231.62231445 C26.78951538 232.23659302 26.78951538 232.23659302 28.60546875 232.86328125 C30.1836438 233.40915894 30.1836438 233.40915894 31.79370117 233.96606445 C35.50261193 235.13920935 39.28862223 236.05653056 43.0625 237 C43.0625 204 43.0625 171 43.0625 137 C45.7025 136.01 48.3425 135.02 51.0625 134 C50.485 133.71125 49.9075 133.4225 49.3125 133.125 C47.22916667 132.08333333 45.14583333 131.04166667 43.0625 130 C42.7325 124.39 42.4025 118.78 42.0625 113 C32.80411464 108.81535282 23.38161801 105.1169188 13.91430664 101.43505859 C11.88101134 100.64225472 9.84943837 99.84501993 7.81958008 99.04345703 C4.86914131 97.87850346 1.91380579 96.72688711 -1.04296875 95.578125 C-1.94621384 95.21881897 -2.84945892 94.85951294 -3.78007507 94.48931885 C-10.39621432 91.94483351 -15.1878579 91.01707863 -21.96484375 93.6875 Z M92.0625 146 C92.0625 151.61 92.0625 157.22 92.0625 163 C98.63640032 161.78077165 98.63640032 161.78077165 105.0625 160 C112.20412445 159.22373647 118.31957592 161.7755302 125.0625 164 C125.0625 158.06 125.0625 152.12 125.0625 146 C121.64453125 147.07421875 118.2265625 148.1484375 114.80859375 149.22265625 C107.08945932 150.82443701 99.53759289 147.93176558 92.0625 146 Z " fill="#BED52E" transform="translate(214.9375,11)"/>
<path d="M0 0 C1.74040956 0.46042981 3.47979508 0.92473142 5.21875 1.390625 C6.18748047 1.64875977 7.15621094 1.90689453 8.15429688 2.17285156 C11.53571531 3.15571409 14.71987587 4.42659411 17.96875 5.7734375 C28.9750054 10.22699961 40.19442942 14.19134871 51.50976562 17.78271484 C55.62675108 19.11416128 59.59917447 20.64667922 63.58203125 22.33984375 C70.04520302 25.0716946 76.62009478 27.42449231 83.24105835 29.73605347 C86.66454671 30.93140628 90.08421246 32.13759252 93.50390625 33.34375 C94.49654228 33.69354164 94.49654228 33.69354164 95.50923157 34.05039978 C101.5144605 36.17138144 107.4762435 38.3916828 113.41796875 40.68359375 C116.43430788 41.79210661 119.45589246 42.82019416 122.5078125 43.82421875 C128.97643737 45.96435467 135.3671911 48.29602791 141.75668335 50.66061401 C145.05494317 51.88094252 148.35551174 53.09498769 151.65625 54.30859375 C152.61998787 54.66302299 152.61998787 54.66302299 153.60319519 55.02461243 C159.80315627 57.30127527 166.02524554 59.5093479 172.26171875 61.68359375 C177.18782577 63.41828348 182.09182334 65.21520849 187 67 C187 87.46 187 107.92 187 129 C178.1897732 131.34939381 170.90332223 133.24075254 162.1484375 134.4296875 C157.77371985 135.22213015 153.71822063 136.64885692 149.55859375 138.1953125 C147 139 147 139 143 139 C142.67 139.99 142.34 140.98 142 142 C139.64616626 143.06583033 137.44921911 143.9126871 135 144.6875 C134.31373535 144.90591553 133.6274707 145.12433105 132.92041016 145.34936523 C122.66124268 148.45956127 114.94207981 146.97949379 105 143 C104.40058594 142.52433594 103.80117188 142.04867187 103.18359375 141.55859375 C99.75109122 139.10856064 95.87834008 138.10947606 91.875 136.875 C91.01769287 136.6063916 90.16038574 136.3377832 89.27709961 136.06103516 C84.26565305 134.54051076 79.60215908 133.50949819 74.35546875 133.27734375 C69.37204902 132.69057294 64.69387782 130.69197921 60 129 C60 123.06 60 117.12 60 111 C66.54399762 108.19542959 73.13697867 106.01801013 79.9753418 104.07202148 C85.96424901 102.34984469 91.85355203 100.38880842 97.75 98.375 C105.43210429 95.76168779 113.02460214 93.55364893 121 92 C121 91.34 121 90.68 121 90 C120.18789063 89.90332031 119.37578125 89.80664062 118.5390625 89.70703125 C114.23600265 88.84736918 110.42782264 87.33674508 106.375 85.6875 C101.2858198 83.65920354 96.21945575 81.67402713 91 80 C85.10990332 78.10207996 79.38680001 75.83571816 73.6328125 73.56640625 C69.45316696 71.92691566 65.27522492 70.37757247 61 69 C56.085584 67.41361571 51.30027494 65.58440779 46.5 63.6875 C40.00542738 61.12399803 33.47359548 58.71989742 26.875 56.4375 C20.49621727 54.23019929 14.13676223 51.98455247 7.8125 49.625 C7.13493652 49.37419678 6.45737305 49.12339355 5.75927734 48.86499023 C1.12186074 47.12186074 1.12186074 47.12186074 0 46 C-0.09295815 44.55710213 -0.11746513 43.10970215 -0.11352539 41.66381836 C-0.11344986 40.7429393 -0.11337433 39.82206024 -0.11329651 38.87327576 C-0.10813522 37.87224319 -0.10297394 36.87121063 -0.09765625 35.83984375 C-0.0962413 34.82024063 -0.09482635 33.80063751 -0.09336853 32.75013733 C-0.08775097 29.47922893 -0.0751955 26.20838787 -0.0625 22.9375 C-0.05748726 20.72591244 -0.05292396 18.51432382 -0.04882812 16.30273438 C-0.03777584 10.86846643 -0.02102063 5.43423803 0 0 Z " fill="#305094" transform="translate(201,11)"/>
<path d="M0 0 C12.52090032 3.414791 12.52090032 3.414791 18.5625 5.4375 C19.73941406 5.82808594 20.91632813 6.21867188 22.12890625 6.62109375 C24.98040213 7.60739247 27.76960354 8.70642344 30.5625 9.84765625 C37.09696692 12.48961899 43.76684318 14.73038005 50.4375 17 C52.9365087 17.85325698 55.43521145 18.70741062 57.93359375 19.5625 C59.72470581 20.17351562 59.72470581 20.17351562 61.55200195 20.796875 C65.62376973 22.21765469 69.65356606 23.73684247 73.67236328 25.30078125 C84.0454865 28.41685267 96.72711196 21.17015046 106.046875 17.2421875 C111.953125 14.7578125 111.953125 14.7578125 114.8125 13.625 C115.64394531 13.28726563 116.47539062 12.94953125 117.33203125 12.6015625 C123.39995507 11.23339227 129.09048342 13.53400919 134.75 15.625 C135.47952881 15.88861328 136.20905762 16.15222656 136.96069336 16.42382812 C139.30985888 17.27526042 141.65509131 18.13692 144 19 C145.58978524 19.58088934 147.17962916 20.16161806 148.76953125 20.7421875 C155.01776509 23.03076627 161.26135994 25.32998405 167.4765625 27.70703125 C168.1873999 27.97773438 168.8982373 28.2484375 169.63061523 28.52734375 C171.55084332 29.26033527 173.46886912 29.99908894 175.38671875 30.73828125 C179.1828164 32.06383751 183.09917575 33.02479394 187 34 C187 59.41 187 84.82 187 111 C185.68 111 184.36 111 183 111 C182.32130859 110.31744141 182.32130859 110.31744141 181.62890625 109.62109375 C179.33397532 107.33716968 177.03857385 106.92370406 173.9375 106.0625 C170.01953041 104.91975887 166.2034141 103.76111411 162.4375 102.1875 C157.50075088 100.14387821 152.4822168 98.37976658 147.4375 96.625 C146.56955811 96.32303711 145.70161621 96.02107422 144.80737305 95.70996094 C143.05062053 95.09962309 141.29370362 94.48975822 139.53662109 93.88037109 C129.72060403 90.47358018 119.93897703 87.00048993 110.22290039 83.31787109 C104.06341565 80.99634036 97.85173075 78.8343499 91.63354492 76.67602539 C85.10793155 74.40454173 78.62370608 72.03333737 72.14746094 69.62524414 C66.43561714 67.50898122 60.69443776 65.48990167 54.9375 63.5 C48.46323007 61.26004205 42.05835423 58.89388505 35.6875 56.375 C23.63434396 51.61655277 11.39579145 47.81408968 -1 44 C-0.67 29.48 -0.34 14.96 0 0 Z " fill="#315094" transform="translate(201,233)"/>
<path d="M0 0 C6.51042853 2.60636163 13.05531892 5.03395531 19.6875 7.3125 C26.82341137 9.77081426 33.86394419 12.40272841 40.88085938 15.1809082 C47.45652553 17.7657602 54.11142108 20.09234512 60.7890625 22.3984375 C65.54219818 24.04489986 70.21893253 25.79056616 74.8671875 27.71484375 C79.98686848 29.70740657 85.19116507 31.46868739 90.3828125 33.26367188 C95.51457082 35.03974136 100.61098111 36.88389178 105.6875 38.8125 C105.6875 39.4725 105.6875 40.1325 105.6875 40.8125 C86.60481889 47.23965301 86.60481889 47.23965301 78.30615234 49.75854492 C73.92527999 51.0907619 69.58980144 52.52353033 65.2578125 54.0078125 C62.94280406 54.77633009 60.62769954 55.54455832 58.3125 56.3125 C57.21873047 56.69970215 56.12496094 57.0869043 54.99804688 57.48583984 C47.35752472 59.97493874 43.02455869 59.87529393 35.6875 56.8125 C33.82603168 56.13183071 31.96441262 55.45155001 30.10049438 54.77761841 C27.32839151 53.76771303 24.56962719 52.72381956 21.81054688 51.67895508 C19.69267553 50.87695987 17.57308495 50.07965894 15.453125 49.28320312 C-1.64808576 42.84592278 -1.64808576 42.84592278 -8.46972656 39.87207031 C-15.51915651 36.93453371 -20.2419289 38.63511864 -27.1875 41.1875 C-28.42242187 41.63867188 -29.65734375 42.08984375 -30.9296875 42.5546875 C-33.99777031 43.69547579 -37.06447398 44.83911082 -40.125 46 C-44.39988087 47.5878129 -48.70386241 49.09586628 -53 50.625 C-55.44595891 51.50185319 -57.88324485 52.39105839 -60.3125 53.3125 C-60.91449219 53.53164062 -61.51648438 53.75078125 -62.13671875 53.9765625 C-63.95019028 54.67330022 -65.73875864 55.4344252 -67.51953125 56.2109375 C-76.03911215 59.69999663 -80.81300612 60.20202626 -89.3125 56.8125 C-91.01643654 56.29771555 -92.72479854 55.79732626 -94.4375 55.3125 C-103.08413008 52.72774225 -111.59875478 49.70160319 -120.125 46.75 C-121.14787109 46.39873047 -122.17074219 46.04746094 -123.22460938 45.68554688 C-124.20880859 45.34458984 -125.19300781 45.00363281 -126.20703125 44.65234375 C-127.53504761 44.19396118 -127.53504761 44.19396118 -128.88989258 43.72631836 C-131.12224054 42.88426672 -133.20310334 41.9231119 -135.3125 40.8125 C-134.7890625 38.9921875 -134.7890625 38.9921875 -133.3125 36.8125 C-130.74669487 35.67014853 -128.35133129 34.77220035 -125.6875 33.9375 C-124.1309665 33.42090681 -122.57498811 32.90263843 -121.01953125 32.3828125 C-120.2301416 32.12274414 -119.44075195 31.86267578 -118.62744141 31.59472656 C-115.17344124 30.42760818 -111.77711391 29.12163206 -108.375 27.8125 C-102.6526033 25.63114803 -96.88389115 23.650291 -91.0625 21.75 C-86.16228799 20.14773126 -81.3588979 18.49183305 -76.625 16.4375 C-70.02780694 13.58933252 -63.25092985 11.31106194 -56.45996094 8.97631836 C-49.4072136 6.54915564 -42.38229445 4.0554261 -35.375 1.5 C-34.48248535 1.17475342 -33.5899707 0.84950684 -32.67041016 0.5144043 C-31.82140137 0.20414307 -30.97239258 -0.10611816 -30.09765625 -0.42578125 C-29.28312988 -0.71791504 -28.46860352 -1.01004883 -27.62939453 -1.31103516 C-25.3286951 -2.14958723 -25.3286951 -2.14958723 -23.22607422 -3.15380859 C-15.05315706 -6.82406313 -7.81605619 -3.21207788 0 0 Z " fill="#2E407B" transform="translate(216.3125,62.1875)"/>
<path d="M0 0 C7.25896223 2.95323978 14.57974809 5.60564808 22 8.125 C32.71540136 11.78062542 43.33353194 15.66008706 53.9375 19.625 C63.59597316 23.23427066 73.25185901 26.82665547 82.99853516 30.19238281 C92.12759113 33.35134409 101.21962022 36.61368442 110.3125 39.875 C111.16804474 40.18179688 112.02358948 40.48859375 112.90505981 40.8046875 C123.99057219 44.7831808 135.04989998 48.81799746 146.05834961 53.00585938 C150.63399972 54.74050022 155.22010016 56.41573743 159.8515625 57.99609375 C160.78202393 58.31392822 161.71248535 58.6317627 162.67114258 58.95922852 C164.41558425 59.55005477 166.16266869 60.13316135 167.9128418 60.70678711 C168.68023682 60.96596924 169.44763184 61.22515137 170.23828125 61.4921875 C170.90770752 61.71245605 171.57713379 61.93272461 172.2668457 62.15966797 C174.48328484 63.1969193 175.55638767 64.05101685 177.0625 66 C177.44345093 68.7322998 177.44345093 68.7322998 177.45068359 72.07617188 C177.46014008 73.32756958 177.46959656 74.57896729 177.4793396 75.86828613 C177.4739699 77.23511064 177.46781695 78.60193226 177.4609375 79.96875 C177.46295843 81.36975252 177.46587002 82.77075401 177.46963501 84.17175293 C177.47405753 87.10727967 177.46762996 90.04253246 177.45361328 92.97802734 C177.43652101 96.74107416 177.44636264 100.50347911 177.46433067 104.26650238 C177.47517069 107.15928993 177.47172126 110.05192527 177.4639473 112.94471741 C177.46194587 114.33219987 177.46440258 115.71969614 177.47138596 117.10716248 C177.47900305 119.04604834 177.46533494 120.98498265 177.45068359 122.92382812 C177.44829681 124.02730591 177.44591003 125.13078369 177.44345093 126.2677002 C177.0625 129 177.0625 129 175.67495728 130.80554199 C173.88962223 132.12806245 172.08778485 133.09211369 170.0625 134 C171.031875 134.474375 172.00125 134.94875 173 135.4375 C176.0625 137 176.0625 137 177.0625 138 C177.17380594 141.02792314 177.21990429 144.03324607 177.22363281 147.06201172 C177.22859772 148.01318878 177.23356262 148.96436584 177.23867798 149.94436646 C177.25334089 153.10614737 177.26010842 156.26787811 177.265625 159.4296875 C177.27137301 161.61825564 177.27713078 163.80682376 177.28289795 165.99539185 C177.29341968 170.59051754 177.29925468 175.18562567 177.30273438 179.78076172 C177.30822182 185.67813481 177.33225037 191.57527733 177.36070633 197.47257805 C177.37930045 201.9952157 177.38453659 206.51779747 177.38607025 211.04047012 C177.38910457 213.21505113 177.39715913 215.38963097 177.41025543 217.56417465 C177.42724868 220.6026962 177.42545212 223.64064986 177.41894531 226.67919922 C177.4281601 227.58321472 177.43737488 228.48723022 177.4468689 229.41864014 C177.43851517 230.65953903 177.43851517 230.65953903 177.42999268 231.92550659 C177.43145924 232.64412809 177.4329258 233.3627496 177.4344368 234.10314751 C176.94330259 236.60789872 176.05908779 237.44503935 174.0625 239 C171.39122495 239.97909022 168.78831529 240.83926677 166.0625 241.625 C165.33804687 241.8415625 164.61359375 242.058125 163.8671875 242.28125 C161.93376972 242.85913502 159.9982397 243.42994106 158.0625 244 C157.0725 244.33 156.0825 244.66 155.0625 245 C155.82433594 245.31453125 156.58617187 245.6290625 157.37109375 245.953125 C158.40363281 246.38109375 159.43617188 246.8090625 160.5 247.25 C161.50933594 247.66765625 162.51867187 248.0853125 163.55859375 248.515625 C166.31293213 249.68245731 169.04937527 250.87558994 171.78149414 252.09277344 C172.58518936 252.45062927 173.38888458 252.80848511 174.2169342 253.17718506 C174.82597092 253.44871399 175.43500763 253.72024292 176.0625 254 C176.28569965 264.24812901 176.48721547 274.49643146 176.66090012 284.74552631 C176.74223021 289.50438606 176.83108188 294.26285946 176.93701172 299.02124023 C177.03892687 303.61162925 177.12122962 308.20198614 177.18982697 312.79298973 C177.21949274 314.54623901 177.25627674 316.29938249 177.3002243 318.05233192 C177.36048791 320.50414748 177.39563783 322.95511596 177.42480469 325.4074707 C177.46040245 326.49935448 177.46040245 326.49935448 177.49671936 327.61329651 C177.51810254 332.51879825 177.51810254 332.51879825 175.28263855 334.87986755 C173.25578742 335.90248018 171.32824342 336.79061618 169.17797852 337.51464844 C168.42453156 337.77232498 167.67108459 338.03000153 166.89480591 338.29548645 C166.08518402 338.56406967 165.27556213 338.83265289 164.44140625 339.109375 C163.59295135 339.39741501 162.74449646 339.68545502 161.87033081 339.98222351 C159.12437129 340.91237529 156.37497321 341.83178886 153.625 342.75 C151.7466871 343.38117809 149.86851324 344.01277009 147.99047852 344.64477539 C145.21311324 345.5790069 142.43547709 346.51236501 139.65666199 347.442276 C134.74153055 349.08867108 129.84262244 350.76867957 124.9609375 352.51171875 C124.00630615 352.8478418 123.0516748 353.18396484 122.06811523 353.53027344 C120.42507529 354.1107028 118.78605815 354.70273144 117.15258789 355.30957031 C107.17718711 358.77436479 98.85877011 354.70291221 89.4375 351.125 C88.11369893 350.62955298 86.78955453 350.13502244 85.46508789 349.64135742 C82.71094095 348.61410491 79.95831099 347.58292323 77.20654297 346.54931641 C73.19866872 345.04705356 69.18138757 343.57155121 65.16015625 342.10546875 C64.52181854 341.87269226 63.88348083 341.63991577 63.22579956 341.40008545 C61.95003334 340.93498029 60.67424614 340.46993263 59.3984375 340.00494385 C50.21767603 336.65631541 41.05846776 333.25846219 31.9375 329.75 C23.57368064 326.53377115 15.15093826 323.52263817 6.67578125 320.61328125 C3.75202359 319.60523492 0.85881703 318.54902702 -2.01953125 317.41796875 C-3.22996094 316.95003906 -4.44039062 316.48210937 -5.6875 316 C-6.71359375 315.5875 -7.7396875 315.175 -8.796875 314.75 C-16.74748755 312.85134626 -23.86168882 316.22659335 -31.1875 319.0625 C-33.58138897 319.96919629 -35.97591021 320.87408535 -38.37109375 321.77734375 C-39.02494553 322.02488403 -39.6787973 322.27242432 -40.35246277 322.52746582 C-49.95051312 326.15340065 -59.60476419 329.62709771 -69.25 333.125 C-71.07523586 333.78773013 -72.90043189 334.45056997 -74.72558594 335.11352539 C-75.6168367 335.43722107 -76.50808746 335.76091675 -77.42634583 336.09442139 C-79.21467244 336.74393906 -81.00299236 337.39347513 -82.79130554 338.04302979 C-87.45117811 339.73525793 -92.11184493 341.42525028 -96.77368164 343.11206055 C-108.21332858 347.24421282 -108.21332858 347.24421282 -119.58203125 351.56640625 C-120.46310547 351.90607422 -121.34417969 352.24574219 -122.25195312 352.59570312 C-123.97337006 353.26192782 -125.6892787 353.94250295 -127.40039062 354.63476562 C-128.26470703 354.96283203 -129.12902344 355.29089844 -130.01953125 355.62890625 C-131.12131714 356.0631189 -131.12131714 356.0631189 -132.24536133 356.50610352 C-139.18437411 357.77912636 -145.86505701 355.63763771 -152.35546875 353.3046875 C-153.12770782 353.0361496 -153.8999469 352.76761169 -154.69558716 352.49093628 C-157.1750397 351.62722915 -159.64990929 350.75111815 -162.125 349.875 C-165.52715787 348.68581728 -168.93153915 347.50306334 -172.3359375 346.3203125 C-173.16730728 346.03051514 -173.99867706 345.74071777 -174.85523987 345.44213867 C-182.50902427 342.78148837 -190.21081666 340.300448 -197.95581055 337.91748047 C-203.84345045 336.09404955 -203.84345045 336.09404955 -204.9375 335 C-205.03416765 333.55085625 -205.06121805 332.09700895 -205.06054783 330.64464474 C-205.06253888 329.69865349 -205.06452993 328.75266224 -205.06658131 327.77800459 C-205.06366847 326.72647044 -205.06075563 325.67493629 -205.05775452 324.59153748 C-205.05860894 323.48404036 -205.05946337 322.37654325 -205.06034368 321.23548561 C-205.06200173 317.49348154 -205.05647182 313.75152148 -205.05102539 310.00952148 C-205.05074356 307.33945616 -205.05085705 304.6693936 -205.0514679 301.99932861 C-205.05199332 296.23493932 -205.04884457 290.47056131 -205.04323006 284.70617485 C-205.03511759 276.37174684 -205.0325001 268.03732432 -205.03124207 259.70289279 C-205.02905115 246.18221514 -205.02238998 232.66154352 -205.01293945 219.14086914 C-205.00376636 206.00349966 -204.99668503 192.8661318 -204.99243164 179.72875977 C-204.99216892 178.91954669 -204.99190619 178.11033361 -204.99163551 177.27659892 C-204.99033051 173.21718626 -204.98906679 169.15777358 -204.98782361 165.0983609 C-204.97744975 131.3989029 -204.95983036 97.69945219 -204.9375 64 C-202.06744489 62.87785601 -199.19684862 61.75713207 -196.32592773 60.63720703 C-195.5194857 60.32173416 -194.71304367 60.00626129 -193.882164 59.68122864 C-187.64014359 57.24814918 -181.35093297 55.00771195 -175 52.875 C-164.40753541 49.2653845 -153.91623478 45.42476865 -143.4375 41.5 C-132.10837995 37.2580805 -120.75086188 33.14918886 -109.30078125 29.2421875 C-101.63277796 26.61563179 -94.02914615 23.83919637 -86.4375 21 C-76.65911626 17.34371648 -66.84116095 13.84174248 -56.95532227 10.48681641 C-50.90796848 8.42137442 -44.91664142 6.25066405 -38.953125 3.95703125 C-37.59491354 3.43974545 -36.23659689 2.92273574 -34.87817383 2.40600586 C-32.89701915 1.65217451 -30.919426 0.89263987 -28.9493103 0.11038208 C-17.70565988 -4.35339267 -10.97409182 -4.67197171 0 0 Z M-25.25 3.0625 C-27.03252048 3.71493009 -28.81507314 4.36727228 -30.59765625 5.01953125 C-31.48984863 5.35162598 -32.38204102 5.6837207 -33.30126953 6.02587891 C-37.24608489 7.48353896 -41.21683026 8.86471621 -45.1875 10.25 C-49.10356474 11.623301 -53.00801276 13.0188792 -56.890625 14.484375 C-61.75951008 16.32057254 -66.67040104 18.0322714 -71.58203125 19.75 C-75.76160245 21.21705241 -79.91762755 22.73394346 -84.06152344 24.29882812 C-86.79816837 25.32168656 -89.55556494 26.28337092 -92.3125 27.25 C-97.94038281 29.24874379 -103.50533061 31.37560512 -109.0625 33.5625 C-114.79867346 35.81350901 -120.53768452 37.93879035 -126.40234375 39.8359375 C-131.51752797 41.5202744 -136.60113985 43.29331389 -141.6875 45.0625 C-142.67065186 45.40337646 -143.65380371 45.74425293 -144.66674805 46.09545898 C-149.34121645 47.72203292 -153.99933575 49.37710228 -158.62744141 51.13110352 C-163.65719979 53.02297733 -168.70833171 54.85775692 -173.75415039 56.70629883 C-175.73531197 57.43211888 -177.71630245 58.15840427 -179.69726562 58.88476562 C-187.10680437 61.60065796 -194.52098699 64.30308618 -201.9375 67 C-201.9375 154.78 -201.9375 242.56 -201.9375 333 C-181.6425 339.93 -181.6425 339.93 -160.9375 347 C-148.25 351.4375 -148.25 351.4375 -143.67578125 353.05859375 C-137.20542694 354.68801422 -132.15485286 352.53275545 -126.0625 350.3125 C-125.3207251 350.04630859 -124.5789502 349.78011719 -123.81469727 349.50585938 C-115.46948369 346.49793759 -107.17026888 343.36664986 -98.87744141 340.21777344 C-91.31195208 337.34669425 -83.73976752 334.57047127 -76.046875 332.0546875 C-69.61633699 329.87347486 -63.28482038 327.41066544 -56.9375 325 C-52.43437725 323.29290278 -47.92712168 321.59816947 -43.41210938 319.92285156 C-41.56532037 319.2341319 -39.72059471 318.53987467 -37.87695312 317.84277344 C-34.50575842 316.57041931 -31.12845229 315.31544077 -27.75 314.0625 C-26.66211182 313.64830811 -25.57422363 313.23411621 -24.45336914 312.80737305 C-23.42332764 312.4287915 -22.39328613 312.05020996 -21.33203125 311.66015625 C-20.41268799 311.31605713 -19.49334473 310.97195801 -18.54614258 310.61743164 C-12.65536067 309.22316047 -6.44272688 312.38361031 -0.875 314.25 C0.54389526 314.72360962 0.54389526 314.72360962 1.99145508 315.20678711 C7.77026572 317.15951027 13.38856688 319.31394907 18.98046875 321.75390625 C22.95024416 323.35892318 26.99172166 324.67655757 31.0625 326 C36.09374137 327.63569661 41.0208559 329.31945429 45.875 331.4375 C52.22281981 334.19087791 58.76657568 336.26240181 65.33837891 338.4050293 C71.19242012 340.32985491 76.859723 342.49086943 82.51171875 344.953125 C85.77253455 346.29140775 89.08815626 347.22926151 92.48046875 348.171875 C96.56301062 349.48125303 100.41614326 351.30449647 104.30078125 353.109375 C108.92382666 354.6002581 112.95642318 352.78551679 117.4375 351.28515625 C119.01893799 350.75728516 119.01893799 350.75728516 120.63232422 350.21875 C121.76428223 349.8371875 122.89624023 349.455625 124.0625 349.0625 C125.23699707 348.66933594 126.41149414 348.27617187 127.62158203 347.87109375 C134.13150287 345.68479162 140.6292964 343.46565137 147.1171875 341.21484375 C147.77430725 340.98708755 148.431427 340.75933136 149.10845947 340.52467346 C152.30072301 339.41753047 155.49122794 338.30582674 158.6796875 337.18774414 C160.4121875 336.58434204 160.4121875 336.58434204 162.1796875 335.96875 C163.19659668 335.61232422 164.21350586 335.25589844 165.26123047 334.88867188 C168.0625 334 168.0625 334 173.0625 333 C173.0625 307.59 173.0625 282.18 173.0625 256 C168.7725 254.68 164.4825 253.36 160.0625 252 C156.15771091 250.63332382 152.26282026 249.25441251 148.37597656 247.83935547 C145.55239935 246.81492971 142.72549346 245.79994212 139.8984375 244.78515625 C137.66144145 243.98181784 135.42446241 243.17843206 133.1875 242.375 C132.11725586 241.99061768 131.04701172 241.60623535 129.94433594 241.21020508 C128.9134082 240.83919678 127.88248047 240.46818848 126.8203125 240.0859375 C125.82805664 239.72983398 124.83580078 239.37373047 123.81347656 239.00683594 C121.43927254 238.13789581 119.09183385 237.22146184 116.7421875 236.2890625 C109.97737737 233.91922456 105.96145909 233.55599548 99.375 236.5 C98.06807289 237.05989602 96.75937336 237.61566727 95.44921875 238.16796875 C94.40000244 238.61342041 94.40000244 238.61342041 93.32958984 239.06787109 C89.16316872 240.78092255 84.93057813 242.30160227 80.6875 243.8125 C79.86805908 244.11414063 79.04861816 244.41578125 78.2043457 244.7265625 C68.76391959 248.07026543 62.13957946 248.69426077 52.75 245 C50.98458228 244.34319258 49.2189511 243.6869587 47.453125 243.03125 C46.55916016 242.69222656 45.66519531 242.35320312 44.74414062 242.00390625 C40.52330081 240.42378122 36.2606571 238.96847078 32 237.5 C25.38884776 235.19748633 18.81244916 232.81251905 12.25 230.375 C9.92753165 229.51968107 7.60426678 228.66659599 5.28027344 227.81542969 C3.8209468 227.27886529 2.36320659 226.737963 0.90722656 226.19238281 C-1.09780463 225.44460094 -3.10972934 224.71964806 -5.125 224 C-6.25292969 223.5875 -7.38085938 223.175 -8.54296875 222.75 C-15.40650913 221.23354459 -21.15264058 223.17983971 -27.5 225.75 C-28.91971518 226.30298843 -30.3403087 226.85372652 -31.76171875 227.40234375 C-32.46731934 227.67546387 -33.17291992 227.94858398 -33.89990234 228.22998047 C-36.84377006 229.34248452 -39.82243533 230.33175879 -42.8125 231.3125 C-54.22788591 235.08835842 -65.57531886 239.0669373 -76.9375 243 C-76.9375 199.11 -76.9375 155.22 -76.9375 110 C-72.4825 109.01 -72.4825 109.01 -67.9375 108 C-60.68029384 105.8936626 -53.75430823 103.1209806 -46.8125 100.15625 C-43.38597804 98.77819226 -39.92438131 97.75288941 -36.375 96.74609375 C-31.35818511 95.21049817 -26.52522562 93.1103201 -21.70703125 91.04296875 C-14.83830857 88.2207356 -10.72474092 89.9739557 -3.875 92.25 C-2.66714844 92.64703125 -1.45929688 93.0440625 -0.21484375 93.453125 C3.11541831 94.6137684 6.35596959 95.93867475 9.60546875 97.30859375 C16.77164936 100.32966934 24.03548309 103.0738475 31.3125 105.8125 C32.65501828 106.31947516 33.99746659 106.82663565 35.33984375 107.33398438 C38.57980755 108.55845898 41.82115888 109.77915186 45.0625 111 C45.3925 116.94 45.7225 122.88 46.0625 129 C47.980625 129.66 49.89875 130.32 51.875 131 C53.49341797 131.556875 53.49341797 131.556875 55.14453125 132.125 C58.03370802 133.14361512 58.03370802 133.14361512 61.0625 133 C61.0625 133.66 61.0625 134.32 61.0625 135 C59.31264646 135.47970123 57.56261109 135.95873924 55.8125 136.4375 C54.83796875 136.70433594 53.8634375 136.97117188 52.859375 137.24609375 C50.60017069 137.85506921 48.33247905 138.43250524 46.0625 139 C46.0625 170.35 46.0625 201.7 46.0625 234 C59.1846821 241.86440614 59.1846821 241.86440614 72.42919922 241.45263672 C73.06873535 241.19756348 73.70827148 240.94249023 74.3671875 240.6796875 C75.47682861 240.25139648 75.47682861 240.25139648 76.60888672 239.81445312 C77.3773291 239.50443359 78.14577148 239.19441406 78.9375 238.875 C80.60337446 238.23491356 82.27006453 237.5969464 83.9375 236.9609375 C84.78183594 236.63577148 85.62617188 236.31060547 86.49609375 235.97558594 C90.61801689 234.4086905 94.76794353 232.9346583 98.9375 231.5 C99.67983887 231.23300293 100.42217773 230.96600586 101.18701172 230.69091797 C105.27763443 229.29593734 107.94784528 228.62844843 112.0625 230 C112.743125 230.22574707 113.42375 230.45149414 114.125 230.68408203 C116.63542207 231.53274072 119.13026196 232.41883125 121.625 233.3125 C123.4176959 233.94868605 125.21066411 234.5841053 127.00390625 235.21875 C127.87031738 235.52554688 128.73672852 235.83234375 129.62939453 236.1484375 C133.64890437 237.55522561 137.69549536 238.8733895 141.75 240.17578125 C144.0625 241 144.0625 241 146.0625 242.16796875 C150.95049247 244.20144999 157.47104572 240.61714016 162.25 239 C163.06919922 238.72671875 163.88839844 238.4534375 164.73242188 238.171875 C168.97657738 236.78004642 168.97657738 236.78004642 173.0625 235 C173.0625 203.65 173.0625 172.3 173.0625 140 C164.06488884 136.34635959 164.06488884 136.34635959 155.0625 135 C155.0625 134.34 155.0625 133.68 155.0625 133 C155.77535156 132.87882813 156.48820312 132.75765625 157.22265625 132.6328125 C158.18042969 132.46523437 159.13820313 132.29765625 160.125 132.125 C161.53458984 131.88136719 161.53458984 131.88136719 162.97265625 131.6328125 C166.37787003 130.93541094 169.72034319 129.95490194 173.0625 129 C173.0625 108.54 173.0625 88.08 173.0625 67 C166.4625 64.69 159.8625 62.38 153.0625 60 C147.99510659 58.15753876 142.93208025 56.30755372 137.875 54.4375 C129.81139287 51.46346806 121.74428059 48.50681526 113.625 45.6875 C108.62616307 43.951377 103.70889441 42.0715469 98.8125 40.0625 C92.15716643 37.33538452 85.38675095 35.06156682 78.55297852 32.82543945 C71.24040302 30.42169264 63.98953388 27.86507519 56.75 25.25 C55.18499756 24.68478638 55.18499756 24.68478638 53.58837891 24.1081543 C49.28540784 22.54847541 44.98703608 20.97853434 40.703125 19.3671875 C37.52018171 18.17187618 34.3291713 17.01182819 31.125 15.875 C24.14120462 13.38782857 17.16343775 10.88412574 10.1875 8.375 C9.11765869 7.99069824 8.04781738 7.60639648 6.94555664 7.21044922 C5.91422607 6.83936035 4.88289551 6.46827148 3.8203125 6.0859375 C2.8293457 5.72983398 1.83837891 5.37373047 0.81738281 5.00683594 C-1.57575099 4.13220958 -3.94795111 3.21796528 -6.3203125 2.2890625 C-13.9116397 -0.41627009 -17.90740274 0.26626254 -25.25 3.0625 Z M-21.96484375 93.6875 C-22.91085449 94.05270752 -23.85686523 94.41791504 -24.83154297 94.79418945 C-25.83588379 95.19210693 -26.84022461 95.59002441 -27.875 96 C-30.02118885 96.82927682 -32.16835193 97.65603606 -34.31640625 98.48046875 C-35.95826904 99.11154541 -35.95826904 99.11154541 -37.63330078 99.75537109 C-43.74154095 102.05622881 -49.91839269 104.15802149 -56.09741211 106.25976562 C-56.98050049 106.56205078 -57.86358887 106.86433594 -58.7734375 107.17578125 C-59.53188965 107.43270752 -60.2903418 107.68963379 -61.07177734 107.9543457 C-65.39927791 109.53337833 -69.66039524 111.28915809 -73.9375 113 C-73.9375 154.25 -73.9375 195.5 -73.9375 238 C-66.20448026 235.70062696 -66.20448026 235.70062696 -58.55126953 233.20654297 C-57.62396027 232.88966522 -56.696651 232.57278748 -55.74124146 232.24630737 C-54.29538162 231.74926804 -54.29538162 231.74926804 -52.8203125 231.2421875 C-51.80073456 230.8936673 -50.78115662 230.54514709 -49.73068237 230.18606567 C-46.50734724 229.08414338 -43.28483541 227.97984208 -40.0625 226.875 C-36.81871161 225.76310517 -33.57473332 224.65178474 -30.33004761 223.54251099 C-28.319526 222.85516188 -26.309515 222.16631695 -24.30007935 221.47579956 C-22.93748489 221.00993942 -22.93748489 221.00993942 -21.54736328 220.53466797 C-20.75145782 220.26169891 -19.95555237 219.98872986 -19.13552856 219.70748901 C-13.46023147 217.88075645 -10.54496219 218.59957257 -5 220.8125 C-3.30846436 221.46139859 -1.61566502 222.1070089 0.078125 222.75 C1.01720703 223.10707031 1.95628906 223.46414062 2.92382812 223.83203125 C8.35903425 225.85459084 13.83682632 227.75371104 19.31863403 229.64535522 C21.21674914 230.30101428 23.11315285 230.96162105 25.00952148 231.62231445 C26.78951538 232.23659302 26.78951538 232.23659302 28.60546875 232.86328125 C30.1836438 233.40915894 30.1836438 233.40915894 31.79370117 233.96606445 C35.50261193 235.13920935 39.28862223 236.05653056 43.0625 237 C43.0625 204 43.0625 171 43.0625 137 C45.7025 136.01 48.3425 135.02 51.0625 134 C50.485 133.71125 49.9075 133.4225 49.3125 133.125 C47.22916667 132.08333333 45.14583333 131.04166667 43.0625 130 C42.7325 124.39 42.4025 118.78 42.0625 113 C32.80411464 108.81535282 23.38161801 105.1169188 13.91430664 101.43505859 C11.88101134 100.64225472 9.84943837 99.84501993 7.81958008 99.04345703 C4.86914131 97.87850346 1.91380579 96.72688711 -1.04296875 95.578125 C-1.94621384 95.21881897 -2.84945892 94.85951294 -3.78007507 94.48931885 C-10.39621432 91.94483351 -15.1878579 91.01707863 -21.96484375 93.6875 Z " fill="#F6F9FA" transform="translate(214.9375,11)"/>
<path d="M0 0 C0 0.66 0 1.32 0 2 C1.670625 2.12375 1.670625 2.12375 3.375 2.25 C8 3 8 3 18 7 C18 38.35 18 69.7 18 102 C13.38 103.65 8.76 105.3 4 107 C2.515 107.61875 1.03 108.2375 -0.5 108.875 C-6.22549815 110.71533869 -10.09961026 109.08424816 -15.55078125 106.9453125 C-19.77672173 105.31424776 -24.06090918 103.84437387 -28.3359375 102.34765625 C-30.74137616 101.46292668 -33.12424071 100.51367115 -35.4765625 99.49609375 C-37.12785156 98.78646484 -37.12785156 98.78646484 -38.8125 98.0625 C-39.78832031 97.62035156 -40.76414062 97.17820312 -41.76953125 96.72265625 C-50.15846126 94.84605159 -59.4440555 99.74236949 -67.25 102.5 C-68.40757812 102.90347656 -69.56515625 103.30695313 -70.7578125 103.72265625 C-76.74015446 105.79190884 -76.74015446 105.79190884 -82.62792969 108.109375 C-87.65876163 109.99826703 -92.23869182 109.54410933 -97.0625 107.46875 C-98.38274933 106.828233 -99.69537334 106.17176602 -101 105.5 C-101.67933594 105.16613281 -102.35867188 104.83226562 -103.05859375 104.48828125 C-104.71271274 103.67287048 -106.35741507 102.83840272 -108 102 C-108 101.34 -108 100.68 -108 100 C-107.22624023 99.73372803 -106.45248047 99.46745605 -105.65527344 99.19311523 C-102.68595877 98.17101114 -99.71682429 97.14838539 -96.74777222 96.1255188 C-94.74940811 95.43729616 -92.75080307 94.74977625 -90.75219727 94.06225586 C-84.84036469 92.02683144 -78.93129915 89.9855687 -73.04296875 87.8828125 C-72.16866211 87.57158447 -71.29435547 87.26035645 -70.39355469 86.93969727 C-68.82608318 86.37986376 -67.26015109 85.81568822 -65.69628906 85.24584961 C-59.48748514 83.03251305 -53.49887842 81.62471961 -47 80 C-47 63.5 -47 47 -47 30 C-34 33 -34 33 -26 36 C-26 47.88 -26 59.76 -26 72 C-20.06 72.99 -20.06 72.99 -14 74 C-12.02 74.99 -12.02 74.99 -10 76 C-8.02 76.33 -6.04 76.66 -4 77 C-4 51.92 -4 26.84 -4 1 C-5.98 1.33 -7.96 1.66 -10 2 C-6.3558226 -0.4294516 -4.28758728 -0.16179575 0 0 Z " fill="#82B743" transform="translate(370,144)"/>
<path d="M0 0 C0.68400879 0.18312744 1.36801758 0.36625488 2.07275391 0.55493164 C3.54047728 0.94853785 5.00676302 1.34753798 6.47167969 1.75146484 C8.7708027 2.38069332 11.07512048 2.98504766 13.3828125 3.58203125 C21.4167264 5.66215951 29.43316514 7.80887389 37.4375 10 C38.51427002 10.29088501 38.51427002 10.29088501 39.61279297 10.58764648 C44.44278093 11.92202533 49.07843131 13.56090038 53.75 15.375 C48.70513266 19.99946173 42.00217449 20.35449094 35.5 21.25 C29.81521528 22.07062084 24.6845562 23.57165075 19.30859375 25.5703125 C16.75 26.375 16.75 26.375 12.75 26.375 C12.255 27.86 12.255 27.86 11.75 29.375 C9.39616626 30.44083033 7.19921911 31.2876871 4.75 32.0625 C4.06373535 32.28091553 3.3774707 32.49933105 2.67041016 32.72436523 C-7.58875732 35.83456127 -15.30792019 34.35449379 -25.25 30.375 C-25.84941406 29.89933594 -26.44882812 29.42367187 -27.06640625 28.93359375 C-30.49886719 26.48359032 -34.37165053 25.4843306 -38.375 24.25 C-39.23085693 23.9821167 -40.08671387 23.7142334 -40.96850586 23.43823242 C-46.01337589 21.90888773 -50.74958655 20.83848869 -56.03125 20.578125 C-60.22056264 20.19459638 -64.3775398 19.01003875 -68.25 17.375 C-68.58 16.715 -68.91 16.055 -69.25 15.375 C-68.12851562 15.05789062 -67.00703125 14.74078125 -65.8515625 14.4140625 C-64.19260757 13.94306311 -62.53376445 13.47166981 -60.875 13 C-59.97120605 12.74323486 -59.06741211 12.48646973 -58.13623047 12.22192383 C-51.92290573 10.44792443 -45.72373959 8.63023722 -39.53125 6.78515625 C-38.00571015 6.33182292 -36.48015671 5.87853536 -34.95458984 5.42529297 C-32.67350821 4.74745155 -30.3930059 4.06791251 -28.11407471 3.38287354 C-25.95493852 2.73392818 -23.79405943 2.09109367 -21.6328125 1.44921875 C-20.37871582 1.07369873 -19.12461914 0.69817871 -17.83251953 0.3112793 C-11.26063664 -1.40625995 -6.57219797 -1.80116723 0 0 Z " fill="#2F407C" transform="translate(331.25,123.625)"/>
<path d="M0 0 C0 25.08 0 50.16 0 76 C-6 76 -6 76 -10 74 C-13.96 73.01 -17.92 72.02 -22 71 C-22 59.12 -22 47.24 -22 35 C-24.97 34.505 -24.97 34.505 -28 34 C-30.06942045 33.29071212 -32.13183242 32.56071193 -34.1875 31.8125 C-44.65743113 28.53247617 -52.43872305 32.11965174 -63 35 C-63 26.09 -63 17.18 -63 8 C-54 10 -54 10 -50.5 11.125 C-40.65572257 13.58606936 -32.13859271 10.84660152 -23 7 C-22.67 6.34 -22.34 5.68 -22 5 C-19.79887324 4.22741908 -17.56187959 3.55566806 -15.3125 2.9375 C-14.09175781 2.59589844 -12.87101562 2.25429687 -11.61328125 1.90234375 C-7.77379947 0.943511 -3.97368049 0 0 0 Z M-59 12 C-59 17.61 -59 23.22 -59 29 C-52.42609968 27.78077165 -52.42609968 27.78077165 -46 26 C-38.85837555 25.22373647 -32.74292408 27.7755302 -26 30 C-26 24.06 -26 18.12 -26 12 C-29.41796875 13.07421875 -32.8359375 14.1484375 -36.25390625 15.22265625 C-43.97304068 16.82443701 -51.52490711 13.93176558 -59 12 Z " fill="#BED52F" transform="translate(366,145)"/>
<path d="M0 0 C6.083599 -0.36994859 10.98921174 0.9293366 16.75 2.8125 C17.59949219 3.07353516 18.44898438 3.33457031 19.32421875 3.60351562 C26.16366027 5.79148862 26.16366027 5.79148862 29 9 C28.34 9 27.68 9 27 9 C27 30.12 27 51.24 27 73 C6 80 6 80 4 80 C4 53.93 4 27.86 4 1 C2.68 0.67 1.36 0.34 0 0 Z " fill="#81B641" transform="translate(276,144)"/>
<path d="M0 0 C4.16360167 1.68272546 8.39265713 3.13991972 12.63671875 4.60546875 C20.43648213 7.30753488 28.19623034 10.1018826 35.93139648 12.98364258 C39.99835984 14.49611279 44.07203847 15.94999739 48.19921875 17.29296875 C47.70421875 18.77796875 47.70421875 18.77796875 47.19921875 20.29296875 C44.46294191 21.53807847 41.84353107 22.57313776 39.01171875 23.54296875 C38.25568359 23.82398438 37.49964844 24.105 36.72070312 24.39453125 C29.84352709 26.80422693 25.41987008 25.89526241 18.6484375 23.23828125 C14.42249702 21.60721651 10.13830957 20.13734262 5.86328125 18.640625 C3.45784259 17.75589543 1.07497804 16.8066399 -1.27734375 15.7890625 C-2.37820313 15.31597656 -3.4790625 14.84289062 -4.61328125 14.35546875 C-5.58910156 13.91332031 -6.56492187 13.47117188 -7.5703125 13.015625 C-15.95924251 11.13902034 -25.24483675 16.03533824 -33.05078125 18.79296875 C-34.78714844 19.39818359 -34.78714844 19.39818359 -36.55859375 20.015625 C-42.54093571 22.08487759 -42.54093571 22.08487759 -48.42871094 24.40234375 C-53.45954288 26.29123578 -58.03947307 25.83707808 -62.86328125 23.76171875 C-64.18353058 23.12120175 -65.49615459 22.46473477 -66.80078125 21.79296875 C-67.48011719 21.45910156 -68.15945313 21.12523437 -68.859375 20.78125 C-70.51349399 19.96583923 -72.15819632 19.13137147 -73.80078125 18.29296875 C-73.80078125 17.63296875 -73.80078125 16.97296875 -73.80078125 16.29296875 C-73.02702148 16.02669678 -72.25326172 15.7604248 -71.45605469 15.48608398 C-68.48657637 14.46392356 -65.5172297 13.44138197 -62.54800415 12.41848755 C-61.21793434 11.96029481 -59.88783593 11.50218509 -58.55770874 11.04415894 C-51.95725273 8.77090014 -45.35769654 6.49565886 -38.7734375 4.17578125 C-37.89010742 3.86455322 -37.00677734 3.5533252 -36.09667969 3.23266602 C-34.50414213 2.67014267 -32.91228108 2.10569824 -31.32128906 1.53881836 C-27.40267905 0.15436522 -23.46620604 -1.16032361 -19.5 -2.40234375 C-18.69780029 -2.65387207 -17.89560059 -2.90540039 -17.0690918 -3.16455078 C-10.87653976 -4.64553782 -5.65416711 -2.39847517 0 0 Z " fill="#6D9742" transform="translate(335.80078125,227.70703125)"/>
<path d="M0 0 C0 6.27 0 12.54 0 19 C-20.51476335 25.57725237 -41.20551235 31.37771283 -62 37 C-62 31.06 -62 25.12 -62 19 C-55.45713716 16.19591593 -48.86500841 14.02128562 -42.02905273 12.07202148 C-36.00298934 10.33652047 -30.06437702 8.38560828 -24.125 6.375 C-5.22999065 0 -5.22999065 0 0 0 Z " fill="#04A6DB" transform="translate(323,103)"/>
<path d="M0 0 C0 9.9 0 19.8 0 30 C-6.00560115 28.66542197 -11.4788266 27.28354258 -17.1875 25.1875 C-17.91219482 24.92614258 -18.63688965 24.66478516 -19.38354492 24.39550781 C-20.86675639 23.86052062 -22.34926791 23.32358866 -23.83105469 22.78466797 C-25.90692197 22.03367321 -27.987182 21.29698041 -30.0703125 20.56640625 C-31.30523437 20.13199219 -32.54015625 19.69757813 -33.8125 19.25 C-34.91207031 18.86328125 -36.01164062 18.4765625 -37.14453125 18.078125 C-39.53512672 17.17551987 -41.7309623 16.16173757 -44 15 C-42.76765625 14.62488281 -41.5353125 14.24976563 -40.265625 13.86328125 C-31.92251105 11.29448038 -23.74060769 8.65577152 -15.7265625 5.16796875 C-3.66220736 0 -3.66220736 0 0 0 Z " fill="#08A8DC" transform="translate(323,245)"/>
<path d="M0 0 C9 2 9 2 12.5 3.125 C20.57904509 5.14476127 26.56322438 3.78796259 34.30078125 0.875 C37 0 37 0 41 0 C41 8.91 41 17.82 41 27 C36.44327826 26.24054638 33.05612468 25.35707395 28.8125 23.8125 C18.34256887 20.53247617 10.56127695 24.11965174 0 27 C0 18.09 0 9.18 0 0 Z M4 4 C4 9.61 4 15.22 4 21 C10.57390032 19.78077165 10.57390032 19.78077165 17 18 C24.14162445 17.22373647 30.25707592 19.7755302 37 22 C37 16.06 37 10.12 37 4 C33.58203125 5.07421875 30.1640625 6.1484375 26.74609375 7.22265625 C19.02695932 8.82443701 11.47509289 5.93176558 4 4 Z " fill="#F8F9F4" transform="translate(303,153)"/>
</svg>
