<svg width="20" height="18" viewBox="0 0 20 18" fill="none" xmlns="http://www.w3.org/2000/svg">
<path d="M16.1397 0.0230808H3.86032C3.34187 -0.0371662 2.81653 0.0209023 2.32362 0.192942C1.83071 0.364983 1.38298 0.646541 1.01393 1.01655C0.644868 1.38657 0.364038 1.83546 0.192443 2.32965C0.0208482 2.82384 -0.03707 3.35053 0.0230211 3.87033V14.1297C-0.03707 14.6495 0.0208482 15.1762 0.192443 15.6704C0.364038 16.1645 0.644868 16.6134 1.01393 16.9834C1.38298 17.3535 1.83071 17.635 2.32362 17.8071C2.81653 17.9791 3.34187 18.0372 3.86032 17.9769H16.1397C16.6581 18.0372 17.1835 17.9791 17.6764 17.8071C18.1693 17.635 18.617 17.3535 18.9861 16.9834C19.3551 16.6134 19.636 16.1645 19.8076 15.6704C19.9792 15.1762 20.0371 14.6495 19.977 14.1297V3.87033C20.0371 3.35053 19.9792 2.82384 19.8076 2.32965C19.636 1.83546 19.3551 1.38657 18.9861 1.01655C18.617 0.646541 18.1693 0.364983 17.6764 0.192942C17.1835 0.0209023 16.6581 -0.0371662 16.1397 0.0230808ZM1.55794 14.1297V3.87033C1.55794 2.25243 2.24661 1.56198 3.86032 1.56198H6.1627V16.438H3.86032C2.24661 16.438 1.55794 15.7476 1.55794 14.1297ZM18.4421 14.1297C18.4421 15.7476 17.7534 16.438 16.1397 16.438H7.69762V1.56198H16.1397C17.7534 1.56198 18.4421 2.25243 18.4421 3.87033V14.1297Z" fill="#6E7071"/>
</svg>
