<svg width="20" height="20" viewBox="0 0 20 20" fill="none" xmlns="http://www.w3.org/2000/svg">
<path d="M18 10C18 11.5822 17.5308 13.129 16.6518 14.4446C15.7727 15.7602 14.5233 16.7855 13.0615 17.391C11.5997 17.9965 9.99113 18.155 8.43928 17.8463C6.88743 17.5376 5.46197 16.7757 4.34315 15.6569C3.22433 14.538 2.4624 13.1126 2.15372 11.5607C1.84504 10.0089 2.00347 8.40034 2.60897 6.93853C3.21447 5.47672 4.23985 4.22729 5.55544 3.34824C6.87103 2.46919 8.41775 2 10 2C12.121 2.00229 14.1545 2.84589 15.6543 4.34568C17.1541 5.84547 17.9977 7.87897 18 10ZM11.3333 10C11.3333 9.64638 11.1929 9.30724 10.9428 9.05719C10.6928 8.80714 10.3536 8.66667 10 8.66667H8.66667V10H10V14.6667H11.3333V10ZM10 5.33333C9.80222 5.33333 9.60888 5.39198 9.44443 5.50186C9.27998 5.61174 9.15181 5.76792 9.07612 5.95065C9.00043 6.13338 8.98063 6.33444 9.01922 6.52842C9.0578 6.7224 9.15304 6.90059 9.2929 7.04044C9.43275 7.18029 9.61093 7.27553 9.80491 7.31412C9.99889 7.3527 10.2 7.3329 10.3827 7.25721C10.5654 7.18152 10.7216 7.05335 10.8315 6.8889C10.9414 6.72445 11 6.53111 11 6.33333C11 6.06812 10.8946 5.81376 10.7071 5.62623C10.5196 5.43869 10.2652 5.33333 10 5.33333Z" fill="#00A9DF"/>
</svg>
