<svg width="20" height="20" viewBox="0 0 20 20" fill="none" xmlns="http://www.w3.org/2000/svg">
<path d="M14.5766 2.44953C14.4162 2.17225 14.1177 2 13.7976 2H10.452V5.95741H16.6055L14.5766 2.44953Z" fill="#84919A"/>
<path d="M9.51419 2H6.137C5.81625 2 5.51772 2.17256 5.35734 2.45047L3.33594 5.95741H9.51416V2H9.51419Z" fill="#84919A"/>
<path d="M3 6.89531V16.8975C3 17.5055 3.49487 18.0001 4.10291 18.0001H15.831C16.4391 18.0001 16.9339 17.5055 16.9339 16.8975V6.89531H3ZM12.0956 11.1016L9.67028 13.5268C9.57869 13.6184 9.45862 13.6644 9.33859 13.6644C9.21856 13.6644 9.0985 13.6184 9.00722 13.5268L7.87025 12.3902C7.68737 12.2073 7.68737 11.9103 7.87025 11.7271C8.05344 11.5439 8.35044 11.5439 8.53362 11.7271L9.33862 12.5324L11.4325 10.4385C11.6157 10.2553 11.9127 10.2553 12.0956 10.4385C12.2788 10.6217 12.2788 10.9184 12.0956 11.1016Z" fill="#84919A"/>
</svg>
