<svg width="20" height="20" viewBox="0 0 20 20" fill="none" xmlns="http://www.w3.org/2000/svg">
<path fill-rule="evenodd" clip-rule="evenodd" d="M10.1327 12.5202V14.0405C10.1327 14.0836 10.1541 14.1205 10.1913 14.142L11.3812 14.829C11.4596 14.8743 11.557 14.818 11.557 14.7275V12.6974L16.4682 9.86187L18.0164 10.7557C18.1406 10.8274 18.2117 10.9505 18.2117 11.094V16.3139C18.2117 16.4574 18.1406 16.5805 18.0164 16.6522L13.4958 19.2622C13.3716 19.3339 13.2294 19.3339 13.1051 19.2622L8.58452 16.6522C8.4603 16.5805 8.38921 16.4574 8.38921 16.3139V11.5902L9.78409 12.3955C9.89444 12.4592 10.0124 12.5008 10.1327 12.5202ZM10.4872 0.737734C10.363 0.666015 10.2208 0.666015 10.0966 0.737734L5.57596 3.34773C5.45175 3.41945 5.38065 3.54262 5.38065 3.68601V8.90598C5.38065 9.04941 5.45175 9.17254 5.57596 9.24426L10.0966 11.8543C10.2208 11.926 10.363 11.926 10.4872 11.8543L15.0078 9.24426C15.1321 9.17254 15.2032 9.04941 15.2032 8.90598V3.68601C15.2032 3.54258 15.1321 3.41945 15.0078 3.34773L13.4596 2.45391L8.54843 5.28941V7.31957C8.54843 7.41008 8.45104 7.46629 8.37264 7.42105L7.18276 6.73406C7.1455 6.71254 7.12417 6.67562 7.12417 6.63258V4.46711L12.0354 1.6316L10.4872 0.737734ZM4.75565 7.35738L3.53175 8.06402V10.2295C3.53175 10.2725 3.55307 10.3095 3.59034 10.331L4.78022 11.018C4.85858 11.0632 4.956 11.007 4.956 10.9165V9.51379C5.03706 9.62199 5.14073 9.71469 5.26343 9.78551L7.76417 11.2293V14.9492L6.89475 15.4512C6.77053 15.5229 6.62835 15.5229 6.50413 15.4512L1.98358 12.8412C1.85936 12.7695 1.78827 12.6464 1.78827 12.5029V7.28293C1.78827 7.13949 1.85936 7.01637 1.98358 6.94465L4.75565 5.34422V7.35738Z" fill="#84919A"/>
</svg>
