<svg width="20" height="20" viewBox="0 0 20 20" fill="none" xmlns="http://www.w3.org/2000/svg">
<path d="M11.0665 2H9.03325V3.49996C9.03325 3.77633 8.80962 3.99996 8.53326 3.99996C8.25689 3.99996 8.03326 3.77633 8.03326 3.49996V2H5.99997C5.7236 2 5.49997 2.22363 5.49997 2.5V6.99991H11.5665V2.49996C11.5665 2.22363 11.3429 2 11.0665 2Z" fill="#84919A"/>
<path d="M18.0137 5.27652C17.8901 5.02945 17.5894 4.93082 17.3428 5.05289L15.8955 5.77652C15.3843 6.03238 15.0664 6.54651 15.0664 7.11831V14H2C1.4477 14 1 14.4477 1 15C1 15.5523 1.4477 16 2 16H2.0921C2.03606 16.1572 2 16.3239 2 16.5C2 17.3272 2.67286 18 3.49999 18C4.32712 18 4.99995 17.3271 4.99995 16.5C4.99995 16.3239 4.96388 16.1572 4.90785 16H12.1586C12.1026 16.1572 12.0665 16.3239 12.0665 16.5C12.0665 17.3272 12.7393 18 13.5665 18C14.3936 18 15.0664 17.3271 15.0664 16.5C15.0664 16.3239 15.0304 16.1572 14.9743 16H15.0664C15.6187 16 16.0664 15.5523 16.0664 15C16.0664 14.7019 16.0664 14.5869 16.0664 14.5473C16.0664 14.5328 16.0664 14.5284 16.0664 14.5288C16.0664 14.3933 16.0664 13.3715 16.0664 7.11835C16.0664 6.92741 16.1724 6.75605 16.3428 6.67108L17.79 5.94745C18.0371 5.82385 18.1372 5.52355 18.0137 5.27652ZM3.49996 16.9999C3.22409 16.9999 2.99996 16.7758 2.99996 16.4999C2.99996 16.2241 3.22409 15.9999 3.49996 15.9999C3.77582 15.9999 3.99995 16.224 3.99995 16.4999C3.99995 16.7758 3.77582 16.9999 3.49996 16.9999ZM13.5665 16.9999C13.2906 16.9999 13.0665 16.7758 13.0665 16.4999C13.0665 16.2241 13.2906 15.9999 13.5665 15.9999C13.8423 15.9999 14.0665 16.224 14.0665 16.4999C14.0664 16.7758 13.8423 16.9999 13.5665 16.9999Z" fill="#84919A"/>
<path d="M5.99995 7.99998V9.49997C5.99995 9.77634 5.77632 9.99997 5.49996 9.99997C5.22359 9.99997 4.99996 9.77634 4.99996 9.49997V7.99998H3.5C3.22363 7.99998 3 8.22361 3 8.49997V12.9999H8.03324V7.99998H5.99995Z" fill="#84919A"/>
<path d="M13.5666 8.00001H12.0666V9.49997C12.0666 9.77634 11.8429 9.99997 11.5666 9.99997C11.2902 9.99997 11.0666 9.77634 11.0666 9.49997V7.99998H9.03329V12.9999H14.0665V8.49997C14.0665 8.22364 13.8429 8.00001 13.5666 8.00001Z" fill="#84919A"/>
</svg>
