<svg width="18" height="18" viewBox="0 0 18 18" fill="none" xmlns="http://www.w3.org/2000/svg">
<path d="M13 9H5C4.44772 9 4 9.44772 4 10V15C4 15.5523 4.44772 16 5 16H13C13.5523 16 14 15.5523 14 15V10C14 9.44772 13.5523 9 13 9Z" stroke="#252C32" stroke-width="1.2" stroke-linecap="round" stroke-linejoin="round"/>
<path d="M9 3V9M9 9L7 7M9 9L11 7" stroke="#252C32" stroke-width="1.2" stroke-linecap="round" stroke-linejoin="round"/>
<path d="M13 7C14.1046 7 15 6.10457 15 5C15 3.89543 14.1046 3 13 3C11.8954 3 11 3.89543 11 5C11 6.10457 11.8954 7 13 7Z" stroke="#252C32" stroke-width="1.2"/>
<path d="M12 4L13 5L14 4" stroke="#252C32" stroke-width="1.2" stroke-linecap="round" stroke-linejoin="round"/>
</svg>
