<svg width="18" height="18" viewBox="0 0 18 18" fill="none" xmlns="http://www.w3.org/2000/svg">
<path d="M11 3H4C3.44772 3 3 3.44772 3 4V14C3 14.5523 3.44772 15 4 15H11C11.5523 15 12 14.5523 12 14V4C12 3.44772 11.5523 3 11 3Z" stroke="#252C32" stroke-width="1.2" stroke-linecap="round" stroke-linejoin="round"/>
<path d="M5.5 6H9.5M5.5 8.5H9.5M5.5 11H8" stroke="#252C32" stroke-width="1.2" stroke-linecap="round" stroke-linejoin="round"/>
<path d="M15 7C16.1046 7 17 6.10457 17 5C17 3.89543 16.1046 3 15 3C13.8954 3 13 3.89543 13 5C13 6.10457 13.8954 7 15 7Z" stroke="#252C32" stroke-width="1.2"/>
<path d="M15 4.5V5.5" stroke="#252C32" stroke-width="1.2" stroke-linecap="round" stroke-linejoin="round"/>
</svg>
