<svg width="18" height="18" viewBox="0 0 18 18" fill="none" xmlns="http://www.w3.org/2000/svg">
<path d="M10 2H4C3.44772 2 3 2.44772 3 3V12C3 12.5523 3.44772 13 4 13H10C10.5523 13 11 12.5523 11 12V3C11 2.44772 10.5523 2 10 2Z" stroke="#252C32" stroke-width="1.2" stroke-linecap="round" stroke-linejoin="round"/>
<path d="M5 5L6 6L7.5 4.5M5 8L6 9L7.5 7.5" stroke="#252C32" stroke-width="1.2" stroke-linecap="round" stroke-linejoin="round"/>
<path d="M13.5 14C14.8807 14 16 12.8807 16 11.5C16 10.1193 14.8807 9 13.5 9C12.1193 9 11 10.1193 11 11.5C11 12.8807 12.1193 14 13.5 14Z" stroke="#252C32" stroke-width="1.2"/>
<path d="M15.5 13.5L16.5 14.5" stroke="#252C32" stroke-width="1.2" stroke-linecap="round" stroke-linejoin="round"/>
</svg>
