<svg width="18" height="18" viewBox="0 0 18 18" fill="none" xmlns="http://www.w3.org/2000/svg">
<path d="M11.2 7H2.8C2.35817 7 2 7.35817 2 7.8V12.2C2 12.6418 2.35817 13 2.8 13H11.2C11.6418 13 12 12.6418 12 12.2V7.8C12 7.35817 11.6418 7 11.2 7Z" stroke="#252C32" stroke-width="1.2" stroke-linecap="round" stroke-linejoin="round"/>
<path d="M13.5 9C15.1569 9 16.5 7.65685 16.5 6C16.5 4.34315 15.1569 3 13.5 3C11.8431 3 10.5 4.34315 10.5 6C10.5 7.65685 11.8431 9 13.5 9Z" stroke="#252C32" stroke-width="1.2"/>
<path d="M13.5 4.5V6H15" stroke="#252C32" stroke-width="1.2" stroke-linecap="round" stroke-linejoin="round"/>
</svg>
