<svg width="18" height="18" viewBox="0 0 18 18" fill="none" xmlns="http://www.w3.org/2000/svg">
<path d="M6.2 6H2.8C2.35817 6 2 6.35817 2 6.8V10.2C2 10.6418 2.35817 11 2.8 11H6.2C6.64183 11 7 10.6418 7 10.2V6.8C7 6.35817 6.64183 6 6.2 6Z" stroke="#252C32" stroke-width="1.2" stroke-linecap="round" stroke-linejoin="round"/>
<path d="M15.2 5H11.8C11.3582 5 11 5.35817 11 5.8V11.2C11 11.6418 11.3582 12 11.8 12H15.2C15.6418 12 16 11.6418 16 11.2V5.8C16 5.35817 15.6418 5 15.2 5Z" stroke="#252C32" stroke-width="1.2" stroke-linecap="round" stroke-linejoin="round"/>
<path d="M7.5 8.5H10.5M10.5 8.5L9 7M10.5 8.5L9 10" stroke="#252C32" stroke-width="1.2" stroke-linecap="round" stroke-linejoin="round"/>
</svg>
