<svg width="18" height="18" viewBox="0 0 18 18" fill="none" xmlns="http://www.w3.org/2000/svg">
<path d="M5 7V3H13V7" stroke="#252C32" stroke-width="1.2" stroke-linecap="round" stroke-linejoin="round"/>
<path d="M13.2 7H4.8C4.35817 7 4 7.35817 4 7.8V11.2C4 11.6418 4.35817 12 4.8 12H13.2C13.6418 12 14 11.6418 14 11.2V7.8C14 7.35817 13.6418 7 13.2 7Z" stroke="#252C32" stroke-width="1.2" stroke-linecap="round" stroke-linejoin="round"/>
<path d="M5 12H13V15H5V12Z" stroke="#252C32" stroke-width="1.2" stroke-linecap="round" stroke-linejoin="round"/>
<path d="M10.7 13H7.3C7.13431 13 7 13.1343 7 13.3V14.2C7 14.3657 7.13431 14.5 7.3 14.5H10.7C10.8657 14.5 11 14.3657 11 14.2V13.3C11 13.1343 10.8657 13 10.7 13Z" stroke="#252C32" stroke-width="1.2"/>
</svg>
