<svg width="18" height="18" viewBox="0 0 18 18" fill="none" xmlns="http://www.w3.org/2000/svg">
<path d="M7 8C8.10457 8 9 7.10457 9 6C9 4.89543 8.10457 4 7 4C5.89543 4 5 4.89543 5 6C5 7.10457 5.89543 8 7 8Z" stroke="#252C32" stroke-width="1.2"/>
<path d="M7 8C7 8 9.5 10.5 9.5 12C9.5 13 8.5 14 7 14C5.5 14 4.5 13 4.5 12C4.5 10.5 7 8 7 8Z" stroke="#252C32" stroke-width="1.2" stroke-linecap="round" stroke-linejoin="round"/>
<path d="M13 13C14.6569 13 16 11.6569 16 10C16 8.34315 14.6569 7 13 7C11.3431 7 10 8.34315 10 10C10 11.6569 11.3431 13 13 13Z" stroke="#252C32" stroke-width="1.2"/>
<path d="M13 8.5V7.5M13 12.5V11.5M15 10H14M11 10H10" stroke="#252C32" stroke-width="1.2" stroke-linecap="round" stroke-linejoin="round"/>
</svg>
