<svg width="18" height="18" viewBox="0 0 18 18" fill="none" xmlns="http://www.w3.org/2000/svg">
<path d="M13 2H5C4.44772 2 4 2.44772 4 3V15C4 15.5523 4.44772 16 5 16H13C13.5523 16 14 15.5523 14 15V3C14 2.44772 13.5523 2 13 2Z" stroke="#252C32" stroke-width="1.2" stroke-linecap="round" stroke-linejoin="round"/>
<path d="M7 5.5H11M7 8H11" stroke="#252C32" stroke-width="1.2" stroke-linecap="round" stroke-linejoin="round"/>
<path d="M6.5 11.4996C6.5 11.4996 7 10.9996 8 11.4996C9 11.9996 9.5 12.4996 10.5 11.9996C11.5 11.4996 11.5 11.4996 11.5 11.4996" stroke="#252C32" stroke-width="1.2" stroke-linecap="round" stroke-linejoin="round"/>
<path d="M7 13.5H11" stroke="#252C32" stroke-width="1.2" stroke-linecap="round" stroke-linejoin="round"/>
</svg>
