<svg width="18" height="18" viewBox="0 0 18 18" fill="none" xmlns="http://www.w3.org/2000/svg">
<path d="M8 9H3C2.44772 9 2 9.44772 2 10V14C2 14.5523 2.44772 15 3 15H8C8.55228 15 9 14.5523 9 14V10C9 9.44772 8.55228 9 8 9Z" stroke="#252C32" stroke-width="1.2" stroke-linecap="round" stroke-linejoin="round"/>
<path d="M12.5 7C13.6046 7 14.5 6.10457 14.5 5C14.5 3.89543 13.6046 3 12.5 3C11.3954 3 10.5 3.89543 10.5 5C10.5 6.10457 11.3954 7 12.5 7Z" stroke="#252C32" stroke-width="1.2"/>
<path d="M12.5 7C12.5 7 15 9.5 15 11C15 12 14 13 12.5 13C11 13 10 12 10 11C10 9.5 12.5 7 12.5 7Z" stroke="#252C32" stroke-width="1.2" stroke-linecap="round" stroke-linejoin="round"/>
</svg>
