<svg width="18" height="18" viewBox="0 0 18 18" fill="none" xmlns="http://www.w3.org/2000/svg">
<path d="M6.2 6H2.8C2.35817 6 2 6.35817 2 6.8V10.2C2 10.6418 2.35817 11 2.8 11H6.2C6.64183 11 7 10.6418 7 10.2V6.8C7 6.35817 6.64183 6 6.2 6Z" stroke="#252C32" stroke-width="1.2" stroke-linecap="round" stroke-linejoin="round"/>
<path d="M11 7H14V11H11V7Z" stroke="#252C32" stroke-width="1.2" stroke-linecap="round" stroke-linejoin="round"/>
<path d="M14 9H15L16 10V11H14V9Z" stroke="#252C32" stroke-width="1.2" stroke-linecap="round" stroke-linejoin="round"/>
<path d="M7.5 8.5H10.5M10.5 8.5L9 7M10.5 8.5L9 10" stroke="#252C32" stroke-width="1.2" stroke-linecap="round" stroke-linejoin="round"/>
<path d="M12 4.5L13 5.5L14.5 4" stroke="#252C32" stroke-width="1.2" stroke-linecap="round" stroke-linejoin="round"/>
</svg>
