<svg width="18" height="18" viewBox="0 0 18 18" fill="none" xmlns="http://www.w3.org/2000/svg">
<path d="M14 6H4C3.44772 6 3 6.44772 3 7V12C3 12.5523 3.44772 13 4 13H14C14.5523 13 15 12.5523 15 12V7C15 6.44772 14.5523 6 14 6Z" stroke="#252C32" stroke-width="1.2" stroke-linecap="round" stroke-linejoin="round"/>
<path d="M6.5 9L8.5 11L11.5 8" stroke="#252C32" stroke-width="1.2" stroke-linecap="round" stroke-linejoin="round"/>
<path d="M6 14C6.55228 14 7 13.5523 7 13C7 12.4477 6.55228 12 6 12C5.44772 12 5 12.4477 5 13C5 13.5523 5.44772 14 6 14Z" stroke="#252C32" stroke-width="1.2"/>
<path d="M12 14C12.5523 14 13 13.5523 13 13C13 12.4477 12.5523 12 12 12C11.4477 12 11 12.4477 11 13C11 13.5523 11.4477 14 12 14Z" stroke="#252C32" stroke-width="1.2"/>
</svg>
