<svg width="18" height="18" viewBox="0 0 18 18" fill="none" xmlns="http://www.w3.org/2000/svg">
<path d="M6.2 4H2.8C2.35817 4 2 4.35817 2 4.8V9.2C2 9.64183 2.35817 10 2.8 10H6.2C6.64183 10 7 9.64183 7 9.2V4.8C7 4.35817 6.64183 4 6.2 4Z" stroke="#252C32" stroke-width="1.2" stroke-linecap="round" stroke-linejoin="round"/>
<path d="M15.2 8H11.8C11.3582 8 11 8.35817 11 8.8V13.2C11 13.6418 11.3582 14 11.8 14H15.2C15.6418 14 16 13.6418 16 13.2V8.8C16 8.35817 15.6418 8 15.2 8Z" stroke="#252C32" stroke-width="1.2" stroke-linecap="round" stroke-linejoin="round"/>
<path d="M7 7H11M11 7L9.5 5.5M11 7L9.5 8.5" stroke="#252C32" stroke-width="1.2" stroke-linecap="round" stroke-linejoin="round"/>
</svg>
