<svg width="18" height="18" viewBox="0 0 18 18" fill="none" xmlns="http://www.w3.org/2000/svg">
<path d="M11.8 5H15.2C15.6418 5 16 5.35817 16 5.8V9.2C16 9.64183 15.6418 10 15.2 10H11.8C11.3582 10 11 9.64183 11 9.2V5.8C11 5.35817 11.3582 5 11.8 5Z" stroke="#252C32" stroke-width="1.2" stroke-linecap="round" stroke-linejoin="round"/>
<path d="M16 7.5H11M13.5 5V10" stroke="#252C32" stroke-width="1.2" stroke-linecap="round" stroke-linejoin="round"/>
<path d="M3.8 6.5H6.2C6.64183 6.5 7 6.85817 7 7.3V9.7C7 10.1418 6.64183 10.5 6.2 10.5H3.8C3.35817 10.5 3 10.1418 3 9.7V7.3C3 6.85817 3.35817 6.5 3.8 6.5Z" stroke="#252C32" stroke-width="1.2" stroke-linecap="round" stroke-linejoin="round"/>
<path d="M10.5 7.5H7.5M7.5 7.5L9 6M7.5 7.5L9 9" stroke="#252C32" stroke-width="1.2" stroke-linecap="round" stroke-linejoin="round"/>
</svg>
