<svg width="18" height="18" viewBox="0 0 18 18" fill="none" xmlns="http://www.w3.org/2000/svg">
<path d="M6.2 5H2.8C2.35817 5 2 5.35817 2 5.8V9.2C2 9.64183 2.35817 10 2.8 10H6.2C6.64183 10 7 9.64183 7 9.2V5.8C7 5.35817 6.64183 5 6.2 5Z" stroke="#252C32" stroke-width="1.2" stroke-linecap="round" stroke-linejoin="round"/>
<path d="M2 7.5H7M4.5 5V10" stroke="#252C32" stroke-width="1.2" stroke-linecap="round" stroke-linejoin="round"/>
<path d="M14.2 6.5H11.8C11.3582 6.5 11 6.85817 11 7.3V9.7C11 10.1418 11.3582 10.5 11.8 10.5H14.2C14.6418 10.5 15 10.1418 15 9.7V7.3C15 6.85817 14.6418 6.5 14.2 6.5Z" stroke="#252C32" stroke-width="1.2" stroke-linecap="round" stroke-linejoin="round"/>
<path d="M7.5 7.5H10.5M10.5 7.5L9 6M10.5 7.5L9 9" stroke="#252C32" stroke-width="1.2" stroke-linecap="round" stroke-linejoin="round"/>
</svg>
