<svg width="71" height="11" viewBox="0 0 71 11" fill="none" xmlns="http://www.w3.org/2000/svg">
<path d="M-0.000468746 10.2197V0.139726H3.15653C3.24986 0.139726 3.42253 0.14206 3.67453 0.146726C3.9312 0.151393 4.1762 0.170059 4.40953 0.202726C5.1982 0.300726 5.86086 0.583059 6.39753 1.04973C6.93886 1.51639 7.3472 2.10906 7.62253 2.82773C7.89787 3.54173 8.03553 4.32573 8.03553 5.17973C8.03553 6.03839 7.89787 6.82706 7.62253 7.54573C7.3472 8.25973 6.93886 8.85006 6.39753 9.31673C5.86086 9.77873 5.1982 10.0587 4.40953 10.1567C4.1762 10.1894 3.9312 10.2081 3.67453 10.2127C3.42253 10.2174 3.24986 10.2197 3.15653 10.2197H-0.000468746ZM1.49753 8.82673H3.15653C3.3152 8.82673 3.5042 8.82206 3.72353 8.81273C3.94286 8.80339 4.13653 8.78473 4.30453 8.75673C4.81787 8.65873 5.2332 8.43706 5.55053 8.09173C5.87253 7.74173 6.1082 7.31239 6.25753 6.80373C6.40687 6.29506 6.48153 5.75373 6.48153 5.17973C6.48153 4.58706 6.40453 4.03873 6.25053 3.53473C6.09653 3.02606 5.85853 2.60139 5.53653 2.26073C5.2192 1.91539 4.80853 1.69606 4.30453 1.60273C4.13653 1.57006 3.94053 1.55139 3.71653 1.54673C3.4972 1.53739 3.31053 1.53273 3.15653 1.53273H1.49753V8.82673ZM13.0185 10.4297C12.2672 10.4297 11.6069 10.2664 11.0375 9.93973C10.4729 9.60839 10.0319 9.14873 9.71455 8.56073C9.40188 7.96806 9.24555 7.28206 9.24555 6.50273C9.24555 5.67673 9.39955 4.96039 9.70755 4.35373C10.0202 3.74706 10.4542 3.27806 11.0095 2.94673C11.5649 2.61539 12.2112 2.44973 12.9485 2.44973C13.7185 2.44973 14.3742 2.62939 14.9155 2.98873C15.4569 3.34339 15.8605 3.84973 16.1265 4.50773C16.3972 5.16573 16.5045 5.94739 16.4485 6.85273H14.9855V6.32073C14.9762 5.44339 14.8082 4.79473 14.4815 4.37473C14.1595 3.95473 13.6672 3.74473 13.0045 3.74473C12.2719 3.74473 11.7212 3.97573 11.3525 4.43773C10.9839 4.89973 10.7995 5.56706 10.7995 6.43973C10.7995 7.27039 10.9839 7.91439 11.3525 8.37173C11.7212 8.82439 12.2532 9.05073 12.9485 9.05073C13.4059 9.05073 13.8002 8.94806 14.1315 8.74273C14.4675 8.53273 14.7289 8.23406 14.9155 7.84673L16.3505 8.30173C16.0565 8.97839 15.6109 9.50339 15.0135 9.87673C14.4162 10.2454 13.7512 10.4297 13.0185 10.4297ZM10.3235 6.85273V5.71173H15.7205V6.85273H10.3235ZM20.0173 10.4297C19.4573 10.4297 18.9883 10.3271 18.6103 10.1217C18.2323 9.91173 17.9453 9.63639 17.7493 9.29573C17.558 8.95039 17.4623 8.57239 17.4623 8.16173C17.4623 7.77906 17.53 7.44306 17.6653 7.15373C17.8007 6.86439 18.0013 6.61939 18.2673 6.41873C18.5333 6.21339 18.86 6.04773 19.2473 5.92173C19.5833 5.82373 19.9637 5.73739 20.3883 5.66273C20.813 5.58806 21.2587 5.51806 21.7253 5.45273C22.1967 5.38739 22.6633 5.32206 23.1253 5.25673L22.5933 5.55073C22.6027 4.95806 22.4767 4.51939 22.2153 4.23473C21.9587 3.94539 21.5153 3.80073 20.8853 3.80073C20.4887 3.80073 20.1247 3.89406 19.7933 4.08073C19.462 4.26273 19.231 4.56606 19.1003 4.99073L17.7353 4.57073C17.922 3.92206 18.2767 3.40639 18.7993 3.02373C19.3267 2.64106 20.0267 2.44973 20.8993 2.44973C21.576 2.44973 22.164 2.56639 22.6633 2.79973C23.1673 3.02839 23.536 3.39239 23.7693 3.89173C23.8907 4.13906 23.9653 4.40039 23.9933 4.67573C24.0213 4.95106 24.0353 5.24739 24.0353 5.56473V10.2197H22.7403V8.49073L22.9923 8.71473C22.6797 9.29339 22.2807 9.72506 21.7953 10.0097C21.3147 10.2897 20.722 10.4297 20.0173 10.4297ZM20.2763 9.23273C20.6917 9.23273 21.0487 9.16039 21.3473 9.01573C21.646 8.86639 21.8863 8.67739 22.0683 8.44873C22.2503 8.22006 22.3693 7.98206 22.4253 7.73473C22.5047 7.51073 22.549 7.25873 22.5583 6.97873C22.5723 6.69873 22.5793 6.47473 22.5793 6.30673L23.0553 6.48173C22.5933 6.55173 22.1733 6.61473 21.7953 6.67073C21.4173 6.72673 21.0743 6.78273 20.7663 6.83873C20.463 6.89006 20.1923 6.95306 19.9543 7.02773C19.7537 7.09773 19.574 7.18173 19.4153 7.27973C19.2613 7.37773 19.1377 7.49673 19.0443 7.63673C18.9557 7.77673 18.9113 7.94706 18.9113 8.14773C18.9113 8.34373 18.9603 8.52573 19.0583 8.69373C19.1563 8.85706 19.3057 8.98773 19.5063 9.08573C19.707 9.18373 19.9637 9.23273 20.2763 9.23273ZM29.087 10.4297C28.3124 10.4297 27.6544 10.2571 27.113 9.91173C26.5717 9.56639 26.1564 9.09273 25.867 8.49073C25.5824 7.88873 25.4377 7.20506 25.433 6.43973C25.4377 5.66039 25.587 4.97206 25.881 4.37473C26.175 3.77273 26.595 3.30139 27.141 2.96073C27.687 2.62006 28.3427 2.44973 29.108 2.44973C29.934 2.44973 30.6387 2.65506 31.222 3.06573C31.81 3.47639 32.1974 4.03873 32.384 4.75273L30.928 5.17273C30.7834 4.74806 30.5454 4.41906 30.214 4.18573C29.8874 3.94773 29.5117 3.82873 29.087 3.82873C28.6064 3.82873 28.212 3.94306 27.904 4.17173C27.596 4.39573 27.3674 4.70373 27.218 5.09573C27.0687 5.48773 26.9917 5.93573 26.987 6.43973C26.9917 7.21906 27.169 7.84906 27.519 8.32973C27.8737 8.81039 28.3964 9.05073 29.087 9.05073C29.5584 9.05073 29.9387 8.94339 30.228 8.72873C30.522 8.50939 30.746 8.19673 30.9 7.79073L32.384 8.14073C32.1367 8.87806 31.7284 9.44506 31.159 9.84173C30.5897 10.2337 29.899 10.4297 29.087 10.4297ZM38.1361 10.2197C37.6601 10.3131 37.1934 10.3527 36.7361 10.3387C36.2787 10.3247 35.8704 10.2361 35.5111 10.0727C35.1517 9.90939 34.8811 9.65273 34.6991 9.30273C34.5357 8.99006 34.4471 8.67273 34.4331 8.35073C34.4237 8.02406 34.4191 7.65539 34.4191 7.24473V0.559726H35.8891V7.17473C35.8891 7.47806 35.8914 7.74173 35.8961 7.96573C35.9054 8.18973 35.9544 8.37873 36.0431 8.53273C36.2111 8.82206 36.4771 8.98773 36.8411 9.02973C37.2097 9.06706 37.6414 9.05073 38.1361 8.98073V10.2197ZM32.9701 3.83573V2.65973H38.1361V3.83573H32.9701ZM39.87 1.42073V-0.000273705H41.333V1.42073H39.87ZM39.87 10.2197V2.65973H41.333V10.2197H39.87ZM45.4791 10.2197L42.7351 2.65973H44.2121L46.2211 8.38573L48.2301 2.65973H49.7071L46.9631 10.2197H45.4791ZM52.6795 10.4297C52.1195 10.4297 51.6505 10.3271 51.2725 10.1217C50.8945 9.91173 50.6075 9.63639 50.4115 9.29573C50.2201 8.95039 50.1245 8.57239 50.1245 8.16173C50.1245 7.77906 50.1921 7.44306 50.3275 7.15373C50.4628 6.86439 50.6635 6.61939 50.9295 6.41873C51.1955 6.21339 51.5221 6.04773 51.9095 5.92173C52.2455 5.82373 52.6258 5.73739 53.0505 5.66273C53.4751 5.58806 53.9208 5.51806 54.3875 5.45273C54.8588 5.38739 55.3255 5.32206 55.7875 5.25673L55.2555 5.55073C55.2648 4.95806 55.1388 4.51939 54.8775 4.23473C54.6208 3.94539 54.1775 3.80073 53.5475 3.80073C53.1508 3.80073 52.7868 3.89406 52.4555 4.08073C52.1241 4.26273 51.8931 4.56606 51.7625 4.99073L50.3975 4.57073C50.5841 3.92206 50.9388 3.40639 51.4615 3.02373C51.9888 2.64106 52.6888 2.44973 53.5615 2.44973C54.2381 2.44973 54.8261 2.56639 55.3255 2.79973C55.8295 3.02839 56.1981 3.39239 56.4315 3.89173C56.5528 4.13906 56.6275 4.40039 56.6555 4.67573C56.6835 4.95106 56.6975 5.24739 56.6975 5.56473V10.2197H55.4025V8.49073L55.6545 8.71473C55.3418 9.29339 54.9428 9.72506 54.4575 10.0097C53.9768 10.2897 53.3841 10.4297 52.6795 10.4297ZM52.9385 9.23273C53.3538 9.23273 53.7108 9.16039 54.0095 9.01573C54.3081 8.86639 54.5485 8.67739 54.7305 8.44873C54.9125 8.22006 55.0315 7.98206 55.0875 7.73473C55.1668 7.51073 55.2111 7.25873 55.2205 6.97873C55.2345 6.69873 55.2415 6.47473 55.2415 6.30673L55.7175 6.48173C55.2555 6.55173 54.8355 6.61473 54.4575 6.67073C54.0795 6.72673 53.7365 6.78273 53.4285 6.83873C53.1251 6.89006 52.8545 6.95306 52.6165 7.02773C52.4158 7.09773 52.2361 7.18173 52.0775 7.27973C51.9235 7.37773 51.7998 7.49673 51.7065 7.63673C51.6178 7.77673 51.5735 7.94706 51.5735 8.14773C51.5735 8.34373 51.6225 8.52573 51.7205 8.69373C51.8185 8.85706 51.9678 8.98773 52.1685 9.08573C52.3691 9.18373 52.6258 9.23273 52.9385 9.23273ZM62.8412 10.2197C62.3652 10.3131 61.8985 10.3527 61.4412 10.3387C60.9838 10.3247 60.5755 10.2361 60.2162 10.0727C59.8568 9.90939 59.5862 9.65273 59.4042 9.30273C59.2408 8.99006 59.1522 8.67273 59.1382 8.35073C59.1288 8.02406 59.1242 7.65539 59.1242 7.24473V0.559726H60.5942V7.17473C60.5942 7.47806 60.5965 7.74173 60.6012 7.96573C60.6105 8.18973 60.6595 8.37873 60.7482 8.53273C60.9162 8.82206 61.1822 8.98773 61.5462 9.02973C61.9148 9.06706 62.3465 9.05073 62.8412 8.98073V10.2197ZM57.6752 3.83573V2.65973H62.8412V3.83573H57.6752ZM67.4463 10.4297C66.6949 10.4297 66.0346 10.2664 65.4653 9.93973C64.9006 9.60839 64.4596 9.14873 64.1423 8.56073C63.8296 7.96806 63.6733 7.28206 63.6733 6.50273C63.6733 5.67673 63.8273 4.96039 64.1353 4.35373C64.4479 3.74706 64.8819 3.27806 65.4373 2.94673C65.9926 2.61539 66.6389 2.44973 67.3763 2.44973C68.1463 2.44973 68.8019 2.62939 69.3433 2.98873C69.8846 3.34339 70.2883 3.84973 70.5543 4.50773C70.8249 5.16573 70.9323 5.94739 70.8763 6.85273H69.4133V6.32073C69.4039 5.44339 69.2359 4.79473 68.9093 4.37473C68.5873 3.95473 68.0949 3.74473 67.4323 3.74473C66.6996 3.74473 66.1489 3.97573 65.7803 4.43773C65.4116 4.89973 65.2273 5.56706 65.2273 6.43973C65.2273 7.27039 65.4116 7.91439 65.7803 8.37173C66.1489 8.82439 66.6809 9.05073 67.3763 9.05073C67.8336 9.05073 68.2279 8.94806 68.5593 8.74273C68.8953 8.53273 69.1566 8.23406 69.3433 7.84673L70.7783 8.30173C70.4843 8.97839 70.0386 9.50339 69.4413 9.87673C68.8439 10.2454 68.1789 10.4297 67.4463 10.4297ZM64.7513 6.85273V5.71173H70.1483V6.85273H64.7513Z" fill="#252C32"/>
</svg>
