<svg width="18" height="18" viewBox="0 0 18 18" fill="none" xmlns="http://www.w3.org/2000/svg">
<path d="M9 3L13 9L9 15L5 9L9 3Z" stroke="#252C32" stroke-width="1.2" stroke-linecap="round" stroke-linejoin="round"/>
<path d="M9 6V9" stroke="#252C32" stroke-width="1.2" stroke-linecap="round" stroke-linejoin="round"/>
<path d="M8.99961 11.3996C9.22052 11.3996 9.39961 11.2205 9.39961 10.9996C9.39961 10.7787 9.22052 10.5996 8.99961 10.5996C8.7787 10.5996 8.59961 10.7787 8.59961 10.9996C8.59961 11.2205 8.7787 11.3996 8.99961 11.3996Z" fill="#252C32"/>
<path d="M9 15.5C12.5899 15.5 15.5 12.5899 15.5 9C15.5 5.41015 12.5899 2.5 9 2.5C5.41015 2.5 2.5 5.41015 2.5 9C2.5 12.5899 5.41015 15.5 9 15.5Z" stroke="#252C32" stroke-width="1.2" stroke-linecap="round" stroke-linejoin="round"/>
<path d="M6 6L12 12" stroke="#252C32" stroke-width="1.2" stroke-linecap="round" stroke-linejoin="round"/>
</svg>
