<svg width="18" height="18" viewBox="0 0 18 18" fill="none" xmlns="http://www.w3.org/2000/svg">
<path d="M8 9H3C2.44772 9 2 9.44772 2 10V15C2 15.5523 2.44772 16 3 16H8C8.55228 16 9 15.5523 9 15V10C9 9.44772 8.55228 9 8 9Z" stroke="#252C32" stroke-width="1.2" stroke-linecap="round" stroke-linejoin="round"/>
<path d="M12 7C13.1046 7 14 6.10457 14 5C14 3.89543 13.1046 3 12 3C10.8954 3 10 3.89543 10 5C10 6.10457 10.8954 7 12 7Z" stroke="#252C32" stroke-width="1.2" stroke-linecap="round" stroke-linejoin="round"/>
<path d="M12 7C12 7 14.5 9.5 14.5 11C14.5 12 13.5 13 12 13C10.5 13 9.5 12 9.5 11C9.5 9.5 12 7 12 7Z" stroke="#252C32" stroke-width="1.2" stroke-linecap="round" stroke-linejoin="round"/>
</svg>
