<svg width="18" height="18" viewBox="0 0 18 18" fill="none" xmlns="http://www.w3.org/2000/svg">
<path d="M10.125 7.5H7.875C7.66789 7.5 7.5 7.66789 7.5 7.875V10.125C7.5 10.3321 7.66789 10.5 7.875 10.5H10.125C10.3321 10.5 10.5 10.3321 10.5 10.125V7.875C10.5 7.66789 10.3321 7.5 10.125 7.5Z" stroke="#252C32" stroke-width="1.2" stroke-linecap="round" stroke-linejoin="round"/>
<path d="M14 9C14 11.8 11.8 14 9 14C6.2 14 4 11.8 4 9C4 6.2 6.2 4 9 4C10.5 4 11.8 4.7 12.6 5.8" stroke="#252C32" stroke-width="1.2" stroke-linecap="round" stroke-linejoin="round"/>
<path d="M12.9992 4V5.8H11.1992" stroke="#252C32" stroke-width="1.2" stroke-linecap="round" stroke-linejoin="round"/>
</svg>
