<svg width="18" height="18" viewBox="0 0 18 18" fill="none" xmlns="http://www.w3.org/2000/svg">
<path d="M13 3H5C4.44772 3 4 3.44772 4 4V14C4 14.5523 4.44772 15 5 15H13C13.5523 15 14 14.5523 14 14V4C14 3.44772 13.5523 3 13 3Z" stroke="#252C32" stroke-width="1.2" stroke-linecap="round" stroke-linejoin="round"/>
<path d="M10.6 2H7.4C7.17909 2 7 2.17909 7 2.4V3.1C7 3.32091 7.17909 3.5 7.4 3.5H10.6C10.8209 3.5 11 3.32091 11 3.1V2.4C11 2.17909 10.8209 2 10.6 2Z" stroke="#252C32" stroke-width="1.2"/>
<path d="M11 7H7C6.72386 7 6.5 7.22386 6.5 7.5V9.5C6.5 9.77614 6.72386 10 7 10H11C11.2761 10 11.5 9.77614 11.5 9.5V7.5C11.5 7.22386 11.2761 7 11 7Z" stroke="#252C32" stroke-width="1.2"/>
</svg>
