<svg width="18" height="18" viewBox="0 0 18 18" fill="none" xmlns="http://www.w3.org/2000/svg">
<path d="M4 5H14M4 9H14M4 13H14" stroke="#252C32" stroke-width="1.2" stroke-linecap="round" stroke-linejoin="round"/>
<path d="M6.9998 6.1998C7.66255 6.1998 8.1998 5.66255 8.1998 4.9998C8.1998 4.33706 7.66255 3.7998 6.9998 3.7998C6.33706 3.7998 5.7998 4.33706 5.7998 4.9998C5.7998 5.66255 6.33706 6.1998 6.9998 6.1998Z" stroke="#252C32" stroke-width="1.2"/>
<path d="M10.9998 10.1998C11.6625 10.1998 12.1998 9.66255 12.1998 8.9998C12.1998 8.33706 11.6625 7.7998 10.9998 7.7998C10.3371 7.7998 9.7998 8.33706 9.7998 8.9998C9.7998 9.66255 10.3371 10.1998 10.9998 10.1998Z" stroke="#252C32" stroke-width="1.2"/>
<path d="M7.9998 14.1998C8.66255 14.1998 9.1998 13.6625 9.1998 12.9998C9.1998 12.3371 8.66255 11.7998 7.9998 11.7998C7.33706 11.7998 6.7998 12.3371 6.7998 12.9998C6.7998 13.6625 7.33706 14.1998 7.9998 14.1998Z" stroke="#252C32" stroke-width="1.2"/>
</svg>
