<svg width="18" height="18" viewBox="0 0 18 18" fill="none" xmlns="http://www.w3.org/2000/svg">
<path d="M10 3H4C3.44772 3 3 3.44772 3 4V12C3 12.5523 3.44772 13 4 13H10C10.5523 13 11 12.5523 11 12V4C11 3.44772 10.5523 3 10 3Z" stroke="#252C32" stroke-width="1.2" stroke-linecap="round" stroke-linejoin="round"/>
<path d="M7 3V13" stroke="#252C32" stroke-width="1.2" stroke-linecap="round" stroke-linejoin="round"/>
<path d="M14 12.5C15.3807 12.5 16.5 11.3807 16.5 10C16.5 8.61929 15.3807 7.5 14 7.5C12.6193 7.5 11.5 8.61929 11.5 10C11.5 11.3807 12.6193 12.5 14 12.5Z" stroke="#252C32" stroke-width="1.2"/>
<path d="M16 12L17 13" stroke="#252C32" stroke-width="1.2" stroke-linecap="round" stroke-linejoin="round"/>
</svg>
