<svg width="18" height="18" viewBox="0 0 18 18" fill="none" xmlns="http://www.w3.org/2000/svg">
<path d="M9 3H3C2.44772 3 2 3.44772 2 4V10C2 10.5523 2.44772 11 3 11H9C9.55228 11 10 10.5523 10 10V4C10 3.44772 9.55228 3 9 3Z" stroke="#252C32" stroke-width="1.2" stroke-linecap="round" stroke-linejoin="round"/>
<path d="M12.5 12.5C14.1569 12.5 15.5 11.1569 15.5 9.5C15.5 7.84315 14.1569 6.5 12.5 6.5C10.8431 6.5 9.5 7.84315 9.5 9.5C9.5 11.1569 10.8431 12.5 12.5 12.5Z" stroke="#252C32" stroke-width="1.2" stroke-linecap="round" stroke-linejoin="round"/>
<path d="M14.5 11.5L16 13" stroke="#252C32" stroke-width="1.2" stroke-linecap="round" stroke-linejoin="round"/>
</svg>
