<svg width="18" height="18" viewBox="0 0 18 18" fill="none" xmlns="http://www.w3.org/2000/svg">
<path d="M14 3H4C3.44772 3 3 3.44772 3 4V14C3 14.5523 3.44772 15 4 15H14C14.5523 15 15 14.5523 15 14V4C15 3.44772 14.5523 3 14 3Z" stroke="#252C32" stroke-width="1.2" stroke-linecap="round" stroke-linejoin="round"/>
<path d="M3 9H15M9 3V15" stroke="#252C32" stroke-width="1.2" stroke-linecap="round" stroke-linejoin="round"/>
<path d="M7.2 5.5H5.8C5.63431 5.5 5.5 5.63431 5.5 5.8V7.2C5.5 7.36569 5.63431 7.5 5.8 7.5H7.2C7.36569 7.5 7.5 7.36569 7.5 7.2V5.8C7.5 5.63431 7.36569 5.5 7.2 5.5Z" stroke="#252C32" stroke-width="1.2"/>
<path d="M12.2 10.5H10.8C10.6343 10.5 10.5 10.6343 10.5 10.8V12.2C10.5 12.3657 10.6343 12.5 10.8 12.5H12.2C12.3657 12.5 12.5 12.3657 12.5 12.2V10.8C12.5 10.6343 12.3657 10.5 12.2 10.5Z" stroke="#252C32" stroke-width="1.2"/>
</svg>
