<svg width="18" height="18" viewBox="0 0 18 18" fill="none" xmlns="http://www.w3.org/2000/svg">
<path d="M9 3H3C2.44772 3 2 3.44772 2 4V10C2 10.5523 2.44772 11 3 11H9C9.55228 11 10 10.5523 10 10V4C10 3.44772 9.55228 3 9 3Z" stroke="#252C32" stroke-width="1.2" stroke-linecap="round" stroke-linejoin="round"/>
<path d="M2 7H10M6 3V11" stroke="#252C32" stroke-width="1.2" stroke-linecap="round" stroke-linejoin="round"/>
<path d="M12.5 14C13.8807 14 15 12.8807 15 11.5C15 10.1193 13.8807 9 12.5 9C11.1193 9 10 10.1193 10 11.5C10 12.8807 11.1193 14 12.5 14Z" stroke="#252C32" stroke-width="1.2"/>
<path d="M14 13L16 15" stroke="#252C32" stroke-width="1.2" stroke-linecap="round" stroke-linejoin="round"/>
</svg>
