<svg width="18" height="18" viewBox="0 0 18 18" fill="none" xmlns="http://www.w3.org/2000/svg">
<path d="M13 2H5C4.44772 2 4 2.44772 4 3V15C4 15.5523 4.44772 16 5 16H13C13.5523 16 14 15.5523 14 15V3C14 2.44772 13.5523 2 13 2Z" stroke="#252C32" stroke-width="1.2" stroke-linecap="round" stroke-linejoin="round"/>
<path d="M7 6H11M7 9H11" stroke="#252C32" stroke-width="1.2" stroke-linecap="round" stroke-linejoin="round"/>
<path d="M8.2 11H6.8C6.63431 11 6.5 11.1343 6.5 11.3V12.7C6.5 12.8657 6.63431 13 6.8 13H8.2C8.36569 13 8.5 12.8657 8.5 12.7V11.3C8.5 11.1343 8.36569 11 8.2 11Z" stroke="#252C32" stroke-width="1.2"/>
<path d="M11.2 11H9.8C9.63431 11 9.5 11.1343 9.5 11.3V12.7C9.5 12.8657 9.63431 13 9.8 13H11.2C11.3657 13 11.5 12.8657 11.5 12.7V11.3C11.5 11.1343 11.3657 11 11.2 11Z" stroke="#252C32" stroke-width="1.2"/>
</svg>
