<svg width="18" height="18" viewBox="0 0 18 18" fill="none" xmlns="http://www.w3.org/2000/svg">
<path d="M7.5 4H13.5V10L10 13.5L4 7.5L7.5 4Z" stroke="#252C32" stroke-width="1.2" stroke-linecap="round" stroke-linejoin="round"/>
<path d="M11.0004 7.10039C11.3318 7.10039 11.6004 6.83176 11.6004 6.50039C11.6004 6.16902 11.3318 5.90039 11.0004 5.90039C10.669 5.90039 10.4004 6.16902 10.4004 6.50039C10.4004 6.83176 10.669 7.10039 11.0004 7.10039Z" fill="#252C32"/>
<path d="M9 10C9.82843 10 10.5 9.32843 10.5 8.5C10.5 7.67157 9.82843 7 9 7C8.17157 7 7.5 7.67157 7.5 8.5C7.5 9.32843 8.17157 10 9 10Z" stroke="#252C32" stroke-width="1.2"/>
</svg>
