<svg width="18" height="18" viewBox="0 0 18 18" fill="none" xmlns="http://www.w3.org/2000/svg">
<path d="M13 3H5C4.44772 3 4 3.44772 4 4V14C4 14.5523 4.44772 15 5 15H13C13.5523 15 14 14.5523 14 14V4C14 3.44772 13.5523 3 13 3Z" stroke="#252C32" stroke-width="1.2" stroke-linecap="round" stroke-linejoin="round"/>
<path d="M11.5 5H6.5C6.22386 5 6 5.22386 6 5.5V7C6 7.27614 6.22386 7.5 6.5 7.5H11.5C11.7761 7.5 12 7.27614 12 7V5.5C12 5.22386 11.7761 5 11.5 5Z" stroke="#252C32" stroke-width="1.2"/>
<path d="M6.5 10H7.5M9.5 10H10.5M6.5 12H7.5M9.5 12H10.5" stroke="#252C32" stroke-width="1.2" stroke-linecap="round" stroke-linejoin="round"/>
</svg>
