<svg width="18" height="18" viewBox="0 0 18 18" fill="none" xmlns="http://www.w3.org/2000/svg">
<path d="M14.2 12H3.8C3.35817 12 3 12.3582 3 12.8V13.7C3 14.1418 3.35817 14.5 3.8 14.5H14.2C14.6418 14.5 15 14.1418 15 13.7V12.8C15 12.3582 14.6418 12 14.2 12Z" stroke="#252C32" stroke-width="1.2" stroke-linecap="round" stroke-linejoin="round"/>
<path d="M6 12L5 5H13L12 12" stroke="#252C32" stroke-width="1.2" stroke-linecap="round" stroke-linejoin="round"/>
<path d="M9 5V3.5" stroke="#252C32" stroke-width="1.2" stroke-linecap="round" stroke-linejoin="round"/>
<path d="M9 10C9.82843 10 10.5 9.32843 10.5 8.5C10.5 7.67157 9.82843 7 9 7C8.17157 7 7.5 7.67157 7.5 8.5C7.5 9.32843 8.17157 10 9 10Z" stroke="#252C32" stroke-width="1.2"/>
</svg>
