<svg width="18" height="18" viewBox="0 0 18 18" fill="none" xmlns="http://www.w3.org/2000/svg">
<path d="M9 5H3C2.44772 5 2 5.44772 2 6V12C2 12.5523 2.44772 13 3 13H9C9.55228 13 10 12.5523 10 12V6C10 5.44772 9.55228 5 9 5Z" stroke="#252C32" stroke-width="1.2" stroke-linecap="round" stroke-linejoin="round"/>
<path d="M11 4L13 6L12 7L10 5L11 4Z" stroke="#252C32" stroke-width="1.2" stroke-linecap="round" stroke-linejoin="round"/>
<path d="M12 7C12 7 13 8 14 9C15 10 16 11 16 12.5C16 13.3 15.3 14 14.5 14C13 14 12 13 11 12C10 11 10 11 10 11" stroke="#252C32" stroke-width="1.2" stroke-linecap="round" stroke-linejoin="round"/>
</svg>
