<svg width="18" height="18" viewBox="0 0 18 18" fill="none" xmlns="http://www.w3.org/2000/svg">
<path d="M4.5 7H10.5V12H4.5V7Z" stroke="#252C32" stroke-width="1.2" stroke-linecap="round" stroke-linejoin="round"/>
<path d="M10.5 9H13L14.5 11V12H10.5V9Z" stroke="#252C32" stroke-width="1.2" stroke-linecap="round" stroke-linejoin="round"/>
<path d="M7 13C7.55228 13 8 12.5523 8 12C8 11.4477 7.55228 11 7 11C6.44772 11 6 11.4477 6 12C6 12.5523 6.44772 13 7 13Z" stroke="#252C32" stroke-width="1.2"/>
<path d="M12.5 13C13.0523 13 13.5 12.5523 13.5 12C13.5 11.4477 13.0523 11 12.5 11C11.9477 11 11.5 11.4477 11.5 12C11.5 12.5523 11.9477 13 12.5 13Z" stroke="#252C32" stroke-width="1.2"/>
<path d="M12 6L13 7L14 6" stroke="#252C32" stroke-width="1.2" stroke-linecap="round" stroke-linejoin="round"/>
</svg>
