<svg width="18" height="18" viewBox="0 0 18 18" fill="none" xmlns="http://www.w3.org/2000/svg">
<path d="M9 6H4C3.44772 6 3 6.44772 3 7V12C3 12.5523 3.44772 13 4 13H9C9.55228 13 10 12.5523 10 12V7C10 6.44772 9.55228 6 9 6Z" stroke="#252C32" stroke-width="1.2" stroke-linecap="round" stroke-linejoin="round"/>
<path d="M13 10C14.6569 10 16 8.65685 16 7C16 5.34315 14.6569 4 13 4C11.3431 4 10 5.34315 10 7C10 8.65685 11.3431 10 13 10Z" stroke="#252C32" stroke-width="1.2" stroke-linecap="round" stroke-linejoin="round"/>
<path d="M13 5.5V7H14.5" stroke="#252C32" stroke-width="1.2" stroke-linecap="round" stroke-linejoin="round"/>
</svg>
