<svg width="18" height="18" viewBox="0 0 18 18" fill="none" xmlns="http://www.w3.org/2000/svg">
<path d="M14 4H4C3.44772 4 3 4.44772 3 5V13C3 13.5523 3.44772 14 4 14H14C14.5523 14 15 13.5523 15 13V5C15 4.44772 14.5523 4 14 4Z" stroke="#252C32" stroke-width="1.2" stroke-linecap="round" stroke-linejoin="round"/>
<path d="M6.9998 8.6998C7.66255 8.6998 8.1998 8.16255 8.1998 7.4998C8.1998 6.83706 7.66255 6.2998 6.9998 6.2998C6.33706 6.2998 5.7998 6.83706 5.7998 7.4998C5.7998 8.16255 6.33706 8.6998 6.9998 8.6998Z" stroke="#252C32" stroke-width="1.2"/>
<path d="M15 11L12 8L9 11L6 8L3 11" stroke="#252C32" stroke-width="1.2" stroke-linecap="round" stroke-linejoin="round"/>
</svg>
