<svg width="18" height="18" viewBox="0 0 18 18" fill="none" xmlns="http://www.w3.org/2000/svg">
<path d="M7.2 9H3.8C3.35817 9 3 9.35817 3 9.8V13.2C3 13.6418 3.35817 14 3.8 14H7.2C7.64183 14 8 13.6418 8 13.2V9.8C8 9.35817 7.64183 9 7.2 9Z" stroke="#252C32" stroke-width="1.2" stroke-linecap="round" stroke-linejoin="round"/>
<path d="M14.2 4H10.8C10.3582 4 10 4.35817 10 4.8V8.2C10 8.64183 10.3582 9 10.8 9H14.2C14.6418 9 15 8.64183 15 8.2V4.8C15 4.35817 14.6418 4 14.2 4Z" stroke="#252C32" stroke-width="1.2" stroke-linecap="round" stroke-linejoin="round"/>
<path d="M8 10.5L10 8.5M7 12L8.5 10.5M9.5 7.5L11 6" stroke="#252C32" stroke-width="1.2" stroke-linecap="round" stroke-linejoin="round"/>
</svg>
