<svg width="40" height="50" viewBox="0 0 40 50" fill="none" xmlns="http://www.w3.org/2000/svg">
<path d="M33.3281 50H6.67188C4.90239 50 3.20538 49.2971 1.95416 48.0458C0.702937 46.7946 9.98897e-06 45.0976 9.98897e-06 43.3281V13.125C-0.00188546 11.9023 0.265994 10.6942 0.78455 9.58683C1.30311 8.4795 2.05957 7.5002 3.00001 6.71875L8.75001 1.9375C10.2461 0.690726 12.1306 0.00545755 14.0781 0L33.3281 0C35.0976 0 36.7946 0.702928 38.0459 1.95415C39.2971 3.20537 40 4.90238 40 6.67187V43.3281C40 45.0976 39.2971 46.7946 38.0459 48.0458C36.7946 49.2971 35.0976 50 33.3281 50ZM14.0781 3.32812C12.9351 3.34616 11.8326 3.7541 10.9531 4.48437L5.12501 9.28125C4.56115 9.75028 4.10775 10.338 3.79715 11.0024C3.48655 11.6668 3.3264 12.3916 3.32813 13.125V43.3281C3.33224 44.2095 3.6842 45.0537 4.30746 45.6769C4.93072 46.3002 5.77485 46.6521 6.65626 46.6562H33.3281C34.2095 46.6521 35.0537 46.3002 35.6769 45.6769C36.3002 45.0537 36.6521 44.2095 36.6563 43.3281V6.67187C36.6521 5.79047 36.3002 4.94633 35.6769 4.32307C35.0537 3.69982 34.2095 3.34786 33.3281 3.34375L14.0781 3.32812Z" fill="#B0B7C1"/>
<rect x="10.625" y="29.5" width="18.75" height="1.5" rx="0.75" fill="#B0B7C1"/>
<rect x="7.5" y="34" width="25" height="1.5" rx="0.75" fill="#B0B7C1"/>
<rect x="4.375" y="38.5" width="31.25" height="1.5" rx="0.75" fill="#B0B7C1"/>
<path d="M19.4585 21C16.7823 21 14.3526 21.9308 13.2643 23.3818C13.2057 23.4436 13.1642 23.5145 13.1425 23.5901C13.1207 23.6656 13.1193 23.744 13.1382 23.82C13.1571 23.896 13.196 23.9679 13.2523 24.031C13.3086 24.0941 13.381 24.1469 13.4647 24.186C13.5484 24.225 13.6415 24.2494 13.7378 24.2575C13.8342 24.2656 13.9316 24.2573 14.0236 24.233C14.1156 24.2087 14.2002 24.1691 14.2716 24.1168C14.3431 24.0645 14.3998 24.0006 14.4381 23.9294C15.2834 22.8096 17.2546 22.0869 19.4585 22.0869C21.5357 22.0869 23.459 22.7549 24.359 23.787C24.408 23.8502 24.4725 23.9046 24.5487 23.9472C24.6248 23.9897 24.711 24.0194 24.8019 24.0345C24.8929 24.0495 24.9867 24.0496 25.0777 24.0347C25.1687 24.0198 25.255 23.9903 25.3312 23.9479C25.4075 23.9055 25.4722 23.8511 25.5213 23.788C25.5705 23.725 25.6031 23.6546 25.6171 23.5812C25.6312 23.5077 25.6264 23.4328 25.6031 23.3608C25.5798 23.2889 25.5384 23.2215 25.4815 23.1628C24.318 21.8323 22.008 21 19.4585 21Z" fill="#B0B7C1"/>
<path d="M16.3398 16.3602C16.4163 16.4257 16.5148 16.46 16.6154 16.4561C16.7161 16.4522 16.8116 16.4104 16.8828 16.3392C16.9541 16.268 16.9958 16.1725 16.9997 16.0718C17.0036 15.9711 16.9693 15.8727 16.9038 15.7962L15.5878 14.4782L16.9038 13.1602C16.9693 13.0837 17.0036 12.9852 16.9997 12.8846C16.9958 12.7839 16.9541 12.6884 16.8828 12.6172C16.8116 12.5459 16.7161 12.5042 16.6154 12.5003C16.5148 12.4964 16.4163 12.5307 16.3398 12.5962L15.0218 13.9122L13.7038 12.5962C13.6273 12.5307 13.5289 12.4964 13.4282 12.5003C13.3275 12.5042 13.232 12.5459 13.1608 12.6172C13.0896 12.6884 13.0478 12.7839 13.0439 12.8846C13.04 12.9852 13.0743 13.0837 13.1398 13.1602L14.4558 14.4782L13.1398 15.7962C13.0979 15.832 13.0639 15.8762 13.0399 15.9258C13.0159 15.9754 13.0024 16.0295 13.0003 16.0846C12.9982 16.1396 13.0075 16.1946 13.0276 16.2459C13.0477 16.2972 13.0782 16.3439 13.1172 16.3828C13.1561 16.4218 13.2028 16.4523 13.2541 16.4724C13.3054 16.4925 13.3604 16.5018 13.4154 16.4997C13.4705 16.4976 13.5246 16.4841 13.5742 16.4601C13.6238 16.4361 13.668 16.4021 13.7038 16.3602L15.0218 15.0442L16.3398 16.3602Z" fill="#B0B7C1"/>
<path d="M26.3843 12.6924C26.3097 12.6183 26.2088 12.5767 26.1037 12.5767C25.9985 12.5767 25.8977 12.6183 25.8231 12.6924L24.5117 14.0018L23.2003 12.6924C23.1242 12.6272 23.0262 12.5931 22.9261 12.597C22.8259 12.6009 22.7309 12.6424 22.66 12.7133C22.5891 12.7841 22.5476 12.8792 22.5437 12.9793C22.5398 13.0795 22.5739 13.1774 22.6391 13.2536L23.9485 14.565L22.6391 15.8764C22.5975 15.912 22.5636 15.956 22.5397 16.0053C22.5158 16.0547 22.5024 16.1085 22.5003 16.1633C22.4982 16.2181 22.5074 16.2728 22.5274 16.3238C22.5474 16.3749 22.5778 16.4213 22.6166 16.4601C22.6554 16.4989 22.7017 16.5292 22.7528 16.5492C22.8039 16.5692 22.8585 16.5785 22.9134 16.5764C22.9682 16.5742 23.022 16.5608 23.0713 16.5369C23.1207 16.513 23.1646 16.4792 23.2003 16.4375L24.5117 15.1281L25.8231 16.4375C25.8992 16.5027 25.9972 16.5368 26.0973 16.5329C26.1975 16.5291 26.2925 16.4876 26.3634 16.4167C26.4343 16.3458 26.4758 16.2508 26.4797 16.1506C26.4835 16.0504 26.4495 15.9525 26.3843 15.8764L25.0749 14.565L26.3843 13.2536C26.4584 13.179 26.5 13.0781 26.5 12.973C26.5 12.8678 26.4584 12.767 26.3843 12.6924Z" fill="#B0B7C1"/>
</svg>
