<svg width="18" height="18" viewBox="0 0 18 18" fill="none" xmlns="http://www.w3.org/2000/svg">
<path d="M10 9H16M16 9L13.5 6.5M16 9L13.5 11.5" stroke="#252C32" stroke-linecap="round" stroke-linejoin="round"/>
<path d="M0.75 7.90039H5.75V11.9004H0.75V7.90039Z" stroke="#252C32" stroke-width="0.8" stroke-linecap="round" stroke-linejoin="round"/>
<path d="M5.75 9.40039H7.75L8.75 10.9004V11.9004H5.75V9.40039Z" stroke="#252C32" stroke-width="0.8" stroke-linecap="round" stroke-linejoin="round"/>
<path d="M2.75 12.9004C3.30228 12.9004 3.75 12.4527 3.75 11.9004C3.75 11.3481 3.30228 10.9004 2.75 10.9004C2.19772 10.9004 1.75 11.3481 1.75 11.9004C1.75 12.4527 2.19772 12.9004 2.75 12.9004Z" stroke="#252C32" stroke-width="0.8"/>
<path d="M7.25 12.9004C7.80228 12.9004 8.25 12.4527 8.25 11.9004C8.25 11.3481 7.80228 10.9004 7.25 10.9004C6.69772 10.9004 6.25 11.3481 6.25 11.9004C6.25 12.4527 6.69772 12.9004 7.25 12.9004Z" stroke="#252C32" stroke-width="0.8"/>
</svg>
