<svg width="18" height="18" viewBox="0 0 18 18" fill="none" xmlns="http://www.w3.org/2000/svg">
<path d="M2 7H7V11H2V7Z" stroke="#252C32" stroke-width="0.8" stroke-linecap="round" stroke-linejoin="round"/>
<path d="M7 8.5H9L10 10V11H7V8.5Z" stroke="#252C32" stroke-width="0.8" stroke-linecap="round" stroke-linejoin="round"/>
<path d="M4 12C4.55228 12 5 11.5523 5 11C5 10.4477 4.55228 10 4 10C3.44772 10 3 10.4477 3 11C3 11.5523 3.44772 12 4 12Z" stroke="#252C32" stroke-width="0.8"/>
<path d="M8.5 12C9.05228 12 9.5 11.5523 9.5 11C9.5 10.4477 9.05228 10 8.5 10C7.94772 10 7.5 10.4477 7.5 11C7.5 11.5523 7.94772 12 8.5 12Z" stroke="#252C32" stroke-width="0.8"/>
<path d="M15.2 3H11.8C11.3582 3 11 3.35817 11 3.8V9.2C11 9.64183 11.3582 10 11.8 10H15.2C15.6418 10 16 9.64183 16 9.2V3.8C16 3.35817 15.6418 3 15.2 3Z" stroke="#252C32" stroke-width="0.8" stroke-linecap="round" stroke-linejoin="round"/>
<path d="M12.5 5H14.5M12.5 6.5H14.5M12.5 8H14" stroke="#252C32" stroke-width="0.8" stroke-linecap="round" stroke-linejoin="round"/>
</svg>
