<svg width="50" height="50" viewBox="0 0 50 50" fill="none" xmlns="http://www.w3.org/2000/svg">
<rect width="50" height="50" fill="white"/>
<path d="M28.75 3.5C30.1424 3.5 31.4773 4.05352 32.4619 5.03809C33.4465 6.02265 34 7.35761 34 8.75V11H41.875C42.7034 11 43.375 11.6716 43.375 12.5C43.375 13.3284 42.7034 14 41.875 14H39.625V38.75C39.625 40.1424 39.0715 41.4773 38.0869 42.4619C37.1024 43.4465 35.7674 44 34.375 44H15.625C14.2326 44 12.8977 43.4465 11.9131 42.4619C10.9285 41.4773 10.375 40.1424 10.375 38.75V14H8.125C7.29657 14 6.625 13.3284 6.625 12.5C6.625 11.6716 7.29657 11 8.125 11H16V8.75C16 7.35761 16.5535 6.02265 17.5381 5.03809C18.5227 4.05352 19.8576 3.5 21.25 3.5H28.75ZM13.375 38.75C13.375 39.3467 13.6122 39.9189 14.0342 40.3408C14.4561 40.7628 15.0283 41 15.625 41H34.375C34.9717 41 35.5439 40.7628 35.9658 40.3408C36.3878 39.9189 36.625 39.3467 36.625 38.75V14H13.375V38.75ZM21.25 20.375C22.0784 20.375 22.75 21.0466 22.75 21.875V33.125C22.75 33.9534 22.0784 34.625 21.25 34.625C20.4216 34.625 19.75 33.9534 19.75 33.125V21.875C19.75 21.0466 20.4216 20.375 21.25 20.375ZM28.75 20.375C29.5784 20.375 30.25 21.0466 30.25 21.875V33.125C30.25 33.9534 29.5784 34.625 28.75 34.625C27.9216 34.625 27.25 33.9534 27.25 33.125V21.875C27.25 21.0466 27.9216 20.375 28.75 20.375ZM21.25 6.5C20.6533 6.5 20.0811 6.73722 19.6592 7.15918C19.2372 7.58114 19 8.15326 19 8.75V11H31V8.75C31 8.15326 30.7628 7.58114 30.3408 7.15918C29.9189 6.73722 29.3467 6.5 28.75 6.5H21.25Z" fill="#EA0101"/>
</svg>
