<svg width="20" height="20" viewBox="0 0 20 20" fill="none" xmlns="http://www.w3.org/2000/svg">
<path d="M9.58333 10.2033C12.1146 10.2033 14.1667 8.15129 14.1667 5.61999C14.1667 3.08868 12.1146 1.03665 9.58333 1.03665C7.05203 1.03665 5 3.08868 5 5.61999C5 8.15129 7.05203 10.2033 9.58333 10.2033Z" fill="black"/>
<path fill-rule="evenodd" clip-rule="evenodd" d="M14.5833 11.615C12.945 11.615 11.615 12.945 11.615 14.5833C11.615 16.2217 12.945 17.5525 14.5833 17.5525C16.2217 17.5525 17.5525 16.2217 17.5525 14.5833C17.5525 12.945 16.2217 11.615 14.5833 11.615ZM14.5833 12.865C15.5317 12.865 16.3025 13.635 16.3025 14.5833C16.3025 15.5317 15.5317 16.3025 14.5833 16.3025C13.635 16.3025 12.8642 15.5317 12.8642 14.5833C12.8642 13.635 13.635 12.865 14.5833 12.865Z" fill="black"/>
<path fill-rule="evenodd" clip-rule="evenodd" d="M15.2083 12.2391V10.8333C15.2083 10.4883 14.9283 10.2083 14.5833 10.2083C14.2383 10.2083 13.9583 10.4883 13.9583 10.8333V12.24C13.9583 12.5841 14.2383 12.865 14.5833 12.865C14.9283 12.8641 15.2083 12.5841 15.2083 12.2391Z" fill="black"/>
<path fill-rule="evenodd" clip-rule="evenodd" d="M16.6825 13.3683L17.6767 12.3733C17.9208 12.13 17.9208 11.7333 17.6767 11.49C17.4333 11.2458 17.0367 11.2458 16.7933 11.49L15.7983 12.4841C15.555 12.7283 15.555 13.1241 15.7983 13.3683C16.0425 13.6116 16.4383 13.6116 16.6825 13.3683Z" fill="black"/>
<path fill-rule="evenodd" clip-rule="evenodd" d="M16.9267 15.2083H18.3333C18.6783 15.2083 18.9583 14.9283 18.9583 14.5833C18.9583 14.2383 18.6783 13.9583 18.3333 13.9583H16.9267C16.5825 13.9583 16.3025 14.2383 16.3025 14.5833C16.3017 14.9283 16.5825 15.2083 16.9267 15.2083Z" fill="black"/>
<path fill-rule="evenodd" clip-rule="evenodd" d="M15.7983 16.6825L16.7933 17.6766C17.0367 17.9208 17.4333 17.9208 17.6767 17.6766C17.9208 17.4333 17.9208 17.0366 17.6767 16.7933L16.6825 15.7983C16.4383 15.555 16.0425 15.555 15.7983 15.7983C15.555 16.0425 15.555 16.4383 15.7983 16.6825Z" fill="black"/>
<path fill-rule="evenodd" clip-rule="evenodd" d="M13.9583 16.9266V18.3333C13.9583 18.6783 14.2383 18.9583 14.5833 18.9583C14.9283 18.9583 15.2083 18.6783 15.2083 18.3333V16.9266C15.2083 16.5825 14.9283 16.3025 14.5833 16.3016C14.2383 16.3016 13.9583 16.5825 13.9583 16.9266Z" fill="black"/>
<path fill-rule="evenodd" clip-rule="evenodd" d="M12.4842 15.7983L11.49 16.7933C11.2458 17.0366 11.2458 17.4333 11.49 17.6766C11.7333 17.9208 12.13 17.9208 12.3733 17.6766L13.3683 16.6825C13.6117 16.4383 13.6117 16.0425 13.3683 15.7983C13.1242 15.555 12.7283 15.555 12.4842 15.7983Z" fill="black"/>
<path fill-rule="evenodd" clip-rule="evenodd" d="M12.2391 13.9583H10.8333C10.4883 13.9583 10.2083 14.2383 10.2083 14.5833C10.2083 14.9283 10.4883 15.2083 10.8333 15.2083H12.2391C12.5841 15.2083 12.8649 14.9283 12.8641 14.5833C12.8641 14.2383 12.5841 13.9583 12.2391 13.9583Z" fill="black"/>
<path fill-rule="evenodd" clip-rule="evenodd" d="M13.3683 12.4841L12.3733 11.49C12.13 11.2458 11.7333 11.2458 11.49 11.49C11.2458 11.7333 11.2458 12.13 11.49 12.3733L12.4842 13.3683C12.7283 13.6116 13.1242 13.6116 13.3683 13.3683C13.6117 13.1241 13.6117 12.7283 13.3683 12.4841Z" fill="black"/>
<path fill-rule="evenodd" clip-rule="evenodd" d="M10.78 18.13C10.335 17.5583 10.375 16.7292 10.9008 16.2042L11.0625 16.0417H10.8333C10.0283 16.0417 9.37496 15.3883 9.37496 14.5833C9.37496 13.7783 10.0283 13.125 10.8333 13.125H11.0625L10.9008 12.9625C10.3541 12.4167 10.3325 11.5425 10.8358 10.97C10.4275 10.9383 10.0091 10.9217 9.58329 10.9217C6.81496 10.9217 4.36413 11.6142 2.84246 12.6517C1.68163 13.4433 1.04163 14.4492 1.04163 15.505V16.7133C1.04163 17.0892 1.19079 17.45 1.45663 17.715C1.72246 17.9808 2.08246 18.13 2.45829 18.13H10.78Z" fill="black"/>
</svg>
