<svg width="16" height="16" viewBox="0 0 16 16" fill="none" xmlns="http://www.w3.org/2000/svg">
<path d="M7.97348 14.6667H1.99336C1.62657 14.6667 1.32891 14.368 1.32891 14V2.00002C1.32891 1.63202 1.6266 1.33337 1.99336 1.33337H7.97348C8.34092 1.33337 8.63792 1.03538 8.63792 0.666715C8.63792 0.298053 8.34092 0 7.97348 0H1.99336C0.894349 0 0 0.897356 0 2.00002V14C0 15.1027 0.894349 16 1.99336 16H7.97348C8.34092 16 8.63792 15.702 8.63792 15.3333C8.63792 14.9647 8.34092 14.6667 7.97348 14.6667Z" fill="#252C32"/>
<path d="M15.8021 7.52494L11.7622 3.52494C11.5017 3.26627 11.0805 3.26962 10.8227 3.53162C10.5649 3.79361 10.5675 4.21561 10.8293 4.47428L13.7164 7.33293H5.98011C5.61268 7.33293 5.31567 7.63092 5.31567 7.99958C5.31567 8.36825 5.61268 8.66627 5.98011 8.66627H13.7164L10.8293 11.5249C10.5675 11.7836 10.5655 12.2056 10.8227 12.4676C10.9529 12.5996 11.1243 12.6662 11.2958 12.6662C11.4646 12.6662 11.6333 12.6023 11.7622 12.4742L15.8021 8.47422C15.9284 8.3489 16.0001 8.17821 16.0001 7.99955C16.0001 7.82096 15.929 7.65096 15.8021 7.52494Z" fill="#252C32"/>
</svg>
