<svg width="17" height="18" viewBox="0 0 17 18" fill="none" xmlns="http://www.w3.org/2000/svg">
<path d="M8.02051 10.3818C11.2646 10.3819 13.8846 13.1227 13.8848 16.4893C13.8848 16.7536 13.7631 16.9222 13.6211 17.0205C13.4871 17.1132 13.3421 17.1391 13.2852 17.1465L13.2803 17.1475L13.2598 17.1494L13.25 17.1504H13.2412L13.2158 17.1494H13.2119C13.0571 17.1413 12.9159 17.0756 12.8105 16.9746V16.9736C12.7006 16.8769 12.6153 16.7318 12.6064 16.5273V16.5264C12.6052 16.5102 12.6055 16.4958 12.6055 16.4893C12.6053 13.8403 10.5465 11.7032 8.02051 11.7031H6.71387C4.18795 11.7034 2.13002 13.8404 2.12988 16.4893C2.12988 16.7945 1.96763 16.9679 1.80664 17.0566C1.72963 17.099 1.65388 17.1224 1.59863 17.1348C1.57093 17.1409 1.54741 17.1443 1.53027 17.1465C1.52163 17.1476 1.5141 17.1489 1.50879 17.1494H1.49902L1.49023 17.1504C1.3246 17.1504 1.1739 17.0844 1.06152 16.9795C0.948523 16.8828 0.860613 16.7357 0.851562 16.5273L0.852539 16.5264C0.85126 16.5102 0.849609 16.4958 0.849609 16.4893C0.849744 13.1228 3.46988 10.3821 6.71387 10.3818H8.02051Z" fill="#252C32" stroke="#252C32" stroke-width="0.3"/>
<path d="M7.36768 0.849609C10.2493 0.849786 12.5786 3.2877 12.5786 6.27637C12.5786 9.26508 10.2493 11.7029 7.36768 11.7031C4.48587 11.7031 2.15576 9.26518 2.15576 6.27637C2.15581 3.28759 4.4859 0.849609 7.36768 0.849609ZM7.36768 2.1709C5.20397 2.1709 3.43608 4.00511 3.43604 6.27637C3.43604 8.54767 5.20394 10.3818 7.36768 10.3818C9.53126 10.3817 11.2993 8.54756 11.2993 6.27637C11.2993 4.00522 9.53124 2.17108 7.36768 2.1709Z" fill="#252C32" stroke="#252C32" stroke-width="0.3"/>
<path fill-rule="evenodd" clip-rule="evenodd" d="M13.8784 8.29903L12.8989 9.32028C12.7584 9.46597 12.7166 9.68588 12.7924 9.87652C12.8682 10.0672 13.0471 10.1917 13.245 10.1917H16.5103C16.7806 10.1917 17.0001 9.96298 17.0001 9.68112C17.0001 9.39925 16.7806 9.17049 16.5103 9.17049H14.4277L14.5707 9.02071C14.762 8.82191 14.762 8.49783 14.5707 8.29903C14.38 8.09954 14.0691 8.09954 13.8784 8.29903Z" fill="#252C32"/>
<path fill-rule="evenodd" clip-rule="evenodd" d="M13.2449 12.2341H15.3275L15.1845 12.3839C14.9932 12.5827 14.9932 12.9068 15.1845 13.1056C15.3752 13.3051 15.6861 13.3051 15.8768 13.1056L16.8563 12.0844C16.9967 11.9387 17.0385 11.7187 16.9628 11.5281C16.887 11.3375 16.7081 11.2129 16.5102 11.2129H13.2449C12.9746 11.2129 12.7551 11.4417 12.7551 11.7235C12.7551 12.0054 12.9746 12.2341 13.2449 12.2341Z" fill="#252C32"/>
</svg>
