<svg width="20" height="20" viewBox="0 0 20 20" fill="none" xmlns="http://www.w3.org/2000/svg">
<path d="M17.7084 9.99999H7.41258M3.77841 9.99999H2.29175M3.77841 9.99999C3.77841 9.51818 3.96981 9.0561 4.3105 8.71541C4.6512 8.37472 5.11327 8.18332 5.59508 8.18332C6.07689 8.18332 6.53897 8.37472 6.87966 8.71541C7.22035 9.0561 7.41175 9.51818 7.41175 9.99999C7.41175 10.4818 7.22035 10.9439 6.87966 11.2846C6.53897 11.6253 6.07689 11.8167 5.59508 11.8167C5.11327 11.8167 4.6512 11.6253 4.3105 11.2846C3.96981 10.9439 3.77841 10.4818 3.77841 9.99999ZM17.7084 15.5058H12.9184M12.9184 15.5058C12.9184 15.9877 12.7266 16.4503 12.3858 16.7911C12.045 17.1319 11.5828 17.3233 11.1009 17.3233C10.6191 17.3233 10.157 17.1311 9.81634 16.7904C9.47565 16.4497 9.28425 15.9876 9.28425 15.5058M12.9184 15.5058C12.9184 15.0239 12.7266 14.5621 12.3858 14.2214C12.045 13.8806 11.5828 13.6892 11.1009 13.6892C10.6191 13.6892 10.157 13.8806 9.81634 14.2212C9.47565 14.5619 9.28425 15.024 9.28425 15.5058M9.28425 15.5058H2.29175M17.7084 4.49416H15.1209M11.4867 4.49416H2.29175M11.4867 4.49416C11.4867 4.01235 11.6781 3.55027 12.0188 3.20958C12.3595 2.86889 12.8216 2.67749 13.3034 2.67749C13.542 2.67749 13.7782 2.72448 13.9986 2.81578C14.219 2.90707 14.4193 3.04089 14.588 3.20958C14.7567 3.37827 14.8905 3.57854 14.9818 3.79895C15.0731 4.01936 15.1201 4.25559 15.1201 4.49416C15.1201 4.73272 15.0731 4.96896 14.9818 5.18937C14.8905 5.40977 14.7567 5.61004 14.588 5.77873C14.4193 5.94743 14.219 6.08124 13.9986 6.17254C13.7782 6.26383 13.542 6.31082 13.3034 6.31082C12.8216 6.31082 12.3595 6.11943 12.0188 5.77873C11.6781 5.43804 11.4867 4.97597 11.4867 4.49416Z" stroke="#252C32" stroke-width="1.25" stroke-miterlimit="10" stroke-linecap="round"/>
</svg>
