<svg width="20" height="20" viewBox="0 0 20 20" fill="none" xmlns="http://www.w3.org/2000/svg">
<path d="M15.8332 18.6833H4.1665C2.4415 18.6833 1.0415 17.2833 1.0415 15.5583V8.52497C1.0415 7.5083 1.5415 6.54997 2.37484 5.96663L8.20817 1.8833C9.28317 1.1333 10.7248 1.1333 11.7915 1.8833L17.6248 5.96663C18.4582 6.54997 18.9582 7.5083 18.9582 8.52497V15.5583C18.9582 17.2833 17.5582 18.6833 15.8332 18.6833ZM9.99984 2.56663C9.62484 2.56663 9.24984 2.6833 8.92484 2.9083L3.0915 6.99163C2.5915 7.34163 2.2915 7.91663 2.2915 8.52497V15.5583C2.2915 16.5916 3.13317 17.4333 4.1665 17.4333H15.8332C16.8665 17.4333 17.7082 16.5916 17.7082 15.5583V8.52497C17.7082 7.91663 17.4082 7.34163 16.9082 6.99163L11.0748 2.9083C10.7498 2.6833 10.3748 2.57497 9.99984 2.57497V2.56663Z" fill="#00A9DF"/>
<path d="M13.3332 18.6831H6.6665C6.32484 18.6831 6.0415 18.3998 6.0415 18.0581V13.8914C6.0415 11.7081 7.8165 9.93311 9.99984 9.93311C12.1832 9.93311 13.9582 11.7081 13.9582 13.8914V18.0581C13.9582 18.3998 13.6748 18.6831 13.3332 18.6831ZM7.2915 17.4331H12.7082V13.8914C12.7082 12.3998 11.4915 11.1831 9.99984 11.1831C8.50817 11.1831 7.2915 12.3998 7.2915 13.8914V17.4331Z" fill="#00A9DF"/>
</svg>
