<svg width="16" height="16" viewBox="0 0 16 16" fill="none" xmlns="http://www.w3.org/2000/svg">
<path d="M14.6286 2.31071C14.6284 1.79206 14.2079 1.37164 13.6893 1.37143H2.31071C1.79206 1.37164 1.37164 1.79206 1.37143 2.31071V13.6893C1.37164 14.2079 1.79206 14.6284 2.31071 14.6286H13.6893C14.2079 14.6284 14.6284 14.2079 14.6286 13.6893V2.31071ZM16 13.6893C15.9998 14.9654 14.9654 15.9998 13.6893 16H2.31071C1.03464 15.9998 0.000214359 14.9654 0 13.6893V2.31071C0.000214418 1.03464 1.03464 0.000214418 2.31071 0H13.6893C14.9654 0.00021436 15.9998 1.03464 16 2.31071V13.6893Z" fill="#252C32"/>
<path d="M5 15.3143V0.685714C5 0.307005 5.29485 0 5.65857 0C6.02228 0 6.31714 0.307005 6.31714 0.685714V15.3143C6.31714 15.693 6.02228 16 5.65857 16C5.29485 16 5 15.693 5 15.3143ZM9.68286 15.3143V0.685714C9.68286 0.307104 9.97785 0.000160638 10.3414 0C10.7051 0 11 0.307005 11 0.685714V15.3143C11 15.693 10.7051 16 10.3414 16C9.97785 15.9998 9.68286 15.6929 9.68286 15.3143Z" fill="#252C32"/>
</svg>
