<svg width="18" height="18" viewBox="0 0 18 18" fill="none" xmlns="http://www.w3.org/2000/svg">
<path d="M14.5 4H3.5C2.67157 4 2 4.67157 2 5.5V12.5C2 13.3284 2.67157 14 3.5 14H14.5C15.3284 14 16 13.3284 16 12.5V5.5C16 4.67157 15.3284 4 14.5 4Z" stroke="#252C32" stroke-width="1.5" stroke-linecap="round" stroke-linejoin="round"/>
<path d="M2 6L9 10L16 6" stroke="#252C32" stroke-width="1.5" stroke-linecap="round" stroke-linejoin="round"/>
<path d="M9.02344 6.34961V6.92653" stroke="#252C32" stroke-width="0.5" stroke-linecap="round" stroke-linejoin="round"/>
<path d="M9.02246 7.84961C9.11805 7.84961 9.19531 7.77235 9.19531 7.67676C9.19519 7.58127 9.11797 7.50391 9.02246 7.50391M9.02246 7.84961V7.50391M9.02246 7.84961C8.92698 7.84949 8.84961 7.77227 8.84961 7.67676C8.84973 7.58135 8.92705 7.50403 9.02246 7.50391M9.02246 7.84961V7.50391" fill="#252C32" stroke="#252C32"/>
</svg>
