<svg width="18" height="18" viewBox="0 0 18 18" fill="none" xmlns="http://www.w3.org/2000/svg">
<path d="M12.5 3.5H5.5C4.67157 3.5 4 4.17157 4 5V11C4 11.8284 4.67157 12.5 5.5 12.5H12.5C13.3284 12.5 14 11.8284 14 11V5C14 4.17157 13.3284 3.5 12.5 3.5Z" stroke="#252C32" stroke-width="1.2" stroke-linecap="round" stroke-linejoin="round"/>
<path d="M4 7.5H14" stroke="#252C32" stroke-width="1.2" stroke-linecap="round" stroke-linejoin="round"/>
<path d="M6.5 11.25C6.91421 11.25 7.25 10.9142 7.25 10.5C7.25 10.0858 6.91421 9.75 6.5 9.75C6.08579 9.75 5.75 10.0858 5.75 10.5C5.75 10.9142 6.08579 11.25 6.5 11.25Z" stroke="#252C32" stroke-width="1.2"/>
<path d="M11.5 11.25C11.9142 11.25 12.25 10.9142 12.25 10.5C12.25 10.0858 11.9142 9.75 11.5 9.75C11.0858 9.75 10.75 10.0858 10.75 10.5C10.75 10.9142 11.0858 11.25 11.5 11.25Z" stroke="#252C32" stroke-width="1.2"/>
<path d="M5.5 12.5L4.5 14.5" stroke="#252C32" stroke-width="1.2" stroke-linecap="round" stroke-linejoin="round"/>
<path d="M12.5 12.5L13.5 14.5" stroke="#252C32" stroke-width="1.2" stroke-linecap="round" stroke-linejoin="round"/>
</svg>
