<svg width="18" height="18" viewBox="0 0 18 18" fill="none" xmlns="http://www.w3.org/2000/svg">
<path d="M15 9C15 12.3 12.3 15 9 15C5.7 15 3 12.3 3 9C3 5.7 5.7 3 9 3C11.5 3 13.6 4.5 14.5 6.5" stroke="#252C32" stroke-width="1.2" stroke-linecap="round" stroke-linejoin="round"/>
<path d="M15 3V6.5H11.5" stroke="#252C32" stroke-width="1.2" stroke-linecap="round" stroke-linejoin="round"/>
<path d="M10 7.5C10 7.5 9.5 7 9 7C8.5 7 8 7.5 8 8C8 8.5 8.5 9 9 9C9.5 9 10 9.5 10 10C10 10.5 9.5 11 9 11C8.5 11 8 10.5 8 10.5" stroke="#252C32" stroke-width="1.2" stroke-linecap="round" stroke-linejoin="round"/>
<path d="M9 6.5V7" stroke="#252C32" stroke-width="1.2" stroke-linecap="round" stroke-linejoin="round"/>
<path d="M9 11V11.5" stroke="#252C32" stroke-width="1.2" stroke-linecap="round" stroke-linejoin="round"/>
</svg>
