<svg width="18" height="18" viewBox="0 0 18 18" fill="none" xmlns="http://www.w3.org/2000/svg">
<path d="M7.44828 5.5H4.5C4.22386 5.5 4 5.72386 4 6V12C4 12.2761 4.22386 12.5 4.5 12.5H13.5C13.7761 12.5 14 12.2761 14 12V6C14 5.72386 13.7761 5.5 13.5 5.5H10.8966M7.44828 5.5V7.18732C7.44828 7.51436 7.75706 7.75335 8.07365 7.67135L9.04704 7.41922C9.12927 7.39793 9.21556 7.39793 9.29779 7.41922L10.2712 7.67135C10.5878 7.75335 10.8966 7.51436 10.8966 7.18732V5.5M7.44828 5.5H10.8966" stroke="black" stroke-width="0.8"/>
<path d="M9.24699 8.51342L9.27395 11.0186M9.27395 11.0186L10.5076 9.75258M9.27395 11.0186L8.01332 9.77942" stroke="#252C32" stroke-width="0.8" stroke-linecap="round" stroke-linejoin="round"/>
</svg>
