<svg width="18" height="18" viewBox="0 0 18 18" fill="none" xmlns="http://www.w3.org/2000/svg">
<path d="M12.5 3H5.5C4.67157 3 4 3.67157 4 4.5V14.5C4 15.3284 4.67157 16 5.5 16H12.5C13.3284 16 14 15.3284 14 14.5V4.5C14 3.67157 13.3284 3 12.5 3Z" stroke="#252C32" stroke-width="1.2" stroke-linecap="round" stroke-linejoin="round"/>
<path d="M10.5 1.5H7.5C7.22386 1.5 7 1.72386 7 2V3C7 3.27614 7.22386 3.5 7.5 3.5H10.5C10.7761 3.5 11 3.27614 11 3V2C11 1.72386 10.7761 1.5 10.5 1.5Z" stroke="#252C32" stroke-width="1.2"/>
<path d="M8 8L11 10L8 12V8Z" stroke="#252C32" stroke-width="1.2" stroke-linecap="round" stroke-linejoin="round"/>
</svg>
