<svg width="18" height="18" viewBox="0 0 18 18" fill="none" xmlns="http://www.w3.org/2000/svg">
<path d="M9 15C12.3137 15 15 12.3137 15 9C15 5.68629 12.3137 3 9 3C5.68629 3 3 5.68629 3 9C3 12.3137 5.68629 15 9 15Z" stroke="#252C32" stroke-width="1.2" stroke-linecap="round" stroke-linejoin="round"/>
<path d="M10.5 6.5C10.5 6.5 10 6 9 6C8 6 7.5 6.5 7.5 7.5C7.5 8.5 8 9 9 9C10 9 10.5 9.5 10.5 10.5C10.5 11.5 10 12 9 12C8 12 7.5 11.5 7.5 11.5" stroke="#252C32" stroke-width="1.2" stroke-linecap="round" stroke-linejoin="round"/>
<path d="M9 5.5V6" stroke="#252C32" stroke-width="1.2" stroke-linecap="round" stroke-linejoin="round"/>
<path d="M9 12V12.5" stroke="#252C32" stroke-width="1.2" stroke-linecap="round" stroke-linejoin="round"/>
</svg>
