<svg width="18" height="18" viewBox="0 0 18 18" fill="none" xmlns="http://www.w3.org/2000/svg">
<path d="M13.5 3.7998H4.5C3.67157 3.7998 3 4.47138 3 5.2998V14.2998C3 15.1282 3.67157 15.7998 4.5 15.7998H13.5C14.3284 15.7998 15 15.1282 15 14.2998V5.2998C15 4.47138 14.3284 3.7998 13.5 3.7998Z" stroke="#252C32" stroke-width="1.2" stroke-linecap="round" stroke-linejoin="round"/>
<path d="M3 7.2998H15" stroke="#252C32" stroke-width="1.2" stroke-linecap="round" stroke-linejoin="round"/>
<path d="M6 2.2998V5.2998" stroke="#252C32" stroke-width="1.2" stroke-linecap="round" stroke-linejoin="round"/>
<path d="M12 2.2998V5.2998" stroke="#252C32" stroke-width="1.2" stroke-linecap="round" stroke-linejoin="round"/>
<path d="M9 11.7998C9.55228 11.7998 10 11.3521 10 10.7998C10 10.2475 9.55228 9.7998 9 9.7998C8.44772 9.7998 8 10.2475 8 10.7998C8 11.3521 8.44772 11.7998 9 11.7998Z" fill="#252C32"/>
</svg>
