<svg width="18" height="18" viewBox="0 0 18 18" fill="none" xmlns="http://www.w3.org/2000/svg">
<path d="M2.5 6.2002H10.5V12.2002H2.5V6.2002Z" stroke="#252C32" stroke-width="1.2" stroke-linecap="round" stroke-linejoin="round"/>
<path d="M10.5 8.2002H13.5L15.5 10.2002V12.2002H10.5V8.2002Z" stroke="#252C32" stroke-width="1.2" stroke-linecap="round" stroke-linejoin="round"/>
<path d="M5.5 13.7002C6.32843 13.7002 7 13.0286 7 12.2002C7 11.3718 6.32843 10.7002 5.5 10.7002C4.67157 10.7002 4 11.3718 4 12.2002C4 13.0286 4.67157 13.7002 5.5 13.7002Z" stroke="#252C32" stroke-width="1.2"/>
<path d="M13 13.7002C13.8284 13.7002 14.5 13.0286 14.5 12.2002C14.5 11.3718 13.8284 10.7002 13 10.7002C12.1716 10.7002 11.5 11.3718 11.5 12.2002C11.5 13.0286 12.1716 13.7002 13 13.7002Z" stroke="#252C32" stroke-width="1.2"/>
<path d="M9.5 4.2002L7.5 6.2002L9.5 8.2002" stroke="#252C32" stroke-width="1.2" stroke-linecap="round" stroke-linejoin="round"/>
</svg>
