<svg width="18" height="18" viewBox="0 0 18 18" fill="none" xmlns="http://www.w3.org/2000/svg">
<path d="M12.5 2H5.5C4.67157 2 4 2.67157 4 3.5V14.5C4 15.3284 4.67157 16 5.5 16H12.5C13.3284 16 14 15.3284 14 14.5V3.5C14 2.67157 13.3284 2 12.5 2Z" stroke="#252C32" stroke-width="1.2" stroke-linecap="round" stroke-linejoin="round"/>
<path d="M11.5 4H6.5C6.22386 4 6 4.22386 6 4.5V6.5C6 6.77614 6.22386 7 6.5 7H11.5C11.7761 7 12 6.77614 12 6.5V4.5C12 4.22386 11.7761 4 11.5 4Z" stroke="#252C32" stroke-width="1.2"/>
<path d="M6 10H8" stroke="#252C32" stroke-width="1.2" stroke-linecap="round" stroke-linejoin="round"/>
<path d="M10 10H12" stroke="#252C32" stroke-width="1.2" stroke-linecap="round" stroke-linejoin="round"/>
<path d="M7 13L8.5 14.5L11 12" stroke="#252C32" stroke-width="1.2" stroke-linecap="round" stroke-linejoin="round"/>
</svg>
